<?xml version="1.0" standalone="no"?>
<!DOCTYPE svg PUBLIC "-//W3C//DTD SVG 1.1//EN" "http://www.w3.org/Graphics/SVG/1.1/DTD/svg11.dtd" >
<svg xmlns="http://www.w3.org/2000/svg" xmlns:xlink="http://www.w3.org/1999/xlink" version="1.1">
<metadata>
Created by FontForge 20170731 at Sat Mar 11 23:34:59 2023
 By Aleksey,,,
Copyright (c) 2016 by Stefan Peev, Context Ltd. All rights reserved.
</metadata>
<defs>
<font id="LinguisticsPro-Bold" horiz-adv-x="0" >
  <font-face 
    font-family="Linguistics Pro"
    font-weight="700"
    font-stretch="normal"
    units-per-em="2048"
    panose-1="2 0 8 3 8 0 0 2 0 4"
    ascent="1638"
    descent="-410"
    x-height="1004"
    cap-height="1417"
    bbox="-1024 -772 2832 2341"
    underline-thickness="102"
    underline-position="-614"
    unicode-range="U+000D-FB04"
  />
<missing-glyph horiz-adv-x="1200" 
d="M102 0v1085h996v-1085h-996zM141 152q132 290 414 575q-79 36 -158 51q-146 -250 -256 -626zM713 641q-165 -84 -296.5 -204.5t-260.5 -289.5q363 255 696 375q-74 77 -139 119zM199 147h860q-17 116 -82 207q-204 -27 -415 -83.5t-363 -123.5z" />
    <glyph glyph-name="igrave" unicode="i&#x300;" horiz-adv-x="647" 
d="M-35 1393q0 39 36.5 81t72.5 42q30 0 61.5 -21.5t89.5 -81.5l297 -305l-43 -61l-375 210q-67 37 -103 68.5t-36 67.5zM53 0v78q89 5 111 20.5t22 79.5v602q0 59 -11.5 80.5t-37.5 24.5l-71 10v74l415 59l15 -12v-838q0 -64 22 -79.5t111 -20.5v-78h-576z" />
    <glyph glyph-name="iacute" unicode="&#x456;&#x301;" horiz-adv-x="647" 
d="M117 1108l297 305q58 60 89.5 81.5t61.5 21.5q36 0 72.5 -42t36.5 -81q0 -36 -36 -67.5t-103 -68.5l-375 -210zM53 0v78q89 5 111 20.5t22 79.5v602q0 59 -11.5 80.5t-37.5 24.5l-71 10v74l415 59l15 -12v-838q0 -64 22 -79.5t111 -20.5v-78h-576z" />
    <glyph glyph-name="icircumflex" unicode="i&#x302;" horiz-adv-x="647" 
d="M53 0v78q89 5 111 20.5t22 79.5v602q0 59 -11.5 80.5t-37.5 24.5l-71 10v74l415 59l15 -12v-838q0 -64 22 -79.5t111 -20.5v-78h-576zM-57 1120l293 346q54 64 90 64q33 0 90 -64l293 -346l-50 -55l-256 192q-2 2 -9 6.5t-9.5 6.5t-9 6t-9.5 5.5t-8 4.5t-8.5 4.5t-8 3
t-8 2t-7.5 0.5q-21 0 -78 -39l-256 -192z" />
    <glyph glyph-name="idieresis" unicode="i&#x308;" horiz-adv-x="647" 
d="M-76 1300q0 62 44 108t118 46t118 -46t44 -108t-44 -107.5t-118 -45.5t-118 45.5t-44 107.5zM416 1300q0 62 44 108t118 46t117.5 -46t43.5 -108t-43.5 -107.5t-117.5 -45.5t-118 45.5t-44 107.5zM53 0v78q89 5 111 20.5t22 79.5v602q0 59 -11.5 80.5t-37.5 24.5l-71 10
v74l415 59l15 -12v-838q0 -64 22 -79.5t111 -20.5v-78h-576z" />
    <glyph glyph-name="Aogonek" unicode="A&#x328;" horiz-adv-x="1318" 
d="M393 602h332l-160 531h-6zM-57 0v78q83 5 112 23.5t54 82.5q22 55 51.5 139.5t71 206.5t67.5 197l238 690h258l403 -1241q20 -62 49.5 -79t110.5 -19v-78h-252q-164 -133 -164 -262q1 -60 33.5 -91.5t85.5 -31.5q54 0 100 27l31 -56q-99 -82 -215 -82q-60 0 -105.5 13.5
t-71 33t-41 47.5t-20 51.5t-4.5 49.5q0 86 70 164t180 137h-274v78l118 12q57 5 35 74l-106 340h-398q-80 -260 -98 -342q-10 -34 -2.5 -52.5t39.5 -21.5l123 -10v-78h-479z" />
    <glyph glyph-name="imacron" unicode="i&#x304;" horiz-adv-x="647" 
d="M53 0v78q89 5 111 20.5t22 79.5v602q0 59 -11.5 80.5t-37.5 24.5l-71 10v74l415 59l15 -12v-838q0 -64 22 -79.5t111 -20.5v-78h-576zM20 1202v178h637v-178h-637z" />
    <glyph glyph-name="ibreve" unicode="i&#x306;" horiz-adv-x="647" 
d="M53 0v78q89 5 111 20.5t22 79.5v602q0 59 -11.5 80.5t-37.5 24.5l-71 10v74l415 59l15 -12v-838q0 -64 22 -79.5t111 -20.5v-78h-576zM12 1466h78q1 -18 6.5 -35t22.5 -39.5t42.5 -39t71 -28t105.5 -11.5t105.5 11.5t71 28t42.5 39t22.5 39.5t6.5 35h80q0 -41 -4 -74.5
t-15.5 -73.5t-34.5 -70t-57.5 -55.5t-89.5 -39.5t-125 -14q-85 0 -146.5 20t-96 49.5t-54.5 75.5t-25.5 87t-5.5 95z" />
    <glyph glyph-name="jcircumflex" unicode="j&#x302;" horiz-adv-x="647" 
d="M-25 -412q99 33 148 93q78 99 78 382v717q0 59 -11.5 80.5t-37.5 24.5l-72 10v74l416 59l14 -12v-965q0 -177 -42.5 -290.5t-143.5 -166.5q-133 -69 -340 -69zM-27 1120l293 346q54 64 90 64q33 0 90 -64l293 -346l-49 -55l-256 192q-57 39 -78 39q-20 0 -77 -39
l-256 -192z" />
    <glyph glyph-name="uni01D0" unicode="i&#x30c;" horiz-adv-x="647" 
d="M53 0v78q89 5 111 20.5t22 79.5v602q0 59 -11.5 80.5t-37.5 24.5l-71 10v74l415 59l15 -12v-838q0 -64 22 -79.5t111 -20.5v-78h-576zM-43 1475l49 55l256 -193q57 -39 78 -39t78 39l256 193l49 -55l-293 -347q-56 -63 -90 -63q-37 0 -90 63z" />
    <glyph glyph-name="uni01F0" unicode="j&#x30c;" horiz-adv-x="647" 
d="M-25 -412q99 33 148 93q78 99 78 382v717q0 59 -11.5 80.5t-37.5 24.5l-72 10v74l416 59l14 -12v-965q0 -177 -42.5 -290.5t-143.5 -166.5q-133 -69 -340 -69zM-27 1475l50 55l256 -193q57 -39 77 -39q21 0 78 39l256 193l49 -55l-293 -347q-56 -63 -90 -63q-37 0 -90 63
z" />
    <glyph glyph-name="uniE092" unicode="fb" horiz-adv-x="1927" 
d="M1149 315q0 -59 6.5 -99.5t25 -75.5t54 -52.5t90.5 -17.5q111 0 159 105.5t48 309.5q0 97 -12 168t-31 112t-47 65.5t-55 32t-60 7.5q-121 0 -166 -116q-12 -35 -12 -115v-324zM55 0v78q89 5 111 20.5t22 79.5v723h-129v103h129v59q0 220 123 338.5t363 118.5
q147 0 272 -64l189 64l14 -13v-620q88 68 163 104.5t163 36.5q164 0 273.5 -126.5t109.5 -364.5q0 -135 -28.5 -236t-75.5 -162.5t-118 -99t-146 -51t-169 -13.5q-172 0 -305 70l-111 -70l-65 37v1241q-7 39 -23.5 75.5t-53.5 66.5t-85 30q-26 0 -49.5 -7t-48 -28t-42 -54
t-29 -89t-11.5 -129v-114h211v-103h-211v-723q0 -33 6.5 -52.5t25.5 -29t35.5 -12.5t52.5 -6v-78h-563z" />
    <glyph glyph-name="uniE098" unicode="fh" horiz-adv-x="1968" 
d="M55 0v78q89 5 111 20.5t22 79.5v723h-129v103h129v59q0 219 125 338t365 119q151 0 276 -64l189 64l14 -13v-620q62 39 93 57t79 42t89 33t85 9q157 0 235.5 -84t78.5 -233v-533q0 -64 22 -79.5t111 -20.5v-78h-551v78l43 4q36 3 50.5 18.5t14.5 63.5v516q0 92 -41.5 141
t-119.5 49q-60 0 -103 -28t-65 -72q-21 -44 -21 -121v-485q0 -48 15 -63.5t51 -18.5l43 -4v-78h-527v78l43 4q36 3 51 18.5t15 63.5v1089q-5 29 -16 56.5t-30 54.5t-50 44t-70 17q-28 0 -52 -7t-49 -28t-42.5 -54t-29 -89t-11.5 -129v-114h211v-103h-211v-737
q0 -48 14.5 -63.5t50.5 -18.5l43 -4v-78h-551z" />
    <glyph glyph-name="uniE09A" unicode="fj" horiz-adv-x="1286" 
d="M55 0v78q89 5 111 20.5t22 79.5v723h-129v103h129v51q0 220 123.5 342.5t382.5 122.5q109 0 195.5 -23t136.5 -59t76 -77t26 -81q0 -60 -49 -96.5t-116 -36.5q-31 0 -52 7t-34 23t-19 28.5t-14 35.5q-65 184 -170 184q-23 0 -45 -7.5t-47 -29t-42.5 -56t-29.5 -94.5
t-12 -138v-96h196q141 0 441 24l14 -12v-965q0 -175 -44.5 -289.5t-146.5 -167.5q-133 -69 -344 -69l-8 63q105 34 152 93q82 104 82 382v734q0 66 -15.5 85t-64.5 19h-262v-737q0 -48 14.5 -63.5t50.5 -18.5l43 -4v-78h-551z" />
    <glyph glyph-name="uniE09B" unicode="fk" horiz-adv-x="1867" 
d="M55 0v78q89 5 111 20.5t22 79.5v723h-129v103h129v53q0 217 129.5 340t360.5 123q151 0 276 -64l189 64l14 -13v-950h4l148 209q103 144 127 176q51 62 120 62h297v-66q-120 -26 -216.5 -84.5t-188.5 -146.5l-45 -45q179 -283 360 -486q47 -54 73 -76t58 -34v-66h-184
q-115 0 -182.5 26t-120.5 95q-126 168 -246 399h-4v-342q0 -64 22 -79.5t111 -20.5v-78h-551v78l43 4q36 3 51 18.5t15 63.5v1089q-5 29 -16 56.5t-30 54.5t-50 44t-70 17q-35 0 -65 -14t-58 -46.5t-44.5 -97t-16.5 -155.5v-108h211v-103h-211v-737q0 -48 14.5 -63.5
t50.5 -18.5l43 -4v-78h-551z" />
    <glyph glyph-name="uniE0A9" unicode="&#x17f;b" horiz-adv-x="1896" 
d="M1118 315q0 -59 6.5 -99.5t25 -75.5t54 -52.5t90.5 -17.5q111 0 159 105.5t48 309.5q0 97 -12 168t-31 112t-47 65.5t-55 32t-60 7.5q-121 0 -166 -116q-12 -35 -12 -115v-324zM43 0v78q89 5 111 20.5t22 79.5v885q0 210 124.5 333.5t352.5 123.5q137 0 262 -64l189 64
l14 -13v-620q88 68 163 104.5t163 36.5q164 0 273.5 -126.5t109.5 -364.5q0 -135 -28.5 -236t-75.5 -162.5t-118 -99t-146 -51t-169 -13.5q-172 0 -305 70l-111 -70l-65 37v1241q-7 62 -47 117t-105 55q-31 0 -58 -13t-54.5 -44.5t-43.5 -95.5t-16 -154v-940q0 -35 3.5 -52
t20 -29t42.5 -15t78 -4v-78h-586z" />
    <glyph glyph-name="uniE0AA" unicode="&#x17f;h" horiz-adv-x="1943" 
d="M43 0v78q89 5 111 20.5t22 79.5v885q0 217 124 337t359 120q146 0 271 -64l188 64l15 -13v-620q62 39 93 57t79 42t89 33t85 9q157 0 235 -84t78 -233v-533q0 -64 22 -79.5t111 -20.5v-78h-551v78l43 4q36 3 51 18.5t15 63.5v516q0 92 -42 141t-120 49q-60 0 -103 -28
t-65 -72q-20 -41 -20 -121v-485q0 -48 14.5 -63.5t50.5 -18.5l43 -4v-78h-526v78l43 4q36 3 50.5 18.5t14.5 63.5v1089q-6 39 -22.5 75.5t-53 66.5t-83.5 30q-33 0 -61.5 -13t-56.5 -44.5t-44.5 -95.5t-16.5 -154v-954q0 -48 15 -63.5t51 -18.5l43 -4v-78h-551z" />
    <glyph glyph-name="uniE0AB" unicode="&#x17f;i" horiz-adv-x="1284" 
d="M702 895v74l416 59l15 -12v-838q0 -64 22 -79.5t111 -20.5v-78h-551v78l43 4q36 3 50.5 18.5t14.5 63.5v616q0 59 -11.5 80.5t-37.5 24.5zM43 0v78q89 5 111 20.5t22 79.5v877q0 216 124 340.5t382 124.5q108 0 194.5 -23t137 -59t76.5 -77t26 -81q0 -60 -49.5 -96.5
t-116.5 -36.5q-58 0 -82 24.5t-37 69.5q-60 184 -169 184q-23 0 -45.5 -7.5t-47 -29t-42.5 -56t-30 -94.5t-12 -138v-936q0 -48 15 -63.5t51 -18.5l43 -4v-78h-551z" />
    <glyph glyph-name="uniE0AC" unicode="&#x17f;k" horiz-adv-x="1843" 
d="M43 0v78q89 5 111 20.5t22 79.5v885q0 217 124 337t359 120q146 0 271 -64l188 64l15 -13v-950h4l147 209q103 144 127 176q51 62 121 62h297v-66q-120 -26 -217 -84.5t-189 -146.5l-45 -45q177 -279 361 -486q47 -54 73 -76t58 -34v-66h-184q-115 0 -183 26t-121 95
q-123 163 -245 399h-4v-342q0 -64 22 -79.5t111 -20.5v-78h-551v78l43 4q36 3 50.5 18.5t14.5 63.5v1089q-6 39 -22.5 75.5t-53 66.5t-83.5 30q-33 0 -61.5 -13t-56.5 -44.5t-44.5 -95.5t-16.5 -154v-954q0 -48 15 -63.5t51 -18.5l43 -4v-78h-551z" />
    <glyph glyph-name="uniE0AD" unicode="&#x17f;l" horiz-adv-x="1284" 
d="M43 0v78q89 5 111 20.5t22 79.5v885q0 217 124 337t359 120q146 0 271 -64l188 64l15 -13v-1329q0 -64 22 -79.5t111 -20.5v-78h-551v78l43 4q36 3 50.5 18.5t14.5 63.5v1089q-6 39 -22.5 75.5t-53 66.5t-83.5 30q-33 0 -61.5 -13t-56.5 -44.5t-44.5 -95.5t-16.5 -154
v-954q0 -48 15 -63.5t51 -18.5l43 -4v-78h-551z" />
    <glyph glyph-name="uniE0AE" unicode="&#x17f;&#x17f;" horiz-adv-x="1341" 
d="M721 0v78l43 4q36 3 50.5 18.5t14.5 63.5v913q0 207 102 325t269 118q80 0 141.5 -19t95 -48.5t50 -61t16.5 -62.5q0 -50 -48 -84.5t-101 -34.5q-34 0 -54.5 15.5t-37.5 46.5q-48 90 -71.5 121.5t-47.5 31.5q-20 0 -34.5 -23t-14.5 -61q0 -35 22.5 -160t22.5 -177v-826
q0 -64 25.5 -79.5t135.5 -20.5v-78h-579zM43 0v78q89 5 111 20.5t22 79.5v893q0 203 93 311.5t239 108.5q69 0 126 -20t90 -49.5t51 -61t18 -57.5q0 -52 -44 -83.5t-100 -31.5q-69 0 -88 61q-26 84 -46.5 118t-45.5 34q-37 0 -37 -76q0 -36 26.5 -154.5t26.5 -166.5v-840
q0 -48 15 -63.5t51 -18.5l43 -4v-78h-551z" />
    <glyph glyph-name="uniE0AF" unicode="&#x17f;&#x17f;i" horiz-adv-x="1937" 
d="M1356 895v74l416 59l14 -12v-838q0 -64 22 -79.5t111 -20.5v-78h-551v78l43 4q36 3 51 18.5t15 63.5v616q0 58 -11.5 80t-38.5 25zM721 0v78l43 4q36 3 50.5 18.5t14.5 63.5v891q0 216 124 340.5t382 124.5q108 0 194.5 -23t137 -59t76.5 -77t26 -81q0 -60 -49 -96.5
t-116 -36.5q-58 0 -82 24.5t-37 69.5q-60 184 -170 184q-23 0 -45 -7.5t-47 -29t-42.5 -56t-29.5 -94.5t-12 -138v-936q0 -48 14.5 -63.5t50.5 -18.5l43 -4v-78h-526zM43 0v78q89 5 111 20.5t22 79.5v893q0 203 93 311.5t239 108.5q69 0 126 -20t90 -49.5t51 -61t18 -57.5
q0 -52 -44 -83.5t-100 -31.5q-69 0 -88 61q-26 84 -46.5 118t-45.5 34q-37 0 -37 -76q0 -36 26.5 -154.5t26.5 -166.5v-840q0 -48 15 -63.5t51 -18.5l43 -4v-78h-551z" />
    <glyph glyph-name="uniE0B0" unicode="&#x17f;&#x17f;l" horiz-adv-x="1937" 
d="M721 0v78l43 4q36 3 50.5 18.5t14.5 63.5v899q0 216 124.5 336.5t359.5 120.5q145 0 270 -64l189 64l14 -13v-1329q0 -64 22 -79.5t111 -20.5v-78h-551v78l43 4q36 3 51 18.5t15 63.5v1089q-4 28 -15 56t-30 55t-49 44t-66 17q-33 0 -61.5 -13t-56.5 -44.5t-44 -95.5
t-16 -154v-954q0 -48 14.5 -63.5t50.5 -18.5l43 -4v-78h-526zM43 0v78q89 5 111 20.5t22 79.5v893q0 203 93 311.5t239 108.5q69 0 126 -20t90 -49.5t51 -61t18 -57.5q0 -52 -44 -83.5t-100 -31.5q-69 0 -88 61q-26 84 -46.5 118t-45.5 34q-37 0 -37 -76q0 -36 26.5 -154.5
t26.5 -166.5v-840q0 -48 15 -63.5t51 -18.5l43 -4v-78h-551z" />
    <glyph glyph-name="uniFB00" unicode="ff" horiz-adv-x="1359" 
d="M55 0v78q89 5 111 20.5t22 79.5v723h-129v103h129v67q0 203 93.5 311.5t242.5 108.5q57 0 106 -13t81 -34t55 -46.5t33 -49.5t10 -45q0 -52 -44 -83.5t-99 -31.5q-66 0 -88 61q-30 86 -50.5 119t-44.5 33q-39 0 -39 -76q0 -36 27 -154.5t27 -166.5h350v73q0 207 102 325
t269 118q80 0 141.5 -19t95 -48.5t50 -61t16.5 -62.5q0 -50 -48.5 -84.5t-101.5 -34.5q-34 0 -54.5 15.5t-37.5 46.5q-48 90 -71.5 121.5t-47.5 31.5q-20 0 -34.5 -23t-14.5 -61q0 -35 22.5 -160t22.5 -177h211v-103h-211v-723q0 -64 26 -79.5t136 -20.5v-78h-580v78l43 4
q36 3 51 18.5t15 63.5v737h-350v-737q0 -48 14.5 -63.5t50.5 -18.5l43 -4v-78h-551z" />
    <glyph glyph-name="uniFB01" unicode="fi" horiz-adv-x="1308" 
d="M55 0v78q89 5 111 20.5t22 79.5v723h-129v103h129v51q0 221 124 343t388 122q90 0 165 -15t125 -40t85 -56.5t50.5 -64t15.5 -64.5q0 -60 -49.5 -96.5t-116.5 -36.5q-31 0 -52 7t-34 23t-19 28.5t-14 35.5q-35 99 -78.5 141.5t-97.5 42.5q-32 0 -61 -13.5t-58 -46
t-46 -100.5t-17 -165v-96h204q141 0 441 24l14 -12v-838q0 -64 22 -79.5t111 -20.5v-78h-551v78l43 4q36 3 51 18.5t15 63.5v633q0 66 -15.5 85t-64.5 19h-270v-737q0 -48 14.5 -63.5t50.5 -18.5l43 -4v-78h-551z" />
    <glyph glyph-name="uniFB02" unicode="fl" horiz-adv-x="1308" 
d="M55 0v78q89 5 111 20.5t22 79.5v723h-129v103h129v59q0 219 125 338t365 119q151 0 276 -64l189 64l14 -13v-1329q0 -64 22 -79.5t111 -20.5v-78h-551v78l43 4q36 3 51 18.5t15 63.5v1089q-5 29 -16 56.5t-30 54.5t-50 44t-70 17q-28 0 -52 -7t-49 -28t-42.5 -54t-29 -89
t-11.5 -129v-114h211v-103h-211v-737q0 -48 14.5 -63.5t50.5 -18.5l43 -4v-78h-551z" />
    <glyph glyph-name="uniFB03" unicode="ffi" horiz-adv-x="1968" 
d="M55 0v78q89 5 111 20.5t22 79.5v723h-129v103h129v67q0 203 93.5 311.5t242.5 108.5q57 0 106 -13t81 -34t55 -46.5t33 -49.5t10 -45q0 -52 -44 -83.5t-99 -31.5q-66 0 -88 61q-30 86 -50.5 119t-44.5 33q-39 0 -39 -76q0 -36 27 -154.5t27 -166.5h350v51q0 221 124 343
t388 122q90 0 165 -15t124.5 -40t84.5 -56.5t50.5 -64t15.5 -64.5q0 -60 -49.5 -96.5t-116.5 -36.5q-31 0 -52 7t-34 23.5t-18.5 28.5t-13.5 35q-35 99 -79 141.5t-98 42.5q-32 0 -61 -13.5t-58 -46t-46 -100.5t-17 -165v-96h205q140 0 440 24l15 -12v-838q0 -64 22 -79.5
t111 -20.5v-78h-551v78l43 4q36 3 50.5 18.5t14.5 63.5v633q0 66 -15.5 85t-64.5 19h-270v-737q0 -48 15 -63.5t51 -18.5l43 -4v-78h-527v78l43 4q36 3 51 18.5t15 63.5v737h-350v-737q0 -48 14.5 -63.5t50.5 -18.5l43 -4v-78h-551z" />
    <glyph glyph-name="uniFB04" unicode="ffl" horiz-adv-x="1968" 
d="M55 0v78q89 5 111 20.5t22 79.5v723h-129v103h129v67q0 203 93.5 311.5t242.5 108.5q57 0 106 -13t81 -34t55 -46.5t33 -49.5t10 -45q0 -52 -44 -83.5t-99 -31.5q-66 0 -88 61q-30 86 -50.5 119t-44.5 33q-39 0 -39 -76q0 -36 27 -154.5t27 -166.5h350v59
q0 219 124.5 338t364.5 119q152 0 277 -64l188 64l15 -13v-1329q0 -64 22 -79.5t111 -20.5v-78h-551v78l43 4q36 3 50.5 18.5t14.5 63.5v1089q-5 29 -16 56.5t-30 54.5t-50 44t-70 17q-28 0 -52 -7t-49 -28t-42.5 -54t-29 -89t-11.5 -129v-114h211v-103h-211v-737
q0 -48 15 -63.5t51 -18.5l43 -4v-78h-527v78l43 4q36 3 51 18.5t15 63.5v737h-350v-737q0 -48 14.5 -63.5t50.5 -18.5l43 -4v-78h-551z" />
    <glyph glyph-name="esh_i" unicode="&#x283;i" horiz-adv-x="1394" 
d="M801 0v78q89 5 111 20.5t22 79.5v602q0 59 -11.5 80.5t-37.5 24.5l-72 10v74l416 59l14 -12v-838q0 -64 22 -79.5t111 -20.5v-78h-575zM-80 -328q0 47 45 87t101 40q34 0 66 -31.5t52 -68.5t45 -68.5t47 -31.5t39 19t17 56q0 35 -22.5 164.5t-22.5 181.5v996
q0 112 29.5 202t89 158.5t158 106t229.5 37.5q108 0 194.5 -23t137 -59t76.5 -77t26 -81q0 -60 -49.5 -96.5t-116.5 -36.5q-58 0 -82 24.5t-37 69.5q-31 97 -79.5 140.5t-100.5 43.5q-28 0 -55.5 -18t-53.5 -57t-41.5 -111.5t-15.5 -169.5v-1137q0 -206 -98.5 -317
t-266.5 -111q-82 0 -146 19t-97.5 47t-50.5 54.5t-17 47.5z" />
    <glyph glyph-name="esh_k" unicode="&#x283;k" horiz-adv-x="1953" 
d="M-80 -328q0 47 45 87t101 40q34 0 66 -31.5t52 -68.5t45 -68.5t47 -31.5t39 19t17 56q0 35 -22.5 164.5t-22.5 181.5v996q0 242 121 373t356 131q151 0 276 -64l189 64l14 -13v-950h4l148 209q103 144 127 176q51 62 120 62h297v-66q-120 -26 -216.5 -84.5t-188.5 -146.5
l-45 -45q179 -283 360 -486q47 -54 73 -76t58 -34v-66h-184q-115 0 -182.5 26t-120.5 95q-126 168 -246 399h-4v-342q0 -64 22 -79.5t111 -20.5v-78h-575v78q89 5 111 20.5t22 79.5v1075q-6 39 -23.5 75.5t-56 66.5t-90.5 30q-27 0 -50.5 -10.5t-45.5 -36t-37.5 -65.5
t-25 -102t-9.5 -142v-1137q0 -206 -98.5 -317t-266.5 -111q-82 0 -146 19t-97.5 47t-50.5 54.5t-17 47.5z" />
    <glyph glyph-name="esh_l" unicode="&#x283;l" horiz-adv-x="1394" 
d="M-80 -328q0 47 45 87t101 40q34 0 66 -31.5t52 -68.5t45 -68.5t47 -31.5t39 19t17 56q0 35 -22.5 164.5t-22.5 181.5v996q0 242 121 373t356 131q151 0 276 -64l189 64l14 -13v-1329q0 -64 22 -79.5t111 -20.5v-78h-575v78q89 5 111 20.5t22 79.5v1075q-6 39 -23.5 75.5
t-56 66.5t-90.5 30q-27 0 -50.5 -10.5t-45.5 -36t-37.5 -65.5t-25 -102t-9.5 -142v-1137q0 -206 -98.5 -317t-266.5 -111q-82 0 -146 19t-97.5 47t-50.5 54.5t-17 47.5z" />
    <glyph glyph-name=".notdef" horiz-adv-x="1200" 
d="M102 0v1085h996v-1085h-996zM141 152q132 290 414 575q-79 36 -158 51q-146 -250 -256 -626zM713 641q-165 -84 -296.5 -204.5t-260.5 -289.5q363 255 696 375q-74 77 -139 119zM199 147h860q-17 116 -82 207q-204 -27 -415 -83.5t-363 -123.5z" />
    <glyph glyph-name=".null" 
 />
    <glyph glyph-name="nonmarkingreturn" horiz-adv-x="682" 
 />
    <glyph glyph-name="NULL" 
 />
    <glyph glyph-name="NULL" 
 />
    <glyph glyph-name="CR" unicode="&#xd;" horiz-adv-x="430" 
 />
    <glyph glyph-name="space" unicode=" " horiz-adv-x="430" 
 />
    <glyph glyph-name="exclam" unicode="!" horiz-adv-x="573" 
d="M96 166q0 85 53 137.5t138 52.5t137.5 -52.5t52.5 -137.5t-52.5 -138t-137.5 -53t-138 53t-53 138zM119 1212q-12 81 -6 133.5t47 77.5t127 25q87 0 128 -25t47.5 -77.5t-5.5 -133.5l-105 -763h-131z" />
    <glyph glyph-name="quotedbl" unicode="&#x22;" horiz-adv-x="968" 
d="M152 1290q-16 83 13.5 120.5t121.5 37.5q93 0 122.5 -37t14.5 -121l-90 -456h-94zM545 1290q-16 83 13.5 120.5t121.5 37.5q93 0 122.5 -37t14.5 -121l-90 -456h-94z" />
    <glyph glyph-name="numbersign" unicode="#" horiz-adv-x="1146" 
d="M426 596h229l66 219h-229zM29 449v147h239l66 219h-197v148h242l121 405h155l-120 -405h231l121 405h153l-120 -405h200v-148h-246l-65 -219h203v-147h-246l-133 -449h-156l135 449h-229l-135 -449h-158l135 449h-196z" />
    <glyph glyph-name="dollar" unicode="$" horiz-adv-x="1146" 
d="M623 94q83 0 134.5 51t51.5 140q0 91 -49.5 154.5t-136.5 97.5v-443zM330 1085q0 -70 49 -118t129 -70v377q-78 -4 -128 -58t-50 -131zM78 250q0 61 50.5 104t96.5 43q36 0 56 -15t34 -50q87 -217 193 -238v481l-107 39q-152 58 -236.5 144.5t-84.5 220.5q0 94 33.5 168
t92.5 120.5t135.5 72t166.5 28.5v164h115v-164q96 -2 174.5 -25t124 -57.5t70 -71.5t24.5 -71q0 -45 -31.5 -75.5t-63.5 -40t-57 -9.5q-33 0 -50 13t-28 42q-67 183 -163 201v-422l94 -35q177 -67 266 -161t90 -253q-1 -85 -30 -155t-75 -115t-106 -76t-120 -44t-119 -13
v-213h-115v213q-98 3 -176.5 24t-124 49t-76.5 62.5t-42 62.5t-11 52z" />
    <glyph glyph-name="percent" unicode="%" horiz-adv-x="1816" 
d="M1247 356q0 -156 32 -227.5t97 -71.5q125 0 125 299q0 163 -32.5 231t-92.5 68q-63 0 -96 -68t-33 -231zM1014 356q0 381 362 381q177 0 268 -96t91 -285t-91 -285t-268 -96q-362 0 -362 381zM315 1012q0 -299 127 -299t127 299q0 164 -32.5 231.5t-94.5 67.5
q-61 0 -94 -68t-33 -231zM82 1012q0 189 90.5 285t269.5 96q80 0 133.5 -17t114.5 -53q52 -27 92 -27h295q85 0 117 15t63 61l43 64l97 -68l-881 -1431l-96 75l735 1196h-381q29 -97 29 -196q0 -187 -96.5 -284t-276.5 -97q-170 0 -259 96.5t-89 284.5z" />
    <glyph glyph-name="ampersand" unicode="&#x26;" horiz-adv-x="1531" 
d="M518 1124q0 -142 131 -276q51 40 83 107.5t32 154.5q0 85 -36.5 136.5t-86.5 51.5q-52 0 -87.5 -48.5t-35.5 -125.5zM391 446q0 -139 93.5 -229t226.5 -90q61 0 116 16t82 43q-129 105 -249.5 227.5t-202.5 221.5q-26 -23 -46 -74t-20 -115zM92 381q0 223 289 354
q-117 156 -117 289q0 163 106 266t281 103q155 0 256 -84.5t101 -221.5q0 -62 -22.5 -113.5t-65.5 -90.5t-85.5 -65.5t-101.5 -53.5q143 -166 365 -381q114 142 49 436q42 44 110 68.5t117 19.5q64 -61 64 -180q0 -97 -79.5 -217.5t-170.5 -202.5q219 -215 315 -258l-8 -63
l-94 2q-127 5 -218.5 34t-181.5 95q-197 -142 -440 -142q-129 0 -233.5 45t-170 139t-65.5 222z" />
    <glyph glyph-name="quotesingle" unicode="'" horiz-adv-x="516" 
d="M123 1290q-16 83 13.5 120.5t121.5 37.5q93 0 122.5 -37t14.5 -121l-90 -456h-94z" />
    <glyph glyph-name="parenleft" unicode="(" horiz-adv-x="747" 
d="M203 578q0 77 4.5 150t18.5 159.5t36.5 160.5t60.5 145.5t88 122t122.5 82.5t160.5 34l11 -70q-84 -25 -145.5 -115t-92 -212t-44 -235.5t-13.5 -221.5q0 -68 5.5 -141t18 -158t35 -162t54 -144t78.5 -115t104 -65l-11 -69q-88 2 -160.5 34t-122.5 82.5t-88 122
t-60.5 145.5t-36.5 160.5t-18.5 159.5t-4.5 150z" />
    <glyph glyph-name="parenright" unicode=")" horiz-adv-x="747" 
d="M43 -207q68 19 121.5 84t85.5 148.5t52.5 187.5t28 192.5t7.5 172.5q0 108 -13.5 222t-44 236.5t-92 212t-145.5 113.5l10 70q88 -2 160.5 -34t122.5 -82.5t88.5 -122t60.5 -145.5t36 -160.5t19 -159.5t5 -150t-5 -150t-19 -159.5t-36 -160.5t-60.5 -145.5t-88.5 -122
t-122.5 -82.5t-160.5 -34z" />
    <glyph glyph-name="asterisk" unicode="*" horiz-adv-x="905" 
d="M104 836q-28 41 -18 79.5t55 53.5l201 61q19 5 19 21.5t-21 23.5l-199 68q-47 15 -57 48t22 83q25 37 56.5 43t62.5 -21l144 -133q22 -18 33.5 -8t3.5 37l-44 170q-10 40 15 63t76 23t75.5 -23t14.5 -63l-43 -170q-6 -27 5.5 -37t31.5 8l143 133q33 27 63.5 21t55.5 -43
q33 -50 23 -83t-58 -48l-197 -68q-22 -8 -21 -24t19 -21l199 -61q46 -15 56 -53.5t-19 -79.5q-63 -96 -137 -19l-127 129q-17 18 -30 7.5t-7 -33.5l45 -175q11 -44 -12 -72t-80 -28t-80.5 28t-12.5 72l48 175q6 22 -7 32.5t-30 -6.5l-127 -129q-76 -79 -140 19z" />
    <glyph glyph-name="plus" unicode="+" horiz-adv-x="1228" 
d="M119 430v164h397v410h197v-410h397v-164h-397v-430h-197v430h-397z" />
    <glyph glyph-name="comma" unicode="," horiz-adv-x="573" 
d="M82 -283q123 137 123 267q0 49 -41 118.5t-41 116.5q0 61 40 105.5t111 44.5q82 0 135.5 -64t53.5 -172q0 -216 -320 -475z" />
    <glyph glyph-name="hyphen" unicode="-" horiz-adv-x="802" 
d="M133 416v194h539v-194h-539z" />
    <glyph glyph-name="period" unicode="." horiz-adv-x="573" 
d="M96 166q0 85 53 137.5t138 52.5t137.5 -52.5t52.5 -137.5t-52.5 -138t-137.5 -53t-138 53t-53 138z" />
    <glyph glyph-name="slash" unicode="/" horiz-adv-x="774" 
d="M70 -31l430 1479h205l-431 -1479h-204z" />
    <glyph glyph-name="zero" unicode="0" horiz-adv-x="1146" 
d="M387 684q0 -614 186 -614q187 0 187 614t-187 614q-186 0 -186 -614zM63 684q0 117 16 218t53.5 193t95 157t145.5 103t200 38t200 -38t145.5 -103t95 -157t53.5 -193t16 -218t-16 -218t-53.5 -193t-95 -157t-145.5 -103t-200 -38t-200 38t-145.5 103t-95 157t-53.5 193
t-16 218z" />
    <glyph glyph-name="one" unicode="1" horiz-adv-x="1146" 
d="M209 0v78l139 12q39 3 55.5 20t16.5 64v946q0 54 -15.5 74.5t-56.5 28.5l-127 26v64l490 80l18 -17v-1202q0 -47 16.5 -64t55.5 -20l139 -12v-78h-731z" />
    <glyph glyph-name="two" unicode="2" horiz-adv-x="1146" 
d="M61 37q7 226 392 543q82 68 136 133.5t79.5 126.5t35 110.5t9.5 106.5q0 110 -38.5 175.5t-113.5 65.5q-141 0 -199 -270q-17 -78 -90 -78q-61 0 -117.5 36t-56.5 97q0 133 137.5 221.5t339.5 88.5q101 0 183 -21.5t146 -66.5t99 -121.5t35 -179.5q0 -150 -88 -247.5
t-284 -201.5q-80 -43 -141 -87.5t-97 -86t-55.5 -71t-34.5 -62.5h522q66 0 97.5 21.5t74.5 99.5l72 -11l-82 -358h-932z" />
    <glyph glyph-name="three" unicode="3" horiz-adv-x="1146" 
d="M55 244q0 66 55 107.5t117 41.5q33 0 56.5 -19.5t33.5 -49.5q41 -135 96.5 -194.5t127.5 -59.5q190 0 190 311q0 90 -17 152t-48 92t-64 41.5t-76 11.5q-46 0 -112 -14.5t-84 -14.5q-60 0 -60 84t60 84q18 0 85.5 -14.5t110.5 -14.5q52 0 87.5 30t50 79.5t19.5 86.5t5 75
t-5.5 74t-19.5 76t-45 64.5t-75 24.5q-71 0 -116.5 -57.5t-80.5 -177.5q-22 -72 -86 -72q-49 0 -104.5 34t-55.5 95q0 114 130.5 193.5t312.5 79.5q68 0 129.5 -9t124 -33t107.5 -61.5t73.5 -100.5t28.5 -145q0 -57 -20 -104.5t-48 -77.5t-70 -54t-74.5 -35.5t-72.5 -22.5
v-9q33 -5 66.5 -14t86.5 -35.5t92 -63t68 -102.5t29 -149q0 -193 -140 -297.5t-391 -104.5q-106 0 -192 20.5t-137.5 51.5t-86.5 69t-48 70t-13 58z" />
    <glyph glyph-name="four" unicode="4" horiz-adv-x="1146" 
d="M252 496h346v608h-4q-210 -347 -342 -608zM39 416q298 509 602 952h246v-872h205v-142h-205v-200q0 -62 53 -68l96 -8v-78h-628v78l137 10q53 3 53 66v200h-520z" />
    <glyph glyph-name="five" unicode="5" horiz-adv-x="1146" 
d="M88 244q0 63 50.5 106t105.5 43q76 0 100 -78q44 -133 93 -189t118 -56q92 0 137 89.5t45 250.5q0 172 -65 256t-176 84q-146 0 -260 -140l-84 62l41 678l16 18h784l21 -29l-80 -219h-545q-41 0 -52.5 -13.5t-19.5 -66.5l-38 -274q170 117 329 117q105 0 187.5 -29
t131.5 -73.5t81 -105.5t43.5 -118t11.5 -117q0 -98 -27.5 -179t-86 -146.5t-161 -102.5t-241.5 -37q-103 0 -186 21.5t-132.5 52.5t-82.5 69.5t-45.5 70t-12.5 55.5z" />
    <glyph glyph-name="six" unicode="6" horiz-adv-x="1146" 
d="M377 479q0 -114 22 -204.5t71 -147.5t120 -57q100 0 147 89t47 238q0 162 -58 239t-151 77q-91 0 -144.5 -69t-53.5 -165zM61 668q0 268 95 454q142 271 477 271q96 0 174.5 -24.5t125 -63t71 -81t24.5 -83.5q0 -39 -28 -68.5t-62 -42t-64 -12.5q-34 0 -58 18t-32 45
q-59 217 -178 217q-214 0 -227 -585h4q143 168 313 168q81 0 153 -27t128.5 -79t89.5 -135.5t33 -188.5q0 -96 -29.5 -179t-89.5 -151t-162 -107t-235 -39q-523 0 -523 693z" />
    <glyph glyph-name="seven" unicode="7" horiz-adv-x="1146" 
d="M70 1022l88 346h901l26 -25q-24 -142 -87.5 -267t-219.5 -353q-127 -183 -137 -619q-1 -40 -14.5 -67.5t-38 -40t-48.5 -17t-55 -4.5q-37 0 -64 5t-53.5 18t-40.5 41.5t-14 71.5q0 238 287 585q173 209 236 424h-537q-60 0 -87.5 -19t-49.5 -61l-21 -39z" />
    <glyph glyph-name="eight" unicode="8" horiz-adv-x="1146" 
d="M410 1036q0 -112 44.5 -185t118.5 -73q77 0 120.5 72t43.5 186q0 117 -42.5 189.5t-121.5 72.5q-75 0 -119 -73.5t-44 -188.5zM379 381q0 -141 50 -226t144 -85t144.5 85t50.5 226q0 131 -51.5 215t-143.5 84t-143 -84t-51 -215zM55 387q0 134 72 224.5t199 129.5v4
q-100 30 -160 100.5t-60 180.5q0 173 125 270t342 97q221 0 344 -94.5t123 -272.5q0 -110 -59.5 -181t-159.5 -102v-4q128 -38 199.5 -127.5t71.5 -224.5q0 -111 -42 -193t-116.5 -128.5t-164 -68.5t-196.5 -22q-84 0 -158 13.5t-141 44t-115 77t-76 117.5t-28 160z" />
    <glyph glyph-name="nine" unicode="9" horiz-adv-x="1146" 
d="M385 979q0 -134 55.5 -217.5t153.5 -83.5q46 0 82.5 23t56.5 55q25 41 25 131q0 186 -49 298.5t-138 112.5q-88 0 -137 -85.5t-49 -233.5zM70 930q0 131 55.5 234.5t167.5 166t264 62.5q277 0 404 -183q110 -162 110 -489q0 -420 -162 -600q-132 -146 -393 -146
q-108 0 -193 27t-130.5 67t-68 79t-22.5 71q0 60 51 100.5t101 40.5q73 0 94 -65q42 -126 85.5 -173.5t103.5 -47.5q35 0 63 12.5t56.5 50t48.5 99.5t34 167t17 246h-4q-123 -127 -269 -127q-84 0 -157.5 25.5t-131 74.5t-91 128.5t-33.5 179.5z" />
    <glyph glyph-name="colon" unicode=":" horiz-adv-x="573" 
d="M96 813q0 85 53 138t138 53t137.5 -53t52.5 -138t-52.5 -137.5t-137.5 -52.5t-138 52.5t-53 137.5zM96 166q0 85 53 137.5t138 52.5t137.5 -52.5t52.5 -137.5t-52.5 -138t-137.5 -53t-138 53t-53 138z" />
    <glyph glyph-name="semicolon" unicode=";" horiz-adv-x="573" 
d="M82 -283q123 137 123 267q0 49 -41 118.5t-41 116.5q0 61 40 105.5t111 44.5q82 0 135.5 -64t53.5 -172q0 -216 -320 -475zM96 813q0 85 53 138t138 53t137.5 -53t52.5 -138t-52.5 -137.5t-137.5 -52.5t-138 52.5t-53 137.5z" />
    <glyph glyph-name="less" unicode="&#x3c;" horiz-adv-x="1228" 
d="M125 422v170l979 418v-187l-780 -315l780 -313v-185z" />
    <glyph glyph-name="equal" unicode="=" horiz-adv-x="1228" 
d="M119 649v164h991v-164h-991zM119 211v164h991v-164h-991z" />
    <glyph glyph-name="greater" unicode="&#x3e;" horiz-adv-x="1228" 
d="M125 10v185l780 313l-780 315v187l979 -418v-170z" />
    <glyph glyph-name="question" unicode="?" horiz-adv-x="933" 
d="M268 166q0 85 53 137.5t138 52.5t137.5 -52.5t52.5 -137.5t-52.5 -138t-137.5 -53t-138 53t-53 138zM41 1192q0 40 27 83.5t77.5 82.5t135.5 64.5t188 25.5q188 0 303 -77.5t115 -225.5q0 -30 -8 -57.5t-18.5 -48t-32 -41.5t-35 -33t-42 -29.5t-39.5 -23.5t-40 -21
q-75 -39 -113.5 -86t-38.5 -94t35 -78t94 -31q50 0 96 12l23 -55q-149 -100 -309 -100q-119 0 -201 56.5t-82 160.5q0 112 176 219q193 119 193 301q0 70 -22.5 114t-61.5 44q-41 0 -73 -51t-62 -175q-9 -39 -35.5 -57t-75.5 -18q-60 0 -117 38t-57 101z" />
    <glyph glyph-name="at" unicode="@" horiz-adv-x="1705" 
d="M709 518q0 -82 47 -82q36 0 89.5 69.5t96.5 156.5t66 157l73 201q-21 16 -59 16q-62 0 -122.5 -62t-100.5 -147.5t-65 -171t-25 -137.5zM92 629q0 150 47 281.5t129 228.5t192.5 167.5t239.5 106t267 35.5q151 0 277 -47.5t210.5 -129.5t131 -191t46.5 -232
q0 -70 -18 -141.5t-56.5 -139.5t-93 -120.5t-135 -84.5t-174.5 -32q-51 0 -87.5 11.5t-56.5 30t-29 44t-8.5 51.5t7.5 55l25 111l-7 4q-72 -153 -164 -230t-212 -77q-77 0 -120.5 51t-43.5 133q0 36 8.5 82.5t28 104.5t48.5 115t74 111t99 95.5t129 66.5t160 25q54 0 96 -20
l6 12h225q-99 -360 -147 -576q-21 -94 63 -94q51 0 96.5 43t73.5 107t44 131t16 121q0 117 -42 211t-114.5 153.5t-167.5 91t-205 31.5q-131 0 -249.5 -57t-202.5 -152t-133.5 -222.5t-49.5 -264.5q0 -72 16.5 -143.5t58 -146t103.5 -131t162.5 -92.5t225.5 -36
q203 0 372 72l23 -72q-75 -54 -198.5 -82.5t-227.5 -28.5q-157 0 -292 40.5t-240 119.5t-165.5 207.5t-60.5 292.5z" />
    <glyph glyph-name="A" unicode="A" horiz-adv-x="1318" 
d="M393 602h332l-160 531h-6zM-57 0v78q83 5 112 23.5t54 82.5q22 55 51.5 139.5t71 206.5t67.5 197l238 690h258l403 -1241q20 -62 49.5 -79t110.5 -19v-78h-647v78l118 12q57 5 35 74l-106 340h-398q-80 -260 -98 -342q-10 -34 -2.5 -52.5t39.5 -21.5l123 -10v-78h-479z
" />
    <glyph glyph-name="B" unicode="B" horiz-adv-x="1398" 
d="M557 797h100q141 0 209 71.5t68 192.5q0 122 -63 192t-195 70q-68 0 -93.5 -13.5t-25.5 -62.5v-450zM557 227q0 -73 35 -103t113 -30q118 0 188 68.5t70 222.5q0 137 -77 227t-224 90h-105v-475zM68 0v78q109 5 135 24t26 97v1020q0 78 -26 96.5t-135 23.5v78h675
q255 0 389 -80t134 -260q0 -252 -303 -317v-4q74 -11 136.5 -38.5t113 -71.5t79.5 -110.5t29 -148.5q0 -181 -117 -276q-136 -111 -461 -111h-675z" />
    <glyph glyph-name="C" unicode="C" horiz-adv-x="1411" 
d="M86 694q0 343 176 539q193 215 604 215q106 0 232.5 -20.5t208.5 -69.5v-367h-78q-13 42 -22 67.5t-28 68t-37.5 70t-48.5 60.5t-63.5 52t-80.5 32t-101 13q-76 0 -138.5 -27.5t-103 -70t-71 -102.5t-46.5 -116.5t-25.5 -121t-12 -106.5t-2.5 -83q0 -56 3.5 -110t15 -122
t29.5 -126.5t50.5 -116.5t74.5 -98.5t104.5 -65.5t137.5 -25q67 0 122.5 21.5t94.5 55t74 89t58 109t49 129.5h77l-24 -399q-84 -51 -218.5 -75t-260.5 -24q-194 0 -338.5 51t-234 147.5t-133.5 228t-44 298.5z" />
    <glyph glyph-name="D" unicode="D" horiz-adv-x="1591" 
d="M557 184q0 -50 34.5 -70t129.5 -20q47 0 87 6t84 24t79.5 47t68.5 77.5t55 113t35 156.5t13 205q0 296 -105.5 448t-310.5 152q-99 0 -134.5 -11.5t-35.5 -45.5v-1082zM68 0v78q109 5 135 24t26 97v1020q0 78 -26 96.5t-135 23.5v78h702q198 -1 332.5 -44t224.5 -132
q178 -175 178 -518q0 -110 -18.5 -203.5t-48.5 -162t-76.5 -124t-95 -92t-112 -63.5t-118.5 -41.5t-123.5 -23t-119.5 -11t-113 -2.5h-612z" />
    <glyph glyph-name="E" unicode="E" horiz-adv-x="1288" 
d="M68 0v78q109 5 135 24t26 97v1020q0 78 -26 96.5t-135 23.5v78h1103v-379h-77q-15 50 -26 80.5t-26.5 64.5t-30.5 53t-37 38t-49 28.5t-62.5 15t-80.5 5.5h-153q-43 0 -57.5 -15t-14.5 -59v-452h195q95 0 129 34.5t59 149.5h78v-475h-78q-25 115 -59 149.5t-129 34.5
h-195v-446q0 -94 52 -122t200 -28q87 0 142.5 16.5t94.5 68.5t56.5 92.5t52.5 143.5q1 2 1.5 3.5t1 3.5t1.5 4h78l-25 -426h-1144z" />
    <glyph glyph-name="F" unicode="F" horiz-adv-x="1214" 
d="M76 0v78q109 5 135.5 24t26.5 97v1020q0 42 -4 62.5t-23.5 34t-47.5 17.5t-87 6v78h1087v-379h-78q-18 58 -30.5 91t-31 70.5t-38.5 56.5t-50 36.5t-69 24t-92 6.5h-137q-43 0 -57.5 -15t-14.5 -59v-491h234q95 0 129 34.5t59 149.5h78v-475h-78q-25 115 -59 149.5
t-129 34.5h-234v-452q0 -42 4.5 -62.5t27.5 -34.5t57.5 -18t107.5 -6v-78h-686z" />
    <glyph glyph-name="G" unicode="G" horiz-adv-x="1486" 
d="M86 698q0 67 7.5 131t29.5 141t56.5 142.5t94 129t136.5 108t189.5 71.5t248.5 27q303 0 469 -90v-373h-78q-24 75 -52.5 133.5t-73 115.5t-109.5 88.5t-146 31.5q-74 0 -135 -24.5t-102.5 -63.5t-73.5 -94t-50 -111t-29.5 -120t-15 -114.5t-3.5 -101.5q0 -43 2 -85
t11 -111t24 -128t44.5 -124t69.5 -110t102 -74.5t138 -29.5q104 0 137 19t33 74v288q0 41 -4 60.5t-24.5 33.5t-51.5 18.5t-96 8.5v78h618v-78q-40 -4 -59.5 -8.5t-34 -17.5t-18 -32.5t-3.5 -57.5v-381q-105 -46 -241 -72.5t-256 -26.5q-308 0 -478 113q-276 184 -276 616z
" />
    <glyph glyph-name="H" unicode="H" horiz-adv-x="1652" 
d="M68 0v78q109 5 135 24t26 97v1020q0 78 -26 96.5t-135 23.5v78h651v-78q-59 -2 -87 -6t-47.5 -17.5t-23.5 -34t-4 -62.5v-422h539v422q0 42 -4 62.5t-23.5 34t-47.5 17.5t-87 6v78h651v-78q-59 -2 -87 -6t-47.5 -17.5t-23.5 -34t-4 -62.5v-1020q0 -78 26.5 -97t135.5 -24
v-78h-651v78q109 5 135.5 24t26.5 97v499h-539v-499q0 -78 26.5 -97t135.5 -24v-78h-651z" />
    <glyph glyph-name="I" unicode="I" horiz-adv-x="786" 
d="M68 0v78q109 5 135 24t26 97v1020q0 78 -26 96.5t-135 23.5v78h651v-78q-59 -2 -87 -6t-47.5 -17.5t-23.5 -34t-4 -62.5v-1020q0 -78 26.5 -97t135.5 -24v-78h-651z" />
    <glyph glyph-name="J" unicode="J" horiz-adv-x="790" 
d="M12 -170q56 18 91.5 39t66.5 57q80 90 80 373v920q0 42 -4 62.5t-23.5 34t-47.5 17.5t-87 6v78h651v-78q-109 -5 -135 -23.5t-26 -96.5v-926q0 -180 -49 -292t-164 -167q-149 -70 -340 -67z" />
    <glyph glyph-name="K" unicode="K" horiz-adv-x="1447" 
d="M68 0v78q109 5 135 24t26 97v1020q0 78 -26 96.5t-135 23.5v78h651v-78q-59 -2 -87 -6t-47.5 -17.5t-23.5 -34t-4 -62.5v-484l215 248q103 118 238 291q41 50 -13 57l-86 12v74h557v-74q-89 -7 -133 -23.5t-102 -59.5q-51 -39 -109 -92t-86.5 -81.5t-112 -117.5
t-104.5 -111q92 -153 226.5 -341t257.5 -329q88 -102 147 -116l21 -6v-78l-140 4q-132 4 -213.5 27t-144 74t-133.5 151q-66 95 -97 140.5t-82.5 130t-101.5 179.5h-4v-495q0 -78 26.5 -97t135.5 -24v-78h-651z" />
    <glyph glyph-name="L" unicode="L" horiz-adv-x="1198" 
d="M68 0v78q109 5 135 24t26 97v1020q0 78 -26 96.5t-135 23.5v78h675v-78q-47 -2 -73.5 -3.5t-50 -7t-33.5 -12.5t-18 -21.5t-9.5 -31t-1.5 -44.5v-975q0 -95 46 -122.5t181 -27.5q54 0 95 6.5t72.5 28t50.5 37t41 59.5t31 67.5t32 86.5l12 33h78l-25 -412h-1103z" />
    <glyph glyph-name="M" unicode="M" horiz-adv-x="1880" 
d="M53 0v78l72 10q35 4 52 29.5t22 79.5q10 90 10 319v703q0 42 -4 62.5t-23.5 34t-47.5 17.5t-87 6v78h541q27 -88 108 -301l244 -629h6l174 480q33 90 94 262.5t66 187.5h532v-78q-109 -5 -135 -23.5t-26 -96.5v-1020q0 -78 26 -97t135 -24v-78h-634v78q109 5 135 24
t26 97v1015h-6l-428 -1177h-123l-440 1177h-6v-698q0 -226 10 -319q5 -55 24.5 -80.5t61.5 -28.5l111 -10v-78h-490z" />
    <glyph glyph-name="N" unicode="N" horiz-adv-x="1513" 
d="M57 0v78l72 10q35 4 52 29.5t22 79.5q10 90 10 319v703q0 42 -4 62.5t-23.5 34t-47.5 17.5t-87 6v78h486q141 -218 645 -975h8v459q0 227 -10 320q-5 55 -24.5 80t-61.5 28l-115 10v78h494v-78l-72 -10q-35 -5 -52.5 -29.5t-21.5 -78.5q-10 -90 -10 -320v-901h-225
q-366 572 -744 1143h-8v-627q0 -226 10 -319q5 -55 24.5 -80.5t61.5 -28.5l115 -10v-78h-494z" />
    <glyph glyph-name="O" unicode="O" horiz-adv-x="1572" 
d="M449 709q0 -60 3 -114.5t12 -121.5t24 -123t41 -110.5t60 -92.5t84.5 -61t112.5 -23t113 23.5t85.5 61t60.5 92.5t41 110.5t23.5 122.5t11.5 121.5t3 114.5t-3 114.5t-11.5 121.5t-23.5 122.5t-41 110t-60.5 92.5t-85.5 61t-113 23q-337 0 -337 -645zM86 709
q0 354 176.5 546.5t523.5 192.5t524 -192.5t177 -546.5t-177 -547t-524 -193t-523.5 193t-176.5 547z" />
    <glyph glyph-name="P" unicode="P" horiz-adv-x="1331" 
d="M557 745q0 -55 25 -71.5t90 -16.5q60 0 106.5 20.5t75 53t46.5 78t25 91t7 95.5q0 167 -71 247.5t-183 80.5q-75 0 -98 -15.5t-23 -60.5v-502zM68 0v78q109 5 135 24t26 97v1020q0 78 -26 96.5t-135 23.5v78h634q272 0 400 -78q79 -48 126.5 -134t47.5 -204
q0 -220 -158 -335q-142 -103 -438 -103h-123v-364q0 -42 4.5 -62.5t27.5 -35t57.5 -19t107.5 -8.5v-74h-686z" />
    <glyph glyph-name="Q" unicode="Q" horiz-adv-x="1572" 
d="M449 709q1 -68 4 -124.5t12.5 -125t24 -122.5t40.5 -107t60 -88t84 -57t112 -22t112 21.5t84.5 57t60 88.5t40.5 107t24 122.5t12.5 125t4.5 124.5q-1 64 -4.5 119t-12.5 123t-24 122.5t-41 108.5t-60 90.5t-84 59t-112 22.5t-112 -22.5t-84 -59t-60 -90.5t-40.5 -108.5
t-24 -123t-12.5 -123t-4 -118.5zM86 709q0 354 176.5 546.5t523.5 192.5t524 -192.5t177 -546.5q0 -287 -117.5 -470.5t-347.5 -242.5q38 -70 123 -158q66 -69 135 -104t115 -35h22l13 -49q-76 -45 -213 -45q-88 0 -169.5 25t-141.5 63.5t-110.5 89t-82 99t-49.5 95.5
q-285 32 -431.5 221.5t-146.5 510.5z" />
    <glyph glyph-name="R" unicode="R" horiz-adv-x="1400" 
d="M557 745h102q273 0 273 293q0 149 -66 217t-178 68q-80 0 -105.5 -18t-25.5 -62v-498zM68 0v78q109 5 135 24t26 97v1020q0 78 -26 96.5t-135 23.5v78h710q274 0 396 -106q102 -94 102 -260q0 -132 -96 -225t-250 -113v-4q61 -15 107 -42t73.5 -57t48 -75.5t30 -83
t19.5 -95.5q27 -159 101 -233q42 -42 96 -45v-78h-152q-161 0 -238 45.5t-114 159.5q-15 46 -27 99t-23 110.5t-15 77.5q-19 83 -63.5 121t-121.5 38h-94v-452q0 -78 26.5 -97t135.5 -24v-78h-651z" />
    <glyph glyph-name="S" unicode="S" horiz-adv-x="1148" 
d="M86 463h76q57 -188 163 -294t226 -106q104 0 168 57t65 167q0 98 -66 170t-206 131q-46 20 -80 35.5t-79 40.5t-77.5 49t-67 58.5t-55.5 71.5t-35 84.5t-14 100.5q0 189 130.5 304.5t379.5 115.5q238 0 383 -90v-336h-73q-41 171 -123.5 251.5t-188.5 80.5
q-93 0 -153 -57.5t-60 -151.5q0 -38 12.5 -71t38 -60.5t51 -48.5t66 -42t68 -33.5t70.5 -29.5q67 -28 113 -51.5t102 -63.5t90.5 -84t58 -109.5t23.5 -143.5q0 -67 -15.5 -127t-54.5 -118t-98 -99.5t-152.5 -67.5t-212.5 -27q-120 0 -245.5 30.5t-196.5 96.5z" />
    <glyph glyph-name="T" unicode="T" horiz-adv-x="1277" 
d="M31 1032v385h1216v-385h-78q-50 148 -76 192q-44 73 -123 91q-36 8 -85 8h-82v-1128q0 -58 16 -82t64 -27l116 -8v-78h-720v78l116 8q48 3 64 27t16 82v1128h-82q-68 0 -110.5 -12.5t-75 -57t-47.5 -80.5t-47 -130q-3 -7 -4 -11h-78z" />
    <glyph glyph-name="U" unicode="U" horiz-adv-x="1609" 
d="M59 1339v78h639v-78q-57 -2 -83.5 -6t-45 -17.5t-22.5 -34t-4 -62.5v-787q0 -369 262 -369q137 0 199.5 94t62.5 275v787q0 42 -4 62.5t-22.5 34t-45.5 17.5t-84 6v78h639v-78q-57 -2 -83.5 -6t-45 -17.5t-22.5 -34t-4 -62.5v-758q-3 -259 -150.5 -375.5t-439.5 -116.5
q-310 0 -450 114.5t-140 377.5v758q0 42 -4 62.5t-22.5 34t-45.5 17.5t-84 6z" />
    <glyph glyph-name="V" unicode="V" horiz-adv-x="1320" 
d="M-33 1339v78h621v-78l-99 -10q-33 -3 -39.5 -22.5t5.5 -51.5l307 -950h10q21 60 90 277t80 252q83 260 123 428q9 32 1.5 48t-36.5 19l-115 10v78h476v-78q-86 -6 -114.5 -26t-59.5 -94q-68 -176 -179 -504l-243 -715h-258l-414 1235q-21 65 -49 83t-107 21z" />
    <glyph glyph-name="W" unicode="W" horiz-adv-x="1910" 
d="M-20 1343v74h587v-74l-94 -14q-31 -3 -41 -22q-5 -16 4 -56l234 -925h4l254 1060h227l270 -1060h9l116 460q85 347 103 459q4 25 3 42t-11 27t-31 13l-117 16v74h469v-74q-85 -11 -111 -29.5t-47 -88.5q-63 -198 -147 -514l-191 -711h-260l-252 958h-6l-241 -958h-258
l-181 684q-126 472 -153 561q-18 57 -41 74t-98 24z" />
    <glyph glyph-name="X" unicode="X" horiz-adv-x="1298" 
d="M-39 0v78q98 6 130.5 22t82.5 82q32 42 78 109t79 116.5t95.5 143t83.5 125.5q-161 272 -340 559q-28 46 -47.5 64.5t-46.5 26.5t-88 13v78h624v-78l-86 -10q-60 -9 -22 -72l205 -337h4q20 32 57.5 90t59 92t48.5 80t46 84q27 52 -21 59l-88 14v78h477v-78
q-83 -5 -122.5 -21.5t-84.5 -72.5q-154 -191 -305 -424q60 -96 187.5 -303.5t195.5 -316.5q47 -77 81.5 -98t129.5 -25v-78h-688v78l105 12q61 8 28 68l-239 403h-9q-170 -278 -227 -403q-29 -66 33 -72l119 -8v-78h-535z" />
    <glyph glyph-name="Y" unicode="Y" horiz-adv-x="1263" 
d="M-25 1339v78h648v-78l-111 -12q-54 -7 -29 -67l252 -560h6q28 64 83.5 182.5t96.5 209.5t64 153q29 76 -31 82l-106 12v78h493v-78q-85 -9 -121 -29.5t-71 -80.5q-111 -195 -297 -572q-37 -76 -37 -145v-313q0 -42 4.5 -62.5t27.5 -34.5t57.5 -18t107.5 -6v-78h-721v78
q49 2 77.5 4t53 7.5t35.5 12t19 21.5t9.5 31t1.5 45v293q0 53 -43 141l-297 590q-35 71 -64 90.5t-108 25.5z" />
    <glyph glyph-name="Z" unicode="Z" horiz-adv-x="1257" 
d="M0 45q292 437 834 1278h-261q-127 0 -199 -28t-112 -92t-65 -187h-78v401h1093l27 -43q-610 -924 -838 -1280h330q75 0 131 8t98.5 28.5t70.5 43.5t53 66.5t40.5 82t38.5 105.5h78l-24 -428h-1190z" />
    <glyph glyph-name="bracketleft" unicode="[" horiz-adv-x="686" 
d="M252 -262v1679h379v-69l-123 -15q-39 -4 -51.5 -26t-12.5 -70v-1319q0 -48 12.5 -70t51.5 -26l123 -15v-69h-379z" />
    <glyph glyph-name="backslash" unicode="\" horiz-adv-x="776" 
d="M70 1448h204l433 -1479h-205z" />
    <glyph glyph-name="bracketright" unicode="]" horiz-adv-x="686" 
d="M55 -193l123 15q39 4 51.5 26t12.5 70v1319q0 48 -12.5 70t-51.5 26l-123 15v69h379v-1679h-379v69z" />
    <glyph glyph-name="asciicircum" unicode="^" horiz-adv-x="1228" 
d="M115 440l403 928h203l393 -928h-213l-283 699l-290 -699h-213z" />
    <glyph glyph-name="underscore" unicode="_" horiz-adv-x="1024" 
d="M0 -154h1024v-102h-1024v102z" />
    <glyph glyph-name="grave" unicode="`" horiz-adv-x="880" 
d="M82 1393q0 39 36 81t72 42q30 0 62 -22t90 -81l297 -305l-43 -61l-375 210q-67 37 -103 68.5t-36 67.5z" />
    <glyph glyph-name="a" unicode="a" horiz-adv-x="1114" 
d="M399 307q0 -79 44.5 -125.5t107.5 -46.5q50 0 87 32t40 107v297q-15 -7 -52 -23t-70.5 -31.5t-61.5 -31.5q-48 -28 -71.5 -68.5t-23.5 -109.5zM84 272q0 92 50 154t167 102q19 6 80.5 26.5t91.5 31t76.5 28t77 32t51.5 28.5v108q0 81 -34 116.5t-85 35.5t-96 -43
t-84 -162q-27 -82 -84 -82q-31 0 -71.5 12t-76.5 43.5t-36 73.5q0 104 133.5 178t351.5 74q75 0 135 -9.5t99.5 -24.5t68 -39.5t44 -47t24 -54.5t10.5 -56t2 -56v-473q0 -134 65 -153q46 -15 99 -11l6 -67q-60 -24 -145 -43t-158 -19q-67 0 -101 31t-59 88q-2 -2 -36 -24.5
t-44.5 -28.5t-42.5 -23t-53 -23.5t-53.5 -13t-63.5 -6.5q-147 0 -228 86.5t-81 210.5z" />
    <glyph glyph-name="b" unicode="b" horiz-adv-x="1239" 
d="M461 315q0 -73 8 -114q11 -60 53.5 -95.5t114.5 -35.5q111 0 159 105.5t48 309.5q0 97 -12 168t-31 112t-47 65.5t-55 32t-60 7.5q-121 0 -166 -116q-12 -35 -12 -115v-324zM31 1391v73l415 56l15 -13v-620q88 68 162.5 104.5t162.5 36.5q164 0 273.5 -126.5
t109.5 -364.5q0 -135 -28.5 -236t-75.5 -162.5t-117.5 -99t-145.5 -51t-169 -13.5q-172 0 -305 70l-111 -70l-65 37v1260q0 58 -11.5 79.5t-38.5 26.5z" />
    <glyph glyph-name="c" unicode="c" horiz-adv-x="1011" 
d="M70 494q0 258 139 397q137 137 379 137q96 0 183.5 -25t147.5 -78t60 -122q0 -62 -53.5 -94.5t-116.5 -32.5q-77 0 -98 72q-28 98 -59 142t-83 44q-71 0 -122.5 -99.5t-51.5 -291.5q0 -115 21.5 -198t60 -127.5t83 -64.5t97.5 -20q87 0 149.5 42.5t113.5 143.5l71 -32
q-98 -312 -440 -312q-222 0 -351.5 133.5t-129.5 385.5z" />
    <glyph glyph-name="d" unicode="d" horiz-adv-x="1239" 
d="M395 524q0 -191 60 -291t163 -100q47 0 80 15.5t49.5 43t23.5 56.5t7 63v422q0 90 -16 121q-39 80 -139 80q-97 0 -162.5 -100t-65.5 -310zM70 483q0 269 153 412q142 133 383 133q105 0 172 -27v271q0 58 -11 79.5t-38 26.5l-72 13v73l416 56l14 -13v-1329
q0 -63 22.5 -79t111.5 -21v-78h-443v102q-79 -63 -157.5 -95t-139.5 -32q-192 0 -301.5 140t-109.5 368z" />
    <glyph glyph-name="e" unicode="e" horiz-adv-x="1062" 
d="M395 614h254q36 0 50 14t14 54q0 42 -5.5 81t-20 80t-45.5 66t-75 25q-48 0 -83 -28.5t-53.5 -77t-27 -102t-8.5 -112.5zM70 502q0 89 17 165.5t55 143.5t95.5 114.5t143.5 75t194 27.5q113 0 199 -29t134 -72t77.5 -103t39 -112.5t9.5 -109.5q0 -48 -26 -67t-84 -19
h-529q0 -84 14.5 -151t45.5 -120.5t85.5 -82.5t129.5 -29q179 0 274 182l74 -41q-116 -299 -447 -299q-111 0 -198 28.5t-143 76.5t-93 116.5t-52 143.5t-15 162z" />
    <glyph glyph-name="f" unicode="f" horiz-adv-x="700" 
d="M55 0v78q89 5 111 20.5t22 79.5v723h-129v103h129v88q0 207 99 317.5t272 110.5q80 0 141.5 -19t95 -48.5t50 -61t16.5 -62.5q0 -50 -48 -84.5t-101 -34.5q-34 0 -54.5 15.5t-37.5 46.5q-48 90 -71.5 121.5t-47.5 31.5q-21 0 -35 -19t-14 -56q0 -35 22.5 -164.5
t22.5 -181.5h211v-103h-211v-723q0 -64 25.5 -79.5t135.5 -20.5v-78h-604z" />
    <glyph glyph-name="g" unicode="g" horiz-adv-x="1091" 
d="M389 686q0 -105 43.5 -170t110.5 -65q70 0 111.5 64t41.5 173q0 122 -43 184t-108 62q-67 0 -111.5 -62.5t-44.5 -185.5zM328 -176q0 -104 76 -164.5t184 -60.5q111 0 182.5 50.5t71.5 153.5q0 89 -72 126.5t-211 37.5q-132 0 -180 -30q-51 -35 -51 -113zM51 -197
q0 48 23.5 84.5t65 58.5t74.5 32.5t75 19.5v4q-72 16 -130.5 72t-58.5 121q0 61 59.5 112t159.5 76v4q-102 16 -175.5 94.5t-73.5 198.5q0 51 13.5 98t48.5 93.5t87.5 80.5t136.5 55t191 21q82 0 161.5 -18.5t131.5 -48.5l256 88l22 -23l-41 -154l-135 -24q21 -27 34 -71
t13 -89q0 -71 -24.5 -128t-66.5 -94.5t-101 -62.5t-124.5 -36t-140.5 -11q-55 0 -94 4q-29 -6 -55.5 -25.5t-26.5 -49.5t34 -50t104 -20h190q67 0 125 -9.5t110.5 -33t89.5 -59t59 -91.5t22 -128q0 -107 -51.5 -187.5t-139.5 -126.5q-70 -38 -167 -57t-175 -19
q-149 0 -261.5 32t-178.5 100.5t-66 166.5z" />
    <glyph glyph-name="h" unicode="h" horiz-adv-x="1292" 
d="M39 0v78q89 5 111 20.5t22 79.5v1094q0 58 -11 79.5t-38 26.5l-72 13v73l416 56l14 -13v-620q62 39 93 57t79 42t89 33t85 9q157 0 235.5 -84t78.5 -233v-533q0 -64 22 -79.5t111 -20.5v-78h-551v78l43 4q36 3 50.5 18.5t14.5 63.5v516q0 92 -41.5 141t-119.5 49
q-60 0 -103 -28t-65 -72q-21 -44 -21 -121v-485q0 -48 15 -63.5t51 -18.5l43 -4v-78h-551z" />
    <glyph glyph-name="i" unicode="i" horiz-adv-x="647" 
d="M53 0v78q89 5 111 20.5t22 79.5v602q0 59 -11.5 80.5t-37.5 24.5l-71 10v74l415 59l15 -12v-838q0 -64 22 -79.5t111 -20.5v-78h-576zM143 1296q0 75 51.5 127t135.5 52q85 0 136.5 -52t51.5 -127t-52.5 -127.5t-135.5 -52.5q-84 0 -135.5 52t-51.5 128z" />
    <glyph glyph-name="j" unicode="j" horiz-adv-x="647" 
d="M-25 -412q99 33 148 93q78 99 78 382v717q0 59 -11.5 80.5t-37.5 24.5l-72 10v74l416 59l14 -12v-965q0 -177 -42.5 -290.5t-143.5 -166.5q-133 -69 -340 -69zM158 1296q0 75 51 127t135 52q85 0 136.5 -52t51.5 -127t-52.5 -127.5t-135.5 -52.5q-84 0 -135 52t-51 128z
" />
    <glyph glyph-name="k" unicode="k" horiz-adv-x="1191" 
d="M39 0v78q89 5 111 20.5t22 79.5v1094q0 58 -11 79.5t-38 26.5l-72 13v73l416 56l14 -13v-950h4l148 209q103 144 127 176q51 62 121 62h297v-66q-120 -26 -217 -84.5t-189 -146.5l-45 -45q179 -283 360 -486q46 -53 73 -75.5t59 -34.5v-66h-185q-115 0 -182.5 26
t-120.5 95q-126 168 -246 399h-4v-342q0 -64 22 -79.5t111 -20.5v-78h-575z" />
    <glyph glyph-name="l" unicode="l" horiz-adv-x="632" 
d="M39 0v78q89 5 111 20.5t22 79.5v1094q0 58 -11 79.5t-38 26.5l-72 13v73l416 56l14 -13v-1329q0 -64 22 -79.5t111 -20.5v-78h-575z" />
    <glyph glyph-name="m" unicode="m" horiz-adv-x="1941" 
d="M53 0v78q89 5 111 20.5t22 79.5v602q0 59 -11.5 80.5t-37.5 24.5l-71 10v74l403 59l27 -141q5 3 40.5 26t42.5 27t38 22.5t42.5 23t39 16t45.5 15t43 7.5t49 4q105 0 173.5 -44t104.5 -110q8 5 55 35.5t70.5 44t67 35t83.5 30.5t80 9q158 0 239 -85t81 -232v-533
q0 -64 22 -79.5t111 -20.5v-78h-551v78l43 4q36 3 51 18.5t15 63.5v510q0 87 -40.5 141.5t-113.5 54.5q-79 0 -131.5 -56t-52.5 -179v-471q0 -48 14.5 -63.5t50.5 -18.5l43 -4v-78h-526v78l43 4q36 3 51 18.5t15 63.5v510q0 88 -38 142t-110 54q-79 0 -134.5 -56t-55.5 -179
v-471q0 -48 14.5 -63.5t50.5 -18.5l43 -4v-78h-551z" />
    <glyph glyph-name="n" unicode="n" horiz-adv-x="1306" 
d="M53 0v78q89 5 111 20.5t22 79.5v602q0 59 -11.5 80.5t-37.5 24.5l-71 10v74l403 59l27 -141q146 87 201 109q77 32 149 32q154 0 230.5 -83t78.5 -232v-535q0 -64 22 -79.5t111 -20.5v-78h-551v78l43 4q36 3 51 18.5t15 63.5v520q-6 186 -162 186q-60 0 -103 -28t-65 -72
q-20 -41 -20 -121v-485q0 -48 14.5 -63.5t50.5 -18.5l43 -4v-78h-551z" />
    <glyph glyph-name="o" unicode="o" horiz-adv-x="1198" 
d="M395 502q0 -432 205 -432t205 432t-205 432t-205 -432zM70 502q0 526 530 526t530 -526q0 -527 -530 -527t-530 527z" />
    <glyph glyph-name="p" unicode="p" horiz-adv-x="1259" 
d="M481 311q0 -63 8 -104q27 -137 162 -137q77 0 125 52t68 141.5t20 221.5q0 96 -12.5 167.5t-31.5 112t-47.5 65t-55 32.5t-58.5 8q-120 0 -163 -122q-15 -43 -15 -113v-324zM39 -393q89 5 111 20.5t22 79.5v1073q0 59 -11.5 80.5t-37.5 24.5l-72 10v74l393 59l37 -141
q92 70 166.5 105.5t171.5 35.5q74 0 139.5 -30.5t118 -90t83 -157t30.5 -220.5q0 -131 -28.5 -229.5t-76 -160t-119.5 -99t-149 -52t-174 -14.5q-99 0 -162 25v-293q0 -64 28 -79.5t142 -20.5v-78h-612v78z" />
    <glyph glyph-name="q" unicode="q" horiz-adv-x="1222" 
d="M395 524q0 -192 59 -291.5t162 -99.5q162 0 162 178v412q0 75 -8 102q-30 109 -145 109q-100 0 -165 -106t-65 -304zM70 481q0 266 151 414q67 65 169.5 99t225.5 34q168 0 287 -63l88 63h96v-1321q0 -63 22.5 -79t111.5 -21v-78h-596v78q104 5 128.5 20.5t24.5 79.5v389
q-136 -121 -293 -121q-191 0 -303 139.5t-112 366.5z" />
    <glyph glyph-name="r" unicode="r" horiz-adv-x="901" 
d="M53 0v78q89 5 111 20.5t22 79.5v602q0 59 -11.5 80.5t-37.5 24.5l-71 10v74l399 59l24 -180q95 100 153 140t120 40q65 0 104 -38.5t39 -104.5q0 -73 -33 -117q-18 -24 -46 -38.5t-58 -14.5q-38 0 -94 33q-72 43 -109 43q-36 0 -52.5 -37t-16.5 -117v-459q0 -64 28 -79
t148 -21v-78h-619z" />
    <glyph glyph-name="s" unicode="s" horiz-adv-x="913" 
d="M78 379h78q42 -134 121 -221.5t176 -87.5q67 0 104 33t37 92q0 121 -205 194q-301 114 -301 316q0 154 108.5 238.5t297.5 84.5q188 0 307 -72v-272h-76q-29 117 -91 183.5t-140 66.5q-60 0 -94.5 -34.5t-34.5 -84.5q0 -57 53 -97.5t153 -76.5q152 -58 225.5 -132.5
t73.5 -199.5q0 -162 -114 -248t-307 -86q-98 0 -195.5 24.5t-151.5 74.5z" />
    <glyph glyph-name="t" unicode="t" horiz-adv-x="757" 
d="M66 901v103h129l180 258h119v-258h213v-103h-213v-584q0 -95 35 -141.5t96 -46.5q65 0 116 21l23 -64q-84 -52 -172.5 -81.5t-153.5 -29.5q-45 0 -88.5 16t-81.5 46.5t-61 83t-23 119.5v661h-118z" />
    <glyph glyph-name="u" unicode="u" horiz-adv-x="1288" 
d="M47 895v74l416 59l14 -12v-656q0 -117 43.5 -170t128.5 -53q63 0 105 28t57 68q16 41 16 115v432q0 59 -11.5 80.5t-37.5 24.5l-71 10v74l415 59l15 -12v-838q0 -64 22 -79.5t111 -20.5v-78h-426l-17 115q-14 -8 -64.5 -39.5t-84 -49t-93 -34.5t-120.5 -17q-59 0 -109 15
t-94 48.5t-69 96t-25 148.5v497q0 59 -11.5 80.5t-37.5 24.5z" />
    <glyph glyph-name="v" unicode="v" horiz-adv-x="1064" 
d="M-16 926v78h542v-78l-75 -11q-27 -3 -33 -16.5t4 -42.5l201 -586h8q142 419 184 578q9 29 1.5 45.5t-34.5 19.5l-88 13v78h424v-78q-65 -5 -90 -20t-51 -68q-71 -141 -148 -355l-178 -483h-225l-160 440q-114 310 -149 396q-20 50 -46.5 68t-86.5 22z" />
    <glyph glyph-name="w" unicode="w" horiz-adv-x="1585" 
d="M-20 926v78h532v-78l-57 -6q-30 -3 -38 -17.5t1 -48.5l155 -563h7l190 713h215l211 -713h8q118 445 137 555q5 32 -1.5 47.5t-32.5 19.5l-88 13v78h423v-78q-76 -6 -100.5 -23.5t-48.5 -79.5q-44 -106 -117 -344l-147 -479h-225l-205 629h-8l-187 -629h-225l-172 543
q-62 194 -98 295q-18 51 -42 66.5t-87 21.5z" />
    <glyph glyph-name="x" unicode="x" horiz-adv-x="1069" 
d="M-31 0v78q82 9 121.5 27.5t87.5 72.5q44 49 234 287q-53 72 -143.5 202t-129.5 183q-31 42 -57.5 55.5t-93.5 20.5v78h532v-78l-47 -8q-18 -3 -20.5 -16t8.5 -28l127 -194h4l123 182q37 52 -10 58l-54 6v78h406v-78q-61 -1 -99.5 -17.5t-76.5 -54.5q-129 -132 -226 -262
q171 -251 291 -414q44 -57 79 -76t101 -24v-78h-569v78l45 6q60 7 27 57l-150 230h-4l-141 -221q-38 -56 16 -62l72 -10v-78h-453z" />
    <glyph glyph-name="y" unicode="y" horiz-adv-x="1073" 
d="M-25 926v78h574v-78l-78 -13q-46 -6 -25 -67q28 -86 63 -182t78 -211.5t66 -178.5h4q18 56 59.5 179.5t71.5 217.5t56 181q14 55 -31 61l-84 13v78h412v-78l-43 -4q-40 -4 -63.5 -33t-53.5 -101q-231 -559 -363 -911q-80 -214 -158 -293.5t-188 -79.5q-63 0 -114.5 36
t-51.5 93q0 59 41.5 112.5t90.5 53.5q24 0 41 -8.5t51 -34.5q38 -30 73 -30q33 0 51 27.5t29 72.5q16 64 -12 135q-158 410 -350 870q-31 75 -78 84z" />
    <glyph glyph-name="z" unicode="z" horiz-adv-x="989" 
d="M-2 43q343 494 592 866h-168q-29 0 -53 -2t-44.5 -8t-35.5 -11t-29 -18.5t-23 -21.5t-18.5 -28t-14.5 -31.5t-12.5 -39t-11.5 -42t-12 -48.5h-80v345h864l23 -41q-293 -421 -592 -869h199q81 0 132 12.5t87.5 47t58 82.5t45.5 133h78l-25 -369h-935z" />
    <glyph glyph-name="braceleft" unicode="{" horiz-adv-x="747" 
d="M152 543v69q30 0 54.5 2t43 8.5t33 11.5t24 17.5t16 20.5t9 27t4 29t0 34.5t-3 37t-4.5 42.5l-21 192q-4 42 -5.5 75t1.5 74.5t13 73t30.5 63t50.5 52t77 33t108 12.5h84v-69q-60 -3 -97 -22t-50.5 -51t-16.5 -75.5t4 -95.5l16 -158q12 -128 13 -144q1 -112 -66 -164
q-47 -37 -133 -54v-13q104 -21 151.5 -70t46 -111.5t-7.5 -138.5q-3 -28 -4 -42l-16 -158q-7 -52 -4 -95.5t16.5 -75.5t50.5 -51t97 -22v-69h-84q-61 0 -108 12.5t-77 33t-50.5 52t-30.5 63t-13 73t-1.5 74.5t5.5 75l21 192q13 116 -25 173t-151 57z" />
    <glyph glyph-name="bar" unicode="|" horiz-adv-x="581" 
d="M193 -512v2048h196v-2048h-196z" />
    <glyph glyph-name="braceright" unicode="}" horiz-adv-x="747" 
d="M82 -193q60 3 97 22t50.5 51t16.5 75.5t-4 95.5l-17 158q-12 127 -12 147q-1 112 69 164q47 34 130 51v13q-104 21 -151.5 70.5t-46.5 112t7 138.5q3 27 4 41l17 158q7 52 4 95.5t-16.5 75.5t-50.5 51t-97 22v69h84q61 0 108 -12.5t77 -33t50.5 -52t30 -63t12.5 -73
t1.5 -74.5t-5.5 -75l-20 -192q-3 -30 -4.5 -42.5t-3 -37t0 -34.5t4 -29t9 -27t16 -20.5t24 -17.5t33 -11.5t43 -8.5t54.5 -2v-69q-113 0 -151 -57t-25 -173l20 -192q4 -42 5.5 -75t-1.5 -74.5t-12.5 -73t-30 -63t-50.5 -52t-77 -33t-108 -12.5h-84v69z" />
    <glyph glyph-name="asciitilde" unicode="~" horiz-adv-x="1228" 
d="M102 381q18 44 34 75.5t45 73.5t60 69t78 46t101 19q77 0 217 -58q133 -59 203 -59q55 0 94.5 32.5t83.5 114.5l110 -57q-24 -58 -49.5 -101t-63.5 -84.5t-90 -64t-116 -22.5q-101 0 -221 59q-49 21 -68 29t-58.5 18t-74.5 10q-51 0 -91.5 -38.5t-78.5 -118.5z" />
    <glyph glyph-name="uni00A0" unicode="&#xa0;" horiz-adv-x="430" 
 />
    <glyph glyph-name="exclamdown" unicode="&#xa1;" horiz-adv-x="569" 
d="M115 -209l104 764h131l103 -764q12 -81 6 -133t-47 -77t-127 -25q-87 0 -128 25t-47.5 77t5.5 133zM96 838q0 85 52 137.5t137 52.5t135 -52t53 -138q0 -84 -51.5 -137.5t-136.5 -53.5q-84 0 -136.5 53.5t-52.5 137.5z" />
    <glyph glyph-name="cent" unicode="&#xa2;" horiz-adv-x="1146" 
d="M393 754q0 -80 10.5 -149.5t33 -133t65 -107t100.5 -57.5v826q-209 -19 -209 -379zM80 694q0 261 137.5 393t388.5 140v162h111v-162q56 -1 119.5 -13.5t125.5 -37t102 -67t40 -95.5q0 -57 -48.5 -89t-105.5 -32q-36 0 -57 18t-37 58q-32 85 -66 122t-73 42v-834
q48 0 89 8.5t83.5 29.5t81 61.5t71.5 99.5l76 -45q-28 -74 -76.5 -129.5t-105 -85.5t-111.5 -44.5t-108 -15.5v-209h-115v209q-117 -1 -208.5 27.5t-149.5 76t-96 115t-53 140.5t-15 157z" />
    <glyph glyph-name="sterling" unicode="&#xa3;" horiz-adv-x="1146" 
d="M43 18l45 129q148 49 223.5 108.5t75.5 145.5q0 90 -61 193h-248v98h192q-1 1 -11.5 21.5t-17 34t-18.5 39.5t-20 48t-16.5 49.5t-12.5 55t-4 53.5q0 81 26 151t77.5 126t139.5 88.5t203 32.5q87 0 158.5 -17.5t115.5 -44.5t74 -61t42 -64t12 -57q0 -55 -53.5 -90
t-106.5 -35q-59 0 -86 63q-52 111 -91.5 161t-90.5 50q-56 0 -95.5 -51t-39.5 -127q0 -90 63 -221q18 -39 54.5 -108t50.5 -97h295v-98h-267q8 -54 8 -84q2 -73 -43 -145t-131 -123v-4h387q51 0 84 16t60 51l49 64l72 -27l-115 -342h-961z" />
    <glyph glyph-name="currency" unicode="&#xa4;" horiz-adv-x="1146" 
d="M303 684q0 -128 77.5 -214.5t192.5 -86.5t193 86.5t78 214.5t-78 214.5t-193 86.5t-192.5 -86.5t-77.5 -214.5zM82 180q-41 45 -38 83t38 67l100 80q-42 48 -65 122.5t-23 151.5t23 151.5t65 122.5l-100 80q-35 29 -38 67t38 83q38 35 80 32t67 -36l78 -101
q49 41 121.5 62.5t144.5 21.5t145 -21.5t122 -62.5l78 101q25 33 67 36t80 -32q41 -45 38 -83t-38 -67l-100 -80q42 -48 65 -122.5t23 -151.5t-23 -151.5t-65 -122.5l100 -80q35 -29 38 -67t-38 -83q-38 -35 -80 -32t-67 36l-78 101q-49 -41 -122 -62.5t-145 -21.5
t-144.5 21.5t-121.5 62.5l-78 -101q-25 -33 -67 -36t-80 32z" />
    <glyph glyph-name="yen" unicode="&#xa5;" horiz-adv-x="1146" 
d="M6 1294v74h578v-80l-97 -10q-14 -1 -21 -6t-7 -14.5t2 -17.5t8 -21l186 -428h4q140 316 177 421q19 64 -39 70l-99 12v74h453v-74l-68 -8q-33 -4 -56.5 -24.5t-45.5 -61.5q-93 -167 -190 -387h260v-98h-301l-15 -45q-8 -27 -8 -133h324v-99h-324v-280q0 -68 45 -72
l119 -12v-74h-629v74l117 12q29 3 38 22t9 50v280h-322v99h322q0 100 -12 129l-23 49h-287v98h244q-154 312 -201 399q-36 65 -86 74z" />
    <glyph glyph-name="brokenbar" unicode="&#xa6;" horiz-adv-x="581" 
d="M193 666v716h196v-716h-196zM193 -358v716h196v-716h-196z" />
    <glyph glyph-name="section" unicode="&#xa7;" horiz-adv-x="1159" 
d="M205 877q0 -92 77 -173.5t263 -181.5q273 -147 348 -286q61 61 61 139q0 181 -307 348q-93 51 -150.5 87t-116.5 91.5t-87 114.5q-33 -16 -60.5 -56.5t-27.5 -82.5zM72 758q0 105 52 207.5t140 167.5q-1 41 10 83t38.5 84.5t68 74.5t105 52.5t143.5 20.5
q118 0 210.5 -51.5t92.5 -122.5q0 -47 -43 -81t-86 -34q-28 0 -45 13t-33 38q-51 78 -88.5 109t-83.5 31q-44 0 -73 -30.5t-29 -70.5q0 -26 6 -46.5t25.5 -51.5t67.5 -67.5t122 -75.5q119 -63 193.5 -114.5t126.5 -112.5t73.5 -129.5t21.5 -159.5q0 -184 -155 -383
q2 -154 -95 -249.5t-284 -95.5q-148 0 -246 58.5t-100 136.5q0 64 41 98.5t90 34.5q34 0 55 -13.5t39 -49.5q47 -95 94 -130.5t103 -35.5q42 0 74 29t32 79q0 32 -10 61t-38.5 67.5t-89 82.5t-151.5 92q-209 110 -291.5 222.5t-82.5 261.5z" />
    <glyph glyph-name="dieresis" unicode="&#xa8;" horiz-adv-x="880" 
d="M33 1300q0 62 44 108t118 46t117.5 -46t43.5 -108t-43.5 -107.5t-117.5 -45.5t-118 45.5t-44 107.5zM524 1300q0 62 44 108t118 46t118 -46t44 -108t-44 -107.5t-118 -45.5t-118 45.5t-44 107.5z" />
    <glyph glyph-name="copyright" unicode="&#xa9;" horiz-adv-x="1638" 
d="M424 713q0 87 25.5 159.5t77 129t136.5 88.5t197 32q183 0 283 -59v-213h-56q-67 207 -213 207q-68 0 -115 -46t-68 -119t-21 -167q0 -154 53 -252t164 -98q42 0 77 18t61.5 53t44.5 68t38 80h55l-22 -221q-49 -30 -125.5 -47t-157.5 -17q-116 0 -201.5 30.5t-135.5 86
t-73.5 127t-23.5 160.5zM244 709q0 -169 77 -309.5t209.5 -221t288.5 -80.5t288.5 80.5t210 221t77.5 309.5q0 127 -45.5 240.5t-123 194t-184 128t-223.5 47.5t-223 -47.5t-183.5 -128t-123 -194t-45.5 -240.5zM74 709q0 151 59 288t158.5 235.5t237.5 157t290 58.5
t290 -58.5t238 -157t159 -235.5t59 -288t-59 -288t-159 -236t-238 -157.5t-290 -58.5t-290 58.5t-237.5 157.5t-158.5 236t-59 288z" />
    <glyph glyph-name="ordfeminine" unicode="&#xaa;" horiz-adv-x="829" 
d="M303 758q0 -52 27 -78.5t59 -26.5q71 0 76 76v170q-78 -14 -110 -36q-51 -36 -52 -105zM57 733q0 108 142 156q138 47 266 86v72q0 43 -21 65.5t-53 22.5q-34 0 -63.5 -24t-57.5 -95q-13 -33 -27 -47.5t-38 -14.5q-45 0 -90 24.5t-45 68.5q0 67 93 114t249 47
q74 0 128 -12.5t83 -30t45.5 -45.5t21 -51.5t4.5 -54.5v-273q0 -67 24 -90.5t89 -21.5l2 -47q-115 -39 -225 -39q-25 0 -43 5t-32.5 20t-19 20.5t-18.5 27.5q-11 -5 -43.5 -23.5t-49 -26t-46.5 -15.5t-60 -8q-104 0 -159.5 56t-55.5 134z" />
    <glyph glyph-name="guillemotleft" unicode="&#xab;" horiz-adv-x="997" 
d="M510 473q-36 41 0 80l356 397l60 -43l-162 -358q-16 -36 0 -74l162 -356l-60 -43zM100 473q-36 41 0 80l357 397l59 -43l-162 -358q-16 -36 0 -74l162 -356l-59 -43z" />
    <glyph glyph-name="logicalnot" unicode="&#xac;" horiz-adv-x="1228" 
d="M119 649v164h991v-618h-197v454h-794z" />
    <glyph glyph-name="uni00AD" unicode="&#xad;" horiz-adv-x="802" 
d="M133 416v194h539v-194h-539z" />
    <glyph glyph-name="registered" unicode="&#xae;" horiz-adv-x="1638" 
d="M752 743h49q71 0 102 39q31 42 31 113q0 73 -33.5 109t-85.5 36q-40 0 -51.5 -8.5t-11.5 -32.5v-256zM453 326v53l55 8q23 3 31 17.5t8 44.5v536q0 29 -8 42.5t-31 16.5l-55 9v53h426q270 0 270 -188q0 -78 -49.5 -131t-132.5 -68v-4q49 -14 79.5 -44t40 -55t22.5 -79
q3 -13 5 -19q22 -93 55 -117q13 -11 50 -22v-53h-113q-85 0 -122.5 21.5t-59.5 70.5q-10 23 -19.5 59t-18 74.5t-12.5 52.5q-10 36 -29 55t-57 19h-36v-229q0 -30 8.5 -44.5t32.5 -17.5l55 -8v-53h-395zM244 709q0 -169 77 -309.5t209.5 -221t288.5 -80.5t288.5 80.5
t210 221t77.5 309.5q0 127 -45.5 240.5t-123 194t-184 128t-223.5 47.5t-223 -47.5t-183.5 -128t-123 -194t-45.5 -240.5zM74 709q0 151 59 288t158.5 235.5t237.5 157t290 58.5t290 -58.5t238 -157t159 -235.5t59 -288t-59 -288t-159 -236t-238 -157.5t-290 -58.5
t-290 58.5t-237.5 157.5t-158.5 236t-59 288z" />
    <glyph glyph-name="macron" unicode="&#xaf;" horiz-adv-x="880" 
d="M123 1202v178h637v-178h-637z" />
    <glyph glyph-name="degree" unicode="&#xb0;" horiz-adv-x="811" 
d="M229 1067q0 -91 51.5 -151t125.5 -60q73 0 124.5 60t51.5 151q0 88 -52.5 147.5t-126.5 59.5q-73 0 -124 -59.5t-50 -147.5zM72 1065q-1 137 96.5 232.5t237.5 95.5q138 0 235.5 -95t97.5 -233t-97.5 -233t-235.5 -95q-140 0 -237 95t-97 233z" />
    <glyph glyph-name="plusminus" unicode="&#xb1;" horiz-adv-x="1228" 
d="M119 0v164h991v-164h-991zM119 610v164h399v350h197v-350h395v-164h-395v-346h-197v346h-399z" />
    <glyph glyph-name="uni00B2" unicode="&#xb2;" horiz-adv-x="823" 
d="M59 856q4 83 70 164t186 172q166 126 166 276q0 56 -18 90.5t-51 34.5q-34 0 -58 -38.5t-43 -120.5q-17 -74 -88 -74q-47 0 -91 28.5t-44 79.5q0 82 91 142.5t235 60.5q151 0 238 -61t87 -183q0 -43 -13 -79.5t-33 -62t-51.5 -49t-60.5 -38.5t-67 -31q-193 -77 -231 -163
h344q35 0 54.5 11.5t43.5 51.5l57 -16l-63 -215h-637z" />
    <glyph glyph-name="uni00B3" unicode="&#xb3;" horiz-adv-x="823" 
d="M51 995q0 52 42.5 87.5t86.5 35.5q63 0 84 -67q53 -152 119 -152q45 0 71.5 44t26.5 126q0 164 -110 164q-26 0 -73.5 -12.5t-59.5 -12.5q-45 0 -45 62q0 65 45 65q12 0 60 -12t73 -12q82 0 82 159q0 52 -18.5 87.5t-55.5 35.5q-55 0 -94 -131q-18 -65 -84 -65
q-44 0 -85 25t-44 71q2 75 87.5 126.5t235.5 51.5q60 0 113 -10.5t99.5 -33.5t74 -65.5t27.5 -99.5q0 -77 -52.5 -121.5t-126.5 -58.5v-6q90 -13 151.5 -70t61.5 -141q0 -51 -18 -92.5t-58.5 -76.5t-114.5 -55t-177 -20q-79 0 -151.5 19t-122.5 59.5t-50 95.5z" />
    <glyph glyph-name="acute" unicode="&#xb4;" horiz-adv-x="880" 
d="M244 1108l297 305q58 60 89.5 81.5t61.5 21.5q36 0 72.5 -42t36.5 -81q0 -36 -36 -67.5t-103 -68.5l-375 -210z" />
    <glyph glyph-name="mu" unicode="&#xb5;" horiz-adv-x="1288" 
d="M47 895v74l416 59l14 -12v-656q0 -117 43.5 -170t128.5 -53q63 0 105 28t57 68q16 41 16 115v432q0 59 -11.5 80.5t-37.5 24.5l-71 10v74l415 59l15 -12v-838q0 -64 22 -79.5t111 -20.5v-78h-426l-17 115q-15 -8 -81.5 -52t-118.5 -66t-105 -22q-108 0 -178 66h-4v-57
q0 -44 18 -102t41 -99q52 -94 52 -127q0 -60 -74 -109q-26 -18 -66 -30.5t-71 -12.5q-36 0 -54 21.5t-18 81.5v1173q0 59 -11.5 80.5t-37.5 24.5z" />
    <glyph glyph-name="paragraph" unicode="&#xb6;" horiz-adv-x="1130" 
d="M498 -143l164 28q26 4 34.5 28t8.5 73v1431h374v-63l-133 -25q-27 -4 -35 -21t-8 -63v-1452h-405v64zM72 952q0 210 131 337.5t364 127.5v-930q-229 0 -362 126.5t-133 338.5z" />
    <glyph glyph-name="periodcentered" unicode="&#xb7;" horiz-adv-x="573" 
d="M96 510q0 85 53 137.5t138 52.5t137.5 -52.5t52.5 -137.5t-52.5 -138t-137.5 -53t-138 53t-53 138z" />
    <glyph glyph-name="cedilla" unicode="&#xb8;" horiz-adv-x="880" 
d="M279 -432q192 0 192 119q0 30 -14 52t-37.5 33t-43 16t-40.5 7l-8 17l116 188h119l-80 -119q30 -4 59.5 -13t64.5 -27.5t57 -53.5t22 -82q0 -52 -23.5 -92t-57 -61.5t-79 -34.5t-80 -17t-69.5 -4q-45 0 -98 6v66z" />
    <glyph glyph-name="uni00B9" unicode="&#xb9;" horiz-adv-x="823" 
d="M154 836v55l77 10q33 5 46.5 20t13.5 54v512q0 35 -11.5 49.5t-37.5 19.5l-84 13v53l360 49l17 -14v-682q0 -39 13 -54t46 -20l78 -10v-55h-518z" />
    <glyph glyph-name="ordmasculine" unicode="&#xba;" horiz-adv-x="874" 
d="M315 1155q0 -123 31.5 -191.5t91.5 -68.5t90.5 68.5t30.5 191.5q0 122 -30.5 190t-90.5 68t-91.5 -68.5t-31.5 -189.5zM57 1155q0 154 92 243t289 89t288 -89t91 -243q0 -156 -91 -245t-288 -89q-198 0 -289.5 89.5t-91.5 244.5z" />
    <glyph glyph-name="guillemotright" unicode="&#xbb;" horiz-adv-x="997" 
d="M72 119l161 356q16 38 0 74l-161 358l59 43l356 -397q36 -39 0 -80l-356 -397zM481 119l162 356q16 38 0 74l-162 358l60 43l356 -397q36 -39 0 -80l-356 -397z" />
    <glyph glyph-name="onequarter" unicode="&#xbc;" horiz-adv-x="1843" 
d="M158 557v55l78 11q33 5 46 19.5t13 53.5v512q0 35 -11.5 50t-37.5 20l-84 12v53l360 50l17 -15v-682q0 -39 13 -53.5t46 -19.5l78 -11v-55h-518zM498 8l731 1415l108 -57l-733 -1421zM1079 291h215v346h-4q-65 -90 -211 -346zM934 244q209 333 399 577h197v-530h137v-101
h-137v-65q0 -34 10.5 -47.5t34.5 -16.5l55 -6v-55h-456v55l75 8q24 3 34.5 16t10.5 46v65h-331z" />
    <glyph glyph-name="onehalf" unicode="&#xbd;" horiz-adv-x="1843" 
d="M1016 20q4 83 70 164t186 172q166 126 166 277q0 56 -18.5 90.5t-51.5 34.5q-34 0 -57.5 -39t-42.5 -121q-17 -74 -88 -74q-47 0 -91.5 29t-44.5 80q0 82 91 142.5t235 60.5q151 0 238.5 -61t87.5 -183q0 -53 -18.5 -95.5t-53.5 -73t-70 -51t-84 -40.5
q-193 -77 -231 -164h344q35 0 54.5 11.5t43.5 51.5l58 -16l-64 -215h-637zM117 557v55l78 11q33 5 46 19.5t13 53.5v512q0 35 -11.5 50t-37.5 20l-84 12v53l360 50l17 -15v-682q0 -39 13 -53.5t46 -19.5l78 -11v-55h-518zM446 8l732 1415l108 -57l-733 -1421z" />
    <glyph glyph-name="threequarters" unicode="&#xbe;" horiz-adv-x="1843" 
d="M72 717q0 52 42.5 87.5t86.5 35.5q63 0 84 -68q53 -151 118 -151q45 0 72 44t27 126q0 163 -111 163q-26 0 -73.5 -12t-59.5 -12q-45 0 -45 61q0 66 45 66q12 0 60 -12.5t73 -12.5q82 0 82 160q0 52 -18.5 87.5t-55.5 35.5q-55 0 -94 -131q-18 -66 -84 -66q-44 0 -85 25
t-44 71q2 75 88 127t236 52q60 0 113 -10.5t99.5 -33.5t73.5 -65.5t27 -99.5q0 -77 -52 -121.5t-126 -58.5v-7q90 -13 151.5 -70t61.5 -141q0 -51 -18 -92.5t-58.5 -76.5t-115 -54.5t-177.5 -19.5q-79 0 -151 19t-122 59.5t-50 95.5zM547 8l731 1415l108 -57l-733 -1421z
M1137 291h215v346h-4q-65 -90 -211 -346zM991 244q205 326 400 577h196v-530h137v-101h-137v-65q0 -34 10.5 -47.5t34.5 -16.5l56 -6v-55h-457v55l76 8q24 3 34.5 16t10.5 46v65h-332z" />
    <glyph glyph-name="questiondown" unicode="&#xbf;" horiz-adv-x="933" 
d="M268 838q0 85 53 137.5t138 52.5t137.5 -52.5t52.5 -137.5t-52.5 -138t-137.5 -53t-138 53t-53 138zM47 -141q0 30 8 57.5t18.5 48t32 41.5t35 33t42 29.5t39.5 23.5t40 21q75 39 113.5 86t38.5 94t-35 77.5t-94 30.5q-51 0 -97 -12l-22 55q151 101 309 101
q119 0 201 -56.5t82 -160.5q0 -112 -176 -219q-193 -119 -193 -302q0 -70 22.5 -113.5t61.5 -43.5q41 0 73 51t62 174q18 76 111 76q60 0 117 -38t57 -101q0 -40 -27 -83.5t-77.5 -82.5t-135.5 -64.5t-188 -25.5q-188 0 -303 77.5t-115 225.5z" />
    <glyph glyph-name="Agrave" unicode="&#xc0;" horiz-adv-x="1318" 
d="M393 602h332l-160 531h-6zM-57 0v78q83 5 112 23.5t54 82.5q22 55 51.5 139.5t71 206.5t67.5 197l238 690h258l403 -1241q20 -62 49.5 -79t110.5 -19v-78h-647v78l118 12q57 5 35 74l-106 340h-398q-80 -260 -98 -342q-10 -34 -2.5 -52.5t39.5 -21.5l123 -10v-78h-479z
M291 1720q0 37 32.5 84t77.5 47q28 0 56 -13t75 -48l353 -252l-29 -65l-416 131q-86 28 -117.5 51t-31.5 65z" />
    <glyph glyph-name="Aacute" unicode="&#xc1;" horiz-adv-x="1318" 
d="M393 602h332l-160 531h-6zM-57 0v78q83 5 112 23.5t54 82.5q22 55 51.5 139.5t71 206.5t67.5 197l238 690h258l403 -1241q20 -62 49.5 -79t110.5 -19v-78h-647v78l118 12q57 5 35 74l-106 340h-398q-80 -260 -98 -342q-10 -34 -2.5 -52.5t39.5 -21.5l123 -10v-78h-479z
M440 1538l353 252q47 35 75 48t56 13q45 0 77.5 -47t32.5 -84q0 -42 -31.5 -65t-117.5 -51l-416 -131z" />
    <glyph glyph-name="Acircumflex" unicode="&#xc2;" horiz-adv-x="1318" 
d="M393 602h332l-160 531h-6zM-57 0v78q83 5 112 23.5t54 82.5q22 55 51.5 139.5t71 206.5t67.5 197l238 690h258l403 -1241q20 -62 49.5 -79t110.5 -19v-78h-647v78l118 12q57 5 35 74l-106 340h-398q-80 -260 -98 -342q-10 -34 -2.5 -52.5t39.5 -21.5l123 -10v-78h-479z
M283 1546l290 258q52 49 93 49q46 0 96 -47l291 -260l-37 -61l-268 123q-58 30 -82 30q-16 0 -78 -30l-266 -123z" />
    <glyph glyph-name="Atilde" unicode="&#xc3;" horiz-adv-x="1318" 
d="M393 602h332l-160 531h-6zM-57 0v78q83 5 112 23.5t54 82.5q22 55 51.5 139.5t71 206.5t67.5 197l238 690h258l403 -1241q20 -62 49.5 -79t110.5 -19v-78h-647v78l118 12q57 5 35 74l-106 340h-398q-80 -260 -98 -342q-10 -34 -2.5 -52.5t39.5 -21.5l123 -10v-78h-479z
M233 1518q15 36 27 61t38 64t53 63t69 42.5t90 18.5q65 0 188 -43q9 -3 39 -12t42.5 -12.5t35 -9t39 -7.5t31.5 -2q55 0 86 25t67 88l66 -37q-15 -36 -27 -61t-38 -64t-53 -63.5t-69 -43t-90 -18.5q-15 0 -31 2t-37 7.5t-34 9.5t-40.5 12.5t-37.5 11.5q-123 43 -194 43
q-55 0 -87 -24.5t-67 -87.5z" />
    <glyph glyph-name="Adieresis" unicode="&#xc4;" horiz-adv-x="1318" 
d="M393 602h332l-160 531h-6zM-57 0v78q83 5 112 23.5t54 82.5q22 55 51.5 139.5t71 206.5t67.5 197l238 690h258l403 -1241q20 -62 49.5 -79t110.5 -19v-78h-647v78l118 12q57 5 35 74l-106 340h-398q-80 -260 -98 -342q-10 -34 -2.5 -52.5t39.5 -21.5l123 -10v-78h-479z
M240 1651q0 62 43.5 107.5t117.5 45.5t118 -45.5t44 -107.5t-44 -108t-118 -46t-117.5 46t-43.5 108zM756 1651q0 62 44 107.5t118 45.5t117.5 -45.5t43.5 -107.5t-43.5 -108t-117.5 -46t-118 46t-44 108z" />
    <glyph glyph-name="Aring" unicode="&#xc5;" horiz-adv-x="1318" 
d="M555 1559q0 -68 30.5 -106t76.5 -38q45 0 75.5 38t30.5 106t-30.5 105.5t-75.5 37.5q-46 0 -76.5 -37.5t-30.5 -105.5zM393 602h332l-160 531h-6zM-57 0v78q83 5 112 23.5t54 82.5q22 55 51.5 139.5t71 206.5t67.5 197l221 639q-102 55 -102 193q0 80 37 133t89.5 73.5
t117.5 20.5q48 0 89.5 -12.5t77 -38t56 -70.5t20.5 -106q0 -135 -96 -191l389 -1192q20 -62 49.5 -79t110.5 -19v-78h-647v78l118 12q57 5 35 74l-106 340h-398q-80 -260 -98 -342q-10 -34 -2.5 -52.5t39.5 -21.5l123 -10v-78h-479z" />
    <glyph glyph-name="AE" unicode="&#xc6;" horiz-adv-x="1800" 
d="M471 797h279v514h-21q-98 -183 -258 -514zM-158 0v78q86 3 121 25.5t70 89.5q99 186 271 531t253 515q21 41 16.5 62t-34.5 24l-131 14v78h1275v-379h-77q-15 50 -26 80.5t-26.5 64.5t-30.5 53t-37 38t-49 28.5t-62.5 15t-80.5 5.5h-153q-43 0 -57.5 -15t-14.5 -59v-452
h195q95 0 129 34.5t59 149.5h78v-475h-78q-25 115 -59 149.5t-129 34.5h-195v-446q0 -94 52 -122t200 -28q87 0 142.5 16.5t94.5 68.5t56.5 92.5t52.5 143.5q1 2 1.5 3.5t1 3.5t1.5 4h78l-25 -426h-1136v78q109 5 135.5 24t26.5 97v491h-330q-155 -337 -227 -520
q-16 -37 -8 -57t44 -23l131 -12v-78h-518z" />
    <glyph glyph-name="Ccedilla" unicode="&#xc7;" horiz-adv-x="1411" 
d="M86 694q0 343 176 539q193 215 604 215q106 0 232.5 -20.5t208.5 -69.5v-367h-78q-13 42 -22 67.5t-28 68t-37.5 70t-48.5 60.5t-63.5 52t-80.5 32t-101 13q-76 0 -138.5 -27.5t-103 -70t-71 -102.5t-46.5 -116.5t-25.5 -121t-12 -106.5t-2.5 -83q0 -56 3.5 -110t15 -122
t29.5 -126.5t50.5 -116.5t74.5 -98.5t104.5 -65.5t137.5 -25q67 0 122.5 21.5t94.5 55t74 89t58 109t49 129.5h77l-24 -399q-77 -46 -195 -70t-235 -27l-58 -84q23 -4 44.5 -9.5t52 -19t52.5 -31.5t38 -47.5t16 -66.5q0 -55 -24.5 -96.5t-59 -63.5t-82 -36t-83.5 -17.5
t-72 -3.5q-47 0 -103 6v68q201 0 201 125q0 36 -27 60t-53 31.5t-53 10.5l-8 17l98 157q-345 20 -511.5 209t-166.5 514z" />
    <glyph glyph-name="Egrave" unicode="&#xc8;" horiz-adv-x="1288" 
d="M68 0v78q109 5 135 24t26 97v1020q0 78 -26 96.5t-135 23.5v78h1103v-379h-77q-15 50 -26 80.5t-26.5 64.5t-30.5 53t-37 38t-49 28.5t-62.5 15t-80.5 5.5h-153q-43 0 -57.5 -15t-14.5 -59v-452h195q95 0 129 34.5t59 149.5h78v-475h-78q-25 115 -59 149.5t-129 34.5
h-195v-446q0 -94 52 -122t200 -28q87 0 142.5 16.5t94.5 68.5t56.5 92.5t52.5 143.5q1 2 1.5 3.5t1 3.5t1.5 4h78l-25 -426h-1144zM270 1720q0 37 33 84t78 47q28 0 56 -13t75 -48l352 -252l-28 -65l-416 131q-86 28 -118 51t-32 65z" />
    <glyph glyph-name="Eacute" unicode="&#xc9;" horiz-adv-x="1288" 
d="M68 0v78q109 5 135 24t26 97v1020q0 78 -26 96.5t-135 23.5v78h1103v-379h-77q-15 50 -26 80.5t-26.5 64.5t-30.5 53t-37 38t-49 28.5t-62.5 15t-80.5 5.5h-153q-43 0 -57.5 -15t-14.5 -59v-452h195q95 0 129 34.5t59 149.5h78v-475h-78q-25 115 -59 149.5t-129 34.5
h-195v-446q0 -94 52 -122t200 -28q87 0 142.5 16.5t94.5 68.5t56.5 92.5t52.5 143.5q1 2 1.5 3.5t1 3.5t1.5 4h78l-25 -426h-1144zM481 1538l353 252q47 35 75 48t56 13q45 0 77.5 -47t32.5 -84q0 -42 -31.5 -65t-117.5 -51l-416 -131z" />
    <glyph glyph-name="Ecircumflex" unicode="&#xca;" horiz-adv-x="1288" 
d="M68 0v78q109 5 135 24t26 97v1020q0 78 -26 96.5t-135 23.5v78h1103v-379h-77q-15 50 -26 80.5t-26.5 64.5t-30.5 53t-37 38t-49 28.5t-62.5 15t-80.5 5.5h-153q-43 0 -57.5 -15t-14.5 -59v-452h195q95 0 129 34.5t59 149.5h78v-475h-78q-25 115 -59 149.5t-129 34.5
h-195v-446q0 -94 52 -122t200 -28q87 0 142.5 16.5t94.5 68.5t56.5 92.5t52.5 143.5q1 2 1.5 3.5t1 3.5t1.5 4h78l-25 -426h-1144zM311 1546l291 258q52 49 92 49q47 0 97 -47l290 -260l-37 -61l-268 123q-58 30 -82 30q-16 0 -78 -30l-266 -123z" />
    <glyph glyph-name="Edieresis" unicode="&#xcb;" horiz-adv-x="1288" 
d="M68 0v78q109 5 135 24t26 97v1020q0 78 -26 96.5t-135 23.5v78h1103v-379h-77q-15 50 -26 80.5t-26.5 64.5t-30.5 53t-37 38t-49 28.5t-62.5 15t-80.5 5.5h-153q-43 0 -57.5 -15t-14.5 -59v-452h195q95 0 129 34.5t59 149.5h78v-475h-78q-25 115 -59 149.5t-129 34.5
h-195v-446q0 -94 52 -122t200 -28q87 0 142.5 16.5t94.5 68.5t56.5 92.5t52.5 143.5q1 2 1.5 3.5t1 3.5t1.5 4h78l-25 -426h-1144zM258 1651q0 62 44 107.5t118 45.5t118 -45.5t44 -107.5t-44 -108t-118 -46t-118 46t-44 108zM774 1651q0 62 44 107.5t118 45.5t118 -45.5
t44 -107.5t-44 -108t-118 -46t-118 46t-44 108z" />
    <glyph glyph-name="Igrave" unicode="&#xcc;" horiz-adv-x="786" 
d="M68 0v78q109 5 135 24t26 97v1020q0 78 -26 96.5t-135 23.5v78h651v-78q-59 -2 -87 -6t-47.5 -17.5t-23.5 -34t-4 -62.5v-1020q0 -78 26.5 -97t135.5 -24v-78h-651zM18 1720q0 37 33 84t78 47q28 0 56 -13t75 -48l352 -252l-28 -65l-416 131q-86 28 -118 51t-32 65z" />
    <glyph glyph-name="Iacute" unicode="&#xcd;" horiz-adv-x="786" 
d="M68 0v78q109 5 135 24t26 97v1020q0 78 -26 96.5t-135 23.5v78h651v-78q-59 -2 -87 -6t-47.5 -17.5t-23.5 -34t-4 -62.5v-1020q0 -78 26.5 -97t135.5 -24v-78h-651zM170 1538l352 252q47 35 75 48t56 13q45 0 78 -47t33 -84q0 -42 -32 -65t-118 -51l-415 -131z" />
    <glyph glyph-name="Icircumflex" unicode="&#xce;" horiz-adv-x="786" 
d="M68 0v78q109 5 135 24t26 97v1020q0 78 -26 96.5t-135 23.5v78h651v-78q-59 -2 -87 -6t-47.5 -17.5t-23.5 -34t-4 -62.5v-1020q0 -78 26.5 -97t135.5 -24v-78h-651zM8 1546l291 258q52 49 92 49q46 0 96 -47l291 -260l-37 -61l-268 123q-58 30 -82 30q-16 0 -78 -30
l-266 -123z" />
    <glyph glyph-name="Idieresis" unicode="&#xcf;" horiz-adv-x="786" 
d="M68 0v78q109 5 135 24t26 97v1020q0 78 -26 96.5t-135 23.5v78h651v-78q-59 -2 -87 -6t-47.5 -17.5t-23.5 -34t-4 -62.5v-1020q0 -78 26.5 -97t135.5 -24v-78h-651zM-27 1651q0 62 44 107.5t118 45.5t118 -45.5t44 -107.5t-44 -108t-118 -46t-118 46t-44 108zM489 1651
q0 62 44 107.5t118 45.5t118 -45.5t44 -107.5t-44 -108t-118 -46t-118 46t-44 108z" />
    <glyph glyph-name="Eth" unicode="&#xd0;" horiz-adv-x="1603" 
d="M569 184q0 -50 34.5 -70t129.5 -20q67 0 122 13t113 53t97 106.5t64.5 182t25.5 270.5q0 297 -105.5 450.5t-310.5 153.5q-99 0 -134.5 -11.5t-35.5 -45.5v-469h291v-99h-291v-514zM72 698v99h170v422q0 42 -4 62.5t-23.5 34t-47.5 17.5t-87 6v78h702q198 -1 332.5 -44
t224.5 -132q179 -176 179 -518q0 -110 -18.5 -203.5t-48.5 -162t-76.5 -124t-95 -92t-112 -63.5t-119 -41.5t-124 -23t-119.5 -11t-113 -2.5h-612v78q109 5 135.5 24t26.5 97v499h-170z" />
    <glyph glyph-name="Ntilde" unicode="&#xd1;" horiz-adv-x="1513" 
d="M57 0v78l72 10q35 4 52 29.5t22 79.5q10 90 10 319v703q0 42 -4 62.5t-23.5 34t-47.5 17.5t-87 6v78h486q141 -218 645 -975h8v459q0 227 -10 320q-5 55 -24.5 80t-61.5 28l-115 10v78h494v-78l-72 -10q-35 -5 -52.5 -29.5t-21.5 -78.5q-10 -90 -10 -320v-901h-225
q-366 572 -744 1143h-8v-627q0 -226 10 -319q5 -55 24.5 -80.5t61.5 -28.5l115 -10v-78h-494zM350 1518q15 36 27 61t38 64t53 63t69 42.5t90 18.5q65 0 188 -43q10 -3 39 -11.5t42 -12.5t35 -9.5t38.5 -7.5t31.5 -2q55 0 86.5 25t67.5 88l66 -37q-15 -36 -27 -61t-38 -64
t-53 -63.5t-69 -43t-90 -18.5q-15 0 -31 2t-37 7.5t-34 9.5t-40.5 12.5t-37.5 11.5q-123 43 -195 43q-55 0 -86 -24.5t-67 -87.5z" />
    <glyph glyph-name="Ograve" unicode="&#xd2;" horiz-adv-x="1572" 
d="M449 709q0 -60 3 -114.5t12 -121.5t24 -123t41 -110.5t60 -92.5t84.5 -61t112.5 -23t113 23.5t85.5 61t60.5 92.5t41 110.5t23.5 122.5t11.5 121.5t3 114.5t-3 114.5t-11.5 121.5t-23.5 122.5t-41 110t-60.5 92.5t-85.5 61t-113 23q-337 0 -337 -645zM86 709
q0 354 176.5 546.5t523.5 192.5t524 -192.5t177 -546.5t-177 -547t-524 -193t-523.5 193t-176.5 547zM408 1720q0 37 32.5 84t77.5 47q28 0 56 -13t75 -48l352 -252l-28 -65l-416 131q-86 28 -117.5 51t-31.5 65z" />
    <glyph glyph-name="Oacute" unicode="&#xd3;" horiz-adv-x="1572" 
d="M449 709q0 -60 3 -114.5t12 -121.5t24 -123t41 -110.5t60 -92.5t84.5 -61t112.5 -23t113 23.5t85.5 61t60.5 92.5t41 110.5t23.5 122.5t11.5 121.5t3 114.5t-3 114.5t-11.5 121.5t-23.5 122.5t-41 110t-60.5 92.5t-85.5 61t-113 23q-337 0 -337 -645zM86 709
q0 354 176.5 546.5t523.5 192.5t524 -192.5t177 -546.5t-177 -547t-524 -193t-523.5 193t-176.5 547zM567 1538l353 252q47 35 75 48t56 13q45 0 77.5 -47t32.5 -84q0 -42 -31.5 -65t-117.5 -51l-416 -131z" />
    <glyph glyph-name="Ocircumflex" unicode="&#xd4;" horiz-adv-x="1572" 
d="M449 709q0 -60 3 -114.5t12 -121.5t24 -123t41 -110.5t60 -92.5t84.5 -61t112.5 -23t113 23.5t85.5 61t60.5 92.5t41 110.5t23.5 122.5t11.5 121.5t3 114.5t-3 114.5t-11.5 121.5t-23.5 122.5t-41 110t-60.5 92.5t-85.5 61t-113 23q-337 0 -337 -645zM86 709
q0 354 176.5 546.5t523.5 192.5t524 -192.5t177 -546.5t-177 -547t-524 -193t-523.5 193t-176.5 547zM401 1546l291 258q52 49 92 49q47 0 97 -47l290 -260l-36 -61l-269 123q-58 30 -82 30q-15 0 -77 -30l-267 -123z" />
    <glyph glyph-name="Otilde" unicode="&#xd5;" horiz-adv-x="1572" 
d="M449 709q0 -60 3 -114.5t12 -121.5t24 -123t41 -110.5t60 -92.5t84.5 -61t112.5 -23t113 23.5t85.5 61t60.5 92.5t41 110.5t23.5 122.5t11.5 121.5t3 114.5t-3 114.5t-11.5 121.5t-23.5 122.5t-41 110t-60.5 92.5t-85.5 61t-113 23q-337 0 -337 -645zM86 709
q0 354 176.5 546.5t523.5 192.5t524 -192.5t177 -546.5t-177 -547t-524 -193t-523.5 193t-176.5 547zM350 1518q15 36 27 61t38 64t53 63t69 42.5t90 18.5q65 0 188 -43q10 -3 39 -11.5t42 -12.5t35 -9.5t38.5 -7.5t31.5 -2q55 0 86.5 25t67.5 88l66 -37q-15 -36 -27 -61
t-38 -64t-53 -63.5t-69 -43t-90 -18.5q-15 0 -31 2t-37 7.5t-34 9.5t-40.5 12.5t-37.5 11.5q-123 43 -195 43q-55 0 -86 -24.5t-67 -87.5z" />
    <glyph glyph-name="Odieresis" unicode="&#xd6;" horiz-adv-x="1572" 
d="M449 709q0 -60 3 -114.5t12 -121.5t24 -123t41 -110.5t60 -92.5t84.5 -61t112.5 -23t113 23.5t85.5 61t60.5 92.5t41 110.5t23.5 122.5t11.5 121.5t3 114.5t-3 114.5t-11.5 121.5t-23.5 122.5t-41 110t-60.5 92.5t-85.5 61t-113 23q-337 0 -337 -645zM86 709
q0 354 176.5 546.5t523.5 192.5t524 -192.5t177 -546.5t-177 -547t-524 -193t-523.5 193t-176.5 547zM367 1651q0 62 43.5 107.5t117.5 45.5t118 -45.5t44 -107.5t-44 -108t-118 -46t-117.5 46t-43.5 108zM883 1651q0 62 43.5 107.5t117.5 45.5t118 -45.5t44 -107.5
t-44 -108t-118 -46t-117.5 46t-43.5 108z" />
    <glyph glyph-name="multiply" unicode="&#xd7;" horiz-adv-x="1228" 
d="M154 166l338 340l-338 340l118 129l342 -344l340 344l121 -129l-338 -340l338 -340l-121 -125l-340 342l-342 -342z" />
    <glyph glyph-name="Oslash" unicode="&#xd8;" horiz-adv-x="1572" 
d="M555 186q83 -123 231 -123q62 0 112 21.5t84.5 57t60 88.5t40.5 107t24 122.5t12.5 125t4.5 124.5q-4 254 -53 403zM449 709q4 -258 49 -398l514 922q-80 121 -226 121q-62 0 -112 -22.5t-84 -59t-60 -90.5t-40.5 -108.5t-24 -123t-12.5 -123t-4 -118.5zM86 709
q0 354 176.5 546.5t523.5 192.5q180 0 316 -53l76 135l96 -53l-74 -131q287 -177 287 -637q0 -354 -177 -547t-524 -193q-187 0 -321 58l-84 -152l-90 64l76 137q-281 181 -281 633z" />
    <glyph glyph-name="Ugrave" unicode="&#xd9;" horiz-adv-x="1609" 
d="M59 1339v78h639v-78q-57 -2 -83.5 -6t-45 -17.5t-22.5 -34t-4 -62.5v-787q0 -369 262 -369q137 0 199.5 94t62.5 275v787q0 42 -4 62.5t-22.5 34t-45.5 17.5t-84 6v78h639v-78q-57 -2 -83.5 -6t-45 -17.5t-22.5 -34t-4 -62.5v-758q-3 -259 -150.5 -375.5t-439.5 -116.5
q-310 0 -450 114.5t-140 377.5v758q0 42 -4 62.5t-22.5 34t-45.5 17.5t-84 6zM401 1720q0 37 33 84t78 47q28 0 56 -13t75 -48l352 -252l-28 -65l-416 131q-86 28 -118 51t-32 65z" />
    <glyph glyph-name="Uacute" unicode="&#xda;" horiz-adv-x="1609" 
d="M59 1339v78h639v-78q-57 -2 -83.5 -6t-45 -17.5t-22.5 -34t-4 -62.5v-787q0 -369 262 -369q137 0 199.5 94t62.5 275v787q0 42 -4 62.5t-22.5 34t-45.5 17.5t-84 6v78h639v-78q-57 -2 -83.5 -6t-45 -17.5t-22.5 -34t-4 -62.5v-758q-3 -259 -150.5 -375.5t-439.5 -116.5
q-310 0 -450 114.5t-140 377.5v758q0 42 -4 62.5t-22.5 34t-45.5 17.5t-84 6zM614 1538l353 252q47 35 75 48t56 13q45 0 77.5 -47t32.5 -84q0 -42 -31.5 -65t-117.5 -51l-416 -131z" />
    <glyph glyph-name="Ucircumflex" unicode="&#xdb;" horiz-adv-x="1609" 
d="M59 1339v78h639v-78q-57 -2 -83.5 -6t-45 -17.5t-22.5 -34t-4 -62.5v-787q0 -369 262 -369q137 0 199.5 94t62.5 275v787q0 42 -4 62.5t-22.5 34t-45.5 17.5t-84 6v78h639v-78q-57 -2 -83.5 -6t-45 -17.5t-22.5 -34t-4 -62.5v-758q-3 -259 -150.5 -375.5t-439.5 -116.5
q-310 0 -450 114.5t-140 377.5v758q0 42 -4 62.5t-22.5 34t-45.5 17.5t-84 6zM420 1546l291 258q52 49 92 49q46 0 96 -47l291 -260l-37 -61l-268 123q-58 30 -82 30q-16 0 -78 -30l-266 -123z" />
    <glyph glyph-name="Udieresis" unicode="&#xdc;" horiz-adv-x="1609" 
d="M59 1339v78h639v-78q-57 -2 -83.5 -6t-45 -17.5t-22.5 -34t-4 -62.5v-787q0 -369 262 -369q137 0 199.5 94t62.5 275v787q0 42 -4 62.5t-22.5 34t-45.5 17.5t-84 6v78h639v-78q-57 -2 -83.5 -6t-45 -17.5t-22.5 -34t-4 -62.5v-758q-3 -259 -150.5 -375.5t-439.5 -116.5
q-310 0 -450 114.5t-140 377.5v758q0 42 -4 62.5t-22.5 34t-45.5 17.5t-84 6zM385 1651q0 62 44 107.5t118 45.5t118 -45.5t44 -107.5t-44 -108t-118 -46t-118 46t-44 108zM901 1651q0 62 44 107.5t118 45.5t118 -45.5t44 -107.5t-44 -108t-118 -46t-118 46t-44 108z" />
    <glyph glyph-name="Yacute" unicode="&#xdd;" horiz-adv-x="1263" 
d="M-25 1339v78h648v-78l-111 -12q-54 -7 -29 -67l252 -560h6q28 64 83.5 182.5t96.5 209.5t64 153q29 76 -31 82l-106 12v78h493v-78q-85 -9 -121 -29.5t-71 -80.5q-111 -195 -297 -572q-37 -76 -37 -145v-313q0 -42 4.5 -62.5t27.5 -34.5t57.5 -18t107.5 -6v-78h-721v78
q49 2 77.5 4t53 7.5t35.5 12t19 21.5t9.5 31t1.5 45v293q0 53 -43 141l-297 590q-35 71 -64 90.5t-108 25.5zM479 1538l352 252q47 35 75.5 48t56.5 13q45 0 77.5 -47t32.5 -84q0 -42 -31.5 -65t-117.5 -51l-416 -131z" />
    <glyph glyph-name="Thorn" unicode="&#xde;" horiz-adv-x="1310" 
d="M557 528q0 -43 26.5 -58t92.5 -15q134 0 194 78t60 210q0 148 -69.5 216.5t-174.5 68.5q-83 0 -106 -16.5t-23 -61.5v-422zM68 0v78q109 5 135 24t26 97v1020q0 78 -26 96.5t-135 23.5v78h649v-78q-59 -2 -86.5 -6t-46.5 -17.5t-23 -34t-4 -62.5v-97h176q127 0 223 -19.5
t169 -62.5t111 -117.5t38 -179.5q0 -72 -21.5 -130t-56 -97.5t-87 -68.5t-105.5 -45.5t-120.5 -26t-123 -12.5t-121.5 -3h-82v-161q0 -42 4.5 -62.5t27.5 -35t57.5 -19t107.5 -8.5v-74h-686z" />
    <glyph glyph-name="germandbls" unicode="&#xdf;" horiz-adv-x="1355" 
d="M59 0v74q86 8 107.5 23.5t21.5 76.5v830q0 240 103 356q62 73 169 116.5t240 43.5q120 0 211 -24.5t141 -60.5t80 -85t39 -89t9 -83q0 -95 -54 -154q-97 -9 -151.5 -57t-54.5 -117q0 -35 15.5 -68t43.5 -61t46 -43t45 -34q5 -3 7 -5q43 -29 66.5 -46.5t63.5 -54
t61.5 -68.5t39 -78.5t17.5 -96.5q0 -152 -99 -236t-280 -84q-120 0 -197 40t-77 102q0 42 34.5 73t73.5 31q37 0 62 -41q39 -58 71.5 -84t67.5 -26q34 0 60 25t26 77q0 63 -49 120t-162 130q-217 138 -217 321q0 96 58 173.5t153 101.5q41 59 41 164q0 106 -51 174.5
t-135 68.5q-96 0 -151.5 -98.5t-55.5 -279.5v-873q0 -61 21.5 -76.5t107.5 -23.5v-74h-568z" />
    <glyph glyph-name="agrave" unicode="&#xe0;" horiz-adv-x="1114" 
d="M209 1393q0 39 36 81t72 42q30 0 62 -22t90 -81l297 -305l-43 -61l-375 210q-67 37 -103 68.5t-36 67.5zM399 307q0 -79 44.5 -125.5t107.5 -46.5q50 0 87 32t40 107v297q-15 -7 -52 -23t-70.5 -31.5t-61.5 -31.5q-48 -28 -71.5 -68.5t-23.5 -109.5zM84 272q0 92 50 154
t167 102q19 6 80.5 26.5t91.5 31t76.5 28t77 32t51.5 28.5v108q0 81 -34 116.5t-85 35.5t-96 -43t-84 -162q-27 -82 -84 -82q-31 0 -71.5 12t-76.5 43.5t-36 73.5q0 104 133.5 178t351.5 74q75 0 135 -9.5t99.5 -24.5t68 -39.5t44 -47t24 -54.5t10.5 -56t2 -56v-473
q0 -134 65 -153q46 -15 99 -11l6 -67q-60 -24 -145 -43t-158 -19q-67 0 -101 31t-59 88q-2 -2 -36 -24.5t-44.5 -28.5t-42.5 -23t-53 -23.5t-53.5 -13t-63.5 -6.5q-147 0 -228 86.5t-81 210.5z" />
    <glyph glyph-name="aacute" unicode="&#xe1;" horiz-adv-x="1114" 
d="M399 307q0 -79 44.5 -125.5t107.5 -46.5q50 0 87 32t40 107v297q-15 -7 -52 -23t-70.5 -31.5t-61.5 -31.5q-48 -28 -71.5 -68.5t-23.5 -109.5zM84 272q0 92 50 154t167 102q19 6 80.5 26.5t91.5 31t76.5 28t77 32t51.5 28.5v108q0 81 -34 116.5t-85 35.5t-96 -43
t-84 -162q-27 -82 -84 -82q-31 0 -71.5 12t-76.5 43.5t-36 73.5q0 104 133.5 178t351.5 74q75 0 135 -9.5t99.5 -24.5t68 -39.5t44 -47t24 -54.5t10.5 -56t2 -56v-473q0 -134 65 -153q46 -15 99 -11l6 -67q-60 -24 -145 -43t-158 -19q-67 0 -101 31t-59 88q-2 -2 -36 -24.5
t-44.5 -28.5t-42.5 -23t-53 -23.5t-53.5 -13t-63.5 -6.5q-147 0 -228 86.5t-81 210.5zM401 1108l297 305q58 59 90 81t62 22q36 0 72 -42t36 -81q0 -36 -36 -67.5t-103 -68.5l-375 -210z" />
    <glyph glyph-name="acircumflex" unicode="&#xe2;" horiz-adv-x="1114" 
d="M399 307q0 -79 44.5 -125.5t107.5 -46.5q50 0 87 32t40 107v297q-15 -7 -52 -23t-70.5 -31.5t-61.5 -31.5q-48 -28 -71.5 -68.5t-23.5 -109.5zM84 272q0 92 50 154t167 102q19 6 80.5 26.5t91.5 31t76.5 28t77 32t51.5 28.5v108q0 81 -34 116.5t-85 35.5t-96 -43
t-84 -162q-27 -82 -84 -82q-31 0 -71.5 12t-76.5 43.5t-36 73.5q0 104 133.5 178t351.5 74q75 0 135 -9.5t99.5 -24.5t68 -39.5t44 -47t24 -54.5t10.5 -56t2 -56v-473q0 -134 65 -153q46 -15 99 -11l6 -67q-60 -24 -145 -43t-158 -19q-67 0 -101 31t-59 88q-2 -2 -36 -24.5
t-44.5 -28.5t-42.5 -23t-53 -23.5t-53.5 -13t-63.5 -6.5q-147 0 -228 86.5t-81 210.5zM186 1120l293 346q54 64 90 64q33 0 90 -64l293 -346l-49 -55l-256 192q-57 39 -78 39q-20 0 -77 -39l-256 -192z" />
    <glyph glyph-name="atilde" unicode="&#xe3;" horiz-adv-x="1114" 
d="M399 307q0 -79 44.5 -125.5t107.5 -46.5q50 0 87 32t40 107v297q-15 -7 -52 -23t-70.5 -31.5t-61.5 -31.5q-48 -28 -71.5 -68.5t-23.5 -109.5zM84 272q0 92 50 154t167 102q19 6 80.5 26.5t91.5 31t76.5 28t77 32t51.5 28.5v108q0 81 -34 116.5t-85 35.5t-96 -43
t-84 -162q-27 -82 -84 -82q-31 0 -71.5 12t-76.5 43.5t-36 73.5q0 104 133.5 178t351.5 74q75 0 135 -9.5t99.5 -24.5t68 -39.5t44 -47t24 -54.5t10.5 -56t2 -56v-473q0 -134 65 -153q46 -15 99 -11l6 -67q-60 -24 -145 -43t-158 -19q-67 0 -101 31t-59 88q-2 -2 -36 -24.5
t-44.5 -28.5t-42.5 -23t-53 -23.5t-53.5 -13t-63.5 -6.5q-147 0 -228 86.5t-81 210.5zM133 1169q15 36 27 61t38 64t53 63.5t69 43t90 18.5q65 0 188 -43q10 -3 39 -11.5t42 -12.5t35 -9.5t38.5 -7.5t31.5 -2q55 0 86.5 25t67.5 88l66 -37q-15 -36 -27 -61t-38 -64
t-53 -63.5t-69 -43t-90 -18.5q-15 0 -31 2t-37 7.5t-34 9.5t-40.5 12.5t-37.5 11.5q-123 43 -195 43q-55 0 -86 -24.5t-67 -87.5z" />
    <glyph glyph-name="adieresis" unicode="&#xe4;" horiz-adv-x="1114" 
d="M399 307q0 -79 44.5 -125.5t107.5 -46.5q50 0 87 32t40 107v297q-15 -7 -52 -23t-70.5 -31.5t-61.5 -31.5q-48 -28 -71.5 -68.5t-23.5 -109.5zM84 272q0 92 50 154t167 102q19 6 80.5 26.5t91.5 31t76.5 28t77 32t51.5 28.5v108q0 81 -34 116.5t-85 35.5t-96 -43
t-84 -162q-27 -82 -84 -82q-31 0 -71.5 12t-76.5 43.5t-36 73.5q0 104 133.5 178t351.5 74q75 0 135 -9.5t99.5 -24.5t68 -39.5t44 -47t24 -54.5t10.5 -56t2 -56v-473q0 -134 65 -153q46 -15 99 -11l6 -67q-60 -24 -145 -43t-158 -19q-67 0 -101 31t-59 88q-2 -2 -36 -24.5
t-44.5 -28.5t-42.5 -23t-53 -23.5t-53.5 -13t-63.5 -6.5q-147 0 -228 86.5t-81 210.5zM166 1300q0 62 44 108t118 46t117.5 -46t43.5 -108t-43.5 -107.5t-117.5 -45.5t-118 45.5t-44 107.5zM657 1300q0 62 44 108t118 46t118 -46t44 -108t-44 -107.5t-118 -45.5t-118 45.5
t-44 107.5z" />
    <glyph glyph-name="aring" unicode="&#xe5;" horiz-adv-x="1114" 
d="M399 307q0 -79 44.5 -125.5t107.5 -46.5q50 0 87 32t40 107v297q-15 -7 -52 -23t-70.5 -31.5t-61.5 -31.5q-48 -28 -71.5 -68.5t-23.5 -109.5zM84 272q0 92 50 154t167 102q19 6 80.5 26.5t91.5 31t76.5 28t77 32t51.5 28.5v108q0 81 -34 116.5t-85 35.5t-96 -43
t-84 -162q-27 -82 -84 -82q-31 0 -71.5 12t-76.5 43.5t-36 73.5q0 104 133.5 178t351.5 74q75 0 135 -9.5t99.5 -24.5t68 -39.5t44 -47t24 -54.5t10.5 -56t2 -56v-473q0 -134 65 -153q46 -15 99 -11l6 -67q-60 -24 -145 -43t-158 -19q-67 0 -101 31t-59 88q-2 -2 -36 -24.5
t-44.5 -28.5t-42.5 -23t-53 -23.5t-53.5 -13t-63.5 -6.5q-147 0 -228 86.5t-81 210.5zM451 1333q0 -68 30 -105.5t76 -37.5q45 0 76 38t31 105q0 68 -31 106t-76 38q-46 0 -76 -38t-30 -106zM313 1333q0 60 20.5 106t56.5 71.5t77.5 38t89.5 12.5t89.5 -12.5t77.5 -38
t56.5 -71.5t20.5 -106q0 -81 -37 -134t-89.5 -73t-117.5 -20t-117.5 20t-89.5 73t-37 134z" />
    <glyph glyph-name="ae" unicode="&#xe6;" horiz-adv-x="1650" 
d="M979 614h258q36 0 49.5 14t13.5 54q0 43 -5.5 81t-19.5 79.5t-45 66.5t-75 25q-49 0 -85 -28t-55 -76t-27.5 -101.5t-8.5 -114.5zM399 307q0 -79 44.5 -125.5t107.5 -46.5q50 0 87 32t40 107v297q-15 -7 -52 -23t-70.5 -31.5t-61.5 -31.5q-48 -28 -71.5 -68.5
t-23.5 -109.5zM84 272q0 91 49.5 154t165.5 104q33 12 128 44.5t152.5 55t98.5 44.5v108q0 81 -34 116.5t-85 35.5t-96 -43t-84 -162q-27 -82 -84 -82q-31 0 -71.5 12t-76.5 43.5t-36 73.5q0 104 131.5 178t341.5 74q197 0 282 -119q139 119 316 119q85 0 154.5 -18t114 -46
t78 -68.5t51 -78t27.5 -82t12.5 -73.5t2.5 -60q0 -48 -26.5 -67t-84.5 -19h-532q0 -383 276 -383q180 0 275 182l74 -41q-116 -299 -447 -299q-257 -3 -375 179l-96 -62q-3 -2 -26 -17.5t-30.5 -20t-31 -18.5t-36 -19.5t-36.5 -15.5t-42.5 -14.5t-42.5 -8t-48 -3.5
q-149 0 -229 86.5t-80 210.5z" />
    <glyph glyph-name="ccedilla" unicode="&#xe7;" horiz-adv-x="1011" 
d="M70 494q0 258 139 397q137 137 379 137q96 0 183.5 -25t147.5 -78t60 -122q0 -62 -53.5 -94.5t-116.5 -32.5q-77 0 -98 72q-28 98 -59 142t-83 44q-71 0 -122.5 -99.5t-51.5 -291.5q0 -115 21.5 -198t60 -127.5t83 -64.5t97.5 -20q87 0 149.5 42.5t113.5 143.5l71 -32
q-89 -280 -375 -307l-65 -99q30 -4 59.5 -13t64.5 -27.5t57 -53.5t22 -82q0 -52 -23.5 -92t-57.5 -61.5t-79 -34.5t-80 -17t-70 -4q-46 0 -98 6v66q193 0 193 119q0 30 -14 52t-37.5 33t-43.5 16t-41 7l-8 17l105 168q-200 12 -315 144t-115 370z" />
    <glyph glyph-name="egrave" unicode="&#xe8;" horiz-adv-x="1062" 
d="M215 1393q0 39 36.5 81t72.5 42q30 0 61.5 -21.5t89.5 -81.5l297 -305l-43 -61l-375 210q-67 37 -103 68.5t-36 67.5zM395 614h254q36 0 50 14t14 54q0 42 -5.5 81t-20 80t-45.5 66t-75 25q-48 0 -83 -28.5t-53.5 -77t-27 -102t-8.5 -112.5zM70 502q0 89 17 165.5
t55 143.5t95.5 114.5t143.5 75t194 27.5q113 0 199 -29t134 -72t77.5 -103t39 -112.5t9.5 -109.5q0 -48 -26 -67t-84 -19h-529q0 -84 14.5 -151t45.5 -120.5t85.5 -82.5t129.5 -29q179 0 274 182l74 -41q-116 -299 -447 -299q-111 0 -198 28.5t-143 76.5t-93 116.5
t-52 143.5t-15 162z" />
    <glyph glyph-name="eacute" unicode="&#xe9;" horiz-adv-x="1062" 
d="M395 614h254q36 0 50 14t14 54q0 42 -5.5 81t-20 80t-45.5 66t-75 25q-48 0 -83 -28.5t-53.5 -77t-27 -102t-8.5 -112.5zM70 502q0 89 17 165.5t55 143.5t95.5 114.5t143.5 75t194 27.5q113 0 199 -29t134 -72t77.5 -103t39 -112.5t9.5 -109.5q0 -48 -26 -67t-84 -19
h-529q0 -84 14.5 -151t45.5 -120.5t85.5 -82.5t129.5 -29q179 0 274 182l74 -41q-116 -299 -447 -299q-111 0 -198 28.5t-143 76.5t-93 116.5t-52 143.5t-15 162zM387 1108l297 305q58 59 90 81t62 22q36 0 72 -42t36 -81q0 -36 -36 -67.5t-103 -68.5l-375 -210z" />
    <glyph glyph-name="ecircumflex" unicode="&#xea;" horiz-adv-x="1062" 
d="M395 614h254q36 0 50 14t14 54q0 42 -5.5 81t-20 80t-45.5 66t-75 25q-48 0 -83 -28.5t-53.5 -77t-27 -102t-8.5 -112.5zM70 502q0 89 17 165.5t55 143.5t95.5 114.5t143.5 75t194 27.5q113 0 199 -29t134 -72t77.5 -103t39 -112.5t9.5 -109.5q0 -48 -26 -67t-84 -19
h-529q0 -84 14.5 -151t45.5 -120.5t85.5 -82.5t129.5 -29q179 0 274 182l74 -41q-116 -299 -447 -299q-111 0 -198 28.5t-143 76.5t-93 116.5t-52 143.5t-15 162zM182 1120l293 346q54 64 90 64q33 0 90 -64l293 -346l-49 -55l-256 192q-57 39 -78 39t-78 -39l-256 -192z
" />
    <glyph glyph-name="edieresis" unicode="&#xeb;" horiz-adv-x="1062" 
d="M395 614h254q36 0 50 14t14 54q0 42 -5.5 81t-20 80t-45.5 66t-75 25q-48 0 -83 -28.5t-53.5 -77t-27 -102t-8.5 -112.5zM70 502q0 89 17 165.5t55 143.5t95.5 114.5t143.5 75t194 27.5q113 0 199 -29t134 -72t77.5 -103t39 -112.5t9.5 -109.5q0 -48 -26 -67t-84 -19
h-529q0 -84 14.5 -151t45.5 -120.5t85.5 -82.5t129.5 -29q179 0 274 182l74 -41q-116 -299 -447 -299q-111 0 -198 28.5t-143 76.5t-93 116.5t-52 143.5t-15 162zM154 1300q0 62 43.5 108t117.5 46t118 -46t44 -108t-44 -107.5t-118 -45.5t-117.5 45.5t-43.5 107.5z
M645 1300q0 62 44 108t118 46t118 -46t44 -108t-44 -107.5t-118 -45.5t-118 45.5t-44 107.5z" />
    <glyph glyph-name="eth" unicode="&#xf0;" horiz-adv-x="1198" 
d="M395 502q0 -432 205 -432q203 0 203 432t-203 432q-205 0 -205 -432zM70 502q0 526 528 526q24 0 59 -6v6q-68 85 -153 164l-271 -117l-51 80l248 107q-81 75 -211 172v24l96 62q157 -83 297 -181l310 131l53 -77l-279 -119q107 -79 207 -187q225 -249 225 -573
q0 -539 -528 -539q-530 0 -530 527z" />
    <glyph glyph-name="ntilde" unicode="&#xf1;" horiz-adv-x="1306" 
d="M53 0v78q89 5 111 20.5t22 79.5v602q0 59 -11.5 80.5t-37.5 24.5l-71 10v74l403 59l27 -141q146 87 201 109q77 32 149 32q154 0 230.5 -83t78.5 -232v-535q0 -64 22 -79.5t111 -20.5v-78h-551v78l43 4q36 3 51 18.5t15 63.5v520q-6 186 -162 186q-60 0 -103 -28t-65 -72
q-20 -41 -20 -121v-485q0 -48 14.5 -63.5t50.5 -18.5l43 -4v-78h-551zM233 1169q15 36 27 61t38 64t53 63.5t69 43t90 18.5q65 0 188 -43q9 -3 39 -12t42.5 -12.5t35 -9t39 -7.5t31.5 -2q55 0 86 25t67 88l66 -37q-15 -36 -27 -61t-38 -64t-53 -63.5t-69 -43t-90 -18.5
q-15 0 -31 2t-37 7.5t-34 9.5t-40.5 12.5t-37.5 11.5q-123 43 -194 43q-55 0 -87 -24.5t-67 -87.5z" />
    <glyph glyph-name="ograve" unicode="&#xf2;" horiz-adv-x="1198" 
d="M221 1393q0 39 36.5 81t72.5 42q30 0 61.5 -21.5t89.5 -81.5l297 -305l-43 -61l-375 210q-67 37 -103 68.5t-36 67.5zM395 502q0 -432 205 -432t205 432t-205 432t-205 -432zM70 502q0 526 530 526t530 -526q0 -527 -530 -527t-530 527z" />
    <glyph glyph-name="oacute" unicode="&#xf3;" horiz-adv-x="1198" 
d="M395 502q0 -432 205 -432t205 432t-205 432t-205 -432zM70 502q0 526 530 526t530 -526q0 -527 -530 -527t-530 527zM414 1108l297 305q58 60 89.5 81.5t61.5 21.5q36 0 72.5 -42t36.5 -81q0 -36 -36 -67.5t-104 -68.5l-374 -210z" />
    <glyph glyph-name="ocircumflex" unicode="&#xf4;" horiz-adv-x="1198" 
d="M395 502q0 -432 205 -432t205 432t-205 432t-205 -432zM70 502q0 526 530 526t530 -526q0 -527 -530 -527t-530 527zM217 1120l293 346q54 64 90 64q33 0 90 -64l293 -346l-49 -55l-256 192q-57 39 -78 39t-78 -39l-256 -192z" />
    <glyph glyph-name="otilde" unicode="&#xf5;" horiz-adv-x="1198" 
d="M395 502q0 -432 205 -432t205 432t-205 432t-205 -432zM70 502q0 526 530 526t530 -526q0 -527 -530 -527t-530 527zM164 1169q15 37 27 61t37.5 63.5t52.5 64t69 43t90 18.5q66 0 189 -43q10 -3 39 -11.5t42 -12.5t35 -9.5t38.5 -7.5t31.5 -2q55 0 86.5 25t67.5 88
l65 -37q-15 -37 -27 -61t-37.5 -63.5t-52.5 -64t-69 -43t-90 -18.5q-15 0 -31 2t-37 7.5t-34 9.5t-40.5 12.5t-37.5 11.5q-123 43 -195 43q-55 0 -87 -24.5t-67 -87.5z" />
    <glyph glyph-name="odieresis" unicode="&#xf6;" horiz-adv-x="1198" 
d="M395 502q0 -432 205 -432t205 432t-205 432t-205 -432zM70 502q0 526 530 526t530 -526q0 -527 -530 -527t-530 527zM193 1300q0 62 43.5 108t117.5 46t118 -46t44 -108t-44 -107.5t-118 -45.5t-117.5 45.5t-43.5 107.5zM684 1300q0 62 44 108t118 46t118 -46t44 -108
t-44 -107.5t-118 -45.5t-118 45.5t-44 107.5z" />
    <glyph glyph-name="divide" unicode="&#xf7;" horiz-adv-x="1228" 
d="M119 430v164h991v-164h-991zM475 868q0 59 40 101.5t99 42.5q60 0 102 -41.5t44 -98.5l-2 -4q0 -59 -41.5 -101t-102.5 -42q-59 0 -99 42t-40 101zM475 156q0 59 40 101t99 42q60 0 102 -41t44 -98l-2 -4q0 -59 -41.5 -101.5t-102.5 -42.5q-59 0 -99 42.5t-40 101.5z" />
    <glyph glyph-name="oslash" unicode="&#xf8;" horiz-adv-x="1198" 
d="M444 168q49 -98 156 -98q111 0 161 109.5t50 322.5q0 137 -20 231zM387 502q0 -124 19 -217l344 561q-54 88 -150 88q-112 0 -162.5 -109.5t-50.5 -322.5zM70 502q0 526 530 526q140 0 238 -37l65 105l80 -49l-59 -95q204 -124 204 -450q0 -254 -128.5 -390.5
t-399.5 -136.5q-139 0 -248 41l-73 -120l-76 57l63 104q-196 125 -196 445z" />
    <glyph glyph-name="ugrave" unicode="&#xf9;" horiz-adv-x="1288" 
d="M215 1393q0 39 36.5 81t72.5 42q30 0 61.5 -21.5t89.5 -81.5l297 -305l-43 -61l-375 210q-67 37 -103 68.5t-36 67.5zM47 895v74l416 59l14 -12v-656q0 -117 43.5 -170t128.5 -53q63 0 105 28t57 68q16 41 16 115v432q0 59 -11.5 80.5t-37.5 24.5l-71 10v74l415 59
l15 -12v-838q0 -64 22 -79.5t111 -20.5v-78h-426l-17 115q-14 -8 -64.5 -39.5t-84 -49t-93 -34.5t-120.5 -17q-59 0 -109 15t-94 48.5t-69 96t-25 148.5v497q0 59 -11.5 80.5t-37.5 24.5z" />
    <glyph glyph-name="uacute" unicode="&#xfa;" horiz-adv-x="1288" 
d="M47 895v74l416 59l14 -12v-656q0 -117 43.5 -170t128.5 -53q63 0 105 28t57 68q16 41 16 115v432q0 59 -11.5 80.5t-37.5 24.5l-71 10v74l415 59l15 -12v-838q0 -64 22 -79.5t111 -20.5v-78h-426l-17 115q-14 -8 -64.5 -39.5t-84 -49t-93 -34.5t-120.5 -17q-59 0 -109 15
t-94 48.5t-69 96t-25 148.5v497q0 59 -11.5 80.5t-37.5 24.5zM489 1108l297 305q58 59 90 81t62 22q36 0 72.5 -42t36.5 -81q0 -36 -36 -67.5t-104 -68.5l-375 -210z" />
    <glyph glyph-name="ucircumflex" unicode="&#xfb;" horiz-adv-x="1288" 
d="M47 895v74l416 59l14 -12v-656q0 -117 43.5 -170t128.5 -53q63 0 105 28t57 68q16 41 16 115v432q0 59 -11.5 80.5t-37.5 24.5l-71 10v74l415 59l15 -12v-838q0 -64 22 -79.5t111 -20.5v-78h-426l-17 115q-14 -8 -64.5 -39.5t-84 -49t-93 -34.5t-120.5 -17q-59 0 -109 15
t-94 48.5t-69 96t-25 148.5v497q0 59 -11.5 80.5t-37.5 24.5zM262 1120l293 346q54 64 90 64q33 0 90 -64l293 -346l-49 -55l-256 192q-57 39 -78 39t-78 -39l-256 -192z" />
    <glyph glyph-name="udieresis" unicode="&#xfc;" horiz-adv-x="1288" 
d="M47 895v74l416 59l14 -12v-656q0 -117 43.5 -170t128.5 -53q63 0 105 28t57 68q16 41 16 115v432q0 59 -11.5 80.5t-37.5 24.5l-71 10v74l415 59l15 -12v-838q0 -64 22 -79.5t111 -20.5v-78h-426l-17 115q-14 -8 -64.5 -39.5t-84 -49t-93 -34.5t-120.5 -17q-59 0 -109 15
t-94 48.5t-69 96t-25 148.5v497q0 59 -11.5 80.5t-37.5 24.5zM238 1300q0 62 43.5 108t117.5 46t118 -46t44 -108t-44 -107.5t-118 -45.5t-117.5 45.5t-43.5 107.5zM729 1300q0 62 44 108t118 46t118 -46t44 -108t-44 -107.5t-118 -45.5t-118 45.5t-44 107.5z" />
    <glyph glyph-name="yacute" unicode="&#xfd;" horiz-adv-x="1073" 
d="M-25 926v78h574v-78l-78 -13q-46 -6 -25 -67q28 -86 63 -182t78 -211.5t66 -178.5h4q18 56 59.5 179.5t71.5 217.5t56 181q14 55 -31 61l-84 13v78h412v-78l-43 -4q-40 -4 -63.5 -33t-53.5 -101q-231 -559 -363 -911q-80 -214 -158 -293.5t-188 -79.5q-63 0 -114.5 36
t-51.5 93q0 59 41.5 112.5t90.5 53.5q24 0 41 -8.5t51 -34.5q38 -30 73 -30q33 0 51 27.5t29 72.5q16 64 -12 135q-158 410 -350 870q-31 75 -78 84zM442 1108l297 305q58 59 90 81t62 22q36 0 72 -42t36 -81q0 -36 -36 -67.5t-103 -68.5l-375 -210z" />
    <glyph glyph-name="thorn" unicode="&#xfe;" horiz-adv-x="1247" 
d="M469 311q0 -63 8 -104q27 -137 162 -137q77 0 125 52t68 141.5t20 221.5q0 96 -12.5 167.5t-31.5 112t-47.5 65t-55 32.5t-58.5 8q-121 0 -164 -122q-14 -41 -14 -113v-324zM27 -393q89 5 111 20.5t22 79.5v1524q0 58 -11 79.5t-38 26.5l-72 13v73l416 56l14 -13v-579
q92 70 166.5 105.5t171.5 35.5q74 0 139.5 -30.5t118 -90t83 -157t30.5 -220.5q0 -132 -28.5 -231t-76 -160t-119.5 -98.5t-149 -51.5t-174 -14q-99 0 -162 25v-293q0 -64 28 -79.5t142 -20.5v-78h-612v78z" />
    <glyph glyph-name="ydieresis" unicode="&#xff;" horiz-adv-x="1073" 
d="M-25 926v78h574v-78l-78 -13q-46 -6 -25 -67q28 -86 63 -182t78 -211.5t66 -178.5h4q18 56 59.5 179.5t71.5 217.5t56 181q14 55 -31 61l-84 13v78h412v-78l-43 -4q-40 -4 -63.5 -33t-53.5 -101q-231 -559 -363 -911q-80 -214 -158 -293.5t-188 -79.5q-63 0 -114.5 36
t-51.5 93q0 59 41.5 112.5t90.5 53.5q24 0 41 -8.5t51 -34.5q38 -30 73 -30q33 0 51 27.5t29 72.5q16 64 -12 135q-158 410 -350 870q-31 75 -78 84zM170 1300q0 62 44 108t118 46t118 -46t44 -108t-44 -107.5t-118 -45.5t-118 45.5t-44 107.5zM662 1300q0 62 43.5 108
t117.5 46t118 -46t44 -108t-44 -107.5t-118 -45.5t-117.5 45.5t-43.5 107.5z" />
    <glyph glyph-name="Amacron" unicode="&#x100;" horiz-adv-x="1318" 
d="M393 602h332l-160 531h-6zM-57 0v78q83 5 112 23.5t54 82.5q22 55 51.5 139.5t71 206.5t67.5 197l238 690h258l403 -1241q20 -62 49.5 -79t110.5 -19v-78h-647v78l118 12q57 5 35 74l-106 340h-398q-80 -260 -98 -342q-10 -34 -2.5 -52.5t39.5 -21.5l123 -10v-78h-479z
M307 1567v178h717v-178h-717z" />
    <glyph glyph-name="amacron" unicode="&#x101;" horiz-adv-x="1114" 
d="M399 307q0 -79 44.5 -125.5t107.5 -46.5q50 0 87 32t40 107v297q-15 -7 -52 -23t-70.5 -31.5t-61.5 -31.5q-48 -28 -71.5 -68.5t-23.5 -109.5zM84 272q0 92 50 154t167 102q19 6 80.5 26.5t91.5 31t76.5 28t77 32t51.5 28.5v108q0 81 -34 116.5t-85 35.5t-96 -43
t-84 -162q-27 -82 -84 -82q-31 0 -71.5 12t-76.5 43.5t-36 73.5q0 104 133.5 178t351.5 74q75 0 135 -9.5t99.5 -24.5t68 -39.5t44 -47t24 -54.5t10.5 -56t2 -56v-473q0 -134 65 -153q46 -15 99 -11l6 -67q-60 -24 -145 -43t-158 -19q-67 0 -101 31t-59 88q-2 -2 -36 -24.5
t-44.5 -28.5t-42.5 -23t-53 -23.5t-53.5 -13t-63.5 -6.5q-147 0 -228 86.5t-81 210.5zM276 1202v178h637v-178h-637z" />
    <glyph glyph-name="Abreve" unicode="&#x102;" horiz-adv-x="1318" 
d="M328 1835h84q2 -22 14 -43.5t38 -45t78 -38t124 -14.5t124 14.5t78 38t38 45t14 43.5h84q0 -50 -7.5 -91t-29.5 -82.5t-58.5 -69.5t-98 -46t-144.5 -18t-144.5 18t-98 46t-58.5 69.5t-29.5 82.5t-7.5 91zM393 602h332l-160 531h-6zM-57 0v78q83 5 112 23.5t54 82.5
q22 55 51.5 139.5t71 206.5t67.5 197l238 690h258l403 -1241q20 -62 49.5 -79t110.5 -19v-78h-647v78l118 12q57 5 35 74l-106 340h-398q-80 -260 -98 -342q-10 -34 -2.5 -52.5t39.5 -21.5l123 -10v-78h-479z" />
    <glyph glyph-name="abreve" unicode="&#x103;" horiz-adv-x="1114" 
d="M268 1466h78q1 -18 6.5 -35t22.5 -39.5t42.5 -39t71 -28t105.5 -11.5t105.5 11.5t71 28t42.5 39t22.5 39.5t6.5 35h80q0 -41 -4 -74.5t-15.5 -73.5t-34.5 -70t-57.5 -55.5t-89.5 -39.5t-125 -14q-85 0 -146.5 20t-96 49.5t-54.5 75.5t-25.5 87t-5.5 95zM399 307
q0 -79 44.5 -125.5t107.5 -46.5q50 0 87 32t40 107v297q-15 -7 -52 -23t-70.5 -31.5t-61.5 -31.5q-48 -28 -71.5 -68.5t-23.5 -109.5zM84 272q0 92 50 154t167 102q19 6 80.5 26.5t91.5 31t76.5 28t77 32t51.5 28.5v108q0 81 -34 116.5t-85 35.5t-96 -43t-84 -162
q-27 -82 -84 -82q-31 0 -71.5 12t-76.5 43.5t-36 73.5q0 104 133.5 178t351.5 74q75 0 135 -9.5t99.5 -24.5t68 -39.5t44 -47t24 -54.5t10.5 -56t2 -56v-473q0 -134 65 -153q46 -15 99 -11l6 -67q-60 -24 -145 -43t-158 -19q-67 0 -101 31t-59 88q-2 -2 -36 -24.5
t-44.5 -28.5t-42.5 -23t-53 -23.5t-53.5 -13t-63.5 -6.5q-147 0 -228 86.5t-81 210.5z" />
    <glyph glyph-name="aogonek" unicode="&#x105;" horiz-adv-x="1114" 
d="M399 307q0 -79 44.5 -125.5t107.5 -46.5q50 0 87 32t40 107v297q-15 -7 -52 -23t-70.5 -31.5t-61.5 -31.5q-48 -28 -71.5 -68.5t-23.5 -109.5zM84 272q0 92 50 154t167 102q19 6 80.5 26.5t91.5 31t76.5 28t77 32t51.5 28.5v108q0 81 -34 116.5t-85 35.5t-96 -43
t-84 -162q-27 -82 -84 -82q-31 0 -71.5 12t-76.5 43.5t-36 73.5q0 104 133.5 178t351.5 74q75 0 135 -9.5t99.5 -24.5t68 -39.5t44 -47t24 -54.5t10.5 -56t2 -56v-473q0 -134 65 -153q46 -15 99 -11l6 -67q-23 -9 -59.5 -20.5t-63 -18.5t-71 -18.5t-56.5 -14.5
q-47 -12 -95 -87.5t-48 -139.5q0 -60 32.5 -91.5t85.5 -31.5q55 0 101 27l31 -56q-99 -82 -215 -82q-75 0 -126 18.5t-74.5 50.5t-32.5 61.5t-9 64.5q0 79 65 159t164 128q-59 22 -92 108q-2 -2 -36 -24.5t-44.5 -28.5t-42.5 -23t-53 -23.5t-53.5 -13t-63.5 -6.5
q-147 0 -228 86.5t-81 210.5z" />
    <glyph glyph-name="Cacute" unicode="&#x106;" horiz-adv-x="1411" 
d="M86 694q0 343 176 539q193 215 604 215q106 0 232.5 -20.5t208.5 -69.5v-367h-78q-13 42 -22 67.5t-28 68t-37.5 70t-48.5 60.5t-63.5 52t-80.5 32t-101 13q-76 0 -138.5 -27.5t-103 -70t-71 -102.5t-46.5 -116.5t-25.5 -121t-12 -106.5t-2.5 -83q0 -56 3.5 -110t15 -122
t29.5 -126.5t50.5 -116.5t74.5 -98.5t104.5 -65.5t137.5 -25q67 0 122.5 21.5t94.5 55t74 89t58 109t49 129.5h77l-24 -399q-84 -51 -218.5 -75t-260.5 -24q-194 0 -338.5 51t-234 147.5t-133.5 228t-44 298.5zM647 1538l352 252q47 35 75 48t56 13q45 0 78 -47t33 -84
q0 -42 -31.5 -65t-117.5 -51l-416 -131z" />
    <glyph glyph-name="cacute" unicode="&#x107;" horiz-adv-x="1011" 
d="M70 494q0 258 139 397q137 137 379 137q96 0 183.5 -25t147.5 -78t60 -122q0 -62 -53.5 -94.5t-116.5 -32.5q-77 0 -98 72q-28 98 -59 142t-83 44q-71 0 -122.5 -99.5t-51.5 -291.5q0 -115 21.5 -198t60 -127.5t83 -64.5t97.5 -20q87 0 149.5 42.5t113.5 143.5l71 -32
q-98 -312 -440 -312q-222 0 -351.5 133.5t-129.5 385.5zM401 1108l297 305q58 59 90 81t62 22q36 0 72 -42t36 -81q0 -36 -36 -67.5t-103 -68.5l-375 -210z" />
    <glyph glyph-name="Ccircumflex" unicode="&#x108;" horiz-adv-x="1411" 
d="M86 694q0 343 176 539q193 215 604 215q106 0 232.5 -20.5t208.5 -69.5v-367h-78q-13 42 -22 67.5t-28 68t-37.5 70t-48.5 60.5t-63.5 52t-80.5 32t-101 13q-76 0 -138.5 -27.5t-103 -70t-71 -102.5t-46.5 -116.5t-25.5 -121t-12 -106.5t-2.5 -83q0 -56 3.5 -110t15 -122
t29.5 -126.5t50.5 -116.5t74.5 -98.5t104.5 -65.5t137.5 -25q67 0 122.5 21.5t94.5 55t74 89t58 109t49 129.5h77l-24 -399q-84 -51 -218.5 -75t-260.5 -24q-194 0 -338.5 51t-234 147.5t-133.5 228t-44 298.5zM481 1546l291 258q52 49 92 49q47 0 97 -47l290 -260l-37 -61
l-268 123q-58 30 -82 30q-16 0 -78 -30l-266 -123z" />
    <glyph glyph-name="ccircumflex" unicode="&#x109;" horiz-adv-x="1011" 
d="M70 494q0 258 139 397q137 137 379 137q96 0 183.5 -25t147.5 -78t60 -122q0 -62 -53.5 -94.5t-116.5 -32.5q-77 0 -98 72q-28 98 -59 142t-83 44q-71 0 -122.5 -99.5t-51.5 -291.5q0 -115 21.5 -198t60 -127.5t83 -64.5t97.5 -20q87 0 149.5 42.5t113.5 143.5l71 -32
q-98 -312 -440 -312q-222 0 -351.5 133.5t-129.5 385.5zM205 1120l293 346q54 64 90 64q33 0 90 -64l293 -346l-49 -55l-256 192q-57 39 -78 39t-78 -39l-256 -192z" />
    <glyph glyph-name="Cdotaccent" unicode="&#x10a;" horiz-adv-x="1411" 
d="M86 694q0 343 176 539q193 215 604 215q106 0 232.5 -20.5t208.5 -69.5v-367h-78q-13 42 -22 67.5t-28 68t-37.5 70t-48.5 60.5t-63.5 52t-80.5 32t-101 13q-76 0 -138.5 -27.5t-103 -70t-71 -102.5t-46.5 -116.5t-25.5 -121t-12 -106.5t-2.5 -83q0 -56 3.5 -110t15 -122
t29.5 -126.5t50.5 -116.5t74.5 -98.5t104.5 -65.5t137.5 -25q67 0 122.5 21.5t94.5 55t74 89t58 109t49 129.5h77l-24 -399q-84 -51 -218.5 -75t-260.5 -24q-194 0 -338.5 51t-234 147.5t-133.5 228t-44 298.5zM705 1651q0 62 43.5 107.5t117.5 45.5t118 -45.5t44 -107.5
t-44 -108t-118 -46t-117.5 46t-43.5 108z" />
    <glyph glyph-name="cdotaccent" unicode="&#x10b;" horiz-adv-x="1011" 
d="M70 494q0 258 139 397q137 137 379 137q96 0 183.5 -25t147.5 -78t60 -122q0 -62 -53.5 -94.5t-116.5 -32.5q-77 0 -98 72q-28 98 -59 142t-83 44q-71 0 -122.5 -99.5t-51.5 -291.5q0 -115 21.5 -198t60 -127.5t83 -64.5t97.5 -20q87 0 149.5 42.5t113.5 143.5l71 -32
q-98 -312 -440 -312q-222 0 -351.5 133.5t-129.5 385.5zM426 1300q0 62 44 108t118 46t118 -46t44 -108t-44 -107.5t-118 -45.5t-118 45.5t-44 107.5z" />
    <glyph glyph-name="Ccaron" unicode="&#x10c;" horiz-adv-x="1411" 
d="M86 694q0 343 176 539q193 215 604 215q106 0 232.5 -20.5t208.5 -69.5v-367h-78q-13 42 -22 67.5t-28 68t-37.5 70t-48.5 60.5t-63.5 52t-80.5 32t-101 13q-76 0 -138.5 -27.5t-103 -70t-71 -102.5t-46.5 -116.5t-25.5 -121t-12 -106.5t-2.5 -83q0 -56 3.5 -110t15 -122
t29.5 -126.5t50.5 -116.5t74.5 -98.5t104.5 -65.5t137.5 -25q67 0 122.5 21.5t94.5 55t74 89t58 109t49 129.5h77l-24 -399q-84 -51 -218.5 -75t-260.5 -24q-194 0 -338.5 51t-234 147.5t-133.5 228t-44 298.5zM481 1815l39 61l266 -123q64 -31 78 -31q22 0 82 31l268 123
l37 -61l-290 -261q-50 -47 -97 -47q-40 0 -92 49z" />
    <glyph glyph-name="ccaron" unicode="&#x10d;" horiz-adv-x="1011" 
d="M70 494q0 258 139 397q137 137 379 137q96 0 183.5 -25t147.5 -78t60 -122q0 -62 -53.5 -94.5t-116.5 -32.5q-77 0 -98 72q-28 98 -59 142t-83 44q-71 0 -122.5 -99.5t-51.5 -291.5q0 -115 21.5 -198t60 -127.5t83 -64.5t97.5 -20q87 0 149.5 42.5t113.5 143.5l71 -32
q-98 -312 -440 -312q-222 0 -351.5 133.5t-129.5 385.5zM205 1475l49 55l256 -193q57 -39 78 -39t78 39l256 193l49 -55l-293 -347q-56 -63 -90 -63q-37 0 -90 63z" />
    <glyph glyph-name="Dcaron" unicode="&#x10e;" horiz-adv-x="1591" 
d="M557 184q0 -50 34.5 -70t129.5 -20q47 0 87 6t84 24t79.5 47t68.5 77.5t55 113t35 156.5t13 205q0 296 -105.5 448t-310.5 152q-99 0 -134.5 -11.5t-35.5 -45.5v-1082zM68 0v78q109 5 135 24t26 97v1020q0 78 -26 96.5t-135 23.5v78h702q198 -1 332.5 -44t224.5 -132
q178 -175 178 -518q0 -110 -18.5 -203.5t-48.5 -162t-76.5 -124t-95 -92t-112 -63.5t-118.5 -41.5t-123.5 -23t-119.5 -11t-113 -2.5h-612zM373 1815l39 61l266 -123q64 -31 78 -31q22 0 82 31l268 123l37 -61l-291 -261q-50 -47 -96 -47q-40 0 -92 49z" />
    <glyph glyph-name="dcaron" unicode="&#x10f;" horiz-adv-x="1392" 
d="M395 524q0 -191 60 -291t163 -100q47 0 80 15.5t49.5 43t23.5 56.5t7 63v422q0 90 -16 121q-39 80 -139 80q-97 0 -162.5 -100t-65.5 -310zM70 483q0 269 153 412q142 133 383 133q105 0 172 -27v271q0 58 -11 79.5t-38 26.5l-72 13v73l416 56l14 -13v-1329
q0 -63 22.5 -79t111.5 -21v-78h-443v102q-79 -63 -157.5 -95t-139.5 -32q-192 0 -301.5 140t-109.5 368zM1145 1534q0 60 34.5 93.5t96.5 33.5q78 0 121 -60t43 -151q0 -93 -45 -189t-113 -171l-65 47q32 68 32 188q0 29 -16.5 56.5t-35.5 47t-35.5 48t-16.5 57.5z" />
    <glyph glyph-name="Dcroat" unicode="&#x110;" horiz-adv-x="1591" 
d="M557 184q0 -50 34.5 -70t129.5 -20q47 0 87 6t84 24t79.5 47t68.5 77.5t55 113t35 156.5t13 205q0 296 -105.5 448t-310.5 152q-99 0 -134.5 -11.5t-35.5 -45.5v-457h170v-178h-170v-447zM68 0v78q109 5 135 24t26 97v432h-139v178h139v410q0 78 -26 96.5t-135 23.5v78
h702q198 -1 332.5 -44t224.5 -132q178 -175 178 -518q0 -110 -18.5 -203.5t-48.5 -162t-76.5 -124t-95 -92t-112 -63.5t-118.5 -41.5t-123.5 -23t-119.5 -11t-113 -2.5h-612z" />
    <glyph glyph-name="dcroat" unicode="&#x111;" horiz-adv-x="1239" 
d="M395 524q0 -191 60 -291t163 -100q47 0 80 15.5t49.5 43t23.5 56.5t7 63v422q0 90 -16 121q-39 80 -139 80q-97 0 -162.5 -100t-65.5 -310zM70 483q0 269 153 412q142 133 383 133q105 0 172 -27v134h-194v178h192q-3 33 -14 46.5t-33 18.5l-72 13v73l416 56l14 -13v-194
h134v-178h-134v-957q0 -63 22.5 -79t111.5 -21v-78h-443v102q-79 -63 -157.5 -95t-139.5 -32q-192 0 -301.5 140t-109.5 368z" />
    <glyph glyph-name="Emacron" unicode="&#x112;" horiz-adv-x="1288" 
d="M68 0v78q109 5 135 24t26 97v1020q0 78 -26 96.5t-135 23.5v78h1103v-379h-77q-15 50 -26 80.5t-26.5 64.5t-30.5 53t-37 38t-49 28.5t-62.5 15t-80.5 5.5h-153q-43 0 -57.5 -15t-14.5 -59v-452h195q95 0 129 34.5t59 149.5h78v-475h-78q-25 115 -59 149.5t-129 34.5
h-195v-446q0 -94 52 -122t200 -28q87 0 142.5 16.5t94.5 68.5t56.5 92.5t52.5 143.5q1 2 1.5 3.5t1 3.5t1.5 4h78l-25 -426h-1144zM293 1567v178h717v-178h-717z" />
    <glyph glyph-name="emacron" unicode="&#x113;" horiz-adv-x="1062" 
d="M395 614h254q36 0 50 14t14 54q0 42 -5.5 81t-20 80t-45.5 66t-75 25q-48 0 -83 -28.5t-53.5 -77t-27 -102t-8.5 -112.5zM70 502q0 89 17 165.5t55 143.5t95.5 114.5t143.5 75t194 27.5q113 0 199 -29t134 -72t77.5 -103t39 -112.5t9.5 -109.5q0 -48 -26 -67t-84 -19
h-529q0 -84 14.5 -151t45.5 -120.5t85.5 -82.5t129.5 -29q179 0 274 182l74 -41q-116 -299 -447 -299q-111 0 -198 28.5t-143 76.5t-93 116.5t-52 143.5t-15 162zM254 1202v178h637v-178h-637z" />
    <glyph glyph-name="Ebreve" unicode="&#x114;" horiz-adv-x="1288" 
d="M68 0v78q109 5 135 24t26 97v1020q0 78 -26 96.5t-135 23.5v78h1103v-379h-77q-15 50 -26 80.5t-26.5 64.5t-30.5 53t-37 38t-49 28.5t-62.5 15t-80.5 5.5h-153q-43 0 -57.5 -15t-14.5 -59v-452h195q95 0 129 34.5t59 149.5h78v-475h-78q-25 115 -59 149.5t-129 34.5
h-195v-446q0 -94 52 -122t200 -28q87 0 142.5 16.5t94.5 68.5t56.5 92.5t52.5 143.5q1 2 1.5 3.5t1 3.5t1.5 4h78l-25 -426h-1144zM313 1835h84q2 -22 14 -43.5t38 -45t78 -38t124 -14.5t124 14.5t78 38t38 45t14 43.5h84q0 -50 -7.5 -91t-29.5 -82.5t-58.5 -69.5t-98 -46
t-144.5 -18t-144.5 18t-98 46t-58.5 69.5t-29.5 82.5t-7.5 91z" />
    <glyph glyph-name="ebreve" unicode="&#x115;" horiz-adv-x="1062" 
d="M395 614h254q36 0 50 14t14 54q0 42 -5.5 81t-20 80t-45.5 66t-75 25q-48 0 -83 -28.5t-53.5 -77t-27 -102t-8.5 -112.5zM70 502q0 89 17 165.5t55 143.5t95.5 114.5t143.5 75t194 27.5q113 0 199 -29t134 -72t77.5 -103t39 -112.5t9.5 -109.5q0 -48 -26 -67t-84 -19
h-529q0 -84 14.5 -151t45.5 -120.5t85.5 -82.5t129.5 -29q179 0 274 182l74 -41q-116 -299 -447 -299q-111 0 -198 28.5t-143 76.5t-93 116.5t-52 143.5t-15 162zM246 1466h78q1 -18 6.5 -35t22 -39.5t42 -39t71 -28t105.5 -11.5t105.5 11.5t71 28t42.5 39t22.5 39.5t6.5 35
h80q0 -41 -4 -74.5t-15.5 -73.5t-34.5 -70t-57.5 -55.5t-89.5 -39.5t-125 -14q-85 0 -146.5 20t-95.5 49.5t-54 75.5t-25.5 87t-5.5 95z" />
    <glyph glyph-name="Edotaccent" unicode="&#x116;" horiz-adv-x="1288" 
d="M68 0v78q109 5 135 24t26 97v1020q0 78 -26 96.5t-135 23.5v78h1103v-379h-77q-15 50 -26 80.5t-26.5 64.5t-30.5 53t-37 38t-49 28.5t-62.5 15t-80.5 5.5h-153q-43 0 -57.5 -15t-14.5 -59v-452h195q95 0 129 34.5t59 149.5h78v-475h-78q-25 115 -59 149.5t-129 34.5
h-195v-446q0 -94 52 -122t200 -28q87 0 142.5 16.5t94.5 68.5t56.5 92.5t52.5 143.5q1 2 1.5 3.5t1 3.5t1.5 4h78l-25 -426h-1144zM489 1651q0 62 44 107.5t118 45.5t118 -45.5t44 -107.5t-44 -108t-118 -46t-118 46t-44 108z" />
    <glyph glyph-name="edotaccent" unicode="&#x117;" horiz-adv-x="1062" 
d="M395 614h254q36 0 50 14t14 54q0 42 -5.5 81t-20 80t-45.5 66t-75 25q-48 0 -83 -28.5t-53.5 -77t-27 -102t-8.5 -112.5zM70 502q0 89 17 165.5t55 143.5t95.5 114.5t143.5 75t194 27.5q113 0 199 -29t134 -72t77.5 -103t39 -112.5t9.5 -109.5q0 -48 -26 -67t-84 -19
h-529q0 -84 14.5 -151t45.5 -120.5t85.5 -82.5t129.5 -29q179 0 274 182l74 -41q-116 -299 -447 -299q-111 0 -198 28.5t-143 76.5t-93 116.5t-52 143.5t-15 162zM412 1300q0 62 43.5 108t117.5 46t118 -46t44 -108t-44 -107.5t-118 -45.5t-117.5 45.5t-43.5 107.5z" />
    <glyph glyph-name="Eogonek" unicode="&#x118;" horiz-adv-x="1288" 
d="M68 0v78q109 5 135 24t26 97v1020q0 78 -26 96.5t-135 23.5v78h1103v-379h-77q-15 50 -26 80.5t-26.5 64.5t-30.5 53t-37 38t-49 28.5t-62.5 15t-80.5 5.5h-153q-43 0 -57.5 -15t-14.5 -59v-452h195q95 0 129 34.5t59 149.5h78v-475h-78q-25 115 -59 149.5t-129 34.5
h-195v-446q0 -94 52 -122t200 -28q87 0 142.5 16.5t94.5 68.5t56.5 92.5t52.5 143.5q1 2 1.5 3.5t1 3.5t1.5 4h78l-25 -426h-147q-164 -133 -164 -262q1 -60 33.5 -91.5t85.5 -31.5q54 0 100 27l31 -56q-99 -82 -215 -82q-60 0 -105.5 13.5t-71 33t-41 47.5t-20 51.5
t-4.5 49.5q0 86 70 164t180 137h-876z" />
    <glyph glyph-name="eogonek" unicode="&#x119;" horiz-adv-x="1062" 
d="M395 614h254q36 0 50 14t14 54q0 42 -5.5 81t-20 80t-45.5 66t-75 25q-48 0 -83 -28.5t-53.5 -77t-27 -102t-8.5 -112.5zM70 502q0 89 17 165.5t55 143.5t95.5 114.5t143.5 75t194 27.5q113 0 199 -29t134 -72t77.5 -103t39 -112.5t9.5 -109.5q0 -48 -26 -67t-84 -19
h-529q0 -84 14.5 -151t45.5 -120.5t85.5 -82.5t129.5 -29q179 0 274 182l74 -41q-25 -66 -71 -130t-89 -107q-174 -174 -174 -299q0 -59 33 -91t86 -32q54 0 100 27l31 -56q-99 -82 -215 -82q-60 0 -105.5 13.5t-71 33t-41 47.5t-20 51.5t-4.5 49.5q0 150 223 293
q-67 -17 -129 -17q-111 0 -198 28.5t-143 76.5t-93 116.5t-52 143.5t-15 162z" />
    <glyph glyph-name="Ecaron" unicode="&#x11a;" horiz-adv-x="1288" 
d="M68 0v78q109 5 135 24t26 97v1020q0 78 -26 96.5t-135 23.5v78h1103v-379h-77q-15 50 -26 80.5t-26.5 64.5t-30.5 53t-37 38t-49 28.5t-62.5 15t-80.5 5.5h-153q-43 0 -57.5 -15t-14.5 -59v-452h195q95 0 129 34.5t59 149.5h78v-475h-78q-25 115 -59 149.5t-129 34.5
h-195v-446q0 -94 52 -122t200 -28q87 0 142.5 16.5t94.5 68.5t56.5 92.5t52.5 143.5q1 2 1.5 3.5t1 3.5t1.5 4h78l-25 -426h-1144zM266 1815l39 61l266 -123q64 -31 78 -31q22 0 82 31l268 123l37 -61l-291 -261q-50 -47 -96 -47q-40 0 -92 49z" />
    <glyph glyph-name="ecaron" unicode="&#x11b;" horiz-adv-x="1062" 
d="M395 614h254q36 0 50 14t14 54q0 42 -5.5 81t-20 80t-45.5 66t-75 25q-48 0 -83 -28.5t-53.5 -77t-27 -102t-8.5 -112.5zM70 502q0 89 17 165.5t55 143.5t95.5 114.5t143.5 75t194 27.5q113 0 199 -29t134 -72t77.5 -103t39 -112.5t9.5 -109.5q0 -48 -26 -67t-84 -19
h-529q0 -84 14.5 -151t45.5 -120.5t85.5 -82.5t129.5 -29q179 0 274 182l74 -41q-116 -299 -447 -299q-111 0 -198 28.5t-143 76.5t-93 116.5t-52 143.5t-15 162zM190 1475l50 55l256 -193q57 -39 77 -39q21 0 78 39l256 193l49 -55l-292 -347q-56 -63 -91 -63q-37 0 -90 63
z" />
    <glyph glyph-name="Gcircumflex" unicode="&#x11c;" horiz-adv-x="1486" 
d="M86 698q0 67 7.5 131t29.5 141t56.5 142.5t94 129t136.5 108t189.5 71.5t248.5 27q303 0 469 -90v-373h-78q-24 75 -52.5 133.5t-73 115.5t-109.5 88.5t-146 31.5q-74 0 -135 -24.5t-102.5 -63.5t-73.5 -94t-50 -111t-29.5 -120t-15 -114.5t-3.5 -101.5q0 -43 2 -85
t11 -111t24 -128t44.5 -124t69.5 -110t102 -74.5t138 -29.5q104 0 137 19t33 74v288q0 41 -4 60.5t-24.5 33.5t-51.5 18.5t-96 8.5v78h618v-78q-40 -4 -59.5 -8.5t-34 -17.5t-18 -32.5t-3.5 -57.5v-381q-105 -46 -241 -72.5t-256 -26.5q-308 0 -478 113q-276 184 -276 616z
M463 1546l291 258q52 49 92 49q46 0 96 -47l291 -260l-37 -61l-268 123q-58 30 -82 30q-16 0 -78 -30l-266 -123z" />
    <glyph glyph-name="gcircumflex" unicode="&#x11d;" horiz-adv-x="1091" 
d="M389 686q0 -105 43.5 -170t110.5 -65q70 0 111.5 64t41.5 173q0 122 -43 184t-108 62q-67 0 -111.5 -62.5t-44.5 -185.5zM328 -176q0 -104 76 -164.5t184 -60.5q111 0 182.5 50.5t71.5 153.5q0 89 -72 126.5t-211 37.5q-132 0 -180 -30q-51 -35 -51 -113zM51 -197
q0 48 23.5 84.5t65 58.5t74.5 32.5t75 19.5v4q-72 16 -130.5 72t-58.5 121q0 61 59.5 112t159.5 76v4q-102 16 -175.5 94.5t-73.5 198.5q0 51 13.5 98t48.5 93.5t87.5 80.5t136.5 55t191 21q82 0 161.5 -18.5t131.5 -48.5l256 88l22 -23l-41 -154l-135 -24q21 -27 34 -71
t13 -89q0 -71 -24.5 -128t-66.5 -94.5t-101 -62.5t-124.5 -36t-140.5 -11q-55 0 -94 4q-29 -6 -55.5 -25.5t-26.5 -49.5t34 -50t104 -20h190q67 0 125 -9.5t110.5 -33t89.5 -59t59 -91.5t22 -128q0 -107 -51.5 -187.5t-139.5 -126.5q-70 -38 -167 -57t-175 -19
q-149 0 -261.5 32t-178.5 100.5t-66 166.5zM145 1120l293 346q54 64 90 64q33 0 90 -64l293 -346l-49 -55l-256 192q-57 39 -78 39q-20 0 -77 -39l-256 -192z" />
    <glyph glyph-name="Gbreve" unicode="&#x11e;" horiz-adv-x="1486" 
d="M86 698q0 67 7.5 131t29.5 141t56.5 142.5t94 129t136.5 108t189.5 71.5t248.5 27q303 0 469 -90v-373h-78q-24 75 -52.5 133.5t-73 115.5t-109.5 88.5t-146 31.5q-74 0 -135 -24.5t-102.5 -63.5t-73.5 -94t-50 -111t-29.5 -120t-15 -114.5t-3.5 -101.5q0 -43 2 -85
t11 -111t24 -128t44.5 -124t69.5 -110t102 -74.5t138 -29.5q104 0 137 19t33 74v288q0 41 -4 60.5t-24.5 33.5t-51.5 18.5t-96 8.5v78h618v-78q-40 -4 -59.5 -8.5t-34 -17.5t-18 -32.5t-3.5 -57.5v-381q-105 -46 -241 -72.5t-256 -26.5q-308 0 -478 113q-276 184 -276 616z
M510 1835h84q2 -22 14 -43.5t38 -45t78 -38t124 -14.5t124 14.5t78 38t38 45t14 43.5h84q0 -50 -7.5 -91t-29.5 -82.5t-58.5 -69.5t-98 -46t-144.5 -18t-144.5 18t-98 46t-58.5 69.5t-29.5 82.5t-7.5 91z" />
    <glyph glyph-name="gbreve" unicode="&#x11f;" horiz-adv-x="1091" 
d="M389 686q0 -105 43.5 -170t110.5 -65q70 0 111.5 64t41.5 173q0 122 -43 184t-108 62q-67 0 -111.5 -62.5t-44.5 -185.5zM328 -176q0 -104 76 -164.5t184 -60.5q111 0 182.5 50.5t71.5 153.5q0 89 -72 126.5t-211 37.5q-132 0 -180 -30q-51 -35 -51 -113zM51 -197
q0 48 23.5 84.5t65 58.5t74.5 32.5t75 19.5v4q-72 16 -130.5 72t-58.5 121q0 61 59.5 112t159.5 76v4q-102 16 -175.5 94.5t-73.5 198.5q0 51 13.5 98t48.5 93.5t87.5 80.5t136.5 55t191 21q82 0 161.5 -18.5t131.5 -48.5l256 88l22 -23l-41 -154l-135 -24q21 -27 34 -71
t13 -89q0 -71 -24.5 -128t-66.5 -94.5t-101 -62.5t-124.5 -36t-140.5 -11q-55 0 -94 4q-29 -6 -55.5 -25.5t-26.5 -49.5t34 -50t104 -20h190q67 0 125 -9.5t110.5 -33t89.5 -59t59 -91.5t22 -128q0 -107 -51.5 -187.5t-139.5 -126.5q-70 -38 -167 -57t-175 -19
q-149 0 -261.5 32t-178.5 100.5t-66 166.5zM201 1466h78q1 -18 6.5 -35t22 -39.5t42 -39t71 -28t105.5 -11.5t105.5 11.5t71 28t42.5 39t22.5 39.5t6.5 35h80q0 -41 -4 -74.5t-15.5 -73.5t-34.5 -70t-57.5 -55.5t-89.5 -39.5t-125 -14q-85 0 -146.5 20t-95.5 49.5t-54 75.5
t-25.5 87t-5.5 95z" />
    <glyph glyph-name="Gdotaccent" unicode="&#x120;" horiz-adv-x="1486" 
d="M86 698q0 67 7.5 131t29.5 141t56.5 142.5t94 129t136.5 108t189.5 71.5t248.5 27q303 0 469 -90v-373h-78q-24 75 -52.5 133.5t-73 115.5t-109.5 88.5t-146 31.5q-74 0 -135 -24.5t-102.5 -63.5t-73.5 -94t-50 -111t-29.5 -120t-15 -114.5t-3.5 -101.5q0 -43 2 -85
t11 -111t24 -128t44.5 -124t69.5 -110t102 -74.5t138 -29.5q104 0 137 19t33 74v288q0 41 -4 60.5t-24.5 33.5t-51.5 18.5t-96 8.5v78h618v-78q-40 -4 -59.5 -8.5t-34 -17.5t-18 -32.5t-3.5 -57.5v-381q-105 -46 -241 -72.5t-256 -26.5q-308 0 -478 113q-276 184 -276 616z
M686 1651q0 62 44 107.5t118 45.5t118 -45.5t44 -107.5t-44 -108t-118 -46t-118 46t-44 108z" />
    <glyph glyph-name="gdotaccent" unicode="&#x121;" horiz-adv-x="1091" 
d="M389 686q0 -105 43.5 -170t110.5 -65q70 0 111.5 64t41.5 173q0 122 -43 184t-108 62q-67 0 -111.5 -62.5t-44.5 -185.5zM328 -176q0 -104 76 -164.5t184 -60.5q111 0 182.5 50.5t71.5 153.5q0 89 -72 126.5t-211 37.5q-132 0 -180 -30q-51 -35 -51 -113zM51 -197
q0 48 23.5 84.5t65 58.5t74.5 32.5t75 19.5v4q-72 16 -130.5 72t-58.5 121q0 61 59.5 112t159.5 76v4q-102 16 -175.5 94.5t-73.5 198.5q0 51 13.5 98t48.5 93.5t87.5 80.5t136.5 55t191 21q82 0 161.5 -18.5t131.5 -48.5l256 88l22 -23l-41 -154l-135 -24q21 -27 34 -71
t13 -89q0 -71 -24.5 -128t-66.5 -94.5t-101 -62.5t-124.5 -36t-140.5 -11q-55 0 -94 4q-29 -6 -55.5 -25.5t-26.5 -49.5t34 -50t104 -20h190q67 0 125 -9.5t110.5 -33t89.5 -59t59 -91.5t22 -128q0 -107 -51.5 -187.5t-139.5 -126.5q-70 -38 -167 -57t-175 -19
q-149 0 -261.5 32t-178.5 100.5t-66 166.5zM367 1300q0 62 43.5 108t117.5 46t118 -46t44 -108t-44 -107.5t-118 -45.5t-117.5 45.5t-43.5 107.5z" />
    <glyph glyph-name="uni0122" unicode="&#x122;" horiz-adv-x="1486" 
d="M690 -633q48 54 70 94.5t22 94.5q0 28 -35.5 82t-35.5 90q0 48 33.5 83t86.5 35q68 0 112 -46.5t44 -127.5q0 -42 -16.5 -84.5t-39 -75.5t-60.5 -70.5t-66.5 -61t-71.5 -56.5zM84 698q0 67 7.5 131t29.5 141t56.5 142.5t94 129t136.5 108t189.5 71.5t248.5 27
q303 0 469 -90v-373h-78q-24 75 -52.5 133.5t-73 115.5t-109.5 88.5t-146 31.5q-86 0 -154.5 -31.5t-111.5 -86t-73 -117.5t-44.5 -138.5t-20.5 -135.5t-6 -120q0 -42 2 -84.5t11 -111.5t24 -128t45 -124t70 -110t102 -74.5t138 -29.5q104 0 137 19t33 74v288q0 40 -4.5 60
t-25 34t-51.5 18.5t-96 8.5v78h619v-78q-40 -4 -59.5 -8.5t-34 -17.5t-18 -32.5t-3.5 -57.5v-381q-105 -46 -241 -72.5t-256 -26.5q-308 0 -478 113q-276 184 -276 616z" />
    <glyph glyph-name="Hcircumflex" unicode="&#x124;" horiz-adv-x="1652" 
d="M68 0v78q109 5 135 24t26 97v1020q0 78 -26 96.5t-135 23.5v78h651v-78q-59 -2 -87 -6t-47.5 -17.5t-23.5 -34t-4 -62.5v-422h539v422q0 42 -4 62.5t-23.5 34t-47.5 17.5t-87 6v78h651v-78q-59 -2 -87 -6t-47.5 -17.5t-23.5 -34t-4 -62.5v-1020q0 -78 26.5 -97t135.5 -24
v-78h-651v78q109 5 135.5 24t26.5 97v499h-539v-499q0 -78 26.5 -97t135.5 -24v-78h-651zM442 1546l291 258q52 49 92 49q47 0 97 -47l290 -260l-36 -61l-269 123q-58 30 -82 30q-15 0 -77 -30l-267 -123z" />
    <glyph glyph-name="hcircumflex" unicode="&#x125;" horiz-adv-x="1292" 
d="M39 0v78q89 5 111 20.5t22 79.5v1094q0 58 -11 79.5t-38 26.5l-72 13v73l416 56l14 -13v-620q62 39 93 57t79 42t89 33t85 9q157 0 235.5 -84t78.5 -233v-533q0 -64 22 -79.5t111 -20.5v-78h-551v78l43 4q36 3 50.5 18.5t14.5 63.5v516q0 92 -41.5 141t-119.5 49
q-60 0 -103 -28t-65 -72q-21 -44 -21 -121v-485q0 -48 15 -63.5t51 -18.5l43 -4v-78h-551zM272 1612l293 346q53 63 90 63q34 0 90 -63l293 -346l-49 -56l-256 193q-57 39 -78 39q-20 0 -77 -39l-256 -193z" />
    <glyph glyph-name="Hbar" unicode="&#x126;" horiz-adv-x="1652" 
d="M557 797h539v336h-539v-336zM68 0v78q109 5 135 24t26 97v934h-143v94h143q0 71 -27 89t-134 23v78h651v-78q-107 -5 -134.5 -23t-27.5 -89h539q0 71 -27.5 89t-134.5 23v78h651v-78q-107 -5 -134.5 -23t-27.5 -89h144v-94h-144v-934q0 -78 26.5 -97t135.5 -24v-78h-651
v78q109 5 135.5 24t26.5 97v499h-539v-499q0 -78 26.5 -97t135.5 -24v-78h-651z" />
    <glyph glyph-name="hbar" unicode="&#x127;" horiz-adv-x="1292" 
d="M35 1147v92h137v33q0 58 -11 79.5t-38 26.5l-72 13v73l416 56l14 -13v-268h416v-92h-416v-260q62 39 93 57t79 42t89 33t85 9q157 0 235.5 -84t78.5 -233v-533q0 -64 22 -79.5t111 -20.5v-78h-551v78l43 4q36 3 50.5 18.5t14.5 63.5v516q0 92 -41.5 141t-119.5 49
q-60 0 -103 -28t-65 -72q-21 -44 -21 -121v-485q0 -48 15 -63.5t51 -18.5l43 -4v-78h-551v78q89 5 111 20.5t22 79.5v969h-137z" />
    <glyph glyph-name="Itilde" unicode="&#x128;" horiz-adv-x="786" 
d="M-41 1518q15 36 27 61t38 64t53 63t69 42.5t90 18.5q65 0 188 -43q10 -3 39 -11.5t42 -12.5t35 -9.5t38.5 -7.5t31.5 -2q55 0 86.5 25t67.5 88l65 -37q-15 -37 -27 -61t-37.5 -63.5t-52.5 -64t-69 -43t-90 -18.5q-15 0 -31 2t-37 7.5t-34 9.5t-40.5 12.5t-37.5 11.5
q-123 43 -195 43q-55 0 -86 -24.5t-67 -87.5zM68 0v78q109 5 135 24t26 97v1020q0 78 -26 96.5t-135 23.5v78h651v-78q-59 -2 -87 -6t-47.5 -17.5t-23.5 -34t-4 -62.5v-1020q0 -78 26.5 -97t135.5 -24v-78h-651z" />
    <glyph glyph-name="itilde" unicode="&#x129;" horiz-adv-x="647" 
d="M-94 1169q15 37 27 61t37.5 63.5t52.5 64t69 43t90 18.5q66 0 189 -43q10 -3 39 -11.5t42 -12.5t35 -9.5t38.5 -7.5t31.5 -2q55 0 86.5 25t67.5 88l65 -37q-15 -37 -27 -61t-37.5 -63.5t-52.5 -64t-69 -43t-90 -18.5q-15 0 -31 2t-37.5 7.5t-33.5 9t-41 12.5t-38 12
q-123 43 -194 43q-55 0 -87 -24.5t-67 -87.5zM53 0v78q89 5 111 20.5t22 79.5v602q0 59 -11.5 80.5t-37.5 24.5l-71 10v74l415 59l15 -12v-838q0 -64 22 -79.5t111 -20.5v-78h-576z" />
    <glyph glyph-name="Imacron" unicode="&#x12a;" horiz-adv-x="786" 
d="M68 0v78q109 5 135 24t26 97v1020q0 78 -26 96.5t-135 23.5v78h651v-78q-59 -2 -87 -6t-47.5 -17.5t-23.5 -34t-4 -62.5v-1020q0 -78 26.5 -97t135.5 -24v-78h-651zM35 1567v178h717v-178h-717z" />
    <glyph glyph-name="Ibreve" unicode="&#x12c;" horiz-adv-x="786" 
d="M68 0v78q109 5 135 24t26 97v1020q0 78 -26 96.5t-135 23.5v78h651v-78q-59 -2 -87 -6t-47.5 -17.5t-23.5 -34t-4 -62.5v-1020q0 -78 26.5 -97t135.5 -24v-78h-651zM55 1835h84q2 -22 14 -43.5t38 -45t78 -38t124 -14.5t124 14.5t78 38t38 45t14 43.5h84q0 -50 -7.5 -91
t-29.5 -82.5t-58.5 -69.5t-98 -46t-144.5 -18t-144.5 18t-98 46t-58.5 69.5t-29.5 82.5t-7.5 91z" />
    <glyph glyph-name="Iogonek" unicode="&#x12e;" horiz-adv-x="786" 
d="M68 0l2 78q109 5 135 24t26 97v1020q0 78 -26 96.5t-135 23.5v78h651v-78q-59 -2 -87 -6t-47.5 -17.5t-23.5 -34t-4 -62.5v-1020q0 -78 26.5 -97t135.5 -24v-78h-287q-149 -128 -149 -250q1 -60 35.5 -93.5t87.5 -33.5q54 0 100 27l31 -56q-98 -81 -215 -81
q-60 0 -105 14.5t-69.5 35t-39 49.5t-18.5 51.5t-4 47.5q0 70 62 151t155 138h-237z" />
    <glyph glyph-name="Idotaccent" unicode="&#x130;" horiz-adv-x="786" 
d="M68 0v78q109 5 135 24t26 97v1020q0 78 -26 96.5t-135 23.5v78h651v-78q-59 -2 -87 -6t-47.5 -17.5t-23.5 -34t-4 -62.5v-1020q0 -78 26.5 -97t135.5 -24v-78h-651zM231 1651q0 62 44 107.5t118 45.5t118 -45.5t44 -107.5t-44 -108t-118 -46t-118 46t-44 108z" />
    <glyph glyph-name="dotlessi" unicode="&#x131;" horiz-adv-x="647" 
d="M53 0v78q89 5 111 20.5t22 79.5v602q0 59 -11.5 80.5t-37.5 24.5l-71 10v74l415 59l15 -12v-838q0 -64 22 -79.5t111 -20.5v-78h-576z" />
    <glyph glyph-name="IJ" unicode="&#x132;" horiz-adv-x="1576" 
d="M799 -170q55 18 90 39t67 57q80 90 80 373v920q0 42 -4 62.5t-23.5 34t-47.5 17.5t-87 6v78h652v-78q-59 -2 -87 -6t-47.5 -17.5t-23.5 -34t-4 -62.5v-926q0 -180 -49 -292t-164 -167q-149 -70 -340 -67zM68 0v78q109 5 135 24t26 97v1020q0 78 -26 96.5t-135 23.5v78
h651v-78q-59 -2 -87 -6t-47.5 -17.5t-23.5 -34t-4 -62.5v-1020q0 -78 26.5 -97t135.5 -24v-78h-651z" />
    <glyph glyph-name="ij" unicode="&#x133;" horiz-adv-x="1294" 
d="M623 -412q98 32 147 93q78 99 78 382v717q0 59 -11.5 80.5t-37.5 24.5l-72 10v74l416 59l14 -12v-965q0 -177 -42.5 -290.5t-143.5 -166.5q-133 -69 -340 -69zM805 1296q0 75 51 127t135 52q85 0 137 -52t52 -127t-53 -127.5t-136 -52.5q-84 0 -135 52t-51 128zM53 0v78
q89 5 111 20.5t22 79.5v602q0 59 -11.5 80.5t-37.5 24.5l-71 10v74l415 59l15 -12v-838q0 -64 22 -79.5t111 -20.5v-78h-576zM143 1296q0 75 51.5 127t135.5 52q85 0 136.5 -52t51.5 -127t-52.5 -127.5t-135.5 -52.5q-84 0 -135.5 52t-51.5 128z" />
    <glyph glyph-name="Jcircumflex" unicode="&#x134;" horiz-adv-x="790" 
d="M12 -170q56 18 91.5 39t66.5 57q80 90 80 373v920q0 42 -4 62.5t-23.5 34t-47.5 17.5t-87 6v78h651v-78q-109 -5 -135 -23.5t-26 -96.5v-926q0 -180 -49 -292t-164 -167q-149 -70 -340 -67zM29 1546l290 258q52 49 93 49q46 0 96 -47l291 -260l-37 -61l-268 123
q-58 30 -82 30q-16 0 -78 -30l-266 -123z" />
    <glyph glyph-name="uni0136" unicode="&#x136;" horiz-adv-x="1447" 
d="M1323 -614q49 54 70.5 94t21.5 94q0 28 -36 82t-36 90q0 48 34 83.5t87 35.5q68 0 112 -46.5t44 -127.5q0 -42 -16.5 -84.5t-39 -75.5t-60.5 -70.5t-66.5 -61t-71.5 -56.5zM66 0v78q109 5 135 24t26 97v1020q0 78 -26 96.5t-135 23.5v78h651v-78q-59 -2 -87 -6
t-47.5 -17.5t-23.5 -34t-4 -62.5v-484l215 248q103 118 238 291q41 50 -13 57l-86 12v74h557v-74q-89 -7 -133 -23.5t-102 -59.5q-51 -39 -109 -92t-86.5 -81.5t-112 -117.5t-104.5 -111q92 -153 226.5 -341t257.5 -329q88 -102 147 -116l20 -6v-78l-139 4q-132 4 -213.5 27
t-144 74t-133.5 151q-66 95 -97 140.5t-82.5 130t-101.5 179.5h-4v-495q0 -78 26.5 -97t135.5 -24v-78h-651z" />
    <glyph glyph-name="uni0137" unicode="&#x137;" horiz-adv-x="1191" 
d="M479 -602q49 54 70.5 94t21.5 94q0 28 -35.5 82t-35.5 90q0 48 34 83.5t87 35.5q68 0 111.5 -46.5t43.5 -127.5q0 -42 -16.5 -84.5t-39 -75.5t-60.5 -70.5t-66.5 -61t-71.5 -56.5zM37 0v78q89 5 111 20.5t22 79.5v1094q0 58 -11 79.5t-38 26.5l-72 13v73l416 56l14 -13
v-950h4l148 209q103 144 127 176q51 62 121 62h297v-66q-120 -26 -217 -84.5t-189 -146.5l-45 -45q179 -283 360 -486q46 -53 73 -75.5t59 -34.5v-66h-185q-115 0 -182.5 26t-120.5 95q-126 168 -246 399h-4v-342q0 -64 22 -79.5t111 -20.5v-78h-575z" />
    <glyph glyph-name="kgreenlandic" unicode="&#x138;" horiz-adv-x="1417" 
d="M209 0v768q0 118 -49 127l-70 12v74l414 55l14 -12v-455q29 46 42 67t42.5 65.5t47 68t47 62t51 59t50.5 47t53.5 40t53.5 23t56 9.5h319v-78q-278 -54 -524 -297q60 -79 91 -119.5t95 -117t114.5 -125.5t122.5 -107t144 -100v-80h-205q-66 0 -125.5 14.5t-104.5 36.5
t-88.5 58t-73 69t-63 81t-53 82t-48 83.5t-44.5 74.5v-485h-309z" />
    <glyph glyph-name="Lacute" unicode="&#x139;" horiz-adv-x="1198" 
d="M68 0v78q109 5 135 24t26 97v1020q0 78 -26 96.5t-135 23.5v78h675v-78q-47 -2 -73.5 -3.5t-50 -7t-33.5 -12.5t-18 -21.5t-9.5 -31t-1.5 -44.5v-975q0 -95 46 -122.5t181 -27.5q54 0 95 6.5t72.5 28t50.5 37t41 59.5t31 67.5t32 86.5l12 33h78l-25 -412h-1103zM412 1538
l352 252q47 35 75 48t56 13q45 0 78 -47t33 -84q0 -42 -32 -65t-118 -51l-416 -131z" />
    <glyph glyph-name="lacute" unicode="&#x13a;" horiz-adv-x="632" 
d="M39 0v78q89 5 111 20.5t22 79.5v1094q0 58 -11 79.5t-38 26.5l-72 13v73l416 56l14 -13v-1329q0 -64 22 -79.5t111 -20.5v-78h-575zM141 1599l297 306q57 59 89 80.5t63 21.5q36 0 72 -42t36 -81q0 -36 -35.5 -66.5t-103.5 -68.5l-375 -211z" />
    <glyph glyph-name="uni013B" unicode="&#x13b;" horiz-adv-x="1198" 
d="M471 -602q49 54 70.5 94t21.5 94q0 28 -35.5 82t-35.5 90q0 48 33.5 83.5t86.5 35.5q68 0 112 -46.5t44 -127.5q0 -42 -16.5 -84.5t-39 -75.5t-60.5 -70.5t-66.5 -61t-71.5 -56.5zM68 0v78q109 5 135 24t26 97v1020q0 78 -26 96.5t-135 23.5v78h675v-78
q-47 -2 -73.5 -3.5t-50 -7t-33.5 -12.5t-18 -21.5t-9.5 -31t-1.5 -44.5v-975q0 -95 46 -122.5t181 -27.5q54 0 95 6.5t72.5 28t50.5 37t41 59.5t31 67.5t32 86.5l12 33h78l-25 -412h-1103z" />
    <glyph glyph-name="uni013C" unicode="&#x13c;" horiz-adv-x="632" 
d="M178 -602q49 54 70.5 94t21.5 94q0 28 -35.5 82t-35.5 90q0 48 33.5 83.5t86.5 35.5q68 0 112 -46.5t44 -127.5q0 -42 -16.5 -84.5t-39 -75.5t-60.5 -70.5t-66.5 -61t-71.5 -56.5zM39 0v78q89 5 111 20.5t22 79.5v1094q0 58 -11 79.5t-38 26.5l-72 13v73l416 56l14 -13
v-1329q0 -64 22 -79.5t111 -20.5v-78h-575z" />
    <glyph glyph-name="Lcaron" unicode="&#x13d;" horiz-adv-x="1198" 
d="M68 0v78q109 5 135 24t26 97v1020q0 78 -26 96.5t-135 23.5v78h675v-78q-47 -2 -73.5 -3.5t-50 -7t-33.5 -12.5t-18 -21.5t-9.5 -31t-1.5 -44.5v-975q0 -95 46 -122.5t181 -27.5q54 0 95 6.5t72.5 28t50.5 37t41 59.5t31 67.5t32 86.5l12 33h78l-25 -412h-1103zM815 1534
q0 60 34.5 93.5t96.5 33.5q78 0 121 -60t43 -151q0 -93 -45 -189t-113 -171l-65 47q33 70 33 188q0 29 -16.5 56.5t-36 47t-36 48t-16.5 57.5z" />
    <glyph glyph-name="lcaron" unicode="&#x13e;" horiz-adv-x="786" 
d="M39 0v78q89 5 111 20.5t22 79.5v1094q0 58 -11 79.5t-38 26.5l-72 13v73l416 56l14 -13v-1329q0 -64 22 -79.5t111 -20.5v-78h-575zM539 1534q0 60 34.5 93.5t96.5 33.5q78 0 121 -60t43 -151q0 -93 -45 -189t-113 -171l-66 47q33 70 33 188q0 29 -16.5 56.5t-35.5 47
t-35.5 48t-16.5 57.5z" />
    <glyph glyph-name="Ldot" unicode="&#x13f;" horiz-adv-x="1198" 
d="M68 0v78q109 5 135 24t26 97v1020q0 78 -26 96.5t-135 23.5v78h675v-78q-47 -2 -73.5 -3.5t-50 -7t-33.5 -12.5t-18 -21.5t-9.5 -31t-1.5 -44.5v-523q24 4 41 4q85 0 137.5 -52.5t52.5 -137.5t-52.5 -138t-137.5 -53q-11 0 -41 5v-80q0 -95 46 -122.5t181 -27.5
q54 0 95 6.5t72.5 28t50.5 37t41 59.5t31 67.5t32 86.5l12 33h78l-25 -412h-1103z" />
    <glyph glyph-name="ldot" unicode="&#x140;" horiz-adv-x="1206" 
d="M729 510q0 85 53 137.5t138 52.5t137.5 -52.5t52.5 -137.5t-52.5 -138t-137.5 -53t-138 53t-53 138zM39 0v78q89 5 111 20.5t22 79.5v1094q0 58 -11 79.5t-38 26.5l-72 13v73l416 56l14 -13v-1329q0 -64 22 -79.5t111 -20.5v-78h-575z" />
    <glyph glyph-name="Lslash" unicode="&#x141;" horiz-adv-x="1210" 
d="M61 365v122l181 129v603q0 42 -4 62.5t-23.5 34t-47.5 17.5t-87 6v78h676v-78q-47 -2 -73.5 -3.5t-50 -7t-34 -12.5t-18.5 -21.5t-9.5 -31t-1.5 -44.5v-367l293 211v-123l-293 -211v-485q0 -95 46.5 -122.5t181.5 -27.5q65 0 111.5 12.5t77 33.5t54.5 59t40 78t38 100
q2 8 3.5 12t4 10.5t4.5 12.5h78l-24 -412h-1104v78q109 5 135.5 24t26.5 97v295z" />
    <glyph glyph-name="lslash" unicode="&#x142;" horiz-adv-x="657" 
d="M33 422v121l151 114v615q0 58 -11 79.5t-38 26.5l-72 13v73l416 56l15 -13v-616l186 141v-119l-186 -141v-594q0 -64 22 -79.5t111 -20.5v-78h-576v78q89 5 111 20.5t22 79.5v359z" />
    <glyph glyph-name="Nacute" unicode="&#x143;" horiz-adv-x="1513" 
d="M57 0v78l72 10q35 4 52 29.5t22 79.5q10 90 10 319v703q0 42 -4 62.5t-23.5 34t-47.5 17.5t-87 6v78h486q141 -218 645 -975h8v459q0 227 -10 320q-5 55 -24.5 80t-61.5 28l-115 10v78h494v-78l-72 -10q-35 -5 -52.5 -29.5t-21.5 -78.5q-10 -90 -10 -320v-901h-225
q-366 572 -744 1143h-8v-627q0 -226 10 -319q5 -55 24.5 -80.5t61.5 -28.5l115 -10v-78h-494zM547 1538l352 252q47 35 75 48t56 13q45 0 78 -47t33 -84q0 -42 -32 -65t-118 -51l-416 -131z" />
    <glyph glyph-name="nacute" unicode="&#x144;" horiz-adv-x="1306" 
d="M53 0v78q89 5 111 20.5t22 79.5v602q0 59 -11.5 80.5t-37.5 24.5l-71 10v74l403 59l27 -141q146 87 201 109q77 32 149 32q154 0 230.5 -83t78.5 -232v-535q0 -64 22 -79.5t111 -20.5v-78h-551v78l43 4q36 3 51 18.5t15 63.5v520q-6 186 -162 186q-60 0 -103 -28t-65 -72
q-20 -41 -20 -121v-485q0 -48 14.5 -63.5t50.5 -18.5l43 -4v-78h-551zM485 1108l297 305q58 59 90 81t62 22q36 0 72 -42t36 -81q0 -36 -36 -67.5t-103 -68.5l-375 -210z" />
    <glyph glyph-name="Ncommaaccent" unicode="&#x145;" horiz-adv-x="1513" 
d="M623 -565q49 54 70.5 94t21.5 94q0 28 -36 82t-36 90q0 48 34 83.5t87 35.5q68 0 112 -46.5t44 -127.5q0 -42 -16.5 -84.5t-39 -75.5t-60.5 -70.5t-66.5 -61t-71.5 -56.5zM57 0v78l72 10q35 4 52 29.5t22 79.5q10 90 10 319v703q0 42 -4 62.5t-23.5 34t-47.5 17.5t-87 6
v78h486q141 -218 645 -975h8v459q0 227 -10 320q-5 55 -24.5 80t-61.5 28l-115 10v78h494v-78l-72 -10q-35 -5 -52.5 -29.5t-21.5 -78.5q-10 -90 -10 -320v-901h-225q-366 572 -744 1143h-8v-627q0 -226 10 -319q5 -55 24.5 -80.5t61.5 -28.5l115 -10v-78h-494z" />
    <glyph glyph-name="ncommaaccent" unicode="&#x146;" horiz-adv-x="1306" 
d="M528 -565q49 54 71 94t22 94q0 28 -36 82t-36 90q0 48 34 83.5t87 35.5q68 0 111.5 -46.5t43.5 -127.5q0 -42 -16.5 -84.5t-39 -75.5t-60.5 -70.5t-66.5 -61t-71.5 -56.5zM53 0v78q89 5 111 20.5t22 79.5v602q0 59 -11.5 80.5t-37.5 24.5l-71 10v74l403 59l27 -141
q146 87 201 109q77 32 149 32q154 0 230.5 -83t78.5 -232v-535q0 -64 22 -79.5t111 -20.5v-78h-551v78l43 4q36 3 51 18.5t15 63.5v520q-6 186 -162 186q-60 0 -103 -28t-65 -72q-20 -41 -20 -121v-485q0 -48 14.5 -63.5t50.5 -18.5l43 -4v-78h-551z" />
    <glyph glyph-name="Ncaron" unicode="&#x147;" horiz-adv-x="1513" 
d="M57 0v78l72 10q35 4 52 29.5t22 79.5q10 90 10 319v703q0 42 -4 62.5t-23.5 34t-47.5 17.5t-87 6v78h486q141 -218 645 -975h8v459q0 227 -10 320q-5 55 -24.5 80t-61.5 28l-115 10v78h494v-78l-72 -10q-35 -5 -52.5 -29.5t-21.5 -78.5q-10 -90 -10 -320v-901h-225
q-366 572 -744 1143h-8v-627q0 -226 10 -319q5 -55 24.5 -80.5t61.5 -28.5l115 -10v-78h-494zM381 1815l39 61l266 -123q64 -31 78 -31q22 0 82 31l268 123l37 -61l-291 -261q-50 -47 -96 -47q-40 0 -92 49z" />
    <glyph glyph-name="ncaron" unicode="&#x148;" horiz-adv-x="1306" 
d="M53 0v78q89 5 111 20.5t22 79.5v602q0 59 -11.5 80.5t-37.5 24.5l-71 10v74l403 59l27 -141q146 87 201 109q77 32 149 32q154 0 230.5 -83t78.5 -232v-535q0 -64 22 -79.5t111 -20.5v-78h-551v78l43 4q36 3 51 18.5t15 63.5v520q-6 186 -162 186q-60 0 -103 -28t-65 -72
q-20 -41 -20 -121v-485q0 -48 14.5 -63.5t50.5 -18.5l43 -4v-78h-551zM289 1475l49 55l256 -193q57 -39 78 -39t78 39l256 193l49 -55l-293 -347q-56 -63 -90 -63q-37 0 -90 63z" />
    <glyph glyph-name="Eng" unicode="&#x14a;" horiz-adv-x="1589" 
d="M68 0v78q109 5 135 24t26 97v1020q0 78 -26 96.5t-135 23.5v78h489v-180q241 211 512 211q194 0 279.5 -113.5t85.5 -339.5v-940q0 -133 -32 -234t-81 -159.5t-118 -95.5t-133 -49.5t-136 -12.5q-171 0 -254.5 58.5t-83.5 140.5q0 61 54.5 99t111.5 38q35 0 58.5 -25
t36 -60t23.5 -70.5t29 -60.5t45 -25q38 0 66 25.5t44.5 67.5t26 108.5t12.5 135t3 160.5v940q0 129 -49.5 186.5t-155.5 57.5q-148 0 -283 -135q-23 -23 -33.5 -38t-19 -48.5t-8.5 -85.5v-774q0 -76 26 -95.5t128 -25.5v-78h-643z" />
    <glyph glyph-name="eng" unicode="&#x14b;" horiz-adv-x="1290" 
d="M53 0v78q89 5 111 20.5t22 79.5v602q0 59 -11.5 80.5t-37.5 24.5l-71 10v74l403 59l27 -141q146 87 201 109q77 32 149 32q156 0 232.5 -84t76.5 -231v-781q0 -207 -96.5 -317.5t-263.5 -110.5q-157 0 -230 52.5t-73 115.5q0 47 45.5 87t101.5 40q34 0 65.5 -31.5
t51 -68.5t44 -68.5t46.5 -31.5q45 0 45 75q0 35 -22.5 164.5t-22.5 181.5v664q0 87 -42.5 136.5t-119.5 49.5q-24 0 -47 -4.5t-50 -19t-46 -38t-32 -64.5t-13 -95v-485q0 -48 14.5 -63.5t50.5 -18.5l43 -4v-78h-551z" />
    <glyph glyph-name="Omacron" unicode="&#x14c;" horiz-adv-x="1572" 
d="M449 709q0 -60 3 -114.5t12 -121.5t24 -123t41 -110.5t60 -92.5t84.5 -61t112.5 -23t113 23.5t85.5 61t60.5 92.5t41 110.5t23.5 122.5t11.5 121.5t3 114.5t-3 114.5t-11.5 121.5t-23.5 122.5t-41 110t-60.5 92.5t-85.5 61t-113 23q-337 0 -337 -645zM86 709
q0 354 176.5 546.5t523.5 192.5t524 -192.5t177 -546.5t-177 -547t-524 -193t-523.5 193t-176.5 547zM428 1567v178h717v-178h-717z" />
    <glyph glyph-name="omacron" unicode="&#x14d;" horiz-adv-x="1198" 
d="M395 502q0 -432 205 -432t205 432t-205 432t-205 -432zM70 502q0 526 530 526t530 -526q0 -527 -530 -527t-530 527zM281 1202v178h637v-178h-637z" />
    <glyph glyph-name="Obreve" unicode="&#x14e;" horiz-adv-x="1572" 
d="M449 709q0 -60 3 -114.5t12 -121.5t24 -123t41 -110.5t60 -92.5t84.5 -61t112.5 -23t113 23.5t85.5 61t60.5 92.5t41 110.5t23.5 122.5t11.5 121.5t3 114.5t-3 114.5t-11.5 121.5t-23.5 122.5t-41 110t-60.5 92.5t-85.5 61t-113 23q-337 0 -337 -645zM86 709
q0 354 176.5 546.5t523.5 192.5t524 -192.5t177 -546.5t-177 -547t-524 -193t-523.5 193t-176.5 547zM449 1835h83q2 -22 14 -43.5t38 -45t78 -38t124 -14.5t124 14.5t78 38t38 45t14 43.5h84q0 -50 -7.5 -91t-29.5 -82.5t-58.5 -69.5t-98 -46t-144.5 -18t-144.5 18
t-97.5 46t-58 69.5t-29.5 82.5t-7.5 91z" />
    <glyph glyph-name="obreve" unicode="&#x14f;" horiz-adv-x="1198" 
d="M395 502q0 -432 205 -432t205 432t-205 432t-205 -432zM70 502q0 526 530 526t530 -526q0 -527 -530 -527t-530 527zM272 1466h78q1 -18 6.5 -35t22.5 -39.5t42.5 -39t71 -28t105.5 -11.5t105.5 11.5t71 28t42.5 39t22.5 39.5t6.5 35h80q0 -41 -4 -74.5t-15.5 -73.5
t-34.5 -70t-57.5 -55.5t-89.5 -39.5t-125 -14q-85 0 -146.5 20t-96 49.5t-54.5 75.5t-25.5 87t-5.5 95z" />
    <glyph glyph-name="Ohungarumlaut" unicode="&#x150;" horiz-adv-x="1572" 
d="M449 709q0 -60 3 -114.5t12 -121.5t24 -123t41 -110.5t60 -92.5t84.5 -61t112.5 -23t113 23.5t85.5 61t60.5 92.5t41 110.5t23.5 122.5t11.5 121.5t3 114.5t-3 114.5t-11.5 121.5t-23.5 122.5t-41 110t-60.5 92.5t-85.5 61t-113 23q-337 0 -337 -645zM86 709
q0 354 176.5 546.5t523.5 192.5t524 -192.5t177 -546.5t-177 -547t-524 -193t-523.5 193t-176.5 547zM920 1552l215 236q23 24 34.5 35t31 23t36.5 12q40 0 80.5 -51t40.5 -89q0 -27 -22 -48t-76 -50l-281 -147zM494 1552l215 236q23 24 34.5 35t31 23t36.5 12
q40 0 80.5 -51t40.5 -89q0 -27 -22 -48t-76 -50l-281 -147z" />
    <glyph glyph-name="ohungarumlaut" unicode="&#x151;" horiz-adv-x="1198" 
d="M395 502q0 -432 205 -432t205 432t-205 432t-205 -432zM70 502q0 526 530 526t530 -526q0 -527 -530 -527t-530 527zM754 1106l129 324q22 54 45 81t61 27q41 0 84 -30.5t43 -65.5q0 -52 -74 -135l-223 -240zM334 1106l129 324q22 54 45 81t61 27q41 0 84 -30.5t43 -65.5
q0 -53 -73 -135l-224 -240z" />
    <glyph glyph-name="OE" unicode="&#x152;" horiz-adv-x="2148" 
d="M438 709q0 -75 10 -145t32 -141t61.5 -129t93.5 -103.5t133 -71t176 -25.5q146 0 146 96v1029q0 64 -33 84t-117 20q-120 0 -211.5 -37.5t-145.5 -96t-87.5 -142t-45.5 -164.5t-12 -174zM86 692q0 204 68 350t186 232q199 143 612 143h1080v-379h-78q-15 50 -26 80.5
t-26.5 64.5t-30.5 53t-37 38t-49 28.5t-62.5 15t-80.5 5.5h-153q-43 0 -57.5 -15t-14.5 -59v-452h195q95 0 129 34.5t59 149.5h78v-475h-78q-25 115 -59 149.5t-129 34.5h-195v-446q0 -94 52 -122t200 -28q87 0 142.5 16.5t94.5 68.5t56.5 92.5t52.5 143.5q1 2 1.5 3.5
t1 3.5t1.5 4h78l-24 -426h-1131q-204 0 -349 29.5t-253 103.5q-116 81 -185 223.5t-69 335.5z" />
    <glyph glyph-name="oe" unicode="&#x153;" horiz-adv-x="1773" 
d="M1102 614h258q36 0 49.5 14t13.5 54q0 43 -5.5 81t-19.5 79.5t-45 66.5t-75 25q-49 0 -85 -28t-55 -76t-27.5 -101.5t-8.5 -114.5zM395 502q0 -432 205 -432q203 0 203 432t-203 432q-205 0 -205 -432zM70 502q0 526 530 526q109 0 200.5 -34t149.5 -97q145 131 334 131
q71 0 132 -11t104.5 -29.5t79 -45.5t58.5 -54.5t40 -62t26 -62.5t14 -61.5t6 -54.5t1 -45q0 -48 -26.5 -67t-84.5 -19h-532q0 -383 276 -383q180 0 275 182l73 -41q-116 -299 -446 -299q-218 0 -334 129q-61 -58 -152.5 -93.5t-193.5 -35.5q-530 0 -530 527z" />
    <glyph glyph-name="Racute" unicode="&#x154;" horiz-adv-x="1400" 
d="M557 745h102q273 0 273 293q0 149 -66 217t-178 68q-80 0 -105.5 -18t-25.5 -62v-498zM68 0v78q109 5 135 24t26 97v1020q0 78 -26 96.5t-135 23.5v78h710q274 0 396 -106q102 -94 102 -260q0 -132 -96 -225t-250 -113v-4q61 -15 107 -42t73.5 -57t48 -75.5t30 -83
t19.5 -95.5q27 -159 101 -233q42 -42 96 -45v-78h-152q-161 0 -238 45.5t-114 159.5q-15 46 -27 99t-23 110.5t-15 77.5q-19 83 -63.5 121t-121.5 38h-94v-452q0 -78 26.5 -97t135.5 -24v-78h-651zM424 1538l352 252q47 35 75 48t56 13q45 0 78 -47t33 -84q0 -42 -32 -65
t-118 -51l-415 -131z" />
    <glyph glyph-name="racute" unicode="&#x155;" horiz-adv-x="901" 
d="M53 0v78q89 5 111 20.5t22 79.5v602q0 59 -11.5 80.5t-37.5 24.5l-71 10v74l399 59l24 -180q95 100 153 140t120 40q65 0 104 -38.5t39 -104.5q0 -73 -33 -117q-18 -24 -46 -38.5t-58 -14.5q-38 0 -94 33q-72 43 -109 43q-36 0 -52.5 -37t-16.5 -117v-459q0 -64 28 -79
t148 -21v-78h-619zM375 1108l297 305q58 60 89.5 81.5t61.5 21.5q36 0 72.5 -42t36.5 -81q0 -36 -36 -67.5t-103 -68.5l-375 -210z" />
    <glyph glyph-name="uni0156" unicode="&#x156;" horiz-adv-x="1400" 
d="M588 -602q49 54 70.5 94t21.5 94q0 28 -36 82t-36 90q0 48 34 83.5t87 35.5q68 0 112 -46.5t44 -127.5q0 -42 -16.5 -84.5t-39 -75.5t-60.5 -70.5t-66.5 -61t-71.5 -56.5zM557 745h102q273 0 273 293q0 149 -66 217t-178 68q-80 0 -105.5 -18t-25.5 -62v-498zM68 0v78
q109 5 135 24t26 97v1020q0 78 -26 96.5t-135 23.5v78h710q274 0 396 -106q102 -94 102 -260q0 -132 -96 -225t-250 -113v-4q61 -15 107 -42t73.5 -57t48 -75.5t30 -83t19.5 -95.5q27 -159 101 -233q42 -42 96 -45v-78h-152q-161 0 -238 45.5t-114 159.5q-15 46 -27 99
t-23 110.5t-15 77.5q-19 83 -63.5 121t-121.5 38h-94v-452q0 -78 26.5 -97t135.5 -24v-78h-651z" />
    <glyph glyph-name="uni0157" unicode="&#x157;" horiz-adv-x="901" 
d="M213 -602q49 54 70.5 94t21.5 94q0 28 -36 82t-36 90q0 48 34 83.5t87 35.5q68 0 112 -46.5t44 -127.5q0 -42 -16.5 -84.5t-39 -75.5t-60.5 -70.5t-66.5 -61t-71.5 -56.5zM51 0v78q89 5 111 20.5t22 79.5v602q0 59 -11.5 80.5t-37.5 24.5l-72 10v74l400 59l24 -180
q95 100 153 140t120 40q65 0 104 -38.5t39 -104.5q0 -73 -33 -117q-18 -24 -46 -38.5t-58 -14.5q-38 0 -94 33q-72 43 -109 43q-36 0 -52.5 -37t-16.5 -117v-459q0 -64 28 -79t148 -21v-78h-619z" />
    <glyph glyph-name="Rcaron" unicode="&#x158;" horiz-adv-x="1400" 
d="M557 745h102q273 0 273 293q0 149 -66 217t-178 68q-80 0 -105.5 -18t-25.5 -62v-498zM68 0v78q109 5 135 24t26 97v1020q0 78 -26 96.5t-135 23.5v78h710q274 0 396 -106q102 -94 102 -260q0 -132 -96 -225t-250 -113v-4q61 -15 107 -42t73.5 -57t48 -75.5t30 -83
t19.5 -95.5q27 -159 101 -233q42 -42 96 -45v-78h-152q-161 0 -238 45.5t-114 159.5q-15 46 -27 99t-23 110.5t-15 77.5q-19 83 -63.5 121t-121.5 38h-94v-452q0 -78 26.5 -97t135.5 -24v-78h-651zM258 1815l39 61l266 -123q64 -31 78 -31q22 0 82 31l268 123l37 -61
l-291 -261q-50 -47 -96 -47q-40 0 -92 49z" />
    <glyph glyph-name="rcaron" unicode="&#x159;" horiz-adv-x="901" 
d="M53 0v78q89 5 111 20.5t22 79.5v602q0 59 -11.5 80.5t-37.5 24.5l-71 10v74l399 59l24 -180q95 100 153 140t120 40q65 0 104 -38.5t39 -104.5q0 -73 -33 -117q-18 -24 -46 -38.5t-58 -14.5q-38 0 -94 33q-72 43 -109 43q-36 0 -52.5 -37t-16.5 -117v-459q0 -64 28 -79
t148 -21v-78h-619zM178 1475l49 55l256 -193q57 -39 78 -39t78 39l256 193l49 -55l-293 -347q-56 -63 -90 -63q-37 0 -90 63z" />
    <glyph glyph-name="Sacute" unicode="&#x15a;" horiz-adv-x="1148" 
d="M86 463h76q57 -188 163 -294t226 -106q104 0 168 57t65 167q0 98 -66 170t-206 131q-46 20 -80 35.5t-79 40.5t-77.5 49t-67 58.5t-55.5 71.5t-35 84.5t-14 100.5q0 189 130.5 304.5t379.5 115.5q238 0 383 -90v-336h-73q-41 171 -123.5 251.5t-188.5 80.5
q-93 0 -153 -57.5t-60 -151.5q0 -38 12.5 -71t38 -60.5t51 -48.5t66 -42t68 -33.5t70.5 -29.5q67 -28 113 -51.5t102 -63.5t90.5 -84t58 -109.5t23.5 -143.5q0 -67 -15.5 -127t-54.5 -118t-98 -99.5t-152.5 -67.5t-212.5 -27q-120 0 -245.5 30.5t-196.5 96.5zM395 1538
l353 252q47 35 75 48t56 13q45 0 77.5 -47t32.5 -84q0 -42 -31.5 -65t-117.5 -51l-416 -131z" />
    <glyph glyph-name="sacute" unicode="&#x15b;" horiz-adv-x="913" 
d="M78 379h78q42 -134 121 -221.5t176 -87.5q67 0 104 33t37 92q0 121 -205 194q-301 114 -301 316q0 154 108.5 238.5t297.5 84.5q188 0 307 -72v-272h-76q-29 117 -91 183.5t-140 66.5q-60 0 -94.5 -34.5t-34.5 -84.5q0 -57 53 -97.5t153 -76.5q152 -58 225.5 -132.5
t73.5 -199.5q0 -162 -114 -248t-307 -86q-98 0 -195.5 24.5t-151.5 74.5zM305 1108l297 305q58 59 90 81t62 22q36 0 72 -42t36 -81q0 -36 -36 -67.5t-103 -68.5l-375 -210z" />
    <glyph glyph-name="Scircumflex" unicode="&#x15c;" horiz-adv-x="1148" 
d="M86 463h76q57 -188 163 -294t226 -106q104 0 168 57t65 167q0 98 -66 170t-206 131q-46 20 -80 35.5t-79 40.5t-77.5 49t-67 58.5t-55.5 71.5t-35 84.5t-14 100.5q0 189 130.5 304.5t379.5 115.5q238 0 383 -90v-336h-73q-41 171 -123.5 251.5t-188.5 80.5
q-93 0 -153 -57.5t-60 -151.5q0 -38 12.5 -71t38 -60.5t51 -48.5t66 -42t68 -33.5t70.5 -29.5q67 -28 113 -51.5t102 -63.5t90.5 -84t58 -109.5t23.5 -143.5q0 -67 -15.5 -127t-54.5 -118t-98 -99.5t-152.5 -67.5t-212.5 -27q-120 0 -245.5 30.5t-196.5 96.5zM229 1546
l291 258q52 49 92 49q47 0 97 -47l290 -260l-36 -61l-269 123q-58 30 -82 30q-15 0 -77 -30l-267 -123z" />
    <glyph glyph-name="scircumflex" unicode="&#x15d;" horiz-adv-x="913" 
d="M78 379h78q42 -134 121 -221.5t176 -87.5q67 0 104 33t37 92q0 121 -205 194q-301 114 -301 316q0 154 108.5 238.5t297.5 84.5q188 0 307 -72v-272h-76q-29 117 -91 183.5t-140 66.5q-60 0 -94.5 -34.5t-34.5 -84.5q0 -57 53 -97.5t153 -76.5q152 -58 225.5 -132.5
t73.5 -199.5q0 -162 -114 -248t-307 -86q-98 0 -195.5 24.5t-151.5 74.5zM109 1120l292 346q54 64 91 64q33 0 90 -64l292 -346l-49 -55l-256 192q-2 2 -9 6.5t-9.5 6.5t-9 6t-9.5 5.5t-8 4.5t-8.5 4.5t-8 3t-8 2t-7.5 0.5q-21 0 -78 -39l-256 -192z" />
    <glyph glyph-name="Scedilla" unicode="&#x15e;" horiz-adv-x="1148" 
d="M86 463l76 2q57 -188 163 -293.5t226 -105.5q104 0 168 56.5t65 166.5q0 98 -66 170t-206 131q-46 20 -80 35.5t-79 40.5t-77.5 49t-67 58.5t-55.5 71.5t-35 84.5t-14 100.5q0 189 130.5 304.5t379.5 115.5q238 0 383 -90v-336h-73q-41 171 -123.5 251.5t-188.5 80.5
q-93 0 -153 -57.5t-60 -151.5q0 -38 12.5 -71t38 -60.5t51 -48.5t66 -42t68 -33.5t70.5 -29.5q67 -28 113 -51.5t102 -63.5t90.5 -84t58 -109.5t23.5 -143.5q0 -65 -14.5 -123.5t-50.5 -115t-91 -98t-141.5 -69.5t-196.5 -33l-59 -90q23 -3 45.5 -8.5t52.5 -19t51.5 -31.5
t37 -48.5t15.5 -68.5q0 -52 -23.5 -92t-57 -61.5t-79 -34.5t-80 -17t-69.5 -4q-46 0 -98 6v66q192 0 192 119q0 30 -14 52t-37.5 33t-43 16t-40.5 7l-8 17l100 159q-253 20 -366 125z" />
    <glyph glyph-name="scedilla" unicode="&#x15f;" horiz-adv-x="913" 
d="M78 379l74 2q42 -134 121 -221.5t176 -87.5q67 0 104 33t37 92q0 121 -205 194q-301 114 -301 316q0 154 108 238.5t297 84.5t308 -72v-272h-76q-29 117 -91.5 183.5t-140.5 66.5q-60 0 -94.5 -34.5t-34.5 -84.5q0 -57 53.5 -97.5t153.5 -76.5q152 -58 225.5 -132.5
t73.5 -199.5q0 -153 -101.5 -239t-275.5 -95l-63 -96q30 -4 59.5 -13t64.5 -27.5t57 -53.5t22 -82q0 -52 -23.5 -92t-57.5 -61.5t-79 -34.5t-80 -17t-70 -4q-45 0 -98 6v66q193 0 193 119q0 30 -14 52t-37.5 33t-43 16t-40.5 7l-9 17l105 168q-82 7 -156 30.5t-117 63.5z
" />
    <glyph glyph-name="Scaron" unicode="&#x160;" horiz-adv-x="1148" 
d="M86 463h76q57 -188 163 -294t226 -106q104 0 168 57t65 167q0 98 -66 170t-206 131q-46 20 -80 35.5t-79 40.5t-77.5 49t-67 58.5t-55.5 71.5t-35 84.5t-14 100.5q0 189 130.5 304.5t379.5 115.5q238 0 383 -90v-336h-73q-41 171 -123.5 251.5t-188.5 80.5
q-93 0 -153 -57.5t-60 -151.5q0 -38 12.5 -71t38 -60.5t51 -48.5t66 -42t68 -33.5t70.5 -29.5q67 -28 113 -51.5t102 -63.5t90.5 -84t58 -109.5t23.5 -143.5q0 -67 -15.5 -127t-54.5 -118t-98 -99.5t-152.5 -67.5t-212.5 -27q-120 0 -245.5 30.5t-196.5 96.5zM190 1815
l39 61l267 -123l21 -10.5t22 -10.5t17 -6.5t17 -3.5q22 0 82 31l269 123l37 -61l-291 -261q-50 -47 -97 -47q-40 0 -92 49z" />
    <glyph glyph-name="scaron" unicode="&#x161;" horiz-adv-x="913" 
d="M78 379h78q42 -134 121 -221.5t176 -87.5q67 0 104 33t37 92q0 121 -205 194q-301 114 -301 316q0 154 108.5 238.5t297.5 84.5q188 0 307 -72v-272h-76q-29 117 -91 183.5t-140 66.5q-60 0 -94.5 -34.5t-34.5 -84.5q0 -57 53 -97.5t153 -76.5q152 -58 225.5 -132.5
t73.5 -199.5q0 -162 -114 -248t-307 -86q-98 0 -195.5 24.5t-151.5 74.5zM94 1475l49 55l256 -193q57 -39 78 -39t78 39l256 193l49 -55l-293 -347q-56 -63 -90 -63q-37 0 -90 63z" />
    <glyph glyph-name="uni0162" unicode="&#x162;" horiz-adv-x="1277" 
d="M31 1032v385h1216v-385h-78q-50 148 -76 192q-44 73 -123 91q-36 8 -85 8h-82v-1128q0 -58 16 -82t64 -27l116 -8v-78h-301l-80 -119q30 -4 59.5 -13t64.5 -27.5t57 -53.5t22 -82q0 -52 -23.5 -92t-57 -61.5t-79 -34.5t-80 -17t-69.5 -4q-46 0 -98 6v66q192 0 192 119
q0 30 -14 52t-37.5 33t-43 16t-40.5 7l-8 17l117 188h-301v78l116 8q48 3 64 27t16 82v1128h-82q-68 0 -110.5 -12.5t-75 -57t-47.5 -80.5t-47 -130q-3 -7 -4 -11h-78z" />
    <glyph glyph-name="uni0163" unicode="&#x163;" horiz-adv-x="757" 
d="M66 901v103h129l180 258h119v-258h213v-103h-213v-584q0 -95 35 -141.5t96 -46.5q65 0 116 21l23 -64q-80 -50 -163 -79t-148 -32l-64 -94q30 -4 59.5 -13t64.5 -27.5t57 -53.5t22 -82q0 -52 -23.5 -92t-57 -61.5t-79 -34.5t-80 -17t-69.5 -4q-47 0 -99 6v66
q193 0 193 119q0 30 -14 52t-37.5 33t-43 16t-40.5 7l-9 17l113 180q-71 27 -116.5 89.5t-45.5 158.5v661h-118z" />
    <glyph glyph-name="Tcaron" unicode="&#x164;" horiz-adv-x="1277" 
d="M31 1032v385h1216v-385h-78q-50 148 -76 192q-44 73 -123 91q-36 8 -85 8h-82v-1128q0 -58 16 -82t64 -27l116 -8v-78h-720v78l116 8q48 3 64 27t16 82v1128h-82q-68 0 -110.5 -12.5t-75 -57t-47.5 -80.5t-47 -130q-3 -7 -4 -11h-78zM254 1815l39 61l266 -123
q64 -31 78 -31q22 0 82 31l268 123l37 -61l-291 -261q-50 -47 -96 -47q-40 0 -92 49z" />
    <glyph glyph-name="tcaron" unicode="&#x165;" horiz-adv-x="802" 
d="M66 901v103h129l180 258h119v-258h213v-103h-213v-584q0 -95 35 -141.5t96 -46.5q65 0 116 21l23 -64q-84 -52 -172.5 -81.5t-153.5 -29.5q-45 0 -88.5 16t-81.5 46.5t-61 83t-23 119.5v661h-118zM555 1534q0 60 34.5 93.5t96.5 33.5q78 0 121 -60t43 -151
q0 -93 -45 -189t-113 -171l-65 47q32 68 32 188q0 29 -16.5 56.5t-35.5 47t-35.5 48t-16.5 57.5z" />
    <glyph glyph-name="Utilde" unicode="&#x168;" horiz-adv-x="1609" 
d="M371 1518q15 36 27 60.5t37.5 64t52.5 63.5t69 42.5t90 18.5q66 0 189 -43q10 -3 39 -11.5t42 -12.5t35 -9.5t38.5 -7.5t31.5 -2q55 0 86.5 25t67.5 88l65 -37q-15 -37 -27 -61t-37.5 -63.5t-52.5 -64t-69 -43t-90 -18.5q-15 0 -31 2t-37.5 7.5t-33.5 9t-41 12.5t-38 12
q-123 43 -194 43q-55 0 -87 -24.5t-67 -87.5zM59 1339v78h639v-78q-57 -2 -83.5 -6t-45 -17.5t-22.5 -34t-4 -62.5v-787q0 -369 262 -369q137 0 199.5 94t62.5 275v787q0 42 -4 62.5t-22.5 34t-45.5 17.5t-84 6v78h639v-78q-57 -2 -83.5 -6t-45 -17.5t-22.5 -34t-4 -62.5
v-758q-3 -259 -150.5 -375.5t-439.5 -116.5q-310 0 -450 114.5t-140 377.5v758q0 42 -4 62.5t-22.5 34t-45.5 17.5t-84 6z" />
    <glyph glyph-name="utilde" unicode="&#x169;" horiz-adv-x="1288" 
d="M217 1169q15 36 27 61t38 64t53 63.5t69 43t90 18.5q65 0 188 -43q10 -3 39 -11.5t42 -12.5t35 -9.5t38.5 -7.5t31.5 -2q55 0 86.5 25t67.5 88l65 -37q-15 -37 -27 -61t-37.5 -63.5t-52.5 -64t-69 -43t-90 -18.5q-15 0 -31 2t-37 7.5t-34 9.5t-40.5 12.5t-37.5 11.5
q-123 43 -195 43q-55 0 -86 -24.5t-67 -87.5zM47 895v74l416 59l14 -12v-656q0 -117 43.5 -170t128.5 -53q63 0 105 28t57 68q16 41 16 115v432q0 59 -11.5 80.5t-37.5 24.5l-71 10v74l415 59l15 -12v-838q0 -64 22 -79.5t111 -20.5v-78h-426l-17 115q-14 -8 -64.5 -39.5
t-84 -49t-93 -34.5t-120.5 -17q-59 0 -109 15t-94 48.5t-69 96t-25 148.5v497q0 59 -11.5 80.5t-37.5 24.5z" />
    <glyph glyph-name="Umacron" unicode="&#x16a;" horiz-adv-x="1609" 
d="M59 1339v78h639v-78q-57 -2 -83.5 -6t-45 -17.5t-22.5 -34t-4 -62.5v-787q0 -369 262 -369q137 0 199.5 94t62.5 275v787q0 42 -4 62.5t-22.5 34t-45.5 17.5t-84 6v78h639v-78q-57 -2 -83.5 -6t-45 -17.5t-22.5 -34t-4 -62.5v-758q-3 -259 -150.5 -375.5t-439.5 -116.5
q-310 0 -450 114.5t-140 377.5v758q0 42 -4 62.5t-22.5 34t-45.5 17.5t-84 6zM446 1567v178h717v-178h-717z" />
    <glyph glyph-name="umacron" unicode="&#x16b;" horiz-adv-x="1288" 
d="M47 895v74l416 59l14 -12v-656q0 -117 43.5 -170t128.5 -53q63 0 105 28t57 68q16 41 16 115v432q0 59 -11.5 80.5t-37.5 24.5l-71 10v74l415 59l15 -12v-838q0 -64 22 -79.5t111 -20.5v-78h-426l-17 115q-14 -8 -64.5 -39.5t-84 -49t-93 -34.5t-120.5 -17q-59 0 -109 15
t-94 48.5t-69 96t-25 148.5v497q0 59 -11.5 80.5t-37.5 24.5zM332 1202v178h637v-178h-637z" />
    <glyph glyph-name="Ubreve" unicode="&#x16c;" horiz-adv-x="1609" 
d="M59 1339v78h639v-78q-57 -2 -83.5 -6t-45 -17.5t-22.5 -34t-4 -62.5v-787q0 -369 262 -369q137 0 199.5 94t62.5 275v787q0 42 -4 62.5t-22.5 34t-45.5 17.5t-84 6v78h639v-78q-57 -2 -83.5 -6t-45 -17.5t-22.5 -34t-4 -62.5v-758q-3 -259 -150.5 -375.5t-439.5 -116.5
q-310 0 -450 114.5t-140 377.5v758q0 42 -4 62.5t-22.5 34t-45.5 17.5t-84 6zM467 1835h84q2 -22 14 -43.5t38 -45t78 -38t124 -14.5t124 14.5t78 38t38 45t14 43.5h84q0 -50 -7.5 -91t-29.5 -82.5t-58.5 -69.5t-98 -46t-144.5 -18t-144.5 18t-98 46t-58.5 69.5t-29.5 82.5
t-7.5 91z" />
    <glyph glyph-name="ubreve" unicode="&#x16d;" horiz-adv-x="1288" 
d="M47 895v74l416 59l14 -12v-656q0 -117 43.5 -170t128.5 -53q63 0 105 28t57 68q16 41 16 115v432q0 59 -11.5 80.5t-37.5 24.5l-71 10v74l415 59l15 -12v-838q0 -64 22 -79.5t111 -20.5v-78h-426l-17 115q-14 -8 -64.5 -39.5t-84 -49t-93 -34.5t-120.5 -17q-59 0 -109 15
t-94 48.5t-69 96t-25 148.5v497q0 59 -11.5 80.5t-37.5 24.5zM324 1466h77q1 -18 6.5 -35t22.5 -39.5t42.5 -39t71 -28t105.5 -11.5t105.5 11.5t71 28t42.5 39t22.5 39.5t6.5 35h80q0 -41 -4 -74.5t-15.5 -73.5t-34.5 -70t-57.5 -55.5t-89.5 -39.5t-125 -14q-85 0 -146.5 20
t-95.5 49.5t-54 75.5t-25.5 87t-5.5 95z" />
    <glyph glyph-name="Uring" unicode="&#x16e;" horiz-adv-x="1609" 
d="M59 1339v78h639v-78q-57 -2 -83.5 -6t-45 -17.5t-22.5 -34t-4 -62.5v-787q0 -369 262 -369q137 0 199.5 94t62.5 275v787q0 42 -4 62.5t-22.5 34t-45.5 17.5t-84 6v78h639v-78q-57 -2 -83.5 -6t-45 -17.5t-22.5 -34t-4 -62.5v-758q-3 -259 -150.5 -375.5t-439.5 -116.5
q-310 0 -450 114.5t-140 377.5v758q0 42 -4 62.5t-22.5 34t-45.5 17.5t-84 6zM698 1671q0 -68 30.5 -105.5t76.5 -37.5q45 0 75.5 37.5t30.5 105.5t-30.5 106t-75.5 38q-46 0 -76.5 -38t-30.5 -106zM561 1671q0 80 37 133t89.5 73.5t117.5 20.5t117.5 -20.5t89.5 -73.5
t37 -133q0 -81 -37 -134t-89.5 -73t-117.5 -20t-117.5 20t-89.5 73t-37 134z" />
    <glyph glyph-name="uring" unicode="&#x16f;" horiz-adv-x="1288" 
d="M47 895v74l416 59l14 -12v-656q0 -117 43.5 -170t128.5 -53q63 0 105 28t57 68q16 41 16 115v432q0 59 -11.5 80.5t-37.5 24.5l-71 10v74l415 59l15 -12v-838q0 -64 22 -79.5t111 -20.5v-78h-426l-17 115q-14 -8 -64.5 -39.5t-84 -49t-93 -34.5t-120.5 -17q-59 0 -109 15
t-94 48.5t-69 96t-25 148.5v497q0 59 -11.5 80.5t-37.5 24.5zM543 1333q0 -68 30 -105.5t76 -37.5q45 0 76 38t31 105q0 68 -31 106t-76 38q-46 0 -76 -38t-30 -106zM406 1333q0 117 70.5 172.5t172.5 55.5q48 0 89.5 -12.5t77.5 -38t56.5 -71.5t20.5 -106q0 -81 -37 -134
t-89.5 -73t-117.5 -20q-48 0 -89.5 12t-77 37.5t-56 71t-20.5 106.5z" />
    <glyph glyph-name="Uhungarumlaut" unicode="&#x170;" horiz-adv-x="1609" 
d="M59 1339v78h639v-78q-57 -2 -83.5 -6t-45 -17.5t-22.5 -34t-4 -62.5v-787q0 -369 262 -369q137 0 199.5 94t62.5 275v787q0 42 -4 62.5t-22.5 34t-45.5 17.5t-84 6v78h639v-78q-57 -2 -83.5 -6t-45 -17.5t-22.5 -34t-4 -62.5v-758q-3 -259 -150.5 -375.5t-439.5 -116.5
q-310 0 -450 114.5t-140 377.5v758q0 42 -4 62.5t-22.5 34t-45.5 17.5t-84 6zM938 1552l215 236q23 24 34.5 35t31 23t36.5 12q40 0 80.5 -51t40.5 -89q0 -27 -22 -48t-76 -50l-281 -147zM512 1552l215 236q23 24 34.5 35t31 23t36.5 12q40 0 80.5 -51t40.5 -89
q0 -27 -22 -48t-76 -50l-281 -147z" />
    <glyph glyph-name="uhungarumlaut" unicode="&#x171;" horiz-adv-x="1288" 
d="M47 895v74l416 59l14 -12v-656q0 -117 43.5 -170t128.5 -53q63 0 105 28t57 68q16 41 16 115v432q0 59 -11.5 80.5t-37.5 24.5l-71 10v74l415 59l15 -12v-838q0 -64 22 -79.5t111 -20.5v-78h-426l-17 115q-14 -8 -64.5 -39.5t-84 -49t-93 -34.5t-120.5 -17q-59 0 -109 15
t-94 48.5t-69 96t-25 148.5v497q0 59 -11.5 80.5t-37.5 24.5zM805 1106l129 324q22 54 45 81t61 27q41 0 84 -30.5t43 -65.5q0 -53 -73 -135l-224 -240zM385 1106l129 324q22 53 45.5 80.5t61.5 27.5q41 0 84 -30.5t43 -65.5q0 -52 -74 -135l-223 -240z" />
    <glyph glyph-name="Uogonek" unicode="&#x172;" horiz-adv-x="1609" 
d="M59 1339l2 80h639v-78q-57 -2 -83.5 -6t-45 -17.5t-22.5 -34t-4 -62.5v-787q0 -368 262 -368q137 0 199.5 93.5t62.5 274.5v787q0 42 -4 62.5t-22.5 34t-45.5 17.5t-84 6v78h639v-78q-57 -2 -83.5 -6t-45 -17.5t-22.5 -34t-4 -62.5v-758q-3 -250 -140.5 -367t-410.5 -125
q-150 -132 -150 -252q1 -60 35.5 -93.5t87.5 -33.5q55 0 101 27l30 -55q-99 -82 -215 -82q-60 0 -105 14.5t-69 35.5t-38.5 50t-18.5 51.5t-4 47.5q0 72 63 152.5t158 137.5q-264 14 -385 129t-121 361v758q0 42 -4 62.5t-22.5 34t-45.5 17.5t-84 6z" />
    <glyph glyph-name="uogonek" unicode="&#x173;" horiz-adv-x="1288" 
d="M676 -313q0 76 72 163t176 142h116q-168 -136 -168 -266q1 -60 35.5 -93.5t87.5 -33.5q57 0 101 26l30 -55q-99 -82 -215 -82q-60 0 -105 14.5t-69 35.5t-38.5 50t-18.5 51.5t-4 47.5zM47 895v74l416 59l14 -12v-656q0 -117 43.5 -170t128.5 -53q63 0 105 28t57 68
q16 41 16 115v432q0 59 -11.5 80.5t-37.5 24.5l-71 10v74l415 59l15 -12v-838q0 -64 22 -79.5t111 -20.5v-78h-426l-17 115q-14 -8 -64.5 -39.5t-84 -49t-93 -34.5t-120.5 -17q-59 0 -109 15t-94 48.5t-69 96t-25 148.5v497q0 59 -11.5 80.5t-37.5 24.5z" />
    <glyph glyph-name="Wcircumflex" unicode="&#x174;" horiz-adv-x="1910" 
d="M-20 1343v74h587v-74l-94 -14q-31 -3 -41 -22q-5 -16 4 -56l234 -925h4l254 1060h227l270 -1060h9l116 460q85 347 103 459q4 25 3 42t-11 27t-31 13l-117 16v74h469v-74q-85 -11 -111 -29.5t-47 -88.5q-63 -198 -147 -514l-191 -711h-260l-252 958h-6l-241 -958h-258
l-181 684q-126 472 -153 561q-18 57 -41 74t-98 24zM578 1546l290 258q52 49 93 49q46 0 96 -47l291 -260l-37 -61l-269 123q-58 30 -81 30q-16 0 -78 -30l-267 -123z" />
    <glyph glyph-name="wcircumflex" unicode="&#x175;" horiz-adv-x="1585" 
d="M-20 926v78h532v-78l-57 -6q-30 -3 -38 -17.5t1 -48.5l155 -563h7l190 713h215l211 -713h8q118 445 137 555q5 32 -1.5 47.5t-32.5 19.5l-88 13v78h423v-78q-76 -6 -100.5 -23.5t-48.5 -79.5q-44 -106 -117 -344l-147 -479h-225l-205 629h-8l-187 -629h-225l-172 543
q-62 194 -98 295q-18 51 -42 66.5t-87 21.5zM418 1120l293 346q54 64 90 64q33 0 90 -64l293 -346l-49 -55l-256 192q-57 39 -78 39t-78 -39l-256 -192z" />
    <glyph glyph-name="Ycircumflex" unicode="&#x176;" horiz-adv-x="1263" 
d="M-25 1339v78h648v-78l-111 -12q-54 -7 -29 -67l252 -560h6q28 64 83.5 182.5t96.5 209.5t64 153q29 76 -31 82l-106 12v78h493v-78q-85 -9 -121 -29.5t-71 -80.5q-111 -195 -297 -572q-37 -76 -37 -145v-313q0 -42 4.5 -62.5t27.5 -34.5t57.5 -18t107.5 -6v-78h-721v78
q49 2 77.5 4t53 7.5t35.5 12t19 21.5t9.5 31t1.5 45v293q0 53 -43 141l-297 590q-35 71 -64 90.5t-108 25.5zM256 1546l291 258q52 49 92 49q46 0 96 -47l291 -260l-37 -61l-268 123q-58 30 -82 30q-16 0 -78 -30l-266 -123z" />
    <glyph glyph-name="ycircumflex" unicode="&#x177;" horiz-adv-x="1073" 
d="M-25 926v78h574v-78l-78 -13q-46 -6 -25 -67q28 -86 63 -182t78 -211.5t66 -178.5h4q18 56 59.5 179.5t71.5 217.5t56 181q14 55 -31 61l-84 13v78h412v-78l-43 -4q-40 -4 -63.5 -33t-53.5 -101q-231 -559 -363 -911q-80 -214 -158 -293.5t-188 -79.5q-63 0 -114.5 36
t-51.5 93q0 59 41.5 112.5t90.5 53.5q24 0 41 -8.5t51 -34.5q38 -30 73 -30q33 0 51 27.5t29 72.5q16 64 -12 135q-158 410 -350 870q-31 75 -78 84zM176 1120l293 346q54 64 90 64q33 0 90 -64l293 -346l-49 -55l-256 192q-57 39 -78 39t-78 -39l-256 -192z" />
    <glyph glyph-name="Ydieresis" unicode="&#x178;" horiz-adv-x="1263" 
d="M-25 1339v78h648v-78l-111 -12q-54 -7 -29 -67l252 -560h6q28 64 83.5 182.5t96.5 209.5t64 153q29 76 -31 82l-106 12v78h493v-78q-85 -9 -121 -29.5t-71 -80.5q-111 -195 -297 -572q-37 -76 -37 -145v-313q0 -42 4.5 -62.5t27.5 -34.5t57.5 -18t107.5 -6v-78h-721v78
q49 2 77.5 4t53 7.5t35.5 12t19 21.5t9.5 31t1.5 45v293q0 53 -43 141l-297 590q-35 71 -64 90.5t-108 25.5zM262 1651q0 62 44 107.5t118 45.5t118 -45.5t44 -107.5t-44 -108t-118 -46t-118 46t-44 108zM778 1651q0 62 44 107.5t118 45.5t118 -45.5t44 -107.5t-44 -108
t-118 -46t-118 46t-44 108z" />
    <glyph glyph-name="Zacute" unicode="&#x179;" horiz-adv-x="1257" 
d="M0 45q292 437 834 1278h-261q-127 0 -199 -28t-112 -92t-65 -187h-78v401h1093l27 -43q-610 -924 -838 -1280h330q75 0 131 8t98.5 28.5t70.5 43.5t53 66.5t40.5 82t38.5 105.5h78l-24 -428h-1190zM401 1538l353 252q47 35 75 48t56 13q45 0 77.5 -47t32.5 -84
q0 -42 -31.5 -65t-117.5 -51l-416 -131z" />
    <glyph glyph-name="zacute" unicode="&#x17a;" horiz-adv-x="989" 
d="M-2 43q343 494 592 866h-168q-29 0 -53 -2t-44.5 -8t-35.5 -11t-29 -18.5t-23 -21.5t-18.5 -28t-14.5 -31.5t-12.5 -39t-11.5 -42t-12 -48.5h-80v345h864l23 -41q-293 -421 -592 -869h199q81 0 132 12.5t87.5 47t58 82.5t45.5 133h78l-25 -369h-935zM305 1108l297 305
q58 59 90 81t62 22q36 0 72 -42t36 -81q0 -36 -36 -67.5t-103 -68.5l-375 -210z" />
    <glyph glyph-name="Zdotaccent" unicode="&#x17b;" horiz-adv-x="1257" 
d="M0 45q292 437 834 1278h-261q-127 0 -199 -28t-112 -92t-65 -187h-78v401h1093l27 -43q-610 -924 -838 -1280h330q75 0 131 8t98.5 28.5t70.5 43.5t53 66.5t40.5 82t38.5 105.5h78l-24 -428h-1190zM459 1651q0 62 44 107.5t118 45.5t117.5 -45.5t43.5 -107.5t-43.5 -108
t-117.5 -46t-118 46t-44 108z" />
    <glyph glyph-name="zdotaccent" unicode="&#x17c;" horiz-adv-x="989" 
d="M-2 43q343 494 592 866h-168q-29 0 -53 -2t-44.5 -8t-35.5 -11t-29 -18.5t-23 -21.5t-18.5 -28t-14.5 -31.5t-12.5 -39t-11.5 -42t-12 -48.5h-80v345h864l23 -41q-293 -421 -592 -869h199q81 0 132 12.5t87.5 47t58 82.5t45.5 133h78l-25 -369h-935zM330 1300
q0 62 44 108t118 46t117.5 -46t43.5 -108t-43.5 -107.5t-117.5 -45.5t-118 45.5t-44 107.5z" />
    <glyph glyph-name="Zcaron" unicode="&#x17d;" horiz-adv-x="1257" 
d="M0 45q292 437 834 1278h-261q-127 0 -199 -28t-112 -92t-65 -187h-78v401h1093l27 -43q-610 -924 -838 -1280h330q75 0 131 8t98.5 28.5t70.5 43.5t53 66.5t40.5 82t38.5 105.5h78l-24 -428h-1190zM283 1815l39 61l266 -123q64 -31 78 -31q22 0 82 31l268 123l37 -61
l-291 -261q-50 -47 -96 -47q-41 0 -93 49z" />
    <glyph glyph-name="zcaron" unicode="&#x17e;" horiz-adv-x="989" 
d="M-2 43q343 494 592 866h-168q-29 0 -53 -2t-44.5 -8t-35.5 -11t-29 -18.5t-23 -21.5t-18.5 -28t-14.5 -31.5t-12.5 -39t-11.5 -42t-12 -48.5h-80v345h864l23 -41q-293 -421 -592 -869h199q81 0 132 12.5t87.5 47t58 82.5t45.5 133h78l-25 -369h-935zM135 1475l49 55
l256 -193q57 -39 78 -39t78 39l256 193l49 -55l-293 -347q-56 -63 -90 -63q-37 0 -90 63z" />
    <glyph glyph-name="longs" unicode="&#x17f;" horiz-adv-x="679" 
d="M43 0v78q89 5 111 20.5t22 79.5v914q0 207 97.5 317.5t269.5 110.5q80 0 141 -18.5t93.5 -48.5t48.5 -61.5t16 -62.5q0 -50 -48.5 -84.5t-101.5 -34.5q-63 0 -92 62q-40 86 -65 119.5t-50 33.5q-45 0 -45 -75q0 -35 22.5 -164.5t22.5 -181.5v-826q0 -64 25.5 -79.5
t132.5 -20.5v-78h-600z" />
    <glyph glyph-name="uni0186" unicode="&#x186;" horiz-adv-x="1411" 
d="M80 426h78q19 -57 37.5 -101t53 -96t74.5 -86t102 -57t136 -23q76 0 138.5 27.5t103 70t71.5 102.5t47 116.5t25.5 121t12 107t2.5 82.5q0 65 -6.5 130t-21.5 144t-45 145.5t-72.5 123t-108.5 89t-148 32.5q-54 0 -98 -10.5t-77.5 -27.5t-62 -47t-48.5 -59.5t-39 -76
t-32 -86t-30 -97.5h-78v400q98 49 226.5 73.5t252.5 24.5q194 0 338.5 -51t234 -147.5t133.5 -228t44 -298.5q0 -364 -196.5 -559t-583.5 -195q-106 0 -232.5 20.5t-208.5 69.5z" />
    <glyph glyph-name="uni0189" unicode="&#x189;" horiz-adv-x="1603" 
d="M569 184q0 -50 34.5 -70t129.5 -20q67 0 122 13t113 53t97 106.5t64.5 182t25.5 270.5q0 297 -105.5 450.5t-310.5 153.5q-99 0 -134.5 -11.5t-35.5 -45.5v-469h291v-99h-291v-514zM72 698v99h170v422q0 42 -4 62.5t-23.5 34t-47.5 17.5t-87 6v78h702q198 -1 332.5 -44
t224.5 -132q179 -176 179 -518q0 -110 -18.5 -203.5t-48.5 -162t-76.5 -124t-95 -92t-112 -63.5t-119 -41.5t-124 -23t-119.5 -11t-113 -2.5h-612v78q109 5 135.5 24t26.5 97v499h-170z" />
    <glyph glyph-name="uni018E" unicode="&#x18e;" horiz-adv-x="1288" 
d="M49 426h78q52 -153 80 -202q51 -89 143 -115q52 -15 127 -15q148 0 200 28t52 122v446h-194q-95 0 -129.5 -34.5t-59.5 -149.5h-78v475h78q25 -115 59.5 -149.5t129.5 -34.5h194v452q0 44 -14.5 59t-57.5 15h-153q-53 0 -92 -6t-69 -23.5t-50 -36.5t-38.5 -56t-31 -70.5
t-30.5 -92.5h-78v379h1104v-78q-59 -2 -87 -6t-47.5 -17.5t-23.5 -34t-4 -62.5v-1020q0 -78 26.5 -97t135.5 -24v-78h-1145z" />
    <glyph glyph-name="uni018F" unicode="&#x18f;" horiz-adv-x="1511" 
d="M453 565q0 -92 16 -176t49.5 -159.5t95 -121t142.5 -45.5q285 0 303 558h-553q-27 0 -40 -12t-13 -44zM86 641q0 34 25 56t71 22h881q0 70 -5 134.5t-17.5 140.5t-37 137t-60 113t-90.5 81t-124 29q-74 0 -140 -21t-113.5 -54.5t-86.5 -79t-64 -91.5t-42 -96h-78v327
q99 55 259 82t281 27q334 0 507 -193.5t173 -545.5t-171 -546t-498 -194q-333 0 -501.5 164.5t-168.5 507.5z" />
    <glyph glyph-name="uni0190" unicode="&#x190;" horiz-adv-x="1259" 
d="M78 381q0 155 108 264t256 125v4q-290 36 -290 311q0 78 36.5 141t95.5 103.5t136.5 68t155 39t155.5 11.5q93 0 212 -27t202 -82v-327h-78q-15 56 -31 99.5t-45 91t-65 79t-91 52t-122 20.5q-110 0 -170 -76.5t-60 -196.5t62.5 -193t183.5 -73h164v-98h-168
q-137 0 -213 -95t-76 -243q0 -147 84 -231.5t195 -84.5q82 0 145.5 24t110 73.5t79.5 115.5t60 160h78l-25 -383q-140 -84 -442 -84q-104 0 -196 14t-175 45.5t-142.5 78t-94.5 117t-35 157.5z" />
    <glyph glyph-name="uni0191" unicode="&#x191;" horiz-adv-x="1214" 
d="M-254 -297q0 61 54.5 99t111.5 38q35 0 62 -25t44 -60t33 -70.5t38 -60.5t50 -25q107 0 107 180q0 25 -4 160.5t-4 156.5v1123q0 42 -4 62.5t-23.5 34t-47.5 17.5t-87 6v78h1087v-379h-78q-18 58 -30.5 91t-31 70.5t-38.5 56.5t-50 36.5t-69 24t-92 6.5h-137
q-43 0 -57.5 -15t-14.5 -59v-491h234q95 0 129 34.5t59 149.5h78v-475h-78q-25 115 -59 149.5t-129 34.5h-234v-596q0 -133 -30.5 -234t-77.5 -160t-113.5 -95.5t-129 -49t-134.5 -12.5q-162 0 -248 59.5t-86 139.5z" />
    <glyph glyph-name="florin" unicode="&#x192;" horiz-adv-x="1146" 
d="M-82 -115q0 51 41 86t98 35q43 0 80 -76q56 -112 90 -112q23 0 29 61l96 860h-207v99h222l16 98q8 45 15.5 79t25 87t39 92.5t57 83t79 72t106.5 47t137 18.5q143 0 226 -60.5t83 -129.5q3 -59 -43 -92t-100 -33q-70 0 -99 67q-39 90 -61 122t-43 32q-47 0 -62 -125
l-49 -358h277v-99h-293l-39 -293q-38 -279 -97.5 -437.5t-143.5 -221.5t-214 -63q-124 0 -195 51t-71 110z" />
    <glyph glyph-name="uni0194" unicode="&#x194;" horiz-adv-x="1275" 
d="M565 164q0 -41 24.5 -71t61.5 -30q32 0 51 21.5t19 83.5q0 39 -12.5 74.5t-57.5 105.5h-4q-5 -7 -21 -32t-20.5 -32.5t-15.5 -27t-14.5 -31t-7 -28t-3.5 -33.5zM-16 1339v78h643v-78l-107 -12q-31 -4 -36 -23.5t8 -43.5l243 -543h6q166 328 242 528q29 76 -31 82l-102 12
v78h489v-78q-85 -9 -121 -29.5t-71 -80.5q-155 -271 -336 -639q79 -129 116.5 -218.5t37.5 -164.5q0 -124 -76 -180t-205 -56q-118 0 -187 52t-69 157q0 53 34 118t103 169l-409 756q-39 71 -67 90.5t-105 25.5z" />
    <glyph glyph-name="uni0196" unicode="&#x196;" horiz-adv-x="921" 
d="M59 1339v78h484v-1018q0 -82 10.5 -137.5t31.5 -83.5t45 -38.5t58 -10.5q77 0 174 57l43 -80q-78 -69 -163.5 -103t-161.5 -34q-192 0 -278.5 115t-86.5 344v791q0 42 -4 62.5t-22.5 34t-45.5 17.5t-84 6z" />
    <glyph glyph-name="uni0197" unicode="&#x197;" horiz-adv-x="823" 
d="M72 698v99h176v422q0 42 -4 62.5t-23.5 34t-47.5 17.5t-87 6v78h651v-78q-59 -2 -87 -6t-47.5 -17.5t-23.5 -34t-4 -62.5v-422h177v-99h-177v-499q0 -78 26.5 -97t135.5 -24v-78h-651v78q109 5 135.5 24t26.5 97v499h-176z" />
    <glyph glyph-name="uni019C" unicode="&#x19c;" horiz-adv-x="2369" 
d="M59 1339v78h635v-78q-97 -6 -121 -25t-24 -95v-727q0 -107 15 -179.5t44.5 -109.5t63 -51.5t78.5 -14.5q130 0 198 80.5t68 265.5v736q0 76 -24 95t-122 25v78h619v-78q-98 -6 -122 -25t-24 -95v-740q0 -149 51.5 -245.5t151.5 -96.5q107 0 185.5 107t78.5 278v697
q0 76 -24 95t-121 25v78h635v-78q-59 -2 -87 -6t-47.5 -17.5t-23.5 -34t-4 -62.5v-1020q0 -78 26.5 -97t135.5 -24v-78h-490v156q-97 -100 -183 -143.5t-208 -43.5q-55 0 -106 11.5t-98.5 35t-83.5 66t-54 98.5q-96 -114 -191 -162.5t-227 -48.5q-77 0 -141.5 16.5
t-120.5 54.5t-94 95.5t-60 144t-22 195.5v744q0 42 -4 62.5t-23.5 34t-47.5 17.5t-87 6z" />
    <glyph glyph-name="uni019F" unicode="&#x19f;" horiz-adv-x="1572" 
d="M451 807h671q-3 80 -13 150.5t-34 146t-59.5 128.5t-94.5 87.5t-135 34.5t-135 -34.5t-94.5 -87.5t-59 -128.5t-33.5 -145.5t-13 -151zM449 709q0 -60 3 -114.5t12 -121.5t24 -123t41 -110.5t60 -92.5t84.5 -61t112.5 -23t113 23.5t85.5 61t60.5 92.5t41 110.5
t23.5 122.5t11.5 121.5t3 114.5h-675zM86 709q0 354 176.5 546.5t523.5 192.5t524 -192.5t177 -546.5t-177 -547t-524 -193t-523.5 193t-176.5 547z" />
    <glyph glyph-name="Ohorn" unicode="&#x1a0;" horiz-adv-x="1572" 
d="M86 709q0 354 176.5 546.5t523.5 192.5q342 0 523 -193q116 108 116 160q0 25 -26.5 44.5t-57.5 32t-57.5 38.5t-26.5 63q0 57 37 97.5t103 40.5q76 0 125 -59t49 -159q0 -149 -209 -323q125 -183 125 -481q0 -354 -177 -547t-524 -193t-523.5 193t-176.5 547zM449 709
q0 -60 3 -114.5t12 -121.5t24 -123t41 -110.5t60 -92.5t84.5 -61t112.5 -23t113 23.5t85.5 61t60.5 92.5t41 110.5t23.5 122.5t11.5 121.5t3 114.5t-3 114.5t-11.5 121.5t-23.5 122.5t-41 110t-60.5 92.5t-85.5 61t-113 23q-337 0 -337 -645z" />
    <glyph glyph-name="ohorn" unicode="&#x1a1;" horiz-adv-x="1253" 
d="M395 502q0 -432 205 -432q203 0 203 432t-203 432q-205 0 -205 -432zM70 502q0 526 530 526q274 0 408 -147q98 94 98 145q0 25 -25 44.5t-55 32t-55 38.5t-25 63q0 58 34 97.5t99 39.5q73 0 123.5 -59.5t50.5 -157.5q0 -144 -194 -311q69 -123 69 -311
q0 -254 -128.5 -390.5t-399.5 -136.5q-530 0 -530 527z" />
    <glyph glyph-name="uni01A7" unicode="&#x1a7;" horiz-adv-x="1148" 
d="M55 408q0 78 23.5 143.5t58 109.5t90.5 84t102 63.5t113 51.5q43 17 70.5 29.5t68 33.5t66 42t51 48.5t38 60.5t12.5 71q0 94 -60 151.5t-153 57.5q-106 0 -188.5 -80.5t-123.5 -251.5h-73v336q145 90 382 90q249 0 379.5 -115.5t130.5 -304.5q0 -73 -26.5 -136.5
t-63.5 -106t-97.5 -83t-106.5 -63.5t-113 -51q-141 -59 -207 -131t-66 -170q1 -110 65.5 -167t168.5 -57q120 0 226 106t163 294h76l-31 -367q-71 -66 -196.5 -96.5t-245.5 -30.5q-119 1 -212.5 27t-152.5 67.5t-98 99.5t-54.5 118t-15.5 127z" />
    <glyph glyph-name="uni01A8" unicode="&#x1a8;" horiz-adv-x="913" 
d="M43 309q0 125 73.5 199.5t225.5 132.5q100 36 153.5 76.5t53.5 97.5q0 50 -34.5 84.5t-94.5 34.5q-78 0 -140.5 -66.5t-91.5 -183.5h-75v272q119 72 307 72q189 0 297 -84.5t108 -238.5q0 -202 -301 -316q-205 -73 -205 -194q0 -59 37.5 -92t104.5 -33q97 0 176 87.5
t121 221.5h78l-25 -305q-54 -50 -151 -74.5t-195 -24.5q-193 0 -307.5 86t-114.5 248z" />
    <glyph glyph-name="uni01A9" unicode="&#x1a9;" horiz-adv-x="1220" 
d="M20 47l410 639l-399 688l16 43h1071v-385h-78q-25 105 -62 167t-104 95t-172 33h-286v-4l272 -467l-403 -627v-4h387q84 0 150 13t123 42.5t94.5 84.5t52.5 133h77l-30 -498h-1092z" />
    <glyph glyph-name="Uhorn" unicode="&#x1af;" horiz-adv-x="1703" 
d="M59 1339v78h639v-78q-57 -2 -83.5 -6t-45 -17.5t-22.5 -34t-4 -62.5v-787q0 -369 262 -369q137 0 199.5 94t62.5 275v787q0 42 -4 62.5t-22.5 34t-45.5 17.5t-84 6v78h484v-203q65 53 114.5 109.5t49.5 91.5q0 25 -26.5 44.5t-57.5 32t-57.5 38.5t-26.5 63q0 58 36.5 98
t102.5 40q82 0 128 -58t46 -160q0 -182 -309 -399v-653q0 -259 -148.5 -375.5t-441.5 -116.5q-310 0 -450 114.5t-140 377.5v758q0 42 -4 62.5t-22.5 34t-45.5 17.5t-84 6z" />
    <glyph glyph-name="uhorn" unicode="&#x1b0;" horiz-adv-x="1398" 
d="M47 895v74l416 59l14 -12v-656q0 -117 43.5 -170t128.5 -53q63 0 105 28t57 68q16 41 16 115v432q0 59 -11.5 80.5t-37.5 24.5l-71 10v74l415 59l15 -12v-176q57 46 99 99.5t42 86.5q0 25 -22 46.5t-48.5 36.5t-48.5 43t-22 65q0 49 27 86.5t89 37.5q73 0 123.5 -59.5
t50.5 -157.5q0 -180 -290 -387v-559q0 -64 22 -79.5t111 -20.5v-78h-426l-17 115q-14 -8 -64.5 -39.5t-84 -49t-93 -34.5t-120.5 -17q-59 0 -109 15t-94 48.5t-69 96t-25 148.5v497q0 59 -11.5 80.5t-37.5 24.5z" />
    <glyph glyph-name="uni01B2" unicode="&#x1b2;" horiz-adv-x="1474" 
d="M59 1339v78h639v-78q-57 -2 -83.5 -6t-45 -17.5t-22.5 -34t-4 -62.5v-787q0 -183 60.5 -276t201.5 -93q346 0 346 625q0 125 -54.5 254.5t-146.5 237.5q-32 37 -47.5 65.5t-15.5 61.5q0 56 62.5 98.5t166.5 42.5q40 0 87.5 -59.5t86.5 -152t65.5 -215t26.5 -237.5
q0 -90 -4 -162t-19 -160t-40 -154.5t-70 -133t-106.5 -109.5t-152.5 -69.5t-204 -26.5q-303 0 -437 114t-134 378v758q0 42 -4 62.5t-22.5 34t-45.5 17.5t-84 6z" />
    <glyph glyph-name="uni01B7" unicode="&#x1b7;" horiz-adv-x="1265" 
d="M86 264q0 170 141 170q146 0 146 -110q0 -25 -7.5 -59t-7.5 -79q0 -55 53.5 -89t159.5 -34q114 0 186 82t72 234q0 143 -63 231t-168 88t-152 -28l-53 67l8 45l402 410h-254q-62 0 -101.5 -3t-75 -14.5t-56 -28t-40.5 -48.5t-33.5 -71.5t-29.5 -102.5h-78v493h916l26 -43
l-6 -28q-8 -41 -33 -80.5t-90 -104.5l-356 -358l4 -4q39 16 86 16q78 0 148 -12t137 -42.5t115 -77t77 -120t29 -166.5q0 -428 -635 -428q-209 0 -338 82t-129 213z" />
    <glyph glyph-name="uni01C4" unicode="&#x1c4;" horiz-adv-x="2848" 
d="M1591 45q292 437 834 1278h-260q-186 0 -263 -63.5t-114 -243.5h-78v401h1094l26 -43q-573 -868 -837 -1280h329q65 0 115.5 7t89 18.5t69 34.5t51.5 45.5t41.5 62.5t34 74.5t32.5 91.5h77l-24 -428h-1190zM1874 1815l39 61l266 -123q64 -31 78 -31q22 0 82 31l268 123
l37 -61l-291 -261q-50 -47 -96 -47q-40 0 -92 49zM557 184q0 -50 34.5 -70t129.5 -20q47 0 87 6t84 24t79.5 47t68.5 77.5t55 113t35 156.5t13 205q0 296 -105.5 448t-310.5 152q-99 0 -134.5 -11.5t-35.5 -45.5v-1082zM68 0v78q109 5 135 24t26 97v1020q0 78 -26 96.5
t-135 23.5v78h702q198 -1 332.5 -44t224.5 -132q178 -175 178 -518q0 -110 -18.5 -203.5t-48.5 -162t-76.5 -124t-95 -92t-112 -63.5t-118.5 -41.5t-123.5 -23t-119.5 -11t-113 -2.5h-612z" />
    <glyph glyph-name="uni01C5" unicode="&#x1c5;" horiz-adv-x="2580" 
d="M1589 43q343 494 592 866h-168q-29 0 -53 -2t-44.5 -8t-35.5 -11t-29 -18.5t-23 -21.5t-18.5 -28t-14.5 -31.5t-12.5 -39t-11.5 -42t-12 -48.5h-80v345h865l22 -41q-293 -421 -592 -869h199q65 0 110 9t78.5 26.5t57.5 52t41.5 77t36.5 110.5h77l-24 -369h-936z
M1726 1475l50 55l256 -193q57 -39 77 -39q21 0 78 39l256 193l49 -55l-292 -347q-56 -63 -91 -63q-37 0 -90 63zM557 184q0 -50 34.5 -70t129.5 -20q47 0 87 6t84 24t79.5 47t68.5 77.5t55 113t35 156.5t13 205q0 296 -105.5 448t-310.5 152q-99 0 -134.5 -11.5t-35.5 -45.5
v-1082zM68 0v78q109 5 135 24t26 97v1020q0 78 -26 96.5t-135 23.5v78h702q198 -1 332.5 -44t224.5 -132q178 -175 178 -518q0 -110 -18.5 -203.5t-48.5 -162t-76.5 -124t-95 -92t-112 -63.5t-118.5 -41.5t-123.5 -23t-119.5 -11t-113 -2.5h-612z" />
    <glyph glyph-name="uni01C6" unicode="&#x1c6;" horiz-adv-x="2228" 
d="M1237 43q343 494 592 866h-168q-29 0 -53 -2t-44.5 -8t-35.5 -11t-29 -18.5t-23 -21.5t-18.5 -28t-14.5 -31.5t-12.5 -39t-11.5 -42t-12 -48.5h-80v345h864l23 -41q-293 -421 -592 -869h199q81 0 132 12.5t87.5 47t58 82.5t45.5 133h78l-24 -369h-936zM1374 1475l49 55
l256 -193q57 -39 78 -39t78 39l256 193l49 -55l-293 -347q-56 -63 -90 -63q-37 0 -90 63zM395 524q0 -191 60 -291t163 -100q47 0 80 15.5t49.5 43t23.5 56.5t7 63v422q0 90 -16 121q-39 80 -139 80q-97 0 -162.5 -100t-65.5 -310zM70 483q0 269 153 412q142 133 383 133
q105 0 172 -27v271q0 58 -11 79.5t-38 26.5l-72 13v73l416 56l14 -13v-1329q0 -63 22.5 -79t111.5 -21v-78h-443v102q-79 -63 -157.5 -95t-139.5 -32q-192 0 -301.5 140t-109.5 368z" />
    <glyph glyph-name="uni01C7" unicode="&#x1c7;" horiz-adv-x="1988" 
d="M1210 -170q56 18 91.5 39t66.5 57q80 90 80 373v920q0 42 -4 62.5t-23.5 34t-47.5 17.5t-87 6v78h651v-78q-109 -5 -135 -23.5t-26 -96.5v-926q0 -180 -49 -292t-164 -167q-149 -70 -340 -67zM68 0v78q109 5 135 24t26 97v1020q0 78 -26 96.5t-135 23.5v78h675v-78
q-47 -2 -73.5 -3.5t-50 -7t-33.5 -12.5t-18 -21.5t-9.5 -31t-1.5 -44.5v-975q0 -95 46 -122.5t181 -27.5q54 0 95 6.5t72.5 28t50.5 37t41 59.5t31 67.5t32 86.5l12 33h78l-25 -412h-1103z" />
    <glyph glyph-name="uni01C8" unicode="&#x1c8;" horiz-adv-x="1845" 
d="M1174 -412q98 32 147 93q78 99 78 382v717q0 59 -11.5 80.5t-37.5 24.5l-72 10v74l416 59l14 -12v-965q0 -177 -42.5 -290.5t-143.5 -166.5q-133 -69 -340 -69zM1356 1296q0 75 51 127t135 52q85 0 137 -52t52 -127t-53 -127.5t-136 -52.5q-84 0 -135 52t-51 128zM68 0
v78q109 5 135 24t26 97v1020q0 78 -26 96.5t-135 23.5v78h675v-78q-47 -2 -73.5 -3.5t-50 -7t-33.5 -12.5t-18 -21.5t-9.5 -31t-1.5 -44.5v-975q0 -95 46 -122.5t181 -27.5q54 0 95 6.5t72.5 28t50.5 37t41 59.5t31 67.5t32 86.5l12 33h78l-25 -412h-1103z" />
    <glyph glyph-name="uni01C9" unicode="&#x1c9;" horiz-adv-x="1280" 
d="M608 -412q99 33 148 93q78 99 78 382v717q0 58 -11.5 80t-38.5 25l-71 10v74l415 59l15 -12v-965q0 -177 -43 -290.5t-144 -166.5q-133 -69 -340 -69zM791 1296q0 75 51 127t135 52q85 0 136.5 -52t51.5 -127t-52.5 -127.5t-135.5 -52.5q-84 0 -135 52t-51 128zM39 0v78
q89 5 111 20.5t22 79.5v1094q0 58 -11 79.5t-38 26.5l-72 13v73l416 56l14 -13v-1329q0 -64 22 -79.5t111 -20.5v-78h-575z" />
    <glyph glyph-name="uni01CA" unicode="&#x1ca;" horiz-adv-x="2304" 
d="M1526 -170q55 18 90 39t67 57q80 90 80 373v920q0 78 -26 96.5t-135 23.5v78h651v-78q-59 -2 -87 -6t-47.5 -17.5t-23.5 -34t-4 -62.5v-926q0 -180 -49 -292t-164 -167q-149 -70 -340 -67zM57 0v78l72 10q35 4 52 29.5t22 79.5q10 90 10 319v703q0 42 -4 62.5t-23.5 34
t-47.5 17.5t-87 6v78h486q141 -218 645 -975h8v459q0 227 -10 320q-5 55 -24.5 80t-61.5 28l-115 10v78h494v-78l-72 -10q-35 -5 -52.5 -29.5t-21.5 -78.5q-10 -90 -10 -320v-901h-225q-366 572 -744 1143h-8v-627q0 -226 10 -319q5 -55 24.5 -80.5t61.5 -28.5l115 -10v-78
h-494z" />
    <glyph glyph-name="uni01CB" unicode="&#x1cb;" horiz-adv-x="2160" 
d="M1489 -412q98 32 147 93q78 99 78 382v717q0 59 -11.5 80.5t-37.5 24.5l-72 10v74l416 59l14 -12v-965q0 -177 -42.5 -290.5t-143.5 -166.5q-133 -69 -340 -69zM1671 1296q0 75 51.5 127t135.5 52q85 0 136.5 -52t51.5 -127t-52.5 -127.5t-135.5 -52.5q-84 0 -135.5 52
t-51.5 128zM57 0v78l72 10q35 4 52 29.5t22 79.5q10 90 10 319v703q0 42 -4 62.5t-23.5 34t-47.5 17.5t-87 6v78h486q141 -218 645 -975h8v459q0 227 -10 320q-5 55 -24.5 80t-61.5 28l-115 10v78h494v-78l-72 -10q-35 -5 -52.5 -29.5t-21.5 -78.5q-10 -90 -10 -320v-901
h-225q-366 572 -744 1143h-8v-627q0 -226 10 -319q5 -55 24.5 -80.5t61.5 -28.5l115 -10v-78h-494z" />
    <glyph glyph-name="uni01CC" unicode="&#x1cc;" horiz-adv-x="1953" 
d="M1282 -412q99 33 148 93q77 98 77 382v717q0 59 -11.5 80.5t-37.5 24.5l-72 10v74l416 59l15 -12v-965q0 -177 -43 -290.5t-144 -166.5q-133 -69 -340 -69zM1464 1296q0 75 51.5 127t135.5 52q85 0 136.5 -52t51.5 -127t-52.5 -127.5t-135.5 -52.5q-84 0 -135.5 52
t-51.5 128zM53 0v78q89 5 111 20.5t22 79.5v602q0 59 -11.5 80.5t-37.5 24.5l-71 10v74l403 59l27 -141q146 87 201 109q77 32 149 32q154 0 230.5 -83t78.5 -232v-535q0 -64 22 -79.5t111 -20.5v-78h-551v78l43 4q36 3 51 18.5t15 63.5v520q-6 186 -162 186q-60 0 -103 -28
t-65 -72q-20 -41 -20 -121v-485q0 -48 14.5 -63.5t50.5 -18.5l43 -4v-78h-551z" />
    <glyph glyph-name="uni01CD" unicode="&#x1cd;" horiz-adv-x="1318" 
d="M393 602h332l-160 531h-6zM-57 0v78q83 5 112 23.5t54 82.5q22 55 51.5 139.5t71 206.5t67.5 197l238 690h258l403 -1241q20 -62 49.5 -79t110.5 -19v-78h-647v78l118 12q57 5 35 74l-106 340h-398q-80 -260 -98 -342q-10 -34 -2.5 -52.5t39.5 -21.5l123 -10v-78h-479z
M281 1815l38 61l267 -123q64 -31 78 -31q21 0 81 31l269 123l37 -61l-291 -261q-50 -47 -96 -47q-41 0 -93 49z" />
    <glyph glyph-name="uni01CE" unicode="&#x1ce;" horiz-adv-x="1114" 
d="M399 307q0 -79 44.5 -125.5t107.5 -46.5q50 0 87 32t40 107v297q-15 -7 -52 -23t-70.5 -31.5t-61.5 -31.5q-48 -28 -71.5 -68.5t-23.5 -109.5zM84 272q0 92 50 154t167 102q19 6 80.5 26.5t91.5 31t76.5 28t77 32t51.5 28.5v108q0 81 -34 116.5t-85 35.5t-96 -43
t-84 -162q-27 -82 -84 -82q-31 0 -71.5 12t-76.5 43.5t-36 73.5q0 104 133.5 178t351.5 74q75 0 135 -9.5t99.5 -24.5t68 -39.5t44 -47t24 -54.5t10.5 -56t2 -56v-473q0 -134 65 -153q46 -15 99 -11l6 -67q-60 -24 -145 -43t-158 -19q-67 0 -101 31t-59 88q-2 -2 -36 -24.5
t-44.5 -28.5t-42.5 -23t-53 -23.5t-53.5 -13t-63.5 -6.5q-147 0 -228 86.5t-81 210.5zM213 1475l49 55l256 -193q57 -39 78 -39t78 39l256 193l49 -55l-293 -347q-56 -63 -90 -63q-37 0 -90 63z" />
    <glyph glyph-name="uni01CF" unicode="&#x1cf;" horiz-adv-x="786" 
d="M68 0v78q109 5 135 24t26 97v1020q0 78 -26 96.5t-135 23.5v78h651v-78q-59 -2 -87 -6t-47.5 -17.5t-23.5 -34t-4 -62.5v-1020q0 -78 26.5 -97t135.5 -24v-78h-651zM8 1815l39 61l266 -123q64 -31 78 -31q22 0 82 31l268 123l37 -61l-291 -261q-50 -47 -96 -47
q-40 0 -92 49z" />
    <glyph glyph-name="uni01D1" unicode="&#x1d1;" horiz-adv-x="1572" 
d="M449 709q0 -60 3 -114.5t12 -121.5t24 -123t41 -110.5t60 -92.5t84.5 -61t112.5 -23t113 23.5t85.5 61t60.5 92.5t41 110.5t23.5 122.5t11.5 121.5t3 114.5t-3 114.5t-11.5 121.5t-23.5 122.5t-41 110t-60.5 92.5t-85.5 61t-113 23q-337 0 -337 -645zM86 709
q0 354 176.5 546.5t523.5 192.5t524 -192.5t177 -546.5t-177 -547t-524 -193t-523.5 193t-176.5 547zM401 1815l39 61l267 -123l21 -10.5t22 -10.5t17 -6.5t17 -3.5q22 0 82 31l269 123l36 -61l-290 -261q-50 -47 -97 -47q-40 0 -92 49z" />
    <glyph glyph-name="uni01D2" unicode="&#x1d2;" horiz-adv-x="1198" 
d="M395 502q0 -432 205 -432t205 432t-205 432t-205 -432zM70 502q0 526 530 526t530 -526q0 -527 -530 -527t-530 527zM217 1475l49 55l256 -193q57 -39 78 -39t78 39l256 193l49 -55l-293 -347q-56 -63 -90 -63q-37 0 -90 63z" />
    <glyph glyph-name="uni01D3" unicode="&#x1d3;" horiz-adv-x="1609" 
d="M59 1339v78h639v-78q-57 -2 -83.5 -6t-45 -17.5t-22.5 -34t-4 -62.5v-787q0 -369 262 -369q137 0 199.5 94t62.5 275v787q0 42 -4 62.5t-22.5 34t-45.5 17.5t-84 6v78h639v-78q-57 -2 -83.5 -6t-45 -17.5t-22.5 -34t-4 -62.5v-758q-3 -259 -150.5 -375.5t-439.5 -116.5
q-310 0 -450 114.5t-140 377.5v758q0 42 -4 62.5t-22.5 34t-45.5 17.5t-84 6zM420 1815l39 61l266 -123q64 -31 78 -31q22 0 82 31l268 123l37 -61l-291 -261q-50 -47 -96 -47q-40 0 -92 49z" />
    <glyph glyph-name="uni01D4" unicode="&#x1d4;" horiz-adv-x="1288" 
d="M47 895v74l416 59l14 -12v-656q0 -117 43.5 -170t128.5 -53q63 0 105 28t57 68q16 41 16 115v432q0 59 -11.5 80.5t-37.5 24.5l-71 10v74l415 59l15 -12v-838q0 -64 22 -79.5t111 -20.5v-78h-426l-17 115q-14 -8 -64.5 -39.5t-84 -49t-93 -34.5t-120.5 -17q-59 0 -109 15
t-94 48.5t-69 96t-25 148.5v497q0 59 -11.5 80.5t-37.5 24.5zM268 1475l49 55l256 -193q57 -39 78 -39t78 39l256 193l49 -55l-293 -347q-56 -63 -90 -63q-37 0 -90 63z" />
    <glyph glyph-name="uni01D5" unicode="&#x1d5;" horiz-adv-x="1609" 
d="M446 1927v178h717v-178h-717zM59 1339v78h639v-78q-57 -2 -83.5 -6t-45 -17.5t-22.5 -34t-4 -62.5v-787q0 -369 262 -369q137 0 199.5 94t62.5 275v787q0 42 -4 62.5t-22.5 34t-45.5 17.5t-84 6v78h639v-78q-57 -2 -83.5 -6t-45 -17.5t-22.5 -34t-4 -62.5v-758
q-3 -259 -150.5 -375.5t-439.5 -116.5q-310 0 -450 114.5t-140 377.5v758q0 42 -4 62.5t-22.5 34t-45.5 17.5t-84 6zM385 1651q0 62 44 107.5t118 45.5t118 -45.5t44 -107.5t-44 -108t-118 -46t-118 46t-44 108zM901 1651q0 62 44 107.5t118 45.5t118 -45.5t44 -107.5
t-44 -108t-118 -46t-118 46t-44 108z" />
    <glyph glyph-name="uni01D6" unicode="&#x1d6;" horiz-adv-x="1288" 
d="M326 1577v178h637v-178h-637zM45 895v74l416 59l14 -12v-656q0 -117 43.5 -170t128.5 -53q63 0 105 28t57 68q16 41 16 115v432q0 59 -11.5 80.5t-37.5 24.5l-71 10v74l415 59l15 -12v-838q0 -64 22 -79.5t111 -20.5v-78h-426l-17 115q-14 -8 -64.5 -39.5t-84 -49
t-93 -34.5t-120.5 -17q-59 0 -109 15t-94 48.5t-69 96t-25 148.5v497q0 59 -11.5 80.5t-37.5 24.5zM236 1300q0 62 43.5 108t117.5 46t118 -46t44 -108t-44 -107.5t-118 -45.5t-117.5 45.5t-43.5 107.5zM727 1300q0 62 44 108t118 46t118 -46t44 -108t-44 -107.5t-118 -45.5
t-118 45.5t-44 107.5z" />
    <glyph glyph-name="uni01D7" unicode="&#x1d7;" horiz-adv-x="1609" 
d="M776 1993l352 252q47 35 75.5 48t56.5 13q45 0 77.5 -47t32.5 -84q0 -43 -31.5 -66t-117.5 -51l-416 -131zM59 1339v78h639v-78q-57 -2 -83.5 -6t-45 -17.5t-22.5 -34t-4 -62.5v-787q0 -369 262 -369q137 0 199.5 94t62.5 275v787q0 42 -4 62.5t-22.5 34t-45.5 17.5
t-84 6v78h639v-78q-57 -2 -83.5 -6t-45 -17.5t-22.5 -34t-4 -62.5v-758q-3 -259 -150.5 -375.5t-439.5 -116.5q-310 0 -450 114.5t-140 377.5v758q0 42 -4 62.5t-22.5 34t-45.5 17.5t-84 6zM385 1651q0 62 44 107.5t118 45.5t118 -45.5t44 -107.5t-44 -108t-118 -46t-118 46
t-44 108zM901 1651q0 62 44 107.5t118 45.5t118 -45.5t44 -107.5t-44 -108t-118 -46t-118 46t-44 108z" />
    <glyph glyph-name="uni01D8" unicode="&#x1d8;" horiz-adv-x="1288" 
d="M602 1638l297 306q57 59 89 80.5t63 21.5q36 0 72 -42t36 -81q0 -36 -35.5 -66.5t-103.5 -68.5l-375 -211zM47 895v74l416 59l14 -12v-656q0 -117 43.5 -170t128.5 -53q63 0 105 28t57 68q16 41 16 115v432q0 59 -11.5 80.5t-37.5 24.5l-71 10v74l415 59l15 -12v-838
q0 -64 22 -79.5t111 -20.5v-78h-426l-17 115q-14 -8 -64.5 -39.5t-84 -49t-93 -34.5t-120.5 -17q-59 0 -109 15t-94 48.5t-69 96t-25 148.5v497q0 59 -11.5 80.5t-37.5 24.5zM238 1300q0 62 43.5 108t117.5 46t118 -46t44 -108t-44 -107.5t-118 -45.5t-117.5 45.5
t-43.5 107.5zM729 1300q0 62 44 108t118 46t118 -46t44 -108t-44 -107.5t-118 -45.5t-118 45.5t-44 107.5z" />
    <glyph glyph-name="uni01D9" unicode="&#x1d9;" horiz-adv-x="1609" 
d="M420 2234l39 62l266 -123q64 -31 78 -31q22 0 82 31l268 123l37 -62l-291 -260q-50 -47 -96 -47q-40 0 -92 49zM59 1339v78h639v-78q-57 -2 -83.5 -6t-45 -17.5t-22.5 -34t-4 -62.5v-787q0 -369 262 -369q137 0 199.5 94t62.5 275v787q0 42 -4 62.5t-22.5 34t-45.5 17.5
t-84 6v78h639v-78q-57 -2 -83.5 -6t-45 -17.5t-22.5 -34t-4 -62.5v-758q-3 -259 -150.5 -375.5t-439.5 -116.5q-310 0 -450 114.5t-140 377.5v758q0 42 -4 62.5t-22.5 34t-45.5 17.5t-84 6zM385 1651q0 62 44 107.5t118 45.5t118 -45.5t44 -107.5t-44 -108t-118 -46t-118 46
t-44 108zM901 1651q0 62 44 107.5t118 45.5t118 -45.5t44 -107.5t-44 -108t-118 -46t-118 46t-44 108z" />
    <glyph glyph-name="uni01DA" unicode="&#x1da;" horiz-adv-x="1288" 
d="M262 1987l49 55l256 -193q57 -39 78 -39t78 39l256 193l49 -55l-293 -347q-56 -63 -90 -63q-37 0 -90 63zM47 895v74l416 59l14 -12v-656q0 -117 43.5 -170t128.5 -53q63 0 105 28t57 68q16 41 16 115v432q0 59 -11.5 80.5t-37.5 24.5l-71 10v74l415 59l15 -12v-838
q0 -64 22 -79.5t111 -20.5v-78h-426l-17 115q-14 -8 -64.5 -39.5t-84 -49t-93 -34.5t-120.5 -17q-59 0 -109 15t-94 48.5t-69 96t-25 148.5v497q0 59 -11.5 80.5t-37.5 24.5zM238 1300q0 62 43.5 108t117.5 46t118 -46t44 -108t-44 -107.5t-118 -45.5t-117.5 45.5
t-43.5 107.5zM729 1300q0 62 44 108t118 46t118 -46t44 -108t-44 -107.5t-118 -45.5t-118 45.5t-44 107.5z" />
    <glyph glyph-name="uni01DB" unicode="&#x1db;" horiz-adv-x="1609" 
d="M240 2175q0 37 32.5 84t77.5 47q28 0 56 -13t75 -48l353 -252l-29 -66l-416 131q-86 28 -117.5 51t-31.5 66zM59 1339v78h639v-78q-57 -2 -83.5 -6t-45 -17.5t-22.5 -34t-4 -62.5v-787q0 -369 262 -369q137 0 199.5 94t62.5 275v787q0 42 -4 62.5t-22.5 34t-45.5 17.5
t-84 6v78h639v-78q-57 -2 -83.5 -6t-45 -17.5t-22.5 -34t-4 -62.5v-758q-3 -259 -150.5 -375.5t-439.5 -116.5q-310 0 -450 114.5t-140 377.5v758q0 42 -4 62.5t-22.5 34t-45.5 17.5t-84 6zM385 1651q0 62 44 107.5t118 45.5t118 -45.5t44 -107.5t-44 -108t-118 -46t-118 46
t-44 108zM901 1651q0 62 44 107.5t118 45.5t118 -45.5t44 -107.5t-44 -108t-118 -46t-118 46t-44 108z" />
    <glyph glyph-name="uni01DC" unicode="&#x1dc;" horiz-adv-x="1288" 
d="M131 1923q0 39 36.5 81t72.5 42q30 0 61.5 -21.5t89.5 -80.5l297 -306l-43 -61l-375 211q-68 38 -103.5 68.5t-35.5 66.5zM47 895v74l416 59l14 -12v-656q0 -117 43.5 -170t128.5 -53q63 0 105 28t57 68q16 41 16 115v432q0 59 -11.5 80.5t-37.5 24.5l-71 10v74l415 59
l15 -12v-838q0 -64 22 -79.5t111 -20.5v-78h-426l-17 115q-14 -8 -64.5 -39.5t-84 -49t-93 -34.5t-120.5 -17q-59 0 -109 15t-94 48.5t-69 96t-25 148.5v497q0 59 -11.5 80.5t-37.5 24.5zM238 1300q0 62 43.5 108t117.5 46t118 -46t44 -108t-44 -107.5t-118 -45.5
t-117.5 45.5t-43.5 107.5zM729 1300q0 62 44 108t118 46t118 -46t44 -108t-44 -107.5t-118 -45.5t-118 45.5t-44 107.5z" />
    <glyph glyph-name="uni01DD" unicode="&#x1dd;" horiz-adv-x="1062" 
d="M352 322q0 -42 5.5 -81t20 -80t45.5 -66t75 -25q48 0 83 28.5t53.5 76.5t27 101.5t8.5 112.5h-254q-36 0 -50 -13.5t-14 -53.5zM31 401q0 48 26 67t84 19h529q0 84 -14.5 151t-45.5 120.5t-85.5 82.5t-129.5 29q-179 0 -274 -182l-74 41q116 299 447 299q111 0 198 -28.5
t143 -76t93 -116t52 -143.5t15 -162q0 -112 -28 -204.5t-86 -166t-158 -115t-234 -41.5q-113 0 -198.5 29t-133.5 72t-78 103t-39 112.5t-9 109.5z" />
    <glyph glyph-name="uni01DE" unicode="&#x1de;" horiz-adv-x="1318" 
d="M301 1927v178h717v-178h-717zM393 602h332l-160 531h-6zM-57 0v78q83 5 112 23.5t54 82.5q22 55 51.5 139.5t71 206.5t67.5 197l238 690h258l403 -1241q20 -62 49.5 -79t110.5 -19v-78h-647v78l118 12q57 5 35 74l-106 340h-398q-80 -260 -98 -342q-10 -34 -2.5 -52.5
t39.5 -21.5l123 -10v-78h-479zM240 1651q0 62 43.5 107.5t117.5 45.5t118 -45.5t44 -107.5t-44 -108t-118 -46t-117.5 46t-43.5 108zM756 1651q0 62 44 107.5t118 45.5t117.5 -45.5t43.5 -107.5t-43.5 -108t-117.5 -46t-118 46t-44 108z" />
    <glyph glyph-name="uni01DF" unicode="&#x1df;" horiz-adv-x="1114" 
d="M254 1577v178h637v-178h-637zM397 307q0 -79 44.5 -125.5t107.5 -46.5q50 0 87 32t40 107v297q-15 -7 -52 -23t-70.5 -31.5t-61.5 -31.5q-48 -28 -71.5 -68.5t-23.5 -109.5zM82 272q0 92 50 154t167 102q19 6 80.5 26.5t91.5 31t76.5 28t77 32t51.5 28.5v108
q0 81 -34 116.5t-85 35.5t-96 -43t-84 -162q-27 -82 -84 -82q-31 0 -71.5 12t-76.5 43.5t-36 73.5q0 104 133.5 178t351.5 74q75 0 135 -9.5t99.5 -24.5t68 -39.5t44 -47t24 -54.5t10.5 -56t2 -56v-473q0 -134 65 -153q46 -15 99 -11l6 -67q-60 -24 -145 -43t-158 -19
q-67 0 -101 31t-59 88q-2 -2 -36 -24.5t-44.5 -28.5t-42.5 -23t-53 -23.5t-53.5 -13t-63.5 -6.5q-147 0 -228 86.5t-81 210.5zM164 1300q0 62 44 108t118 46t117.5 -46t43.5 -108t-43.5 -107.5t-117.5 -45.5t-118 45.5t-44 107.5zM655 1300q0 62 44 108t118 46t118 -46
t44 -108t-44 -107.5t-118 -45.5t-118 45.5t-44 107.5z" />
    <glyph glyph-name="uni01E0" unicode="&#x1e0;" horiz-adv-x="1318" 
d="M307 1927v178h717v-178h-717zM393 602h332l-160 531h-6zM-57 0v78q83 5 112 23.5t54 82.5q22 55 51.5 139.5t71 206.5t67.5 197l238 690h258l403 -1241q20 -62 49.5 -79t110.5 -19v-78h-647v78l118 12q57 5 35 74l-106 340h-398q-80 -260 -98 -342q-10 -34 -2.5 -52.5
t39.5 -21.5l123 -10v-78h-479zM504 1651q0 62 44 107.5t118 45.5t117.5 -45.5t43.5 -107.5t-43.5 -108t-117.5 -46t-118 46t-44 108z" />
    <glyph glyph-name="uni01E1" unicode="&#x1e1;" horiz-adv-x="1114" 
d="M276 1577v178h637v-178h-637zM397 307q0 -79 44.5 -125.5t107.5 -46.5q50 0 87 32t40 107v297q-15 -7 -52 -23t-70.5 -31.5t-61.5 -31.5q-48 -28 -71.5 -68.5t-23.5 -109.5zM82 272q0 92 50 154t167 102q19 6 80.5 26.5t91.5 31t76.5 28t77 32t51.5 28.5v108
q0 81 -34 116.5t-85 35.5t-96 -43t-84 -162q-27 -82 -84 -82q-31 0 -71.5 12t-76.5 43.5t-36 73.5q0 104 133.5 178t351.5 74q75 0 135 -9.5t99.5 -24.5t68 -39.5t44 -47t24 -54.5t10.5 -56t2 -56v-473q0 -134 65 -153q46 -15 99 -11l6 -67q-60 -24 -145 -43t-158 -19
q-67 0 -101 31t-59 88q-2 -2 -36 -24.5t-44.5 -28.5t-42.5 -23t-53 -23.5t-53.5 -13t-63.5 -6.5q-147 0 -228 86.5t-81 210.5zM432 1300q0 62 44 108t118 46t118 -46t44 -108t-44 -107.5t-118 -45.5t-118 45.5t-44 107.5z" />
    <glyph glyph-name="uni01E2" unicode="&#x1e2;" horiz-adv-x="1800" 
d="M471 797h279v514h-21q-98 -183 -258 -514zM-158 0v78q86 3 121 25.5t70 89.5q99 186 271 531t253 515q21 41 16.5 62t-34.5 24l-131 14v78h1275v-379h-77q-15 50 -26 80.5t-26.5 64.5t-30.5 53t-37 38t-49 28.5t-62.5 15t-80.5 5.5h-153q-43 0 -57.5 -15t-14.5 -59v-452
h195q95 0 129 34.5t59 149.5h78v-475h-78q-25 115 -59 149.5t-129 34.5h-195v-446q0 -94 52 -122t200 -28q87 0 142.5 16.5t94.5 68.5t56.5 92.5t52.5 143.5q1 2 1.5 3.5t1 3.5t1.5 4h78l-25 -426h-1136v78q109 5 135.5 24t26.5 97v491h-330q-155 -337 -227 -520
q-16 -37 -8 -57t44 -23l131 -12v-78h-518zM584 1567v178h716v-178h-716z" />
    <glyph glyph-name="uni01E3" unicode="&#x1e3;" horiz-adv-x="1650" 
d="M979 614h258q36 0 49.5 14t13.5 54q0 43 -5.5 81t-19.5 79.5t-45 66.5t-75 25q-49 0 -85 -28t-55 -76t-27.5 -101.5t-8.5 -114.5zM399 307q0 -79 44.5 -125.5t107.5 -46.5q50 0 87 32t40 107v297q-15 -7 -52 -23t-70.5 -31.5t-61.5 -31.5q-48 -28 -71.5 -68.5
t-23.5 -109.5zM84 272q0 91 49.5 154t165.5 104q33 12 128 44.5t152.5 55t98.5 44.5v108q0 81 -34 116.5t-85 35.5t-96 -43t-84 -162q-27 -82 -84 -82q-31 0 -71.5 12t-76.5 43.5t-36 73.5q0 104 131.5 178t341.5 74q197 0 282 -119q139 119 316 119q85 0 154.5 -18t114 -46
t78 -68.5t51 -78t27.5 -82t12.5 -73.5t2.5 -60q0 -48 -26.5 -67t-84.5 -19h-532q0 -383 276 -383q180 0 275 182l74 -41q-116 -299 -447 -299q-257 -3 -375 179l-96 -62q-3 -2 -26 -17.5t-30.5 -20t-31 -18.5t-36 -19.5t-36.5 -15.5t-42.5 -14.5t-42.5 -8t-48 -3.5
q-149 0 -229 86.5t-80 210.5zM545 1202v178h637v-178h-637z" />
    <glyph glyph-name="Gcaron" unicode="&#x1e6;" horiz-adv-x="1486" 
d="M86 698q0 67 7.5 131t29.5 141t56.5 142.5t94 129t136.5 108t189.5 71.5t248.5 27q303 0 469 -90v-373h-78q-24 75 -52.5 133.5t-73 115.5t-109.5 88.5t-146 31.5q-74 0 -135 -24.5t-102.5 -63.5t-73.5 -94t-50 -111t-29.5 -120t-15 -114.5t-3.5 -101.5q0 -43 2 -85
t11 -111t24 -128t44.5 -124t69.5 -110t102 -74.5t138 -29.5q104 0 137 19t33 74v288q0 41 -4 60.5t-24.5 33.5t-51.5 18.5t-96 8.5v78h618v-78q-40 -4 -59.5 -8.5t-34 -17.5t-18 -32.5t-3.5 -57.5v-381q-105 -46 -241 -72.5t-256 -26.5q-308 0 -478 113q-276 184 -276 616z
M463 1815l39 61l266 -123q64 -31 78 -31q22 0 82 31l268 123l37 -61l-291 -261q-50 -47 -96 -47q-40 0 -92 49z" />
    <glyph glyph-name="gcaron" unicode="&#x1e7;" horiz-adv-x="1091" 
d="M389 686q0 -105 43.5 -170t110.5 -65q70 0 111.5 64t41.5 173q0 122 -43 184t-108 62q-67 0 -111.5 -62.5t-44.5 -185.5zM328 -176q0 -104 76 -164.5t184 -60.5q111 0 182.5 50.5t71.5 153.5q0 89 -72 126.5t-211 37.5q-132 0 -180 -30q-51 -35 -51 -113zM51 -197
q0 48 23.5 84.5t65 58.5t74.5 32.5t75 19.5v4q-72 16 -130.5 72t-58.5 121q0 61 59.5 112t159.5 76v4q-102 16 -175.5 94.5t-73.5 198.5q0 51 13.5 98t48.5 93.5t87.5 80.5t136.5 55t191 21q82 0 161.5 -18.5t131.5 -48.5l256 88l22 -23l-41 -154l-135 -24q21 -27 34 -71
t13 -89q0 -71 -24.5 -128t-66.5 -94.5t-101 -62.5t-124.5 -36t-140.5 -11q-55 0 -94 4q-29 -6 -55.5 -25.5t-26.5 -49.5t34 -50t104 -20h190q67 0 125 -9.5t110.5 -33t89.5 -59t59 -91.5t22 -128q0 -107 -51.5 -187.5t-139.5 -126.5q-70 -38 -167 -57t-175 -19
q-149 0 -261.5 32t-178.5 100.5t-66 166.5zM145 1475l50 55l256 -193q57 -39 77 -39q21 0 78 39l256 193l49 -55l-293 -347q-56 -63 -90 -63q-37 0 -90 63z" />
    <glyph glyph-name="uni01E8" unicode="&#x1e8;" horiz-adv-x="1447" 
d="M68 0v78q109 5 135 24t26 97v1020q0 78 -26 96.5t-135 23.5v78h651v-78q-59 -2 -87 -6t-47.5 -17.5t-23.5 -34t-4 -62.5v-484l215 248q103 118 238 291q41 50 -13 57l-86 12v74h557v-74q-89 -7 -133 -23.5t-102 -59.5q-51 -39 -109 -92t-86.5 -81.5t-112 -117.5
t-104.5 -111q92 -153 226.5 -341t257.5 -329q88 -102 147 -116l21 -6v-78l-140 4q-132 4 -213.5 27t-144 74t-133.5 151q-66 95 -97 140.5t-82.5 130t-101.5 179.5h-4v-495q0 -78 26.5 -97t135.5 -24v-78h-651zM385 1815l39 61l266 -123q64 -31 78 -31q22 0 82 31l268 123
l37 -61l-291 -261q-50 -47 -96 -47q-40 0 -92 49z" />
    <glyph glyph-name="uni01E9" unicode="&#x1e9;" horiz-adv-x="1191" 
d="M39 0v78q89 5 111 20.5t22 79.5v1094q0 58 -11 79.5t-38 26.5l-72 13v73l416 56l14 -13v-950h4l148 209q103 144 127 176q51 62 121 62h297v-66q-120 -26 -217 -84.5t-189 -146.5l-45 -45q179 -283 360 -486q46 -53 73 -75.5t59 -34.5v-66h-185q-115 0 -182.5 26
t-120.5 95q-126 168 -246 399h-4v-342q0 -64 22 -79.5t111 -20.5v-78h-575zM246 1966l49 55l256 -192q57 -39 78 -39t78 39l256 192l49 -55l-293 -346q-57 -64 -90 -64q-36 0 -90 64z" />
    <glyph glyph-name="uni01EA" unicode="&#x1ea;" horiz-adv-x="1572" 
d="M449 709q0 -60 3 -114.5t12 -121.5t24 -123t41 -110.5t60 -92.5t84.5 -61t112.5 -23t113 23.5t85.5 61t60.5 92.5t41 110.5t23.5 122.5t11.5 121.5t3 114.5t-3 114.5t-11.5 121.5t-23.5 122.5t-41 110t-60.5 92.5t-85.5 61t-113 23q-337 0 -337 -645zM86 709l2 4
q0 354 176.5 546.5t523.5 192.5t524 -192.5t177 -546.5q0 -344 -167 -537t-495 -203q-149 -131 -149 -252q1 -60 35.5 -93.5t87.5 -33.5q54 0 100 27l31 -55q-99 -82 -215 -82q-60 0 -105 14.5t-69.5 35.5t-39 50t-18.5 51.5t-4 47.5q0 72 64 152.5t160 137.5
q-307 23 -463 214t-156 522z" />
    <glyph glyph-name="uni01EB" unicode="&#x1eb;" horiz-adv-x="1198" 
d="M395 502q0 -432 205 -432t205 432t-205 432t-205 -432zM70 502q0 526 530 526t530 -526q0 -244 -120 -380.5t-371 -146.5q-150 -132 -150 -251q1 -60 35.5 -93.5t87.5 -33.5q57 0 101 26l30 -55q-99 -82 -215 -82q-60 0 -105 14.5t-69 35.5t-38.5 50t-18.5 51.5t-4 47.5
q0 72 64.5 153.5t160.5 138.5q-448 42 -448 525z" />
    <glyph glyph-name="uni01EC" unicode="&#x1ec;" horiz-adv-x="1572" 
d="M428 1571v178h717v-178h-717zM449 709q0 -60 3 -114.5t12 -121.5t24 -123t41 -110.5t60 -92.5t84.5 -61t112.5 -23t113 23.5t85.5 61t60.5 92.5t41 110.5t23.5 122.5t11.5 121.5t3 114.5t-3 114.5t-11.5 121.5t-23.5 122.5t-41 110t-60.5 92.5t-85.5 61t-113 23
q-337 0 -337 -645zM86 709l2 4q0 354 176.5 546.5t523.5 192.5t524 -192.5t177 -546.5q0 -344 -167 -537t-495 -203q-149 -131 -149 -252q1 -60 35.5 -93.5t87.5 -33.5q54 0 100 27l31 -55q-99 -82 -215 -82q-60 0 -105 14.5t-69.5 35.5t-39 50t-18.5 51.5t-4 47.5
q0 72 64 152.5t160 137.5q-307 23 -463 214t-156 522z" />
    <glyph glyph-name="uni01ED" unicode="&#x1ed;" horiz-adv-x="1198" 
d="M281 1151v178h637v-178h-637zM393 502q0 -432 205 -432t205 432t-205 432t-205 -432zM68 502q0 526 530 526t530 -526q0 -244 -120 -380.5t-371 -146.5q-150 -132 -150 -251q1 -60 35.5 -93.5t87.5 -33.5q57 0 101 26l30 -55q-99 -82 -215 -82q-60 0 -105 14.5t-69 35.5
t-38.5 50t-18.5 51.5t-4 47.5q0 72 64.5 153.5t160.5 138.5q-448 42 -448 525z" />
    <glyph glyph-name="uni01EE" unicode="&#x1ee;" horiz-adv-x="1265" 
d="M86 264q0 170 141 170q146 0 146 -110q0 -25 -7.5 -59t-7.5 -79q0 -55 53.5 -89t159.5 -34q114 0 186 82t72 234q0 143 -63 231t-168 88t-152 -28l-53 67l8 45l402 410h-254q-62 0 -101.5 -3t-75 -14.5t-56 -28t-40.5 -48.5t-33.5 -71.5t-29.5 -102.5h-78v493h916l26 -43
l-6 -28q-8 -41 -33 -80.5t-90 -104.5l-356 -358l4 -4q39 16 86 16q78 0 148 -12t137 -42.5t115 -77t77 -120t29 -166.5q0 -428 -635 -428q-209 0 -338 82t-129 213zM252 1815l39 61l266 -123q64 -31 78 -31q22 0 82 31l268 123l37 -61l-291 -261q-50 -47 -96 -47
q-40 0 -92 49z" />
    <glyph glyph-name="uni01EF" unicode="&#x1ef;" horiz-adv-x="1079" 
d="M66 -231q0 31 16 54.5t40.5 35t48 17t44.5 5.5q48 0 77.5 -35t29.5 -84q0 -64 46 -113.5t128 -49.5q59 0 100.5 32.5t61 87t27 104t7.5 103.5q0 49 -10 100.5t-31.5 104.5t-64 86t-99.5 33q-73 0 -125 -29l-55 74l10 45l363 438h-277q-67 0 -107.5 -11t-66 -41.5
t-37.5 -68.5t-24 -108h-80v455h840l22 -43l-12 -37q-7 -23 -19 -40t-57 -71l-379 -457l4 -4q8 4 48.5 8.5t60.5 4.5q186 0 302 -116.5t116 -322.5q0 -100 -40 -182t-107 -133.5t-151 -79t-175 -27.5q-182 0 -271 27.5t-153 103.5q-51 62 -51 134zM158 1475l49 55l256 -193
q57 -39 78 -39q4 0 7.5 0.5t8 2t8 3t8.5 4.5t8 4.5t9.5 5.5t9 6t9.5 6.5t9 6.5l256 193l50 -55l-293 -347q-56 -63 -90 -63q-37 0 -90 63z" />
    <glyph glyph-name="uni01F1" unicode="&#x1f1;" horiz-adv-x="2848" 
d="M1591 45q292 437 834 1278h-260q-186 0 -263 -63.5t-114 -243.5h-78v401h1094l26 -43q-573 -868 -837 -1280h329q65 0 115.5 7t89 18.5t69 34.5t51.5 45.5t41.5 62.5t34 74.5t32.5 91.5h77l-24 -428h-1190zM557 184q0 -50 34.5 -70t129.5 -20q47 0 87 6t84 24t79.5 47
t68.5 77.5t55 113t35 156.5t13 205q0 296 -105.5 448t-310.5 152q-99 0 -134.5 -11.5t-35.5 -45.5v-1082zM68 0v78q109 5 135 24t26 97v1020q0 78 -26 96.5t-135 23.5v78h702q198 -1 332.5 -44t224.5 -132q178 -175 178 -518q0 -110 -18.5 -203.5t-48.5 -162t-76.5 -124
t-95 -92t-112 -63.5t-118.5 -41.5t-123.5 -23t-119.5 -11t-113 -2.5h-612z" />
    <glyph glyph-name="uni01F2" unicode="&#x1f2;" horiz-adv-x="2580" 
d="M1589 43q343 494 592 866h-168q-29 0 -53 -2t-44.5 -8t-35.5 -11t-29 -18.5t-23 -21.5t-18.5 -28t-14.5 -31.5t-12.5 -39t-11.5 -42t-12 -48.5h-80v345h865l22 -41q-293 -421 -592 -869h199q65 0 110 9t78.5 26.5t57.5 52t41.5 77t36.5 110.5h77l-24 -369h-936zM557 184
q0 -50 34.5 -70t129.5 -20q47 0 87 6t84 24t79.5 47t68.5 77.5t55 113t35 156.5t13 205q0 296 -105.5 448t-310.5 152q-99 0 -134.5 -11.5t-35.5 -45.5v-1082zM68 0v78q109 5 135 24t26 97v1020q0 78 -26 96.5t-135 23.5v78h702q198 -1 332.5 -44t224.5 -132
q178 -175 178 -518q0 -110 -18.5 -203.5t-48.5 -162t-76.5 -124t-95 -92t-112 -63.5t-118.5 -41.5t-123.5 -23t-119.5 -11t-113 -2.5h-612z" />
    <glyph glyph-name="uni01F3" unicode="&#x1f3;" horiz-adv-x="2228" 
d="M1237 43q343 494 592 866h-168q-29 0 -53 -2t-44.5 -8t-35.5 -11t-29 -18.5t-23 -21.5t-18.5 -28t-14.5 -31.5t-12.5 -39t-11.5 -42t-12 -48.5h-80v345h864l23 -41q-293 -421 -592 -869h199q81 0 132 12.5t87.5 47t58 82.5t45.5 133h78l-24 -369h-936zM395 524
q0 -191 60 -291t163 -100q47 0 80 15.5t49.5 43t23.5 56.5t7 63v422q0 90 -16 121q-39 80 -139 80q-97 0 -162.5 -100t-65.5 -310zM70 483q0 269 153 412q142 133 383 133q105 0 172 -27v271q0 58 -11 79.5t-38 26.5l-72 13v73l416 56l14 -13v-1329q0 -63 22.5 -79
t111.5 -21v-78h-443v102q-79 -63 -157.5 -95t-139.5 -32q-192 0 -301.5 140t-109.5 368z" />
    <glyph glyph-name="uni01F4" unicode="&#x1f4;" horiz-adv-x="1486" 
d="M86 698q0 67 7.5 131t29.5 141t56.5 142.5t94 129t136.5 108t189.5 71.5t248.5 27q303 0 469 -90v-373h-78q-24 75 -52.5 133.5t-73 115.5t-109.5 88.5t-146 31.5q-74 0 -135 -24.5t-102.5 -63.5t-73.5 -94t-50 -111t-29.5 -120t-15 -114.5t-3.5 -101.5q0 -43 2 -85
t11 -111t24 -128t44.5 -124t69.5 -110t102 -74.5t138 -29.5q104 0 137 19t33 74v288q0 41 -4 60.5t-24.5 33.5t-51.5 18.5t-96 8.5v78h618v-78q-40 -4 -59.5 -8.5t-34 -17.5t-18 -32.5t-3.5 -57.5v-381q-105 -46 -241 -72.5t-256 -26.5q-308 0 -478 113q-276 184 -276 616z
M629 1538l352 252q47 35 75 48t56 13q45 0 78 -47t33 -84q0 -42 -32 -65t-118 -51l-416 -131z" />
    <glyph glyph-name="uni01F5" unicode="&#x1f5;" horiz-adv-x="1091" 
d="M389 686q0 -105 43.5 -170t110.5 -65q70 0 111.5 64t41.5 173q0 122 -43 184t-108 62q-67 0 -111.5 -62.5t-44.5 -185.5zM328 -176q0 -104 76 -164.5t184 -60.5q111 0 182.5 50.5t71.5 153.5q0 89 -72 126.5t-211 37.5q-132 0 -180 -30q-51 -35 -51 -113zM51 -197
q0 48 23.5 84.5t65 58.5t74.5 32.5t75 19.5v4q-72 16 -130.5 72t-58.5 121q0 61 59.5 112t159.5 76v4q-102 16 -175.5 94.5t-73.5 198.5q0 51 13.5 98t48.5 93.5t87.5 80.5t136.5 55t191 21q82 0 161.5 -18.5t131.5 -48.5l256 88l22 -23l-41 -154l-135 -24q21 -27 34 -71
t13 -89q0 -71 -24.5 -128t-66.5 -94.5t-101 -62.5t-124.5 -36t-140.5 -11q-55 0 -94 4q-29 -6 -55.5 -25.5t-26.5 -49.5t34 -50t104 -20h190q67 0 125 -9.5t110.5 -33t89.5 -59t59 -91.5t22 -128q0 -107 -51.5 -187.5t-139.5 -126.5q-70 -38 -167 -57t-175 -19
q-149 0 -261.5 32t-178.5 100.5t-66 166.5zM342 1108l297 305q58 59 90 81t62 22q36 0 72 -42t36 -81q0 -36 -36 -67.5t-103 -68.5l-375 -210z" />
    <glyph glyph-name="uni01F8" unicode="&#x1f8;" horiz-adv-x="1513" 
d="M57 0v78l72 10q35 4 52 29.5t22 79.5q10 90 10 319v703q0 42 -4 62.5t-23.5 34t-47.5 17.5t-87 6v78h486q141 -218 645 -975h8v459q0 227 -10 320q-5 55 -24.5 80t-61.5 28l-115 10v78h494v-78l-72 -10q-35 -5 -52.5 -29.5t-21.5 -78.5q-10 -90 -10 -320v-901h-225
q-366 572 -744 1143h-8v-627q0 -226 10 -319q5 -55 24.5 -80.5t61.5 -28.5l115 -10v-78h-494zM387 1720q0 37 33 84t78 47q28 0 56 -13t75 -48l352 -252l-29 -65l-415 131q-86 28 -118 51t-32 65z" />
    <glyph glyph-name="uni01F9" unicode="&#x1f9;" horiz-adv-x="1306" 
d="M53 0v78q89 5 111 20.5t22 79.5v602q0 59 -11.5 80.5t-37.5 24.5l-71 10v74l403 59l27 -141q146 87 201 109q77 32 149 32q154 0 230.5 -83t78.5 -232v-535q0 -64 22 -79.5t111 -20.5v-78h-551v78l43 4q36 3 51 18.5t15 63.5v520q-6 186 -162 186q-60 0 -103 -28t-65 -72
q-20 -41 -20 -121v-485q0 -48 14.5 -63.5t50.5 -18.5l43 -4v-78h-551zM293 1393q0 39 36 81t72 42q30 0 62 -22t90 -81l297 -305l-43 -61l-375 210q-67 37 -103 68.5t-36 67.5z" />
    <glyph glyph-name="Aringacute" unicode="&#x1fa;" horiz-adv-x="1318" 
d="M633 1974l352 252q47 35 75 48.5t56 13.5q45 0 78 -47t33 -84q0 -42 -32 -65.5t-118 -51.5l-415 -131zM555 1559q0 -68 30.5 -106t76.5 -38q45 0 75.5 38t30.5 106t-30.5 105.5t-75.5 37.5q-46 0 -76.5 -37.5t-30.5 -105.5zM393 602h332l-160 531h-6zM-57 0v78
q83 5 112 23.5t54 82.5q22 55 51.5 139.5t71 206.5t67.5 197l221 639q-102 55 -102 193q0 80 37 133t89.5 73.5t117.5 20.5q48 0 89.5 -12.5t77 -38t56 -70.5t20.5 -106q0 -135 -96 -191l389 -1192q20 -62 49.5 -79t110.5 -19v-78h-647v78l118 12q57 5 35 74l-106 340h-398
q-80 -260 -98 -342q-10 -34 -2.5 -52.5t39.5 -21.5l123 -10v-78h-479z" />
    <glyph glyph-name="aringacute" unicode="&#x1fb;" horiz-adv-x="1114" 
d="M514 1745l297 305q57 59 89 80.5t63 21.5q36 0 72 -41.5t36 -80.5q0 -36 -36 -67.5t-103 -68.5l-375 -211zM399 307q0 -79 44.5 -125.5t107.5 -46.5q50 0 87 32t40 107v297q-15 -7 -52 -23t-70.5 -31.5t-61.5 -31.5q-48 -28 -71.5 -68.5t-23.5 -109.5zM84 272
q0 92 50 154t167 102q19 6 80.5 26.5t91.5 31t76.5 28t77 32t51.5 28.5v108q0 81 -34 116.5t-85 35.5t-96 -43t-84 -162q-27 -82 -84 -82q-31 0 -71.5 12t-76.5 43.5t-36 73.5q0 104 133.5 178t351.5 74q75 0 135 -9.5t99.5 -24.5t68 -39.5t44 -47t24 -54.5t10.5 -56t2 -56
v-473q0 -134 65 -153q46 -15 99 -11l6 -67q-60 -24 -145 -43t-158 -19q-67 0 -101 31t-59 88q-2 -2 -36 -24.5t-44.5 -28.5t-42.5 -23t-53 -23.5t-53.5 -13t-63.5 -6.5q-147 0 -228 86.5t-81 210.5zM451 1333q0 -68 30 -105.5t76 -37.5q45 0 76 38t31 105q0 68 -31 106
t-76 38q-46 0 -76 -38t-30 -106zM313 1333q0 60 20.5 106t56.5 71.5t77.5 38t89.5 12.5t89.5 -12.5t77.5 -38t56.5 -71.5t20.5 -106q0 -81 -37 -134t-89.5 -73t-117.5 -20t-117.5 20t-89.5 73t-37 134z" />
    </font>
</defs>
</svg>
