<?xml version="1.0" standalone="no"?>
<!DOCTYPE svg PUBLIC "-//W3C//DTD SVG 1.1//EN" "http://www.w3.org/Graphics/SVG/1.1/DTD/svg11.dtd" >
<svg xmlns="http://www.w3.org/2000/svg" xmlns:xlink="http://www.w3.org/1999/xlink" version="1.1">
<metadata>
Created by FontForge 20170924 at Mon Sep 17 06:30:24 2007
 By www-data
Gerard Unger, 1995.
</metadata>
<defs>
<font id="Swift-Regular" horiz-adv-x="550" >
  <font-face 
    font-family="Swift"
    font-weight="400"
    font-stretch="normal"
    units-per-em="1000"
    panose-1="2 0 4 3 7 0 0 2 0 4"
    ascent="760"
    descent="-240"
    x-height="500"
    cap-height="700"
    bbox="-159 -244 1050 919"
    underline-thickness="80"
    underline-position="-80"
    stemh="48"
    stemv="99"
    unicode-range="U+0009-F002"
  />
<missing-glyph horiz-adv-x="620" 
d="M306 -15c-165 0 -303 141 -303 307c0 168 138 308 307 308c168 0 307 -139 307 -307c0 -169 -138 -308 -311 -308zM306 29c152 0 267 122 267 264c0 140 -115 263 -263 263s-264 -122 -264 -264c0 -141 119 -263 260 -263zM330 213h-59v10c0 28 12 55 35 82l16 17
c24 28 37 49 37 69c0 31 -20 46 -59 46c-24 0 -51 -6 -80 -19v46c30 9 60 13 88 13c69 0 113 -31 113 -80c0 -23 -13 -47 -40 -73l-15 -14c-25 -23 -36 -48 -36 -74v-23zM330 105h-59v54h59v-54z" />
    <glyph glyph-name="f_j" unicode="fj" horiz-adv-x="613" 
d="M538 668c0 -32 -22 -53 -54 -53c-26 0 -43 10 -55 35l-22 47s-19 2 -44 2c-50 0 -84 -15 -110 -37c-33 -27 -45 -62 -45 -131v-31h253l67 16v-521c0 -79 -19 -130 -66 -172c-41 -37 -86 -49 -145 -49c-24 0 -51 2 -70 5v99h66l33 -65c64 17 88 56 88 141v499h-226v-390
l78 -37v-26h-261v26l89 37v390h-89v47h89v16c0 80 31 144 89 183c34 23 86 42 156 42c72 0 123 -12 146 -23c22 -12 33 -28 33 -50z" />
    <glyph glyph-name="fi" unicode="fi" horiz-adv-x="642" 
d="M617 0h-261v26l78 37v390h-226v-390l78 -37v-26h-261v26l89 37v390h-89v47h89v16c0 80 31 144 89 183c34 23 86 42 156 42c72 0 123 -12 146 -23c22 -12 33 -28 33 -50c0 -32 -22 -53 -54 -53c-26 0 -43 10 -55 35l-22 47s-19 2 -44 2c-50 0 -84 -15 -110 -37
c-33 -27 -45 -62 -45 -131v-31h253l67 16v-453l89 -37v-26z" />
    <glyph glyph-name="fl" unicode="fl" horiz-adv-x="627" 
d="M617 0h-261v26l78 37v575l-27 59s-18 2 -46 2c-46 0 -85 -17 -108 -37c-35 -30 -45 -61 -45 -134v-28h119v-47h-119v-390l78 -37v-26h-261v26l89 37v390h-89v47h89v13c0 81 30 146 87 185c37 26 93 43 155 43c49 0 74 -1 123 -14l49 13v-677l89 -37v-26z" />
    <glyph glyph-name=".notdef" horiz-adv-x="620" 
d="M306 -15c-165 0 -303 141 -303 307c0 168 138 308 307 308c168 0 307 -139 307 -307c0 -169 -138 -308 -311 -308zM306 29c152 0 267 122 267 264c0 140 -115 263 -263 263s-264 -122 -264 -264c0 -141 119 -263 260 -263zM330 213h-59v10c0 28 12 55 35 82l16 17
c24 28 37 49 37 69c0 31 -20 46 -59 46c-24 0 -51 -6 -80 -19v46c30 9 60 13 88 13c69 0 113 -31 113 -80c0 -23 -13 -47 -40 -73l-15 -14c-25 -23 -36 -48 -36 -74v-23zM330 105h-59v54h59v-54z" />
    <glyph glyph-name="eth" unicode="&#xf0;" horiz-adv-x="549" 
d="M504 322c0 -119 -27 -213 -68 -261c-44 -52 -109 -77 -177 -77c-136 0 -224 104 -224 257c0 169 87 269 236 269c44 0 87 -13 126 -29c-4 82 -41 159 -106 210l-78 -69l-36 43l64 55c-22 12 -54 23 -108 23h-21v46c15 3 25 2 41 2c52 0 102 -7 141 -24l75 65l36 -42
l-59 -51c132 -89 158 -248 158 -417zM405 360c0 31 -1 45 -3 76c-45 14 -78 17 -128 17c-115 0 -140 -114 -140 -209c0 -85 35 -213 138 -213c122 0 133 139 133 329z" />
    <glyph glyph-name="Lslash" unicode="&#x141;" horiz-adv-x="505" 
d="M500 177l-16 -177h-459v26l89 37v299l-100 -50v53l100 50v222l-89 37v26h276v-26l-88 -37v-173l93 46v-52l-93 -46v-365h185l66 130h36z" />
    <glyph glyph-name="lslash" unicode="&#x142;" horiz-adv-x="327" 
d="M312 0h-271v26l89 37v299l-100 -50v53l100 50v230l-94 27v23l188 42v-276l98 49v-52l-98 -49v-346l88 -37v-26z" />
    <glyph glyph-name="Scaron" unicode="&#x160;" horiz-adv-x="529" 
d="M474 180c0 -59 -23 -107 -63 -140c-39 -32 -94 -50 -161 -50c-32 0 -80 3 -126 15c-43 11 -69 18 -69 18v154h38l51 -129c25 -3 48 -6 77 -6c52 0 81 7 106 25c28 20 43 51 43 87c0 23 -7 49 -18 66c-12 18 -27 30 -73 61l-102 68c-54 36 -74 52 -93 83
c-17 27 -24 60 -24 94c0 110 81 184 201 184c27 0 67 -1 115 -11c63 -13 77 -17 77 -17v-149h-39l-50 126c-31 3 -41 4 -62 4c-69 0 -153 -14 -153 -102c0 -60 42 -89 88 -119l111 -72c64 -41 76 -53 95 -81c20 -29 31 -69 31 -109zM448 918l-167 -164l-170 164h64l106 -67
l103 67h64z" />
    <glyph glyph-name="scaron" unicode="&#x161;" horiz-adv-x="423" 
d="M373 142c0 -88 -69 -153 -164 -153c-24 0 -56 4 -93 12c-21 4 -43 11 -66 18v116l44 -1l48 -93c20 -4 31 -5 47 -5c47 0 101 16 101 74c0 33 -12 48 -53 72l-95 55c-30 17 -52 37 -66 60c-14 21 -21 45 -21 72c0 86 61 141 158 141c25 0 60 -4 90 -11c18 -4 36 -9 54 -14
v-105h-44l-42 85c-16 3 -25 4 -44 4c-59 0 -94 -25 -94 -66c0 -30 18 -49 65 -76l82 -46c42 -24 60 -39 74 -65c12 -21 19 -48 19 -74zM388 736l-167 -164l-170 164h64l106 -67l103 67h64z" />
    <glyph glyph-name="Yacute" unicode="&#xdd;" horiz-adv-x="593" 
d="M623 674l-78 -37l-189 -289v-285l112 -37v-26h-323v26l112 37v258l-198 316l-79 37v26h271v-26l-73 -37l148 -241l146 241l-73 37v26h224v-26zM499 906l-200 -151h-53l109 151h144z" />
    <glyph glyph-name="yacute" unicode="&#xfd;" horiz-adv-x="516" 
d="M531 474l-59 -35l-219 -537c-38 -93 -90 -131 -181 -131c-22 0 -49 2 -66 5v99h63l32 -63c43 6 69 33 97 102l35 87l-179 445l-64 28v26h239v-26l-73 -28l95 -245c21 -55 20 -52 32 -96l121 334l-70 35v26h197v-26zM452 724l-200 -151h-53l109 151h144z" />
    <glyph glyph-name="Thorn" unicode="&#xde;" horiz-adv-x="556" 
d="M543 398c0 -125 -98 -205 -252 -205h-73v-130l109 -37v-26h-297v26l89 37v573l-89 36v26h276v-26l-88 -36v-42h77c132 0 248 -45 248 -196zM439 396c0 99 -48 156 -149 156h-72v-317h48c108 0 173 49 173 161z" />
    <glyph glyph-name="thorn" unicode="&#xfe;" horiz-adv-x="592" 
d="M557 273c0 -162 -121 -283 -289 -283c-28 0 -43 0 -66 5v-165l110 -33v-26h-292v26l88 33v815l-88 27v24l182 41v-286c17 9 32 17 68 33c46 20 73 26 92 26c111 0 195 -106 195 -237zM458 243c0 120 -66 199 -169 199c-33 0 -63 -6 -87 -15v-387c22 -2 39 -3 59 -3
c50 0 85 9 115 29c52 35 82 101 82 177z" />
    <glyph glyph-name="Zcaron" unicode="&#x17d;" horiz-adv-x="574" 
d="M544 177l-18 -177h-496v34l382 619h-270l-47 -125h-38v172h483v-31l-383 -617h284l66 125h37zM468 918l-167 -164l-170 164h64l106 -67l103 67h64z" />
    <glyph glyph-name="zcaron" unicode="&#x17e;" horiz-adv-x="496" 
d="M451 0h-411v35l288 418h-181l-50 -94h-36v141h390v-33l-290 -420h201l56 109h33v-156zM430 736l-167 -164l-170 164h64l106 -67l103 67h64z" />
    <glyph glyph-name="onehalf" unicode="&#xbd;" horiz-adv-x="890" 
d="M872 122l-10 -122h-305v25c10 10 57 53 66 62c51 48 85 84 104 110c24 35 36 64 36 97c0 53 -36 77 -87 77c-16 0 -27 0 -41 -3l-31 -79h-32v100c10 2 31 7 49 10c46 9 68 11 93 11c85 0 145 -44 145 -106c0 -55 -29 -87 -93 -145c-38 -34 -64 -55 -119 -97h160l33 60h32
zM692 686l-422 -702h-74l422 702h74zM302 276l-235 -1v23l74 24v282l-120 -21v27c78 21 128 43 171 75h36v-363l74 -23v-23z" />
    <glyph glyph-name="onequarter" unicode="&#xbc;" horiz-adv-x="891" 
d="M862 114h-66v-68l59 -23v-23h-196v23l60 23v68h-209v31l240 265h46v-246h66v-50zM696 686l-423 -702h-74l423 702h74zM306 276l-236 -1v23l74 24v282l-120 -21v27c78 21 129 43 172 75h35v-363l75 -23v-23zM719 163v160l-142 -160h142z" />
    <glyph glyph-name="onesuperior" unicode="&#xb9;" horiz-adv-x="366" 
d="M311 276l-236 -1v23l74 24v282l-120 -21v27c78 21 129 43 172 75h35v-363l75 -23v-23z" />
    <glyph glyph-name="threequarters" unicode="&#xbe;" horiz-adv-x="891" 
d="M325 391c0 -70 -72 -118 -177 -118c-46 0 -96 10 -132 23v99h31l35 -82c15 -2 22 -3 38 -3c53 0 113 15 113 80c0 52 -34 80 -92 80h-26v33h14c60 0 90 24 90 75c0 48 -28 70 -85 70c-16 0 -33 0 -49 -3l-34 -77h-32v97c11 2 27 5 54 10c48 8 69 10 94 10
c90 0 144 -36 144 -94c0 -52 -38 -86 -113 -101c67 -7 127 -33 127 -99zM704 686l-423 -702h-74l422 702h75zM859 114h-66v-68l59 -23v-23h-196v23l60 23v68h-209v31l240 265h46v-246h66v-50zM716 164v159l-142 -159h142z" />
    <glyph glyph-name="threesuperior" unicode="&#xb3;" horiz-adv-x="367" 
d="M333 391c0 -70 -72 -118 -178 -118c-46 0 -95 10 -132 23v99h32l35 -82c14 -2 21 -3 37 -3c53 0 113 15 113 80c0 51 -33 80 -91 80h-26v33h13c60 0 90 24 90 75c0 48 -28 70 -84 70c-17 0 -33 0 -49 -3l-35 -77h-31v97c10 2 27 5 53 10c48 8 69 10 94 10
c90 0 145 -36 145 -94c0 -52 -38 -86 -114 -101c68 -7 128 -33 128 -99z" />
    <glyph glyph-name="twosuperior" unicode="&#xb2;" horiz-adv-x="366" 
d="M338 397l-10 -123h-305v26c10 9 57 53 66 62c51 48 85 84 104 110c24 34 36 64 36 96c0 53 -36 78 -87 78c-16 0 -27 -1 -41 -4l-31 -79h-32v100c10 3 31 7 49 11c46 9 68 10 93 10c85 0 145 -44 145 -105c0 -55 -29 -88 -93 -145c-38 -35 -64 -56 -119 -98h160l33 61h32
z" />
    <glyph glyph-name="brokenbar" unicode="&#xa6;" horiz-adv-x="226" 
d="M154 375h-82v250h82v-250zM154 -125h-82v250h82v-250z" />
    <glyph glyph-name="minus" unicode="&#x2212;" 
d="M530 291h-510v78h510v-78z" />
    <glyph glyph-name="multiply" unicode="&#xd7;" 
d="M519 122l-56 -56l-188 188l-188 -188l-56 56l188 188l-188 188l56 56l188 -188l188 188l56 -56l-188 -188z" />
    <glyph glyph-name="space" unicode=" " horiz-adv-x="275" 
 />
    <glyph glyph-name="exclam" unicode="!" horiz-adv-x="259" 
d="M197 698l-46 -527h-41l-47 527h134zM192 50c0 -36 -20 -55 -60 -55c-43 0 -65 18 -65 54c0 37 22 56 65 56c41 0 60 -17 60 -55z" />
    <glyph glyph-name="quotedbl" unicode="&#x22;" horiz-adv-x="370" 
d="M151 668c0 -7 0 -12 -3 -30l-23 -162h-34l-23 162c-3 18 -3 23 -3 30c0 26 16 41 43 41s43 -15 43 -41zM306 668c0 -7 0 -12 -3 -30l-23 -162h-34l-23 162c-3 18 -3 23 -3 30c0 26 16 41 43 41s43 -15 43 -41z" />
    <glyph glyph-name="numbersign" unicode="#" horiz-adv-x="631" 
d="M600 474l-13 -63h-115l-28 -148h115l-13 -63h-115l-39 -200h-70l39 200h-145l-39 -200h-70l39 200h-115l13 63h115l28 148h-115l13 63h115l39 201h70l-39 -201h145l39 201h70l-39 -201h115zM402 411h-145l-28 -148h145z" />
    <glyph glyph-name="dollar" unicode="$" horiz-adv-x="529" 
d="M473 166c0 -55 -21 -97 -61 -128c-33 -26 -78 -43 -132 -48v-64h-42v63c-25 0 -68 2 -112 12c-44 11 -47 13 -70 18v145h35l52 -121c23 -4 47 -5 79 -5h16v264l-59 36c-57 36 -81 53 -100 86c-14 24 -19 54 -19 84c0 83 64 160 178 170v55h42v-54c23 -1 52 -3 89 -9
c31 -6 50 -10 83 -17v-138h-37l-50 115c-29 4 -41 4 -62 4h-23v-247l67 -40c67 -40 78 -49 97 -76c19 -28 29 -68 29 -105zM238 629c-50 -9 -97 -34 -97 -95c0 -63 50 -93 97 -121v216zM378 150c0 22 -7 49 -18 65c-18 26 -54 45 -80 61v-235c20 3 36 8 50 17
c32 20 48 55 48 92z" />
    <glyph glyph-name="percent" unicode="%" horiz-adv-x="653" 
d="M336 556c0 -91 -64 -157 -154 -157c-91 0 -152 60 -152 150c0 93 62 155 154 155s152 -58 152 -148zM272 553c0 65 -33 103 -89 103s-89 -39 -89 -106c0 -63 33 -102 87 -102c56 0 91 40 91 105zM609 700l-485 -700h-63l485 700h63zM623 148c0 -91 -64 -157 -154 -157
c-92 0 -152 60 -152 150c0 93 61 155 154 155c92 0 152 -58 152 -148zM559 145c0 65 -33 103 -89 103s-89 -39 -89 -106c0 -63 33 -102 87 -102c56 0 91 40 91 105z" />
    <glyph glyph-name="ampersand" unicode="&#x26;" horiz-adv-x="716" 
d="M691 369l-83 -32v-35c0 -88 -19 -140 -72 -200l38 -41l80 -35v-26h-154l-34 41c-62 -34 -110 -46 -177 -46c-150 0 -249 73 -249 183c0 71 44 123 145 171c-28 32 -34 39 -46 55c-25 34 -36 68 -36 112c0 94 69 156 173 156c92 0 155 -53 155 -131
c0 -74 -47 -132 -137 -172l209 -231c24 32 37 82 37 144v55l-78 32v27h229v-27zM349 544c0 51 -31 86 -78 86c-52 0 -85 -33 -85 -86c0 -40 21 -83 62 -125l22 -23c26 22 36 33 47 48c20 28 32 66 32 100zM435 75l-226 247c-48 -38 -70 -79 -70 -134c0 -90 63 -146 166 -146
c53 0 101 12 130 33z" />
    <glyph glyph-name="quotesingle" unicode="'" horiz-adv-x="216" 
d="M151 668c0 -7 0 -12 -3 -30l-23 -162h-34l-23 162c-3 18 -3 23 -3 30c0 26 16 41 43 41s43 -15 43 -41z" />
    <glyph glyph-name="parenleft" unicode="(" horiz-adv-x="278" 
d="M230 -211l-29 -19c-108 130 -160 288 -160 483c0 203 46 341 160 484l29 -19c-90 -136 -101 -306 -101 -465c0 -161 12 -324 101 -464z" />
    <glyph glyph-name="parenright" unicode=")" horiz-adv-x="278" 
d="M230 253c0 -202 -46 -341 -160 -483l-29 18c88 137 100 306 100 465c0 161 -12 326 -100 465l29 19c114 -137 160 -307 160 -484z" />
    <glyph glyph-name="asterisk" unicode="*" horiz-adv-x="333" 
d="M322 554l-114 12l92 -79l-35 -34l-80 92l8 -118h-50l9 120l-79 -94l-36 34l92 79l-114 -12v52l114 -12l-92 79l36 34l79 -95l-9 122h50l-8 -122l79 95l36 -34l-92 -79l114 12v-52z" />
    <glyph glyph-name="plus" unicode="+" 
d="M530 301h-214v-226h-82v226h-214v80h214v204h82v-204h214v-80z" />
    <glyph glyph-name="comma" unicode="," horiz-adv-x="279" 
d="M210 36c0 -50 -15 -87 -48 -113c-18 -15 -41 -27 -70 -36l-13 33c49 21 64 42 66 90h-13c-41 0 -63 19 -63 53s25 57 63 57c51 0 78 -29 78 -84z" />
    <glyph glyph-name="hyphen" unicode="-" horiz-adv-x="250" 
d="M240 229h-230v83h230v-83z" />
    <glyph glyph-name="period" unicode="." horiz-adv-x="250" 
d="M187 50c0 -44 -17 -60 -61 -60c-46 0 -64 17 -64 60s18 60 63 60c44 0 62 -18 62 -60z" />
    <glyph glyph-name="slash" unicode="/" horiz-adv-x="255" 
d="M255 756l-188 -1000h-67l189 1000h66z" />
    <glyph glyph-name="zero" unicode="0" 
d="M510 336c0 -218 -91 -351 -240 -351c-183 0 -229 192 -229 342c0 219 92 351 245 351c139 0 224 -130 224 -342zM401 331c0 79 1 295 -121 295c-131 0 -130 -219 -130 -305c0 -193 39 -284 120 -284c129 0 131 209 131 294z" />
    <glyph glyph-name="one" unicode="1" 
d="M459 0h-318v26l109 37v491l-182 -35v31c48 14 102 35 152 60c36 18 62 35 98 62h31v-609l110 -37v-26z" />
    <glyph glyph-name="two" unicode="2" 
d="M486 187l-13 -187h-437v37c37 40 75 77 113 115c63 63 124 132 157 185c34 54 48 96 48 146c0 90 -52 142 -141 142c-23 0 -40 -2 -66 -7l-43 -123h-38v146s36 9 66 15c60 13 91 16 122 16c125 0 209 -70 209 -174c0 -86 -29 -135 -163 -269c-48 -49 -86 -85 -155 -146
h249l52 104h40z" />
    <glyph glyph-name="three" unicode="3" 
d="M501 187c0 -116 -105 -192 -265 -192c-31 0 -55 2 -94 11c-41 9 -79 23 -79 23v148h37l50 -126c20 -3 34 -4 63 -4c88 0 179 34 179 139c0 84 -57 137 -148 137h-35v47h42c57 0 120 44 120 132c0 79 -46 121 -133 121c-24 0 -61 -2 -80 -5l-48 -123h-37v145s34 9 70 16
c62 12 90 16 128 16c130 0 209 -58 209 -154c0 -83 -62 -145 -167 -168c75 -4 188 -44 188 -163z" />
    <glyph glyph-name="four" unicode="4" 
d="M517 203h-99v-141l89 -35v-27h-266v27l89 35v141h-323v34l369 435h42v-401h99v-68zM330 271v268l-227 -268h227z" />
    <glyph glyph-name="five" unicode="5" 
d="M492 232c0 -140 -106 -237 -257 -237c-31 0 -61 5 -90 11c-27 5 -80 23 -80 23v148h36l51 -125c25 -3 46 -5 65 -5c105 0 171 63 171 164s-68 158 -189 158c-43 0 -79 -5 -116 -16v308h388v-89h-331v-153c52 14 74 18 110 18c150 0 242 -78 242 -205z" />
    <glyph glyph-name="six" unicode="6" 
d="M512 204c0 -132 -91 -220 -226 -220c-155 0 -243 106 -243 294c0 240 135 394 344 394c47 0 90 -6 120 -16l-6 -40c-19 3 -30 4 -51 4c-109 0 -194 -35 -245 -104c-30 -40 -42 -80 -48 -149c56 24 102 34 155 34c121 0 200 -77 200 -197zM408 193c0 96 -52 151 -143 151
c-38 0 -112 -16 -112 -16s-1 -21 -1 -35c0 -94 1 -262 134 -262c76 0 122 60 122 162z" />
    <glyph glyph-name="seven" unicode="7" 
d="M517 618c-93 -211 -186 -420 -292 -628h-99c115 192 218 385 316 588h-291l-47 -120h-40v203h453v-43z" />
    <glyph glyph-name="eight" unicode="8" 
d="M499 180c0 -118 -93 -196 -234 -196c-102 0 -214 57 -214 173c0 77 56 138 160 175l-18 10c-81 45 -111 89 -111 158c0 102 81 172 197 172c115 0 189 -58 189 -148c0 -68 -38 -114 -125 -152l36 -20c81 -45 120 -99 120 -172zM380 517c0 68 -41 113 -102 113
c-63 0 -107 -41 -107 -99c0 -46 26 -81 83 -111l53 -28c49 37 73 79 73 125zM410 151c0 48 -21 77 -86 115l-75 44c-77 -43 -110 -90 -110 -154c0 -77 62 -120 135 -120c82 0 136 45 136 115z" />
    <glyph glyph-name="nine" unicode="9" 
d="M517 374c0 -120 -36 -219 -102 -285c-60 -60 -146 -94 -240 -94c-44 0 -85 5 -122 13l4 40c36 -1 46 -1 58 -1c107 0 195 40 243 111c25 36 36 71 44 134c-45 -21 -100 -32 -154 -32c-122 0 -200 76 -200 196c0 132 92 221 229 221c72 0 137 -29 178 -80s62 -125 62 -223
zM408 393c0 91 -11 237 -133 237c-75 0 -123 -63 -123 -162c0 -95 52 -151 140 -151c39 0 75 7 112 15c3 26 4 40 4 61z" />
    <glyph glyph-name="colon" unicode=":" horiz-adv-x="278" 
d="M203 451c0 -44 -17 -60 -61 -60c-46 0 -64 17 -64 60s18 60 63 60c44 0 62 -18 62 -60zM203 50c0 -44 -17 -60 -61 -60c-46 0 -64 17 -64 60s18 60 63 60c44 0 62 -18 62 -60z" />
    <glyph glyph-name="semicolon" unicode=";" horiz-adv-x="279" 
d="M199 451c0 -44 -17 -60 -61 -60c-46 0 -64 17 -64 60s18 60 63 60c44 0 62 -18 62 -60zM210 36c0 -78 -37 -125 -118 -149l-13 33c49 21 64 42 66 90h-13c-41 0 -63 19 -63 53s25 57 63 57c51 0 78 -29 78 -84z" />
    <glyph glyph-name="less" unicode="&#x3c;" horiz-adv-x="660" 
d="M610 65l-575 250v30l575 250v-85l-431 -180l431 -180v-85z" />
    <glyph glyph-name="equal" unicode="=" 
d="M530 395h-510v76h510v-76zM530 188h-510v76h510v-76z" />
    <glyph glyph-name="greater" unicode="&#x3e;" horiz-adv-x="660" 
d="M610 315l-575 -250v85l431 180l-431 180v85l575 -251v-29z" />
    <glyph glyph-name="question" unicode="?" horiz-adv-x="426" 
d="M417 514c0 -70 -23 -119 -87 -177l-68 -62c-34 -31 -39 -35 -43 -79c0 -10 -1 -21 -2 -35h-46c-2 12 -3 26 -5 39c0 10 -1 20 -1 27c0 28 6 41 39 81l52 63c37 45 52 85 52 143c0 84 -49 134 -132 134c-42 0 -59 -2 -77 -7l-50 -125h-38v146c26 6 41 10 73 17
c56 13 85 17 122 17c130 0 211 -70 211 -182zM258 51c0 -38 -21 -56 -65 -56c-42 0 -65 19 -65 55s21 54 66 54c42 0 64 -18 64 -53z" />
    <glyph glyph-name="at" unicode="@" horiz-adv-x="784" 
d="M755 448c0 -179 -115 -294 -258 -294c-3 0 -52 -4 -52 33c0 6 0 13 1 17l11 84c-40 -51 -49 -62 -73 -83c-36 -33 -66 -49 -93 -49c-52 0 -83 51 -83 139c0 82 26 165 70 219c49 60 114 91 195 91c27 0 50 -2 92 -11l-48 -391c15 0 23 3 30 5c64 18 131 97 131 225
c0 157 -95 255 -254 255c-217 0 -306 -148 -306 -349c0 -189 124 -285 302 -287c51 -1 100 8 151 17l7 -33s-55 -18 -64 -20c-52 -15 -91 -21 -126 -21c-199 0 -349 109 -349 320c0 236 144 430 393 430c184 0 323 -105 323 -297zM487 551c-18 6 -35 9 -52 9
c-52 0 -89 -28 -113 -84c-18 -42 -30 -113 -30 -179c0 -54 9 -75 29 -75c12 0 20 5 63 38l75 60z" />
    <glyph glyph-name="A" unicode="A" horiz-adv-x="670" 
d="M683 0h-265v26l80 39l-75 216h-221l-80 -216l80 -39v-26h-229v26l80 39l263 640h59l229 -640l79 -39v-26zM406 323l-57 172c-16 48 -19 55 -30 94l-101 -266h188z" />
    <glyph glyph-name="B" unicode="B" horiz-adv-x="599" 
d="M554 181c0 -49 -23 -102 -59 -132c-37 -31 -85 -49 -181 -49h-289v26l89 37v574l-89 37v26h287c73 0 117 -11 152 -39c37 -29 59 -78 59 -128c0 -61 -32 -114 -86 -144c-25 -14 -44 -21 -87 -28c52 -3 79 -10 114 -29c61 -33 90 -81 90 -151zM414 522
c0 79 -43 136 -126 136h-75v-281h73c77 0 128 73 128 145zM445 185c0 91 -62 148 -159 148h-73v-291h74c124 0 158 73 158 143z" />
    <glyph glyph-name="C" unicode="C" horiz-adv-x="656" 
d="M621 182l-13 -156c-40 -12 -73 -20 -103 -26c-40 -7 -77 -10 -120 -10c-124 0 -199 27 -260 93c-56 61 -85 144 -85 244c0 116 39 219 110 289c66 64 151 94 271 94c69 0 124 -7 193 -24v-158h-38l-49 131c-22 3 -50 5 -83 5c-99 0 -169 -26 -220 -80
c-53 -56 -80 -139 -80 -240c0 -88 20 -157 61 -210c49 -62 114 -87 224 -87c30 0 42 1 91 4l65 131h36z" />
    <glyph glyph-name="D" unicode="D" horiz-adv-x="728" 
d="M688 366c0 -127 -46 -233 -130 -299c-60 -46 -133 -67 -236 -67h-297v26l89 37v574l-89 37v26h313c134 0 205 -25 267 -95c56 -62 83 -142 83 -239zM584 358c0 84 -20 152 -59 206c-46 63 -105 89 -199 89h-113v-606h100c89 0 139 19 189 72c57 59 82 133 82 239z" />
    <glyph glyph-name="E" unicode="E" horiz-adv-x="586" 
d="M541 161l-16 -161h-500v26l89 37v574l-89 37v26h496v-156h-35l-49 114h-224v-282h189l35 94h32v-229h-32l-35 93h-189v-287h230l63 114h35z" />
    <glyph glyph-name="F" unicode="F" horiz-adv-x="510" 
d="M500 549h-35l-49 109h-204v-282h167l37 94h31v-229h-31l-37 93h-167v-271l110 -37v-26h-297v26l88 37v574l-88 37v26h475v-151z" />
    <glyph glyph-name="G" unicode="G" horiz-adv-x="713" 
d="M703 260l-89 -35v-197c-39 -11 -73 -19 -103 -25c-47 -9 -87 -13 -132 -13c-102 0 -197 36 -251 95c-57 63 -88 150 -88 251c0 118 39 216 112 284c66 62 150 90 269 90c70 0 138 -12 204 -25v-157h-40l-47 129c-24 6 -49 8 -84 8c-108 0 -174 -23 -227 -79
c-55 -57 -83 -138 -83 -240c0 -82 17 -146 53 -197c50 -71 117 -102 224 -102c32 0 73 2 94 5v173l-88 35v26h276v-26z" />
    <glyph glyph-name="H" unicode="H" horiz-adv-x="750" 
d="M725 0h-276v26l89 37v276h-325v-276l88 -37v-26h-276v26l89 37v575l-89 36v26h276v-26l-88 -36v-245h325v245l-89 36v26h276v-26l-88 -36v-575l88 -37v-26z" />
    <glyph glyph-name="I" unicode="I" horiz-adv-x="326" 
d="M301 0h-276v26l89 37v574l-89 37v26h276v-26l-88 -37v-574l88 -37v-26z" />
    <glyph glyph-name="J" unicode="J" horiz-adv-x="318" 
d="M313 674l-89 -36v-644c0 -77 -18 -128 -62 -172c-43 -44 -88 -61 -162 -61c-29 0 -53 2 -70 6v103h71l33 -68c74 6 91 76 91 140v696l-88 36v26h276v-26z" />
    <glyph glyph-name="K" unicode="K" horiz-adv-x="640" 
d="M645 0h-165l-255 370l241 273l-71 31v26h234v-26l-78 -37l-231 -233l245 -341l80 -37v-26zM301 0h-276v26l89 37v574l-89 37v26h276v-26l-88 -37v-574l88 -37v-26z" />
    <glyph glyph-name="L" unicode="L" horiz-adv-x="505" 
d="M500 177l-16 -177h-459v26l89 37v574l-89 37v26h276v-26l-88 -37v-590h185l66 130h36z" />
    <glyph glyph-name="M" unicode="M" horiz-adv-x="875" 
d="M850 0h-276v26l88 37v518l-237 -591h-21l-234 591v-518l89 -37v-26h-234v26l88 37v574l-88 37v26h206l209 -526l211 526h199v-26l-89 -37v-574l89 -37v-26z" />
    <glyph glyph-name="N" unicode="N" horiz-adv-x="735" 
d="M725 674l-89 -37v-647h-32l-433 584v-511l88 -37v-26h-234v26l89 37v574l-89 37v26h173l381 -506v443l-88 37v26h234v-26z" />
    <glyph glyph-name="O" unicode="O" horiz-adv-x="728" 
d="M688 360c0 -222 -137 -376 -335 -376c-189 0 -313 136 -313 344c0 202 117 382 332 382c206 0 316 -154 316 -350zM579 344c0 139 -50 319 -219 319c-167 0 -211 -174 -211 -311c0 -197 83 -321 216 -321c131 0 214 121 214 313z" />
    <glyph glyph-name="P" unicode="P" horiz-adv-x="553" 
d="M538 502c0 -66 -27 -121 -76 -156c-43 -32 -103 -50 -176 -50h-73v-234l109 -36v-26h-297v26l89 36v575l-89 37v26h265c92 0 145 -15 188 -53c40 -35 60 -84 60 -145zM434 501c0 99 -48 157 -149 157h-72v-320h48c109 0 173 51 173 163z" />
    <glyph glyph-name="Q" unicode="Q" horiz-adv-x="753" 
d="M893 -122c-96 -78 -129 -93 -169 -93c-67 0 -205 74 -263 110c-29 18 -100 62 -134 83l-16 10c-164 15 -271 152 -271 346c0 201 121 376 333 376c192 0 315 -137 315 -348c0 -168 -83 -313 -246 -361c58 -29 113 -55 172 -79c126 -50 140 -47 161 -47c13 0 29 1 53 9
c17 6 35 13 52 20zM574 342c0 138 -46 321 -217 321c-129 0 -208 -119 -208 -311c0 -195 83 -321 214 -321c165 0 211 178 211 311z" />
    <glyph glyph-name="R" unicode="R" horiz-adv-x="632" 
d="M647 0h-168l-229 333h-37v-271l88 -36v-26h-276v26l89 36v575l-89 37v26h283c83 0 117 -9 155 -39c38 -31 59 -76 59 -130c0 -93 -64 -163 -167 -180l211 -287l81 -38v-26zM413 522c0 82 -44 136 -128 136h-72v-283h70c77 0 130 61 130 147z" />
    <glyph glyph-name="S" unicode="S" horiz-adv-x="529" 
d="M474 180c0 -59 -23 -107 -63 -140c-39 -32 -94 -50 -161 -50c-32 0 -80 5 -126 15c-31 7 -40 10 -69 18v154h38l51 -129c25 -3 48 -6 77 -6c52 0 81 7 106 25c28 20 43 51 43 87c0 71 -42 94 -91 127l-102 68c-54 36 -74 52 -93 83c-17 27 -24 60 -24 94
c0 110 81 184 201 184c27 0 67 -2 115 -12c32 -7 48 -10 77 -16v-149h-39l-50 126c-31 3 -41 4 -62 4c-69 0 -153 -14 -153 -102c0 -60 42 -89 88 -119l111 -72c64 -41 76 -53 95 -81c20 -29 31 -69 31 -109z" />
    <glyph glyph-name="T" unicode="T" horiz-adv-x="580" 
d="M580 528h-37l-48 125h-153v-590l109 -37v-26h-317v26l109 37v590h-157l-48 -125h-38v172h580v-172z" />
    <glyph glyph-name="U" unicode="U" horiz-adv-x="695" 
d="M700 674l-89 -37v-396c0 -181 -101 -251 -270 -251c-177 0 -258 70 -258 224v423l-88 37v26h276v-26l-89 -37v-415c0 -124 55 -181 176 -181c128 0 185 55 185 176v420l-88 37v26h245v-26z" />
    <glyph glyph-name="V" unicode="V" horiz-adv-x="658" 
d="M683 674l-79 -37l-258 -647h-51l-235 647l-80 37v26h266v-26l-79 -37l145 -427c8 -23 7 -21 32 -100l189 527l-79 37v26h229v-26z" />
    <glyph glyph-name="W" unicode="W" horiz-adv-x="1025" 
d="M1050 674l-82 -37l-238 -647h-43l-179 547l-193 -547h-42l-212 647l-81 37v26h266v-26l-80 -37l122 -395c10 -32 19 -64 27 -98l193 556h47l149 -461c15 -48 20 -67 26 -100l166 498l-81 37v26h235v-26z" />
    <glyph glyph-name="X" unicode="X" horiz-adv-x="643" 
d="M648 0h-276v26l81 37l-153 236l-149 -236l78 -37v-26h-234v26l79 37l195 285l-180 289l-78 37v26h265v-26l-71 -37l135 -212l139 212l-71 37v26h219v-26l-80 -37l-179 -258l202 -316l78 -37v-26z" />
    <glyph glyph-name="Y" unicode="Y" horiz-adv-x="593" 
d="M623 674l-78 -37l-189 -289v-285l112 -37v-26h-323v26l112 37v258l-198 316l-79 37v26h271v-26l-73 -37l148 -241l146 241l-73 37v26h224v-26z" />
    <glyph glyph-name="Z" unicode="Z" horiz-adv-x="574" 
d="M544 177l-18 -177h-496v34l382 619h-270l-47 -125h-38v172h483v-31l-383 -617h284l66 125h37z" />
    <glyph glyph-name="bracketleft" unicode="[" horiz-adv-x="259" 
d="M230 -229h-156v963h156v-36h-83v-891h83v-36z" />
    <glyph glyph-name="backslash" unicode="\" horiz-adv-x="255" 
d="M188 -244l-188 1000h66l189 -1000h-67z" />
    <glyph glyph-name="bracketright" unicode="]" horiz-adv-x="259" 
d="M176 -229h-156v36h83v891h-83v36h156v-963z" />
    <glyph glyph-name="asciicircum" unicode="^" horiz-adv-x="592" 
d="M503 310h-76l-131 304l-131 -304h-76l192 426h31z" />
    <glyph glyph-name="underscore" unicode="_" horiz-adv-x="500" 
d="M500 -125h-500v50h500v-50z" />
    <glyph glyph-name="grave" unicode="`" horiz-adv-x="277" 
d="M264 573h-52l-201 151h144z" />
    <glyph glyph-name="a" unicode="a" horiz-adv-x="509" 
d="M499 27l-76 -25c-11 -4 -36 -7 -48 -7c-32 0 -50 16 -56 50c-13 -7 -2 -2 -48 -23c-39 -18 -56 -27 -99 -27c-83 0 -142 52 -142 127c0 62 38 103 110 120c36 8 88 15 146 20l30 3v118c0 48 -10 65 -44 77c-14 5 -36 8 -60 8c-11 0 -17 0 -29 -1l-44 -87h-62v95
c27 7 47 12 68 17c44 11 81 18 115 18c45 0 81 -9 108 -28c31 -21 42 -47 42 -95v-282c0 -8 1 -20 3 -24c4 -7 9 -10 27 -15l59 -17v-22zM316 66v170c-38 -5 -72 -11 -110 -20c-50 -13 -72 -37 -72 -80c0 -51 39 -84 100 -84c26 0 51 4 76 12z" />
    <glyph glyph-name="b" unicode="b" horiz-adv-x="577" 
d="M542 274c0 -160 -125 -284 -285 -284c-45 0 -110 13 -163 25v630l-94 28v22l188 42v-286c25 12 41 21 67 32c46 19 69 27 94 27c109 0 193 -102 193 -236zM443 247c0 61 -17 110 -47 144c-29 33 -71 51 -122 51c-32 0 -61 -6 -86 -15v-381c17 -3 36 -4 53 -4
c54 0 93 9 123 30c52 35 79 96 79 175z" />
    <glyph glyph-name="c" unicode="c" horiz-adv-x="475" 
d="M450 31c0 0 -55 -18 -64 -20c-52 -15 -91 -21 -126 -21c-134 0 -225 102 -225 248c0 161 114 272 282 272c39 0 81 -7 129 -23v-107h-63l-46 93c-10 1 -18 1 -22 1c-102 0 -181 -93 -181 -210c0 -63 17 -117 50 -155c35 -40 79 -58 144 -58c36 0 49 1 115 13z" />
    <glyph glyph-name="d" unicode="d" horiz-adv-x="576" 
d="M566 27l-177 -41v61c-25 -11 -41 -18 -70 -31c-45 -20 -66 -26 -96 -26c-106 0 -188 104 -188 237c0 164 115 283 278 283c27 0 62 -6 76 -13v148l-94 28v22l188 42v-662l83 -26v-22zM389 72v386c-17 4 -36 6 -63 6c-119 0 -192 -81 -192 -208c0 -122 66 -198 172 -198
c26 0 49 4 83 14z" />
    <glyph glyph-name="e" unicode="e" horiz-adv-x="510" 
d="M470 269h-330c1 -76 13 -120 48 -159c33 -37 84 -57 148 -57c27 0 76 5 120 12l6 -34s-44 -13 -69 -21c-54 -16 -91 -20 -127 -20c-139 0 -231 102 -231 250c0 84 30 160 81 208c41 40 97 62 159 62c80 0 146 -39 175 -105c13 -30 17 -61 20 -136zM365 322
c-1 59 -7 86 -26 111s-40 35 -76 35c-72 0 -113 -57 -122 -167z" />
    <glyph glyph-name="f" unicode="f" horiz-adv-x="352" 
d="M457 635h-68l-30 64c-6 1 -11 1 -14 1c-33 0 -71 -12 -95 -30c-29 -21 -43 -58 -43 -114v-56h156v-47h-156v-390l110 -37v-26h-292v26l88 37v390h-88v47h88v40c0 122 94 200 240 200c40 0 77 -5 104 -15v-90z" />
    <glyph glyph-name="g" unicode="g" horiz-adv-x="536" 
d="M536 428l-157 33c22 -15 39 -33 51 -53c12 -22 18 -46 18 -72c0 -96 -82 -165 -194 -165c-18 0 -28 0 -52 5c-25 -28 -41 -55 -41 -70c0 -11 6 -20 17 -27c13 -8 33 -12 60 -12h141c52 0 79 -8 100 -30c17 -18 26 -42 26 -71c0 -53 -28 -102 -82 -141
c-47 -34 -118 -54 -180 -54c-70 0 -125 13 -171 40c-38 23 -62 55 -62 85c0 23 13 44 42 65c17 13 40 26 69 39c-29 20 -43 41 -43 63c0 17 9 34 27 52c21 23 47 49 71 68c-33 10 -51 18 -70 33c-37 29 -59 73 -59 119c0 96 87 175 193 175c43 0 77 -9 115 -29l181 37v-90z
M354 326c0 46 -15 86 -38 112c-19 22 -44 35 -71 35c-57 0 -99 -50 -99 -120c0 -59 21 -104 56 -128c15 -10 33 -17 53 -17c59 0 99 48 99 118zM427 -69c0 17 -9 34 -24 43c-14 8 -31 11 -68 11h-149c-20 0 -28 1 -43 6c-26 -19 -50 -58 -50 -82c0 -54 67 -95 156 -95
c98 0 178 52 178 117z" />
    <glyph glyph-name="h" unicode="h" horiz-adv-x="629" 
d="M619 0h-265v26l83 37v262c0 47 -13 78 -42 95c-21 13 -51 19 -91 19c-29 0 -63 -2 -91 -6v-370l78 -37v-26h-260v26l88 37v582l-94 27v23l188 42v-279c23 9 45 18 66 26c56 21 66 26 109 26s79 -16 106 -45c28 -29 37 -63 37 -121v-281l88 -37v-26z" />
    <glyph glyph-name="i" unicode="i" horiz-adv-x="311" 
d="M223 681c0 -38 -20 -56 -62 -56s-63 18 -63 54c0 37 20 55 63 55c42 0 62 -17 62 -53zM296 0h-271v26l89 37v362l-89 27v23l183 40v-452l88 -37v-26z" />
    <glyph glyph-name="j" unicode="j" horiz-adv-x="312" 
d="M237 682c0 -37 -22 -57 -63 -57c-40 0 -62 19 -62 54c0 37 20 55 62 55s63 -17 63 -52zM221 -8c0 -79 -18 -124 -68 -169c-41 -37 -84 -52 -143 -52c-24 0 -51 2 -70 5v99h66l33 -65c64 17 88 56 88 141v473l-88 25v24l182 40v-521z" />
    <glyph glyph-name="k" unicode="k" horiz-adv-x="593" 
d="M598 0h-159l-212 272l180 176l-70 28v24h245v-24l-103 -33l-154 -140l195 -246l78 -31v-26zM301 0h-271v26l89 37v582l-94 27v23l188 42v-674l88 -37v-26z" />
    <glyph glyph-name="l" unicode="l" horiz-adv-x="311" 
d="M301 0h-271v26l89 37v582l-94 27v23l188 42v-674l88 -37v-26z" />
    <glyph glyph-name="m" unicode="m" horiz-adv-x="931" 
d="M921 0h-266v26l83 37v261c0 47 -9 73 -32 91c-24 18 -59 27 -103 27c-39 0 -75 -5 -104 -13c11 -25 16 -59 16 -98v-268l83 -37v-26h-255v26l78 37v260c0 88 -35 120 -130 120c-30 0 -45 -2 -83 -10v-370l83 -37v-26h-266v26l89 37v361l-93 27v23l188 41v-57
c29 11 58 23 87 34c45 17 58 18 85 18c48 0 78 -17 107 -61c29 12 56 23 86 35c63 24 73 26 112 26c41 0 77 -14 105 -42c31 -31 41 -64 41 -125v-280l89 -37v-26z" />
    <glyph glyph-name="n" unicode="n" horiz-adv-x="624" 
d="M614 0h-265v26l83 37v262c0 47 -13 78 -42 95c-21 13 -51 19 -91 19c-29 0 -63 -2 -91 -6v-370l78 -37v-26h-260v26l88 37v360l-93 27v23l188 41v-57c23 9 44 19 65 27c56 21 66 26 109 26s79 -16 106 -45c28 -29 37 -63 37 -121v-281l88 -37v-26z" />
    <glyph glyph-name="o" unicode="o" horiz-adv-x="559" 
d="M524 255c0 -146 -100 -271 -251 -271c-141 0 -238 103 -238 254c0 155 92 272 252 272c149 0 237 -112 237 -255zM420 234c0 95 -25 229 -145 229c-87 0 -136 -76 -136 -211c0 -94 28 -221 145 -221c109 0 136 114 136 203z" />
    <glyph glyph-name="p" unicode="p" horiz-adv-x="592" 
d="M557 273c0 -162 -121 -283 -289 -283c-28 0 -45 2 -66 6v-166l110 -33v-26h-292v26l88 33v593l-88 27v24l182 41v-64c17 9 32 17 68 33c46 20 73 26 92 26c111 0 195 -106 195 -237zM458 243c0 120 -66 199 -169 199c-33 0 -63 -6 -87 -15v-387c22 -2 39 -3 59 -3
c50 0 85 9 115 29c52 35 82 101 82 177z" />
    <glyph glyph-name="q" unicode="q" horiz-adv-x="576" 
d="M576 -229h-270v26l88 34v216c-23 -11 -45 -20 -69 -31c-39 -18 -64 -26 -99 -26c-109 0 -191 104 -191 243c0 92 35 166 104 220c49 39 102 57 170 57c40 0 66 -5 107 -20l72 33v-692l88 -34v-26zM394 72v381c-18 8 -41 11 -72 11c-112 0 -188 -82 -188 -204
c0 -126 65 -202 174 -202c28 0 50 4 86 14z" />
    <glyph glyph-name="r" unicode="r" horiz-adv-x="421" 
d="M416 380h-72l-31 61c-12 1 -19 1 -27 1c-25 0 -54 -8 -78 -17v-362l109 -37v-26h-292v26l89 37v361l-93 27v23l187 41v-64c82 41 124 59 155 59c19 0 34 -6 53 -16v-114z" />
    <glyph glyph-name="s" unicode="s" horiz-adv-x="423" 
d="M373 142c0 -88 -69 -153 -164 -153c-24 0 -56 4 -93 12c-21 4 -43 11 -66 18v115h44l48 -93c20 -4 31 -5 47 -5c47 0 101 16 101 74c0 33 -12 48 -53 72l-95 55c-30 17 -52 37 -66 60c-14 21 -21 45 -21 72c0 86 61 141 158 141c25 0 60 -4 90 -11c18 -4 36 -9 54 -14
v-105h-44l-42 85c-16 3 -25 4 -44 4c-59 0 -94 -25 -94 -66c0 -30 18 -49 65 -76l82 -46c42 -24 60 -39 74 -65c12 -21 19 -48 19 -74z" />
    <glyph glyph-name="t" unicode="t" horiz-adv-x="369" 
d="M364 22l-61 -15c-57 -14 -81 -17 -105 -17c-31 0 -56 8 -73 25c-21 19 -32 50 -32 91v347h-78v31c39 17 79 41 92 55c12 13 37 61 49 91h31v-130h166v-47h-166v-318c0 -32 5 -53 17 -67c13 -15 35 -21 69 -21c30 0 51 2 83 10z" />
    <glyph glyph-name="u" unicode="u" horiz-adv-x="603" 
d="M588 27l-177 -42v56l-73 -29c-36 -14 -59 -23 -95 -23c-34 0 -83 10 -107 33c-29 29 -43 69 -43 125v278l-88 26v24l182 40v-347c0 -44 9 -74 31 -92c19 -16 48 -23 90 -23c34 0 71 4 103 11v361l-88 26v24l182 40v-438l83 -27v-23z" />
    <glyph glyph-name="v" unicode="v" horiz-adv-x="517" 
d="M532 474l-61 -34l-198 -450h-43l-176 455l-64 29v26h240v-26l-73 -29l85 -235c12 -33 22 -65 31 -106l126 336l-71 34v26h204v-26z" />
    <glyph glyph-name="w" unicode="w" horiz-adv-x="798" 
d="M813 474l-62 -34l-181 -450h-48l-119 351l-131 -351h-46l-170 455l-66 29v26h245v-26l-80 -29l89 -254c8 -24 15 -47 22 -73l143 382h31l110 -316c8 -22 8 -21 20 -66l112 322l-78 34v26h209v-26z" />
    <glyph glyph-name="x" unicode="x" horiz-adv-x="557" 
d="M552 0h-235v26l51 28l-109 153l-109 -148l48 -33v-26h-193v26l74 33l151 189l-136 200l-73 26v26h234v-26l-52 -26l95 -133l100 127l-49 32v26h182v-26l-65 -32l-140 -166l154 -222l72 -28v-26z" />
    <glyph glyph-name="y" unicode="y" horiz-adv-x="516" 
d="M531 474l-59 -35l-219 -537c-38 -93 -90 -131 -181 -131c-22 0 -49 2 -66 5v99h63l32 -63c43 6 69 33 97 102l35 87l-179 445l-64 28v26h239v-26l-73 -28l95 -245c21 -55 20 -52 32 -96l121 334l-70 35v26h197v-26z" />
    <glyph glyph-name="z" unicode="z" horiz-adv-x="496" 
d="M451 0h-411v35l288 418h-181l-50 -94h-36v141h390v-33l-290 -420h201l56 109h33v-156z" />
    <glyph glyph-name="braceleft" unicode="{" horiz-adv-x="407" 
d="M366 -206c-76 1 -128 21 -163 62c-31 37 -39 70 -39 172v81c0 100 -23 129 -123 153v5c100 24 123 53 123 154v80c0 102 8 136 39 173c34 40 84 59 163 62v-33c-51 -5 -79 -18 -99 -47s-25 -52 -25 -121v-57c0 -87 -5 -122 -22 -153c-20 -34 -54 -53 -110 -60
c53 -6 90 -26 110 -61c17 -29 22 -65 22 -152v-58c0 -69 5 -92 25 -120c20 -29 49 -43 99 -47v-33z" />
    <glyph glyph-name="bar" unicode="|" horiz-adv-x="251" 
d="M151 -244h-51v1000h51v-1000z" />
    <glyph glyph-name="braceright" unicode="}" horiz-adv-x="408" 
d="M366 262c-100 -24 -123 -53 -123 -153v-81c0 -102 -7 -135 -39 -172c-35 -41 -86 -61 -162 -62v33c49 4 78 18 98 47c20 28 25 52 25 120v58c0 86 5 123 22 152c21 35 57 55 110 61c-56 7 -90 26 -110 60c-17 31 -22 67 -22 153v57c0 69 -5 92 -25 121s-47 42 -98 47v33
c78 -3 128 -22 162 -62c32 -37 39 -70 39 -173v-80c0 -101 23 -130 123 -154v-5z" />
    <glyph glyph-name="asciitilde" unicode="~" horiz-adv-x="592" 
d="M582 343c-17 -73 -50 -175 -144 -175c-34 0 -70 12 -152 44l-51 20c-40 16 -70 24 -92 24c-47 0 -82 -35 -100 -101l-33 9c23 118 73 176 145 176c41 0 81 -17 119 -32l65 -26c55 -22 85 -30 110 -30c47 0 77 31 101 102z" />
    <glyph glyph-name="Adieresis" unicode="&#xc4;" horiz-adv-x="670" 
d="M690 0h-265v26l80 39l-75 216h-221l-80 -216l80 -39v-26h-229v26l80 39l263 640h59l229 -640l79 -39v-26zM413 323l-57 172c-16 48 -19 55 -30 94l-101 -266h188zM487 828c0 -34 -17 -52 -50 -52c-32 0 -49 17 -49 47c0 35 16 52 48 52c33 0 51 -17 51 -47zM305 825
c0 -32 -17 -49 -50 -49s-49 15 -49 46c0 34 17 53 49 53s50 -18 50 -50z" />
    <glyph glyph-name="Aring" unicode="&#xc5;" horiz-adv-x="670" 
d="M690 0h-265v26l80 39l-75 216h-221l-80 -216l80 -39v-26h-229v26l80 39l263 640h59l229 -640l79 -39v-26zM413 323l-57 172c-16 48 -19 55 -30 94l-101 -266h188zM467 836c0 -53 -39 -81 -112 -81s-112 28 -112 81s38 80 112 80c73 0 112 -28 112 -80zM419 836
c0 29 -27 50 -65 50c-37 0 -63 -22 -63 -51c0 -30 26 -50 65 -50s63 20 63 51z" />
    <glyph glyph-name="Ccedilla" unicode="&#xc7;" horiz-adv-x="656" 
d="M474 -115c0 -51 -53 -94 -152 -119l-10 24c61 31 89 62 89 99c0 28 -17 47 -42 47v54c-109 4 -177 32 -234 93c-56 61 -85 144 -85 244c0 116 39 219 110 289c66 64 151 94 271 94c69 0 124 -7 193 -24v-158h-38l-49 131c-22 3 -50 5 -83 5c-99 0 -169 -26 -220 -80
c-53 -56 -80 -139 -80 -240c0 -88 20 -157 61 -210c49 -62 114 -87 224 -87c30 0 42 1 91 4l65 131h36l-13 -156c-40 -12 -73 -20 -103 -26c-35 -6 -67 -9 -104 -10v-25c50 -3 73 -32 73 -80z" />
    <glyph glyph-name="Eacute" unicode="&#xc9;" horiz-adv-x="586" 
d="M541 161l-16 -161h-500v26l89 37v574l-89 37v26h496v-156h-35l-49 114h-224v-282h189l35 94h32v-229h-32l-35 93h-189v-287h230l63 114h35zM484 906l-200 -151h-53l109 151h144z" />
    <glyph glyph-name="Ntilde" unicode="&#xd1;" horiz-adv-x="735" 
d="M725 674l-89 -37v-647h-32l-433 584v-511l88 -37v-26h-234v26l89 37v574l-89 37v26h173l381 -506v443l-88 37v26h234v-26zM560 876c-19 -25 -49 -65 -71 -83c-13 -10 -26 -14 -38 -14c-10 0 -17 0 -44 14l-73 38c-10 5 -22 10 -29 10c-12 0 -36 -19 -72 -53l-22 23
c19 25 48 65 71 83c12 10 26 14 38 14c10 0 16 0 44 -14l73 -38c9 -5 22 -10 29 -10c12 0 28 12 72 53z" />
    <glyph glyph-name="Odieresis" unicode="&#xd6;" horiz-adv-x="728" 
d="M688 360c0 -222 -137 -376 -335 -376c-189 0 -313 136 -313 344c0 202 117 382 332 382c206 0 316 -154 316 -350zM579 344c0 139 -50 319 -219 319c-167 0 -211 -174 -211 -311c0 -197 83 -321 216 -321c131 0 214 121 214 313zM503 828c0 -34 -17 -52 -50 -52
c-32 0 -49 17 -49 47c0 35 16 52 48 52c33 0 51 -17 51 -47zM321 825c0 -32 -17 -49 -50 -49s-49 15 -49 46c0 34 17 53 49 53s50 -18 50 -50z" />
    <glyph glyph-name="Udieresis" unicode="&#xdc;" horiz-adv-x="695" 
d="M700 674l-89 -37v-396c0 -181 -101 -251 -270 -251c-177 0 -258 70 -258 224v423l-88 37v26h276v-26l-89 -37v-415c0 -124 55 -181 176 -181c128 0 185 55 185 176v420l-88 37v26h245v-26zM492 828c0 -34 -17 -52 -50 -52c-32 0 -49 17 -49 47c0 35 16 52 48 52
c33 0 51 -17 51 -47zM310 825c0 -32 -17 -49 -50 -49s-49 15 -49 46c0 34 17 53 49 53s50 -18 50 -50z" />
    <glyph glyph-name="aacute" unicode="&#xe1;" horiz-adv-x="509" 
d="M499 27l-76 -25c-11 -4 -36 -7 -48 -7c-32 0 -50 16 -56 50c-13 -7 -2 -2 -48 -23c-39 -18 -56 -27 -99 -27c-83 0 -142 52 -142 127c0 62 38 103 110 120c36 8 88 15 146 20l30 3v118c0 48 -10 65 -44 77c-14 5 -36 8 -60 8c-11 0 -17 0 -29 -1l-44 -87h-62v95
c27 7 47 12 68 17c44 11 81 18 115 18c45 0 81 -9 108 -28c31 -21 42 -47 42 -95v-282c0 -8 1 -20 3 -24c4 -7 9 -10 27 -15l59 -17v-22zM316 66v170c-38 -5 -72 -11 -110 -20c-50 -13 -72 -37 -72 -80c0 -51 39 -84 100 -84c26 0 50 6 76 12zM458 724l-200 -151h-53
l109 151h144z" />
    <glyph glyph-name="agrave" unicode="&#xe0;" horiz-adv-x="509" 
d="M332 573h-52l-201 151h144zM499 27l-76 -25c-11 -4 -36 -7 -48 -7c-32 0 -50 16 -56 50c-13 -7 -2 -2 -48 -23c-39 -18 -56 -27 -99 -27c-83 0 -142 52 -142 127c0 62 38 103 110 120c36 8 88 15 146 20l30 3v118c0 48 -10 65 -44 77c-14 5 -36 8 -60 8
c-11 0 -17 0 -29 -1l-44 -87h-62v95c27 7 47 12 68 17c44 11 81 18 115 18c45 0 81 -9 108 -28c31 -21 42 -47 42 -95v-282c0 -8 1 -20 3 -24c4 -7 9 -10 27 -15l59 -17v-22zM316 66v170c-38 -5 -72 -11 -110 -20c-50 -13 -72 -37 -72 -80c0 -51 39 -84 100 -84
c26 0 50 6 76 12z" />
    <glyph glyph-name="acircumflex" unicode="&#xe2;" horiz-adv-x="509" 
d="M415 573h-64l-106 67l-103 -67h-64l167 164zM499 27l-76 -25c-11 -4 -36 -7 -48 -7c-32 0 -50 16 -56 50c-13 -7 -2 -2 -48 -23c-39 -18 -56 -27 -99 -27c-83 0 -142 52 -142 127c0 62 38 103 110 120c36 8 88 15 146 20l30 3v118c0 48 -10 65 -44 77c-14 5 -36 8 -60 8
c-11 0 -17 0 -29 -1l-44 -87h-62v95c27 7 47 12 68 17c44 11 81 18 115 18c45 0 81 -9 108 -28c31 -21 42 -47 42 -95v-282c0 -8 1 -20 3 -24c4 -7 9 -10 27 -15l59 -17v-22zM316 66v170c-38 -5 -72 -11 -110 -20c-50 -13 -72 -37 -72 -80c0 -51 39 -84 100 -84
c26 0 50 6 76 12z" />
    <glyph glyph-name="adieresis" unicode="&#xe4;" horiz-adv-x="509" 
d="M499 27l-76 -25c-11 -4 -36 -7 -48 -7c-32 0 -50 16 -56 50c-13 -7 -2 -2 -48 -23c-39 -18 -56 -27 -99 -27c-83 0 -142 52 -142 127c0 62 38 103 110 120c36 8 88 15 146 20l30 3v118c0 48 -10 65 -44 77c-14 5 -36 8 -60 8c-11 0 -17 0 -29 -1l-44 -87h-62v95
c27 7 47 12 68 17c44 11 81 18 115 18c45 0 81 -9 108 -28c31 -21 42 -47 42 -95v-282c0 -8 1 -20 3 -24c4 -7 9 -10 27 -15l59 -17v-22zM316 66v170c-38 -5 -72 -11 -110 -20c-50 -13 -72 -37 -72 -80c0 -51 39 -84 100 -84c26 0 50 6 76 12zM203 643
c0 -32 -17 -49 -50 -49s-49 15 -49 46c0 34 17 53 49 53s50 -18 50 -50zM385 646c0 -34 -17 -52 -50 -52c-32 0 -49 17 -49 47c0 35 16 52 48 52c33 0 51 -17 51 -47z" />
    <glyph glyph-name="atilde" unicode="&#xe3;" horiz-adv-x="509" 
d="M428 694c-19 -25 -49 -65 -71 -83c-13 -10 -26 -14 -38 -14c-10 0 -17 0 -44 14l-73 38c-10 5 -22 10 -29 10c-12 0 -36 -19 -72 -53l-22 23c19 25 48 65 71 83c12 10 26 14 38 14c10 0 16 0 44 -14l73 -38c9 -5 22 -10 29 -10c12 0 28 12 72 53zM499 27l-76 -25
c-11 -4 -36 -7 -48 -7c-32 0 -50 16 -56 50c-13 -7 -2 -2 -48 -23c-39 -18 -56 -27 -99 -27c-83 0 -142 52 -142 127c0 62 38 103 110 120c36 8 88 15 146 20l30 3v118c0 48 -10 65 -44 77c-14 5 -36 8 -60 8c-11 0 -17 0 -29 -1l-44 -87h-62v95c27 7 47 12 68 17
c44 11 81 18 115 18c45 0 81 -9 108 -28c31 -21 42 -47 42 -95v-282c0 -8 1 -20 3 -24c4 -7 9 -10 27 -15l59 -17v-22zM316 66v170c-38 -5 -72 -11 -110 -20c-50 -13 -72 -37 -72 -80c0 -51 39 -84 100 -84c26 0 50 6 76 12z" />
    <glyph glyph-name="aring" unicode="&#xe5;" horiz-adv-x="509" 
d="M499 27l-76 -25c-11 -4 -36 -7 -48 -7c-32 0 -50 16 -56 50c-13 -7 -2 -2 -48 -23c-39 -18 -56 -27 -99 -27c-83 0 -142 52 -142 127c0 62 38 103 110 120c36 8 88 15 146 20l30 3v118c0 48 -10 65 -44 77c-14 5 -36 8 -60 8c-11 0 -17 0 -29 -1l-44 -87h-62v95
c27 7 47 12 68 17c44 11 81 18 115 18c45 0 81 -9 108 -28c31 -21 42 -47 42 -95v-282c0 -8 1 -20 3 -24c4 -7 9 -10 27 -15l59 -17v-22zM316 66v170c-38 -5 -72 -11 -110 -20c-50 -13 -72 -37 -72 -80c0 -51 39 -84 100 -84c26 0 50 6 76 12zM360 654
c0 -53 -39 -81 -112 -81s-112 28 -112 81s38 80 112 80c73 0 112 -28 112 -80zM312 654c0 29 -27 50 -65 50c-37 0 -63 -22 -63 -51c0 -30 26 -50 65 -50s63 20 63 51z" />
    <glyph glyph-name="ccedilla" unicode="&#xe7;" horiz-adv-x="475" 
d="M366 -115c0 -51 -54 -94 -152 -119l-10 24c61 31 89 62 89 99c0 28 -17 47 -42 47v54c-129 5 -216 105 -216 248c0 161 114 272 282 272c39 0 81 -7 129 -23v-107h-63l-46 93c-10 1 -18 1 -22 1c-102 0 -181 -93 -181 -210c0 -63 17 -117 50 -155c35 -40 79 -58 144 -58
c36 0 49 1 115 13l7 -33s-55 -18 -64 -20c-37 -10 -67 -16 -93 -19v-27c50 -3 73 -32 73 -80z" />
    <glyph glyph-name="eacute" unicode="&#xe9;" horiz-adv-x="510" 
d="M470 269h-330c1 -76 13 -120 48 -159c33 -37 84 -57 148 -57c27 0 76 5 120 12l6 -34s-44 -13 -69 -21c-54 -16 -91 -20 -127 -20c-139 0 -231 102 -231 250c0 84 30 160 81 208c41 40 97 62 159 62c80 0 146 -39 175 -105c13 -30 17 -61 20 -136zM365 322
c-1 59 -7 86 -26 111s-40 35 -76 35c-72 0 -113 -57 -122 -167zM462 724l-200 -151h-53l109 151h144z" />
    <glyph glyph-name="egrave" unicode="&#xe8;" horiz-adv-x="510" 
d="M348 573h-52l-201 151h144zM470 269h-330c1 -76 13 -120 48 -159c33 -37 84 -57 148 -57c27 0 76 5 120 12l6 -34s-44 -13 -69 -21c-54 -16 -91 -20 -127 -20c-139 0 -231 102 -231 250c0 84 30 160 81 208c41 40 97 62 159 62c80 0 146 -39 175 -105
c13 -30 17 -61 20 -136zM365 322c-1 59 -7 86 -26 111s-40 35 -76 35c-72 0 -113 -57 -122 -167z" />
    <glyph glyph-name="ecircumflex" unicode="&#xea;" horiz-adv-x="510" 
d="M470 269h-330c1 -76 13 -120 48 -159c33 -37 84 -57 148 -57c27 0 76 5 120 12l6 -34s-44 -13 -69 -21c-54 -16 -91 -20 -127 -20c-139 0 -231 102 -231 250c0 84 30 160 81 208c41 40 97 62 159 62c80 0 146 -39 175 -105c13 -30 17 -61 20 -136zM365 322
c-1 59 -7 86 -26 111s-40 35 -76 35c-72 0 -113 -57 -122 -167zM440 573h-64l-106 67l-103 -67h-64l167 164z" />
    <glyph glyph-name="edieresis" unicode="&#xeb;" horiz-adv-x="510" 
d="M470 269h-330c1 -76 13 -120 48 -159c33 -37 84 -57 148 -57c27 0 76 5 120 12l6 -34s-44 -13 -69 -21c-54 -16 -91 -20 -127 -20c-139 0 -231 102 -231 250c0 84 30 160 81 208c41 40 97 62 159 62c80 0 146 -39 175 -105c13 -30 17 -61 20 -136zM365 322
c-1 59 -7 86 -26 111s-40 35 -76 35c-72 0 -113 -57 -122 -167zM226 643c0 -32 -17 -49 -50 -49s-49 15 -49 46c0 34 17 53 49 53s50 -18 50 -50zM408 646c0 -34 -17 -52 -50 -52c-32 0 -49 17 -49 47c0 35 16 52 48 52c33 0 51 -17 51 -47z" />
    <glyph glyph-name="iacute" unicode="&#xed;" horiz-adv-x="311" 
d="M295 0h-271v26l89 37v360l-89 27v23l183 40v-450l88 -37v-26zM318 724l-200 -151h-53l109 151h144z" />
    <glyph glyph-name="igrave" unicode="&#xec;" horiz-adv-x="311" 
d="M295 0h-271v26l89 37v360l-89 27v23l183 40v-450l88 -37v-26zM241 573h-52l-201 151h144z" />
    <glyph glyph-name="icircumflex" unicode="&#xee;" horiz-adv-x="311" 
d="M295 0h-271v26l89 37v360l-89 27v23l183 40v-450l88 -37v-26zM325 573h-64l-106 67l-103 -67h-64l167 164z" />
    <glyph glyph-name="idieresis" unicode="&#xef;" horiz-adv-x="311" 
d="M295 0h-271v26l89 37v360l-89 27v23l183 40v-450l88 -37v-26zM295 646c0 -34 -17 -52 -50 -52c-32 0 -49 17 -49 47c0 35 16 52 48 52c33 0 51 -17 51 -47zM113 643c0 -32 -17 -49 -50 -49s-49 15 -49 46c0 34 17 53 49 53s50 -18 50 -50z" />
    <glyph glyph-name="ntilde" unicode="&#xf1;" horiz-adv-x="623" 
d="M492 694c-19 -25 -48 -65 -71 -83c-13 -10 -26 -14 -38 -14c-10 0 -17 0 -44 14l-73 38c-10 5 -22 10 -29 10c-12 0 -36 -19 -72 -53l-22 23c19 25 48 65 71 83c13 10 26 14 38 14c10 0 17 0 44 -14l73 -38c10 -5 22 -10 29 -10c12 0 28 12 72 53zM613 0h-265v26l83 37
v262c0 47 -13 78 -42 95c-21 13 -51 19 -91 19c-29 0 -63 -2 -91 -6v-370l78 -37v-26h-260v26l88 37v361l-88 27v23l182 41v-57c23 9 45 18 66 26c56 21 66 26 109 26s79 -16 106 -45c28 -29 37 -63 37 -121v-281l88 -37v-26z" />
    <glyph glyph-name="oacute" unicode="&#xf3;" horiz-adv-x="559" 
d="M524 255c0 -146 -100 -271 -251 -271c-141 0 -238 103 -238 254c0 155 92 272 252 272c149 0 237 -112 237 -255zM420 234c0 95 -25 229 -145 229c-87 0 -136 -76 -136 -211c0 -94 28 -221 145 -221c109 0 136 114 136 203zM471 724l-200 -151h-53l109 151h144z" />
    <glyph glyph-name="ograve" unicode="&#xf2;" horiz-adv-x="559" 
d="M363 573h-52l-201 151h144zM524 255c0 -146 -100 -271 -251 -271c-141 0 -238 103 -238 254c0 155 92 272 252 272c149 0 237 -112 237 -255zM420 234c0 95 -25 229 -145 229c-87 0 -136 -76 -136 -211c0 -94 28 -221 145 -221c109 0 136 114 136 203z" />
    <glyph glyph-name="ocircumflex" unicode="&#xf4;" horiz-adv-x="559" 
d="M448 573h-64l-106 67l-103 -67h-64l167 164zM524 255c0 -146 -100 -271 -251 -271c-141 0 -238 103 -238 254c0 155 92 272 252 272c149 0 237 -112 237 -255zM420 234c0 95 -25 229 -145 229c-87 0 -136 -76 -136 -211c0 -94 28 -221 145 -221c109 0 136 114 136 203z
" />
    <glyph glyph-name="odieresis" unicode="&#xf6;" horiz-adv-x="559" 
d="M524 255c0 -146 -100 -271 -251 -271c-141 0 -238 103 -238 254c0 155 92 272 252 272c149 0 237 -112 237 -255zM420 234c0 95 -25 229 -145 229c-87 0 -136 -76 -136 -211c0 -94 28 -221 145 -221c109 0 136 114 136 203zM237 643c0 -32 -17 -49 -50 -49s-49 15 -49 46
c0 34 17 53 49 53s50 -18 50 -50zM419 646c0 -34 -17 -52 -50 -52c-32 0 -49 17 -49 47c0 35 16 52 48 52c33 0 51 -17 51 -47z" />
    <glyph glyph-name="otilde" unicode="&#xf5;" horiz-adv-x="559" 
d="M456 694c-19 -25 -48 -65 -71 -83c-13 -10 -26 -14 -38 -14c-10 0 -16 0 -44 14l-73 38c-10 5 -22 10 -29 10c-12 0 -36 -19 -72 -53l-22 23c19 25 49 65 71 83c13 10 26 14 38 14c10 0 17 0 44 -14l73 -38c10 -5 22 -10 29 -10c12 0 28 12 72 53zM524 255
c0 -146 -100 -271 -251 -271c-141 0 -238 103 -238 254c0 155 92 272 252 272c149 0 237 -112 237 -255zM420 234c0 95 -25 229 -145 229c-87 0 -136 -76 -136 -211c0 -94 28 -221 145 -221c109 0 136 114 136 203z" />
    <glyph glyph-name="uacute" unicode="&#xfa;" horiz-adv-x="603" 
d="M588 27l-177 -42v56l-73 -29c-36 -14 -59 -23 -95 -23c-34 0 -83 10 -107 33c-29 29 -43 69 -43 125v278l-88 26v24l182 40v-347c0 -44 9 -74 31 -92c19 -16 48 -23 90 -23c34 0 71 4 103 11v361l-88 26v24l182 40v-438l83 -27v-23zM477 724l-200 -151h-53l109 151h144z
" />
    <glyph glyph-name="ugrave" unicode="&#xf9;" horiz-adv-x="603" 
d="M388 573h-52l-201 151h144zM588 27l-177 -42v56l-73 -29c-36 -14 -59 -23 -95 -23c-34 0 -83 10 -107 33c-29 29 -43 69 -43 125v278l-88 26v24l182 40v-347c0 -44 9 -74 31 -92c19 -16 48 -23 90 -23c34 0 71 4 103 11v361l-88 26v24l182 40v-438l83 -27v-23z" />
    <glyph glyph-name="ucircumflex" unicode="&#xfb;" horiz-adv-x="603" 
d="M469 573h-64l-106 67l-103 -67h-64l167 164zM588 27l-177 -42v56l-73 -29c-36 -14 -59 -23 -95 -23c-34 0 -83 10 -107 33c-29 29 -43 69 -43 125v278l-88 26v24l182 40v-347c0 -44 9 -74 31 -92c19 -16 48 -23 90 -23c34 0 71 4 103 11v361l-88 26v24l182 40v-438
l83 -27v-23z" />
    <glyph glyph-name="udieresis" unicode="&#xfc;" horiz-adv-x="603" 
d="M588 27l-177 -42v56l-73 -29c-36 -14 -59 -23 -95 -23c-34 0 -83 10 -107 33c-29 29 -43 69 -43 125v278l-88 26v24l182 40v-347c0 -44 9 -74 31 -92c19 -16 48 -23 90 -23c34 0 71 4 103 11v361l-88 26v24l182 40v-438l83 -27v-23zM266 643c0 -32 -17 -49 -50 -49
s-49 15 -49 46c0 34 17 53 49 53s50 -18 50 -50zM448 646c0 -34 -17 -52 -50 -52c-32 0 -49 17 -49 47c0 35 16 52 48 52c33 0 51 -17 51 -47z" />
    <glyph glyph-name="dagger" unicode="&#x2020;" horiz-adv-x="559" 
d="M494 430l-199 25c30 -53 43 -94 43 -132c0 -16 -1 -35 -3 -59l-46 -493h-19l-46 493c-2 24 -3 43 -3 59c0 38 13 79 43 132l-199 -25v88l191 -22l-32 212h111l-32 -212l191 22v-88z" />
    <glyph glyph-name="degree" unicode="&#xb0;" horiz-adv-x="407" 
d="M349 591c0 -81 -65 -146 -146 -146c-80 0 -145 65 -145 146c0 80 65 145 145 145c81 0 146 -65 146 -145zM301 591c0 54 -44 97 -98 97s-97 -43 -97 -97s43 -98 97 -98s98 44 98 98z" />
    <glyph glyph-name="cent" unicode="&#xa2;" horiz-adv-x="475" 
d="M450 31c0 0 -55 -18 -64 -20c-30 -8 -56 -14 -79 -17v-78h-42v74h-5c-134 -1 -225 102 -225 248c0 144 91 248 230 268v75h42v-71h10c39 0 81 -7 129 -23v-107h-63l-46 93c-10 1 -18 1 -22 1h-8v-422c7 -1 14 -1 21 -1c36 0 49 1 115 13zM265 58v408
c-77 -25 -131 -105 -131 -202c0 -63 17 -117 50 -155c22 -26 48 -42 81 -51z" />
    <glyph glyph-name="sterling" unicode="&#xa3;" horiz-adv-x="553" 
d="M523 112c-42 -104 -75 -144 -118 -144c-13 0 -29 2 -54 9l-157 42c-11 3 -33 6 -42 6c-23 0 -40 -9 -78 -29c-3 -1 -8 -4 -13 -7l-21 30l31 31c38 38 46 60 46 121v146h-62v47h62v125c0 69 21 116 67 146c35 24 81 37 125 37c23 0 48 -2 86 -9c25 -5 97 -23 97 -23v-145
h-39l-48 121c-14 3 -37 5 -65 5c-84 0 -124 -39 -124 -122v-135h151v-47h-151v-68c0 -56 -11 -98 -32 -127c-17 -22 -38 -42 -57 -61c29 20 62 32 90 32c14 0 32 -2 53 -7l108 -24c28 -6 30 -6 39 -6c25 0 53 24 82 68z" />
    <glyph glyph-name="section" unicode="&#xa7;" horiz-adv-x="541" 
d="M471 261c0 -70 -41 -124 -129 -169c51 -30 77 -74 77 -134c0 -39 -17 -74 -39 -100c-24 -29 -74 -50 -114 -50c-17 0 -44 2 -76 8c-23 5 -38 9 -68 17v131h37l43 -108c13 -2 20 -3 34 -3c71 0 105 28 105 85c0 42 -18 64 -78 97l-70 38c-56 30 -72 43 -92 68
s-31 58 -31 92c0 47 22 93 60 125c19 16 34 25 69 43c-53 30 -77 71 -77 132c0 43 19 78 47 104c26 24 69 40 105 40c25 0 29 1 82 -9c24 -5 63 -16 63 -16v-131h-37l-44 108c-10 1 -33 3 -43 3c-56 0 -95 -30 -95 -78c0 -52 35 -71 76 -94l74 -41c54 -30 70 -43 91 -70
c20 -27 30 -55 30 -88zM388 228c0 45 -20 73 -75 105l-85 49c-56 -41 -80 -75 -80 -116c0 -25 8 -48 22 -65c15 -17 21 -22 76 -53l67 -38c52 40 75 77 75 118z" />
    <glyph glyph-name="bullet" unicode="&#x2022;" horiz-adv-x="500" 
d="M431 358c0 -100 -81 -181 -181 -181s-181 81 -181 181s81 181 181 181s181 -81 181 -181z" />
    <glyph glyph-name="paragraph" unicode="&#xb6;" horiz-adv-x="585" 
d="M550 652h-63v-617c0 -91 -40 -151 -81 -188c-36 -33 -103 -46 -158 -46c-24 0 -51 2 -70 5v99h66l33 -65c83 10 141 63 141 194v618h-79v-463s-43 -9 -89 -9c-134 0 -225 102 -225 248c0 161 114 272 282 272h243v-48z" />
    <glyph glyph-name="germandbls" unicode="&#xdf;" horiz-adv-x="634" 
d="M604 142c0 -88 -69 -153 -165 -153c-21 0 -48 3 -88 10c-26 5 -75 20 -75 20v116h46l48 -95c16 -2 26 -3 47 -3c49 0 104 14 104 74c0 31 -18 53 -61 77l-90 49c-62 34 -89 74 -89 129c0 35 14 66 48 101l45 47c34 35 43 52 43 83c0 55 -41 91 -104 91
c-36 0 -68 -11 -90 -32c-29 -27 -36 -53 -36 -134v-522h-182v26l88 36v443c0 86 23 139 78 183c44 35 97 52 159 52c114 0 191 -52 191 -130c0 -35 -19 -69 -60 -101l-61 -48c-25 -19 -36 -40 -36 -62c0 -28 11 -40 62 -69l82 -46c71 -40 96 -77 96 -142z" />
    <glyph glyph-name="registered" unicode="&#xae;" horiz-adv-x="819" 
d="M626 182h-123l-124 188h-11v-147l50 -23v-18h-187v18l50 23v313l-50 23v18h192c67 0 135 -16 135 -98c0 -53 -30 -89 -87 -103l106 -153l49 -23v-18zM464 475c0 44 -18 73 -66 73h-30v-154h32c41 0 64 29 64 81zM789 367c0 -214 -164 -389 -378 -390s-381 172 -381 386
c0 216 169 387 385 387c217 0 374 -169 374 -383zM708 367c0 170 -120 312 -293 312c-174 0 -303 -143 -303 -316c0 -171 127 -316 299 -316c173 0 297 147 297 320z" />
    <glyph glyph-name="copyright" unicode="&#xa9;" horiz-adv-x="819" 
d="M789 367c0 -214 -164 -389 -378 -390s-381 172 -381 386c0 216 169 387 385 387c217 0 374 -169 374 -383zM708 367c0 170 -120 312 -293 312c-174 0 -303 -143 -303 -316c0 -171 127 -316 299 -316c173 0 297 147 297 320zM562 293l-8 -97c-42 -11 -89 -22 -137 -22
c-124 0 -207 70 -207 197c0 137 97 211 224 211c42 0 87 -10 124 -19v-97h-35l-30 80c-11 1 -23 1 -30 1c-104 0 -153 -72 -153 -171c0 -95 40 -166 145 -166c13 0 21 0 39 3l33 80h35z" />
    <glyph glyph-name="trademark" unicode="&#x2122;" horiz-adv-x="760" 
d="M290 641h-18l-34 63h-62v-275l55 -19v-23h-169v23l55 18v276h-64l-34 -63h-19v96h290v-96zM731 387h-148v23l44 18v235l-112 -281h-22l-108 281v-234l45 -19v-23h-128v23l45 18v267l-45 19v23h112l101 -259l102 259h114v-23l-45 -18v-267l45 -19v-23z" />
    <glyph glyph-name="acute" unicode="&#xb4;" horiz-adv-x="278" 
d="M266 724l-200 -151h-53l109 151h144z" />
    <glyph glyph-name="dieresis" unicode="&#xa8;" horiz-adv-x="278" 
d="M283 646c0 -34 -17 -52 -50 -52c-32 0 -49 17 -49 47c0 35 16 52 48 52c33 0 51 -17 51 -47zM101 643c0 -32 -17 -49 -50 -49s-49 15 -49 46c0 34 17 53 49 53s50 -18 50 -50z" />
    <glyph glyph-name="notequal" unicode="&#x2260;" horiz-adv-x="592" 
d="M550 186h-285l-77 -145l-68 34l58 111h-136v78h177l68 130h-245v78h286l75 144l69 -35l-57 -109h135v-78h-176l-69 -130h245v-78z" />
    <glyph glyph-name="AE" unicode="&#xc6;" horiz-adv-x="866" 
d="M826 161l-18 -161h-470v26l78 38v249h-165l-121 -249l79 -38v-26h-229v26l78 38l330 634h417v-156h-36l-49 114h-205v-296h170l35 94h33v-234h-33l-35 93h-170v-266h210l64 114h37zM416 360v292h-2l-137 -292h139z" />
    <glyph glyph-name="Oslash" unicode="&#xd8;" horiz-adv-x="722" 
d="M685 360c0 -222 -137 -376 -334 -376c-68 0 -118 13 -166 42l-49 -75l-39 26l51 76c-75 66 -111 156 -111 282c0 198 123 374 332 374c64 0 103 -10 166 -42l41 63l39 -25l-42 -65c75 -67 112 -159 112 -280zM490 601c-36 44 -70 61 -127 61c-169 0 -217 -169 -217 -310
c0 -94 16 -164 52 -225zM576 344c0 96 -15 157 -54 221l-294 -476c40 -42 77 -58 131 -58c136 0 217 116 217 313z" />
    <glyph glyph-name="infinity" unicode="&#x221e;" horiz-adv-x="713" 
d="M660 331c0 -114 -74 -171 -164 -171c-63 0 -101 38 -131 89l-17 29c-31 -61 -71 -119 -148 -119c-79 0 -146 49 -146 165c0 118 74 171 164 171c66 0 103 -40 133 -93l16 -28c29 65 68 122 147 122s146 -51 146 -165zM607 329c0 66 -41 95 -99 95c-59 0 -89 -36 -117 -85
l19 -33c22 -39 51 -72 99 -72c59 0 98 32 98 95zM326 314l-21 35c-26 43 -46 72 -100 72c-59 0 -98 -32 -98 -95c0 -64 40 -95 99 -95c58 0 92 34 120 83z" />
    <glyph glyph-name="plusminus" unicode="&#xb1;" 
d="M530 384h-214v-226h-82v226h-214v80h214v204h82v-204h214v-80zM530 0h-510v76h510v-76z" />
    <glyph glyph-name="lessequal" unicode="&#x2264;" horiz-adv-x="660" 
d="M610 133l-575 250v29l575 251v-85l-431 -180l431 -180v-85zM610 0h-575v72h575v-72z" />
    <glyph glyph-name="greaterequal" unicode="&#x2265;" horiz-adv-x="660" 
d="M625 383l-575 -250v85l431 180l-431 180v85l575 -251v-29zM625 0h-575v72h575v-72z" />
    <glyph glyph-name="yen" unicode="&#xa5;" horiz-adv-x="555" 
d="M557 636l-77 -34l-149 -273v-20h136v-43h-136v-59h136v-43h-136v-105l112 -34v-25h-323v25l112 34v105h-135v43h135v59h-135v43h134l-156 293l-79 34v25h263v-25l-73 -34l115 -227l109 227l-73 34v25h220v-25z" />
    <glyph glyph-name="mu" unicode="&#xb5;" horiz-adv-x="597" 
d="M415 91v325c0 8 -2 17 -13 20l-55 15v24l161 40v-411c0 -8 1 -20 3 -24c4 -7 9 -14 27 -20l39 -14v-22l-56 -20c-11 -4 -34 -10 -46 -10c-32 0 -54 15 -58 49c-1 9 -1 21 -1 21c-76 -61 -101 -71 -157 -71c-34 0 -74 17 -90 44v-215l-111 -31l-6 23c13 10 20 17 31 31
c14 17 12 79 12 116v455c0 8 -2 17 -13 20l-55 15v24l161 40v-258c0 -62 1 -109 12 -134c15 -35 58 -61 110 -61c31 0 105 29 105 29z" />
    <glyph glyph-name="mu" unicode="&#x3bc;" horiz-adv-x="597" 
d="M415 91v325c0 8 -2 17 -13 20l-55 15v24l161 40v-411c0 -8 1 -20 3 -24c4 -7 9 -14 27 -20l39 -14v-22l-56 -20c-11 -4 -34 -10 -46 -10c-32 0 -54 15 -58 49c-1 9 -1 21 -1 21c-76 -61 -101 -71 -157 -71c-34 0 -74 17 -90 44v-215l-111 -31l-6 23c13 10 20 17 31 31
c14 17 12 79 12 116v455c0 8 -2 17 -13 20l-55 15v24l161 40v-258c0 -62 1 -109 12 -134c15 -35 58 -61 110 -61c31 0 105 29 105 29z" />
    <glyph glyph-name="partialdiff" unicode="&#x2202;" horiz-adv-x="560" 
d="M515 533c0 -214 -48 -542 -289 -542c-116 0 -186 79 -186 220c0 167 71 338 246 338c67 0 116 -32 138 -86c1 20 3 58 3 76c0 182 -44 256 -154 256h-40c-19 -31 -42 -84 -89 -84c-33 0 -56 22 -56 52c0 18 10 33 28 44c30 18 101 34 161 34c158 0 238 -99 238 -308z
M392 346c0 105 -33 151 -95 151c-127 0 -156 -201 -156 -295c0 -110 29 -157 96 -157c128 0 155 208 155 301z" />
    <glyph glyph-name="summation" unicode="&#x2211;" horiz-adv-x="632" 
d="M39 -244v61l297 456l-301 446v37h543v-169h-35l-50 114h-327l262 -389l-305 -469h384l55 114h35v-201h-558z" />
    <glyph glyph-name="product" unicode="&#x220f;" horiz-adv-x="823" 
d="M25 730v26h773v-26l-88 -36v-875l88 -37v-26h-280v26l89 37v882h-390v-882l88 -37v-26h-280v26l89 37v875z" />
    <glyph glyph-name="pi" unicode="&#x3c0;" horiz-adv-x="595" 
d="M121 437h-5c-37 0 -64 -17 -94 -57l-22 15s14 28 22 42c29 52 52 71 138 69c29 -1 60 0 95 -1l173 -4c86 -2 107 5 133 29l19 -13l-26 -80h-67v-297c0 -65 -4 -72 43 -88l26 -9v-22l-43 -15c-24 -9 -43 -15 -60 -15c-45 0 -60 22 -60 83v363h-196v-426l-113 -31l-6 23
c13 10 20 17 31 31c14 17 12 68 12 116v287z" />
    <glyph glyph-name="integral" unicode="&#x222b;" horiz-adv-x="448" 
d="M448 734c0 -28 -26 -54 -54 -54c-38 0 -56 41 -71 70c-13 0 -37 -19 -42 -27c-18 -24 -22 -49 -22 -77c0 -47 5 -174 9 -286c4 -116 12 -233 12 -349c0 -60 -10 -125 -69 -180c-15 -14 -66 -38 -104 -38c-64 0 -107 22 -107 55c0 28 26 54 54 54c38 0 56 -41 71 -70
c13 0 37 19 42 27c18 24 22 49 22 77c0 47 -4 143 -9 286c-4 114 -12 230 -12 344c0 62 11 130 71 187c15 14 64 36 102 36c64 0 107 -22 107 -55z" />
    <glyph glyph-name="ordfeminine" unicode="&#xaa;" horiz-adv-x="334" 
d="M328 421l-50 -15c-8 -2 -24 -4 -32 -4c-21 0 -33 9 -38 28c-9 -5 -19 -8 -28 -12c-25 -11 -37 -16 -65 -16c-54 0 -94 31 -94 76c0 38 26 63 73 73c36 8 75 10 111 13v67c0 28 -5 36 -26 43c-9 3 -23 4 -38 4h-17l-29 -51h-44v60c20 5 33 7 46 10c29 7 53 11 75 11
c29 0 53 -5 71 -17c21 -13 28 -29 28 -57v-166c0 -15 2 -16 18 -20l39 -10v-17zM205 447v95c-23 -2 -44 -6 -67 -11c-32 -7 -45 -21 -45 -44c0 -28 23 -47 62 -47c17 0 33 4 49 7h1z" />
    <glyph glyph-name="ordmasculine" unicode="&#xba;" horiz-adv-x="352" 
d="M335 553c0 -87 -65 -161 -163 -161c-92 0 -155 61 -155 151c0 93 60 162 164 162c97 0 154 -66 154 -152zM258 542c0 51 -14 123 -84 123c-51 0 -80 -41 -80 -114c0 -50 16 -118 85 -118c64 0 79 61 79 109z" />
    <glyph glyph-name="Omega" unicode="&#x3a9;" horiz-adv-x="786" 
d="M291 72c-118 43 -219 149 -219 302c0 203 126 337 329 337c207 0 317 -130 317 -326c0 -165 -114 -276 -213 -313h138l58 88h40l-19 -160h-268v79c92 15 154 128 154 295c0 156 -42 290 -207 290c-175 0 -221 -133 -221 -279c0 -168 68 -292 163 -306v-79h-279l-19 160
h40l58 -88h148z" />
    <glyph glyph-name="Omega" unicode="&#x2126;" horiz-adv-x="786" 
d="M291 72c-118 43 -219 149 -219 302c0 203 126 337 329 337c207 0 317 -130 317 -326c0 -165 -114 -276 -213 -313h138l58 88h40l-19 -160h-268v79c92 15 154 128 154 295c0 156 -42 290 -207 290c-175 0 -221 -133 -221 -279c0 -168 68 -292 163 -306v-79h-279l-19 160
h40l58 -88h148z" />
    <glyph glyph-name="ae" unicode="&#xe6;" horiz-adv-x="768" 
d="M733 266h-329c0 -77 12 -117 46 -156c34 -38 84 -57 153 -57c38 0 65 3 115 12l7 -33c-81 -29 -142 -42 -196 -42c-76 0 -133 29 -175 88c-56 -55 -126 -88 -186 -88c-78 0 -138 57 -138 130c0 63 36 103 107 121c46 11 105 20 174 25v109c0 51 -10 69 -44 81
c-13 4 -37 7 -68 7h-21l-43 -88h-63v95c84 24 142 35 187 35c62 0 103 -20 129 -64c42 44 92 64 156 64c77 0 142 -41 169 -107c15 -35 19 -67 20 -132zM629 317c-2 55 -8 83 -26 109c-17 24 -42 37 -74 37c-75 0 -120 -61 -125 -167zM311 87v150c-42 -5 -70 -9 -110 -20
c-50 -13 -72 -37 -72 -78c0 -46 39 -81 90 -81c31 0 56 8 92 29z" />
    <glyph glyph-name="oslash" unicode="&#xf8;" horiz-adv-x="555" 
d="M522 255c0 -154 -108 -271 -251 -271c-33 0 -56 4 -93 18l-31 -62l-39 21l31 62c-70 48 -106 121 -106 219c0 158 100 269 243 269c38 0 62 -5 100 -21l34 66l40 -21l-33 -65c72 -54 105 -122 105 -215zM418 233c0 65 -11 115 -38 164l-172 -339c24 -21 42 -27 77 -27
c81 0 133 79 133 202zM350 437c-25 21 -43 27 -78 27c-89 0 -135 -72 -135 -212c0 -71 10 -113 39 -159z" />
    <glyph glyph-name="questiondown" unicode="&#xbf;" horiz-adv-x="426" 
d="M9 -8c0 70 23 119 87 177l68 62c34 31 39 35 43 79c0 10 1 21 2 35h46c2 -12 3 -26 5 -39c0 -10 1 -20 1 -27c0 -28 -6 -41 -39 -81l-52 -63c-37 -45 -52 -85 -52 -143c0 -84 49 -134 132 -134c42 0 59 2 77 7l50 125h38v-146c-26 -6 -41 -10 -73 -17
c-56 -13 -85 -17 -122 -17c-130 0 -211 70 -211 182zM168 455c0 38 21 56 65 56c42 0 65 -19 65 -55s-21 -54 -66 -54c-42 0 -64 18 -64 53z" />
    <glyph glyph-name="exclamdown" unicode="&#xa1;" horiz-adv-x="259" 
d="M193 455c0 -37 -22 -56 -65 -56c-41 0 -60 17 -60 55c0 36 20 55 60 55c43 0 65 -18 65 -54zM197 -194h-134l46 527h41z" />
    <glyph glyph-name="logicalnot" unicode="&#xac;" 
d="M508 129h-64v146h-403v82h467v-228z" />
    <glyph glyph-name="radical" unicode="&#x221a;" 
d="M732 830h-187l-267 -833h-94l-129 455l-64 29v27h146l93 -365c8 -31 13 -42 17 -72c6 29 12 51 19 74l235 741h231v-56z" />
    <glyph glyph-name="florin" unicode="&#x192;" horiz-adv-x="556" 
d="M545 625h-64l-35 70c-36 -4 -60 -13 -83 -33c-29 -25 -43 -54 -49 -108l-6 -54h131l-4 -47h-134l-56 -443c-12 -95 -32 -143 -75 -185c-40 -38 -93 -59 -151 -59c-24 0 -49 3 -73 9v100h65l35 -71c58 8 93 54 102 132l58 517h-99l6 47h99l2 14c13 90 36 134 93 174
c44 31 95 46 155 46c26 0 61 -4 83 -10v-99z" />
    <glyph glyph-name="approxequal" unicode="&#x2248;" 
d="M513 470c-40 -87 -89 -113 -137 -113c-24 0 -42 6 -71 16l-80 30c-26 9 -35 10 -61 10c-25 0 -46 -12 -76 -65l-50 24c44 88 90 118 139 118c24 0 41 -1 74 -13l79 -29c32 -12 43 -13 59 -13c25 0 47 17 75 62zM513 303c-40 -88 -89 -113 -137 -113c-24 0 -42 5 -71 16
l-80 29c-26 10 -35 11 -61 11c-25 0 -46 -13 -76 -66l-50 25c44 87 90 118 139 118c24 0 41 -1 74 -13l79 -30c32 -12 43 -12 59 -12c25 0 47 16 75 61z" />
    <glyph glyph-name="Delta" unicode="&#x394;" horiz-adv-x="707" 
d="M343 736h27l317 -706v-30h-667v30zM563 75l-223 514l-232 -514h455z" />
    <glyph glyph-name="Delta" unicode="&#x2206;" horiz-adv-x="707" 
d="M343 736h27l317 -706v-30h-667v30zM563 75l-223 514l-232 -514h455z" />
    <glyph glyph-name="guillemotleft" unicode="&#xab;" horiz-adv-x="388" 
d="M337 57h-51l-116 200l116 201h51l-118 -201zM211 57h-50l-117 200l117 201h50l-116 -201z" />
    <glyph glyph-name="guillemotright" unicode="&#xbb;" horiz-adv-x="389" 
d="M343 258l-117 -201h-50l116 201l-116 200h50zM217 258l-116 -201h-51l118 201l-118 200h51z" />
    <glyph glyph-name="ellipsis" unicode="&#x2026;" horiz-adv-x="1000" 
d="M894 47c0 -34 -27 -61 -61 -61c-33 0 -60 27 -60 61c0 33 27 60 60 60c34 0 61 -27 61 -60zM561 47c0 -34 -27 -61 -60 -61c-34 0 -61 27 -61 61c0 33 27 60 61 60c33 0 60 -27 60 -60zM227 47c0 -34 -27 -61 -61 -61c-33 0 -60 27 -60 61c0 33 27 60 60 60
c34 0 61 -27 61 -60z" />
    <glyph glyph-name="nbspace" unicode="&#xa0;" horiz-adv-x="250" 
 />
    <glyph glyph-name="Agrave" unicode="&#xc0;" horiz-adv-x="670" 
d="M690 0h-265v26l80 39l-75 216h-221l-80 -216l80 -39v-26h-229v26l80 39l263 640h59l229 -640l79 -39v-26zM413 323l-57 172c-16 48 -19 55 -30 94l-101 -266h188zM434 755h-52l-201 151h144z" />
    <glyph glyph-name="Atilde" unicode="&#xc3;" horiz-adv-x="670" 
d="M690 0h-265v26l80 39l-75 216h-221l-80 -216l80 -39v-26h-229v26l80 39l263 640h59l229 -640l79 -39v-26zM413 323l-57 172c-16 48 -19 55 -30 94l-101 -266h188zM549 876c-19 -25 -49 -65 -71 -83c-13 -10 -26 -14 -38 -14c-10 0 -17 0 -44 14l-73 38
c-10 5 -22 10 -29 10c-12 0 -36 -19 -72 -53l-22 23c19 25 48 65 71 83c13 10 26 14 38 14c10 0 16 0 44 -14l73 -38c10 -5 22 -10 29 -10c12 0 28 12 72 53z" />
    <glyph glyph-name="Otilde" unicode="&#xd5;" horiz-adv-x="728" 
d="M688 360c0 -222 -137 -376 -335 -376c-189 0 -313 136 -313 344c0 202 117 382 332 382c206 0 316 -154 316 -350zM579 344c0 139 -50 319 -219 319c-167 0 -211 -174 -211 -311c0 -197 83 -321 216 -321c131 0 214 121 214 313zM552 876c-19 -25 -48 -65 -71 -83
c-12 -10 -26 -14 -38 -14c-10 0 -16 0 -44 14l-73 38c-9 5 -22 10 -29 10c-12 0 -36 -19 -72 -53l-22 23c19 25 49 65 71 83c13 10 26 14 38 14c10 0 17 0 44 -14l73 -38c10 -5 22 -10 29 -10c12 0 28 12 72 53z" />
    <glyph glyph-name="OE" unicode="&#x152;" horiz-adv-x="932" 
d="M892 156l-15 -156h-436c-29 -7 -58 -10 -90 -10c-189 0 -311 138 -311 350c0 207 120 368 335 368c32 0 64 -5 95 -10h403v-156h-33l-47 109h-224v-276h188l36 94h33v-229h-33l-36 93h-188v-291h228l61 114h34zM470 67v556c-32 24 -60 33 -105 33
c-131 0 -210 -113 -210 -299c0 -140 45 -320 216 -320c39 0 68 9 99 30z" />
    <glyph glyph-name="oe" unicode="&#x153;" horiz-adv-x="888" 
d="M420 234c0 95 -25 229 -145 229c-87 0 -136 -76 -136 -211c0 -94 28 -221 145 -221c109 0 136 114 136 203zM848 269h-330c1 -76 13 -120 48 -159c33 -37 84 -57 148 -57c27 0 76 5 120 12l6 -34s-44 -13 -69 -21c-54 -16 -91 -20 -127 -20c-86 0 -145 40 -179 96
c-41 -62 -108 -102 -192 -102c-141 0 -238 103 -238 254c0 155 92 272 252 272c81 0 145 -45 184 -99c11 14 18 23 28 32c41 40 92 67 154 67c80 0 146 -39 175 -105c13 -30 17 -61 20 -136zM743 322c-1 59 -7 86 -26 111s-40 35 -76 35c-72 0 -113 -57 -122 -167z" />
    <glyph glyph-name="endash" unicode="&#x2013;" horiz-adv-x="500" 
d="M500 230h-500v82h500v-82z" />
    <glyph glyph-name="emdash" unicode="&#x2014;" horiz-adv-x="1000" 
d="M1000 230h-1000v82h1000v-82z" />
    <glyph glyph-name="quotedblleft" unicode="&#x201c;" horiz-adv-x="463" 
d="M382 533c0 -35 -25 -57 -64 -57c-50 0 -77 30 -77 84c0 78 38 125 118 148l13 -33c-49 -21 -64 -41 -66 -89h13c41 0 63 -19 63 -53zM200 533c0 -35 -25 -57 -64 -57c-50 0 -77 30 -77 84c0 78 38 125 118 148l13 -33c-49 -21 -65 -41 -66 -89h13c41 0 63 -19 63 -53z
" />
    <glyph glyph-name="quotedblright" unicode="&#x201d;" horiz-adv-x="463" 
d="M393 624c0 -78 -37 -125 -118 -148l-13 33c49 21 64 41 66 90c-5 -1 -11 -1 -13 -1c-41 0 -63 19 -63 53c0 35 25 57 63 57c51 0 78 -29 78 -84zM211 624c0 -78 -38 -125 -118 -148l-13 33c49 21 64 41 66 90c-6 -1 -11 -1 -13 -1c-41 0 -63 19 -63 53c0 35 25 57 63 57
c51 0 78 -29 78 -84z" />
    <glyph glyph-name="quoteleft" unicode="&#x2018;" horiz-adv-x="278" 
d="M209 533c0 -35 -25 -57 -64 -57c-50 0 -77 30 -77 84c0 78 38 125 118 148l13 -33c-49 -21 -65 -41 -66 -89h13c41 0 63 -19 63 -53z" />
    <glyph glyph-name="quoteright" unicode="&#x2019;" horiz-adv-x="279" 
d="M210 624c0 -78 -38 -125 -118 -148l-13 33c49 21 64 41 66 90c-6 -1 -11 -1 -13 -1c-41 0 -63 19 -63 53c0 35 25 57 63 57c51 0 78 -29 78 -84z" />
    <glyph glyph-name="divide" unicode="&#xf7;" horiz-adv-x="592" 
d="M355 512c0 -33 -26 -59 -59 -59s-59 27 -59 59c0 33 26 59 59 59s59 -26 59 -59zM551 291h-510v78h510v-78zM355 148c0 -33 -26 -59 -59 -59s-59 26 -59 59s26 59 59 59s59 -26 59 -59z" />
    <glyph glyph-name="lozenge" unicode="&#x25ca;" horiz-adv-x="494" 
d="M497 382l-247 -380l-246 365l248 379zM420 377l-172 256l-170 -261l173 -259z" />
    <glyph glyph-name="ydieresis" unicode="&#xff;" horiz-adv-x="516" 
d="M531 474l-59 -35l-219 -537c-38 -93 -90 -131 -181 -131c-22 0 -49 2 -66 5v99h63l32 -63c43 6 69 33 97 102l35 87l-179 445l-64 28v26h239v-26l-73 -28l95 -245c21 -55 20 -52 32 -96l121 334l-70 35v26h197v-26zM421 646c0 -34 -17 -52 -50 -52c-32 0 -49 17 -49 47
c0 35 16 52 48 52c33 0 51 -17 51 -47zM239 643c0 -32 -17 -49 -50 -49s-49 15 -49 46c0 34 17 53 49 53s50 -18 50 -50z" />
    <glyph glyph-name="Ydieresis" unicode="&#x178;" horiz-adv-x="623" 
d="M623 674l-78 -37l-189 -289v-285l112 -37v-26h-323v26l112 37v258l-198 316l-79 37v26h271v-26l-73 -37l148 -241l146 241l-73 37v26h224v-26zM460 828c0 -34 -17 -52 -50 -52c-32 0 -49 17 -49 47c0 35 16 52 48 52c33 0 51 -17 51 -47zM278 825c0 -32 -17 -49 -50 -49
s-49 15 -49 46c0 34 17 53 49 53s50 -18 50 -50z" />
    <glyph glyph-name="fraction" unicode="&#x2044;" horiz-adv-x="148" 
d="M309 677l-413 -693h-55l413 693h55z" />
    <glyph glyph-name="fraction" unicode="&#x2215;" horiz-adv-x="148" 
d="M309 677l-413 -693h-55l413 693h55z" />
    <glyph glyph-name="guilsinglleft" unicode="&#x2039;" horiz-adv-x="259" 
d="M211 57h-51l-116 199l116 202h51l-118 -202z" />
    <glyph glyph-name="guilsinglright" unicode="&#x203a;" horiz-adv-x="259" 
d="M217 259l-116 -202h-51l118 202l-118 199h51z" />
    <glyph glyph-name="daggerdbl" unicode="&#x2021;" horiz-adv-x="556" 
d="M489 -38l-190 22l31 -213h-104l32 213l-191 -22v88l194 -26l-35 216l35 215l-194 -25v88l191 -22l-32 212h104l-31 -212l190 22v-85l-191 22l32 -215l-32 -216l191 23v-85z" />
    <glyph glyph-name="periodcentered" unicode="&#xb7;" horiz-adv-x="278" 
d="M199 256c0 -34 -27 -61 -60 -61c-34 0 -61 27 -61 61c0 33 27 60 61 60c33 0 60 -27 60 -60z" />
    <glyph glyph-name="periodcentered" unicode="&#x2219;" horiz-adv-x="278" 
d="M199 256c0 -34 -27 -61 -60 -61c-34 0 -61 27 -61 61c0 33 27 60 61 60c33 0 60 -27 60 -60z" />
    <glyph glyph-name="quotesinglbase" unicode="&#x201a;" horiz-adv-x="279" 
d="M210 36c0 -78 -37 -125 -118 -149l-13 33c49 21 64 42 66 90h-13c-41 0 -63 19 -63 53s25 57 63 57c51 0 78 -29 78 -84z" />
    <glyph glyph-name="quotedblbase" unicode="&#x201e;" horiz-adv-x="463" 
d="M393 36c0 -78 -37 -125 -118 -149l-13 33c50 21 64 42 66 90h-13c-41 0 -63 19 -63 53s25 57 63 57c51 0 78 -29 78 -84zM211 36c0 -78 -37 -125 -118 -149l-13 33c49 21 64 42 66 90h-13c-41 0 -63 19 -63 53s25 57 63 57c51 0 78 -29 78 -84z" />
    <glyph glyph-name="perthousand" unicode="&#x2030;" horiz-adv-x="1021" 
d="M336 556c0 -91 -64 -157 -154 -157c-91 0 -152 60 -152 150c0 93 62 155 154 155s152 -58 152 -148zM272 553c0 65 -33 103 -89 103s-89 -39 -89 -106c0 -63 33 -102 87 -102c56 0 91 40 91 105zM609 700l-485 -700h-63l485 700h63zM623 148c0 -91 -64 -157 -154 -157
c-92 0 -152 60 -152 150c0 93 61 155 154 155c92 0 152 -58 152 -148zM559 145c0 65 -33 103 -89 103s-89 -39 -89 -106c0 -63 33 -102 87 -102c56 0 91 40 91 105zM991 149c0 -91 -64 -157 -154 -157c-92 0 -152 60 -152 150c0 93 61 155 154 155c92 0 152 -58 152 -148z
M927 146c0 65 -33 103 -89 103s-89 -39 -89 -106c0 -63 33 -102 87 -102c56 0 91 40 91 105z" />
    <glyph glyph-name="Acircumflex" unicode="&#xc2;" horiz-adv-x="670" 
d="M690 0h-265v26l80 39l-75 216h-221l-80 -216l80 -39v-26h-229v26l80 39l263 640h59l229 -640l79 -39v-26zM413 323l-57 172c-16 48 -19 55 -30 94l-101 -266h188zM524 755h-64l-106 67l-103 -67h-64l167 164z" />
    <glyph glyph-name="Ecircumflex" unicode="&#xca;" horiz-adv-x="586" 
d="M541 161l-16 -161h-500v26l89 37v574l-89 37v26h496v-156h-35l-49 114h-224v-282h189l35 94h32v-229h-32l-35 93h-189v-287h230l63 114h35zM466 755h-64l-106 67l-103 -67h-64l167 164z" />
    <glyph glyph-name="Aacute" unicode="&#xc1;" horiz-adv-x="670" 
d="M690 0h-265v26l80 39l-75 216h-221l-80 -216l80 -39v-26h-229v26l80 39l263 640h59l229 -640l79 -39v-26zM413 323l-57 172c-16 48 -19 55 -30 94l-101 -266h188zM537 906l-200 -151h-53l109 151h144z" />
    <glyph glyph-name="Edieresis" unicode="&#xcb;" horiz-adv-x="586" 
d="M541 161l-16 -161h-500v26l89 37v574l-89 37v26h496v-156h-35l-49 114h-224v-282h189l35 94h32v-229h-32l-35 93h-189v-287h230l63 114h35zM438 828c0 -34 -17 -52 -50 -52c-32 0 -49 17 -49 47c0 35 16 52 48 52c33 0 51 -17 51 -47zM256 825c0 -32 -17 -49 -50 -49
s-49 15 -49 46c0 34 17 53 49 53s50 -18 50 -50z" />
    <glyph glyph-name="Egrave" unicode="&#xc8;" horiz-adv-x="586" 
d="M541 161l-16 -161h-500v26l89 37v574l-89 37v26h496v-156h-35l-49 114h-224v-282h189l35 94h32v-229h-32l-35 93h-189v-287h230l63 114h35zM380 755h-52l-201 151h144z" />
    <glyph glyph-name="Iacute" unicode="&#xcd;" horiz-adv-x="326" 
d="M301 0h-276v26l89 37v574l-89 37v26h276v-26l-88 -37v-574l88 -37v-26zM331 906l-200 -151h-53l109 151h144z" />
    <glyph glyph-name="Icircumflex" unicode="&#xce;" horiz-adv-x="326" 
d="M301 0h-276v26l89 37v574l-89 37v26h276v-26l-88 -37v-574l88 -37v-26zM332 755h-64l-106 67l-103 -67h-64l167 164z" />
    <glyph glyph-name="Idieresis" unicode="&#xcf;" horiz-adv-x="326" 
d="M301 0h-276v26l89 37v574l-89 37v26h276v-26l-88 -37v-574l88 -37v-26zM302 828c0 -34 -17 -52 -50 -52c-32 0 -49 17 -49 47c0 35 16 52 48 52c33 0 51 -17 51 -47zM120 825c0 -32 -17 -49 -50 -49s-49 15 -49 46c0 34 17 53 49 53s50 -18 50 -50z" />
    <glyph glyph-name="Igrave" unicode="&#xcc;" horiz-adv-x="326" 
d="M301 0h-276v26l89 37v574l-89 37v26h276v-26l-88 -37v-574l88 -37v-26zM244 755h-52l-201 151h144z" />
    <glyph glyph-name="Oacute" unicode="&#xd3;" horiz-adv-x="728" 
d="M688 360c0 -222 -137 -376 -335 -376c-189 0 -313 136 -313 344c0 202 117 382 332 382c206 0 316 -154 316 -350zM579 344c0 139 -50 319 -219 319c-167 0 -211 -174 -211 -311c0 -197 83 -321 216 -321c131 0 214 121 214 313zM535 906l-200 -151h-53l109 151h144z" />
    <glyph glyph-name="Ocircumflex" unicode="&#xd4;" horiz-adv-x="728" 
d="M688 360c0 -222 -137 -376 -335 -376c-189 0 -313 136 -313 344c0 202 117 382 332 382c206 0 316 -154 316 -350zM579 344c0 139 -50 319 -219 319c-167 0 -211 -174 -211 -311c0 -197 83 -321 216 -321c131 0 214 121 214 313zM543 755h-64l-106 67l-103 -67h-64
l167 164z" />
    <glyph glyph-name="apple" unicode="&#xf000;" horiz-adv-x="681" 
d="M624 402l-116 6s-34 -8 -58 -12c-30 -5 -63 -10 -93 -12c-1 -14 -3 -39 -3 -53c0 -38 6 -82 16 -129c5 -21 11 -44 18 -68c31 -103 79 -196 157 -352l7 -14c-14 7 -24 12 -27 14c-49 29 -120 98 -176 171c-41 54 -78 117 -110 190c-33 76 -48 131 -47 183s1 33 1 58
c-21 3 -39 8 -59 15c-7 2 -11 3 -14 4l-13 2c22 53 55 68 107 81c34 67 64 112 107 160c33 36 58 56 96 75c31 16 47 22 89 35l-9 -12c-32 -43 -45 -57 -67 -93c-33 -56 -55 -107 -67 -159c59 -8 174 -19 174 -19l67 -3c-7 -7 -21 -16 -68 -22l8 -2c63 -16 73 -35 80 -44z
" />
    <glyph glyph-name="apple" unicode="&#xf8ff;" horiz-adv-x="681" 
d="M624 402l-116 6s-34 -8 -58 -12c-30 -5 -63 -10 -93 -12c-1 -14 -3 -39 -3 -53c0 -38 6 -82 16 -129c5 -21 11 -44 18 -68c31 -103 79 -196 157 -352l7 -14c-14 7 -24 12 -27 14c-49 29 -120 98 -176 171c-41 54 -78 117 -110 190c-33 76 -48 131 -47 183s1 33 1 58
c-21 3 -39 8 -59 15c-7 2 -11 3 -14 4l-13 2c22 53 55 68 107 81c34 67 64 112 107 160c33 36 58 56 96 75c31 16 47 22 89 35l-9 -12c-32 -43 -45 -57 -67 -93c-33 -56 -55 -107 -67 -159c59 -8 174 -19 174 -19l67 -3c-7 -7 -21 -16 -68 -22l8 -2c63 -16 73 -35 80 -44z
" />
    <glyph glyph-name="Ograve" unicode="&#xd2;" horiz-adv-x="728" 
d="M688 360c0 -222 -137 -376 -335 -376c-189 0 -313 136 -313 344c0 202 117 382 332 382c206 0 316 -154 316 -350zM579 344c0 139 -50 319 -219 319c-167 0 -211 -174 -211 -311c0 -197 83 -321 216 -321c131 0 214 121 214 313zM442 755h-52l-201 151h144z" />
    <glyph glyph-name="Uacute" unicode="&#xda;" horiz-adv-x="695" 
d="M700 674l-89 -37v-396c0 -181 -101 -251 -270 -251c-177 0 -258 70 -258 224v423l-88 37v26h276v-26l-89 -37v-415c0 -124 55 -181 176 -181c128 0 185 55 185 176v420l-88 37v26h245v-26zM515 904l-200 -151h-53l109 151h144z" />
    <glyph glyph-name="Ucircumflex" unicode="&#xdb;" horiz-adv-x="695" 
d="M700 674l-89 -37v-396c0 -181 -101 -251 -270 -251c-177 0 -258 70 -258 224v423l-88 37v26h276v-26l-89 -37v-415c0 -124 55 -181 176 -181c128 0 185 55 185 176v420l-88 37v26h245v-26zM532 755h-64l-106 67l-103 -67h-64l167 164z" />
    <glyph glyph-name="Ugrave" unicode="&#xd9;" horiz-adv-x="695" 
d="M700 674l-89 -37v-396c0 -181 -101 -251 -270 -251c-177 0 -258 70 -258 224v423l-88 37v26h276v-26l-89 -37v-415c0 -124 55 -181 176 -181c128 0 185 55 185 176v420l-88 37v26h245v-26zM436 755h-52l-201 151h144z" />
    <glyph glyph-name="dotlessi" unicode="&#x131;" horiz-adv-x="311" 
d="M296 0h-271v26l89 37v360l-89 27v23l183 40v-450l88 -37v-26z" />
    <glyph glyph-name="circumflex" unicode="&#x2c6;" horiz-adv-x="277" 
d="M307 573h-64l-106 67l-103 -67h-64l167 164z" />
    <glyph glyph-name="tilde" unicode="&#x2dc;" horiz-adv-x="278" 
d="M313 694c-19 -25 -48 -65 -71 -83c-13 -10 -26 -14 -38 -14c-10 0 -17 0 -44 14l-73 38c-10 5 -22 10 -29 10c-12 0 -36 -19 -72 -53l-22 23c19 25 48 65 71 83c13 10 26 14 38 14c10 0 17 0 44 -14l73 -38c10 -5 22 -10 29 -10c12 0 28 12 72 53z" />
    <glyph glyph-name="macron" unicode="&#xaf;" horiz-adv-x="278" 
d="M275 615h-271v62h271v-62z" />
    <glyph glyph-name="macron" unicode="&#x2c9;" horiz-adv-x="278" 
d="M275 615h-271v62h271v-62z" />
    <glyph glyph-name="breve" unicode="&#x2d8;" horiz-adv-x="278" 
d="M309 692c-19 -25 -32 -40 -56 -60c-43 -37 -72 -49 -114 -49c-58 0 -112 34 -170 109l25 22c73 -51 100 -63 144 -63c43 0 86 19 145 63z" />
    <glyph glyph-name="dotaccent" unicode="&#x2d9;" horiz-adv-x="278" 
d="M188 643c0 -32 -17 -49 -50 -49s-49 15 -49 46c0 34 17 53 49 53s50 -18 50 -50z" />
    <glyph glyph-name="ring" unicode="&#x2da;" horiz-adv-x="278" 
d="M252 654c0 -53 -39 -81 -112 -81s-112 28 -112 81s38 80 112 80c73 0 112 -28 112 -80zM204 654c0 29 -27 50 -65 50c-37 0 -63 -22 -63 -51c0 -30 26 -50 65 -50s63 20 63 51z" />
    <glyph glyph-name="cedilla" unicode="&#xb8;" horiz-adv-x="278" 
d="M219 -115c0 -51 -54 -94 -152 -119l-10 24c61 31 89 62 89 99c0 28 -17 47 -42 47v64h42v-35c50 -3 73 -32 73 -80z" />
    <glyph glyph-name="hungarumlaut" unicode="&#x2dd;" horiz-adv-x="278" 
d="M293 713l-119 -140h-40l69 140h90zM144 713l-119 -140h-38l69 140h88z" />
    <glyph glyph-name="ogonek" unicode="&#x2db;" horiz-adv-x="279" 
d="M211 -159l-6 -32c-91 4 -136 34 -136 93c0 72 66 93 125 98c-39 -25 -57 -52 -57 -88c0 -40 23 -62 74 -71z" />
    <glyph glyph-name="caron" unicode="&#x2c7;" horiz-adv-x="277" 
d="M307 736l-167 -164l-170 164h64l106 -67l103 67h64z" />
    <glyph glyph-name="Eth" unicode="&#xd0;" horiz-adv-x="728" 
d="M688 366c0 -127 -46 -233 -130 -299c-60 -46 -133 -67 -236 -67h-297v26l89 37v327h-100v48h100v199l-89 37v26h313c134 0 205 -25 267 -95c56 -62 83 -142 83 -239zM584 358c0 84 -20 152 -59 206c-46 63 -105 89 -199 89h-113v-215h101v-48h-101v-343h100
c89 0 139 19 189 72c57 59 82 133 82 239z" />
    <glyph glyph-name=".null" horiz-adv-x="0" 
 />
    <glyph glyph-name="HT" unicode="&#x9;" horiz-adv-x="275" 
 />
    <glyph glyph-name="CR" unicode="&#xd;" horiz-adv-x="275" 
 />
    <glyph glyph-name="softhyphen" unicode="&#xad;" horiz-adv-x="250" 
d="M240 229h-230v83h230v-83z" />
    <glyph glyph-name="currency" unicode="&#xa4;" horiz-adv-x="667" 
d="M610 122l-37 -38l-95 94c-43 -33 -89 -52 -144 -52c-56 0 -99 19 -144 51l-93 -94l-38 38l93 94c-33 42 -52 89 -52 143c0 56 18 98 51 142l-94 94l38 38l94 -94c45 34 88 52 145 52c56 0 99 -18 143 -51l94 92l38 -37l-93 -94c32 -44 51 -87 51 -142
c0 -56 -18 -98 -51 -142zM505 358c0 95 -77 172 -172 172s-171 -78 -171 -172s76 -172 171 -172s172 77 172 172z" />
    <glyph glyph-name="Euro" unicode="&#x20ac;" horiz-adv-x="722" 
d="M528 359h-286c0 -10 -1 -20 -1 -31v-10h270l-22 -50h-244c13 -89 54 -174 144 -206c41 -14 83 -18 125 -18c29 0 58 2 86 5l63 125h34l-13 -149c-69 -20 -136 -35 -209 -35c-98 0 -183 13 -252 89c-48 54 -73 119 -80 189h-122l22 50h98c0 14 1 27 3 41h-124l21 50h111
c25 112 94 211 211 248c47 15 95 20 143 20c63 0 124 -8 184 -23v-151h-36l-47 125c-26 4 -54 5 -81 5c-163 0 -254 -85 -278 -224h301z" />
    <glyph glyph-name="zero.osfprop" horiz-adv-x="549" 
d="M509 257c0 -166 -99 -271 -239 -271s-230 98 -230 259c0 158 90 271 238 271c139 0 231 -98 231 -259zM405 240c0 148 -43 229 -137 229c-77 0 -124 -80 -124 -217c0 -133 49 -219 136 -219c75 0 125 79 125 207z" />
    <glyph glyph-name="one.osfprop" horiz-adv-x="437" 
d="M412 0h-319v26l109 36v333l-182 -36v30c74 23 193 75 250 127h31v-454l111 -36v-26z" />
    <glyph glyph-name="two.osfprop" horiz-adv-x="516" 
d="M466 177l-15 -177h-406v37c93 69 137 107 187 157c60 61 89 114 89 166c0 66 -46 106 -116 106c-15 0 -28 -1 -49 -4l-48 -123h-37v145s38 10 56 15c45 11 86 17 119 17c105 0 184 -63 184 -147c0 -66 -33 -114 -147 -201c-43 -33 -85 -65 -129 -95h222l54 104h36z" />
    <glyph glyph-name="three.osfprop" horiz-adv-x="528" 
d="M488 31c0 -116 -105 -192 -265 -192c-31 0 -55 2 -94 11c-41 9 -79 23 -79 23v148h37l50 -126c20 -3 34 -4 63 -4c88 0 179 34 179 139c0 84 -57 137 -148 137h-35v47h42c57 0 120 44 120 132c0 79 -46 121 -133 121c-24 0 -61 -2 -80 -5l-48 -123h-37v145s34 9 70 16
c62 12 90 16 128 16c130 0 209 -58 209 -154c0 -83 -62 -145 -167 -168c75 -4 188 -44 188 -163z" />
    <glyph glyph-name="four.osfprop" horiz-adv-x="540" 
d="M525 0h-99v-156h-88v156h-323v34l369 482h42v-448h99v-68zM338 68v315l-232 -315h232z" />
    <glyph glyph-name="five.osfprop" horiz-adv-x="532" 
d="M482 76c0 -140 -106 -237 -257 -237c-31 0 -61 5 -90 11c-27 5 -80 23 -80 23v148h36l51 -125c25 -3 46 -5 65 -5c105 0 171 63 171 164s-68 158 -189 158c-43 0 -79 -5 -116 -16v308h388v-89h-331v-153c52 14 74 18 110 18c150 0 242 -78 242 -205z" />
    <glyph glyph-name="six.osfprop" horiz-adv-x="554" 
d="M514 204c0 -132 -91 -220 -226 -220c-155 0 -243 106 -243 294c0 240 135 394 344 394c47 0 90 -6 120 -16l-6 -40c-19 3 -30 4 -51 4c-175 0 -278 -82 -293 -253c56 24 102 34 155 34c121 0 200 -77 200 -197zM410 193c0 96 -52 151 -143 151c-38 0 -112 -16 -112 -16
s-1 -21 -1 -35c0 -94 1 -262 134 -262c76 0 122 60 122 162z" />
    <glyph glyph-name="seven.osfprop" horiz-adv-x="508" 
d="M488 462c-93 -211 -186 -420 -292 -628h-99c115 192 218 385 316 588h-291l-47 -120h-40v203h453v-43z" />
    <glyph glyph-name="eight.osfprop" horiz-adv-x="538" 
d="M493 180c0 -118 -93 -196 -234 -196c-102 0 -214 57 -214 173c0 77 56 138 160 175l-18 10c-81 45 -111 89 -111 158c0 102 81 172 197 172c115 0 189 -58 189 -148c0 -68 -38 -114 -125 -152l36 -20c81 -45 120 -99 120 -172zM374 517c0 68 -41 113 -102 113
c-63 0 -107 -41 -107 -99c0 -46 26 -81 83 -111l53 -28c49 37 73 79 73 125zM404 151c0 48 -21 77 -86 115l-75 44c-77 -43 -110 -90 -110 -154c0 -77 62 -120 135 -120c82 0 136 45 136 115z" />
    <glyph glyph-name="nine.osfprop" horiz-adv-x="554" 
d="M509 213c0 -211 -119 -379 -342 -379c-44 0 -85 5 -122 13l4 40c36 -1 46 -1 58 -1c168 0 267 84 287 245c-45 -21 -100 -32 -154 -32c-122 0 -200 76 -200 196c0 132 92 221 229 221c179 0 240 -147 240 -303zM400 232c0 91 -11 237 -133 237c-75 0 -123 -63 -123 -162
c0 -95 52 -151 140 -151c39 0 75 7 112 15c3 26 4 40 4 61z" />
    <glyph glyph-name="lslash.smcp" horiz-adv-x="437" 
d="M433 151l-15 -151h-405v34l77 28v207l-87 -38v59l87 37v157l-77 28v34h252v-34l-76 -28v-112l81 35v-58l-81 -35v-261h146l57 98h41z" />
    <glyph glyph-name="scaron.smcp" horiz-adv-x="423" 
d="M409 139c0 -91 -73 -149 -187 -149c-37 0 -84 8 -162 26v129h37l39 -104c33 -7 45 -9 68 -9c69 0 106 34 106 90c0 36 -14 53 -68 87l-81 51c-55 34 -96 64 -96 134c0 87 67 143 171 143c52 0 103 -9 152 -18v-130h-36l-40 103c-28 4 -40 3 -57 3
c-70 0 -107 -30 -107 -77c0 -42 34 -58 65 -78l87 -55c61 -39 109 -65 109 -146zM388 736l-167 -164l-170 164h64l106 -67l103 67h64z" />
    <glyph glyph-name="yacute.smcp" horiz-adv-x="516" 
d="M526 497l-64 -26l-151 -211v-200l87 -31v-29h-268v29l87 31v180l-150 231l-67 26v27h229v-28l-55 -26l113 -174l109 174l-53 26v28h183v-27zM452 724l-200 -151h-53l109 151h144z" />
    <glyph glyph-name="thorn.smcp" horiz-adv-x="487" 
d="M472 311c0 -94 -83 -159 -203 -159h-52v-97l88 -31v-24h-260v24l78 31v416l-88 31v24h260v-24l-78 -31v-12h55c102 0 200 -27 200 -148zM373 307c0 79 -33 110 -105 110h-51v-223h33c84 0 123 32 123 113z" />
    <glyph glyph-name="zcaron.smcp" horiz-adv-x="496" 
d="M454 148l-13 -148h-396v36l285 443h-191l-40 -90h-33v137h387v-31l-291 -443h206l54 96h32zM430 746l-167 -164l-170 164h64l106 -67l103 67h64z" />
    <glyph glyph-name="a.smcp" horiz-adv-x="587" 
d="M587 0h-240v29l63 31l-50 140h-173l-53 -140l62 -31v-29h-196v29l72 31l205 471h60l178 -471l72 -31v-29zM348 242c-23 63 -44 127 -68 190l-76 -190h144z" />
    <glyph glyph-name="b.smcp" horiz-adv-x="537" 
d="M492 137c0 -107 -99 -137 -189 -137h-258v29l82 30v408l-82 30v29h249c82 0 177 -20 177 -123c0 -72 -53 -108 -113 -128c74 -20 134 -51 134 -138zM372 390c0 63 -33 94 -97 94h-54v-195h53c59 0 98 39 98 101zM393 143c0 66 -46 104 -119 104h-53v-205h61
c69 0 111 34 111 101z" />
    <glyph glyph-name="c.smcp" horiz-adv-x="554" 
d="M509 148l-11 -128c-22 -7 -45 -12 -68 -16c-35 -6 -71 -9 -107 -9c-166 0 -278 78 -278 254c0 191 125 288 307 288c54 0 109 -9 151 -18v-130h-36l-40 104c-26 1 -39 2 -56 2c-152 0 -222 -81 -222 -234c0 -238 186 -218 225 -218c13 0 30 2 49 5l50 100h36z" />
    <glyph glyph-name="d.smcp" horiz-adv-x="641" 
d="M596 275c0 -185 -121 -275 -294 -275h-257v29l82 31v406l-82 31v29h270c165 0 281 -73 281 -251zM492 269c0 122 -56 210 -187 210h-84v-432h74c136 0 197 92 197 222z" />
    <glyph glyph-name="e.smcp" horiz-adv-x="525" 
d="M475 136l-12 -136h-418v29l82 31v407l-82 30v29h415v-126h-32l-38 84h-169v-195h138l28 68h32v-178h-32l-28 68h-138v-200h172l50 89h32z" />
    <glyph glyph-name="f.smcp" horiz-adv-x="485" 
d="M440 405h-33l-34 79h-152v-195h121l29 68h32v-178h-32l-29 68h-121v-187l95 -31v-29h-271v29l82 31v407l-82 30v29h395v-121z" />
    <glyph glyph-name="g.smcp" horiz-adv-x="600" 
d="M580 190l-72 -31v-137c-25 -7 -50 -13 -76 -17c-37 -6 -75 -10 -109 -10c-168 0 -278 85 -278 260c0 194 130 282 311 282c50 0 110 -9 152 -18v-130h-36l-40 104c-26 2 -40 2 -59 2c-153 0 -224 -80 -224 -236c0 -138 72 -218 198 -218c24 0 41 1 72 6v112l-81 31v29
h242v-29z" />
    <glyph glyph-name="h.smcp" horiz-adv-x="686" 
d="M641 0h-248v29l72 31v191h-244v-191l73 -31v-29h-249v29l82 31v406l-82 31v29h249v-29l-73 -31v-167h244v167l-72 31v29h248v-29l-82 -31v-406l82 -31v-29z" />
    <glyph glyph-name="i.smcp" horiz-adv-x="348" 
d="M303 0h-258v29l82 31v406l-82 31v29h258v-29l-82 -31v-406l82 -31v-29z" />
    <glyph glyph-name="j.smcp" horiz-adv-x="348" 
d="M308 526v-29l-82 -31v-474c0 -79 -18 -124 -68 -169c-41 -37 -84 -52 -143 -52c-24 0 -51 2 -70 5v99h66l33 -65c64 17 88 56 88 141v515l-82 31v29h258z" />
    <glyph glyph-name="k.smcp" horiz-adv-x="596" 
d="M591 0h-142l-207 280l187 187l-52 30v29h198v-29l-72 -30l-171 -156l190 -251l69 -31v-29zM299 0h-254v29l82 31v406l-82 31v29h254v-29l-78 -31v-406l78 -31v-29z" />
    <glyph glyph-name="l.smcp" horiz-adv-x="452" 
d="M442 146l-13 -146h-384v29l82 31v406l-82 31v29h266v-29l-90 -31v-419h137l52 99h32z" />
    <glyph glyph-name="m.smcp" horiz-adv-x="785" 
d="M740 0h-243v29l72 31v353l-186 -418h-17l-182 428v-363l73 -31v-29h-212v29l82 31v406l-82 31v29h190l157 -379l164 379h184v-29l-82 -31v-406l82 -31v-29z" />
    <glyph glyph-name="n.smcp" horiz-adv-x="671" 
d="M631 497l-82 -31v-471h-42l-323 421v-356l82 -31v-29h-221v29l82 31v406l-82 31v29h162l285 -370v310l-82 31v29h221v-29z" />
    <glyph glyph-name="o.smcp" horiz-adv-x="616" 
d="M571 273c0 -167 -111 -283 -271 -283c-154 0 -255 103 -255 259c0 163 102 288 269 288c159 0 257 -107 257 -264zM467 261c0 107 -33 234 -162 234c-98 0 -156 -75 -156 -228c0 -162 61 -235 160 -235c96 0 158 84 158 229z" />
    <glyph glyph-name="p.smcp" horiz-adv-x="496" 
d="M476 378c0 -94 -83 -159 -203 -159h-52v-158l97 -31v-30h-273v30l82 31v405l-82 30v30h231c102 0 200 -27 200 -148zM377 374c0 79 -33 110 -105 110h-51v-223h33c84 0 123 32 123 113z" />
    <glyph glyph-name="q.smcp" horiz-adv-x="621" 
d="M726 -88c-82 -62 -107 -73 -140 -73c-53 0 -134 47 -182 71c-33 17 -41 21 -142 81c-143 23 -217 109 -217 261c0 163 109 284 273 284c153 0 253 -104 253 -263c0 -132 -72 -233 -191 -269c55 -22 211 -86 259 -86c15 0 36 5 77 19zM467 261c0 107 -33 234 -162 234
c-98 0 -156 -75 -156 -228c0 -162 61 -235 160 -235c96 0 158 84 158 229z" />
    <glyph glyph-name="r.smcp" horiz-adv-x="567" 
d="M567 0h-132l-184 250h-30v-190l78 -31v-29h-254v29l82 31v407l-82 30v29h253c84 0 175 -19 175 -124c0 -77 -44 -121 -125 -138l157 -204l62 -31v-29zM374 391c0 66 -31 93 -94 93h-59v-192h58c59 0 95 33 95 99z" />
    <glyph glyph-name="s.smcp" horiz-adv-x="469" 
d="M409 139c0 -91 -73 -149 -187 -149c-37 0 -84 8 -162 26v129h37l39 -104c33 -7 45 -9 68 -9c69 0 106 34 106 90c0 36 -14 53 -68 87l-81 51c-55 34 -96 64 -96 134c0 87 67 143 171 143c52 0 103 -9 152 -18v-130h-36l-40 103c-28 4 -40 3 -57 3
c-70 0 -107 -30 -107 -77c0 -42 34 -58 65 -78l87 -55c61 -39 109 -65 109 -146z" />
    <glyph glyph-name="t.smcp" horiz-adv-x="499" 
d="M484 389h-32l-36 90h-120v-419l87 -31v-29h-268v29l87 31v419h-114l-40 -90h-33v137h469v-137z" />
    <glyph glyph-name="u.smcp" horiz-adv-x="646" 
d="M616 497l-82 -31v-287c0 -145 -81 -189 -212 -189c-146 0 -210 51 -210 169v313l-82 25v29h254v-29l-78 -31v-301c0 -89 44 -133 133 -133c90 0 129 42 129 129v305l-79 31v29h227v-29z" />
    <glyph glyph-name="v.smcp" horiz-adv-x="570" 
d="M570 497l-69 -31l-202 -471h-50l-182 471l-67 31v29h232v-29l-63 -31l129 -363l142 363l-62 31v29h192v-29z" />
    <glyph glyph-name="w.smcp" horiz-adv-x="852" 
d="M852 497l-65 -31l-181 -471h-49l-133 385l-145 -385h-52l-160 471l-67 31v29h227v-29l-61 -31l111 -337l149 397h41l141 -402l114 342l-67 31v29h197v-29z" />
    <glyph glyph-name="x.smcp" horiz-adv-x="567" 
d="M547 0h-230v29l55 31l-106 160l-110 -160l57 -31v-29h-193v29l68 31l150 204l-133 202l-68 31v29h221v-29l-47 -31l91 -137l91 137l-52 31v29h185v-29l-68 -31l-130 -176l151 -230l68 -31v-29z" />
    <glyph glyph-name="y.smcp" horiz-adv-x="526" 
d="M526 499l-64 -26l-151 -211v-202l87 -31v-29h-268v29l87 31v182l-150 231l-67 26v27h229v-28l-55 -26l113 -174l109 174l-53 26v28h183v-27z" />
    <glyph glyph-name="z.smcp" horiz-adv-x="499" 
d="M454 148l-13 -148h-396v36l285 443h-191l-40 -90h-33v137h387v-31l-291 -443h206l54 96h32z" />
    <glyph glyph-name="aacute.smcp" horiz-adv-x="587" 
d="M587 0h-240v29l63 31l-50 140h-173l-53 -140l62 -31v-29h-196v29l72 31l205 471h60l178 -471l72 -31v-29zM348 242c-23 63 -44 127 -68 190l-76 -190h144zM460 744l-200 -151h-53l109 151h144z" />
    <glyph glyph-name="agrave.smcp" horiz-adv-x="587" 
d="M402 593h-52l-201 151h144zM587 0h-240v29l63 31l-50 140h-173l-53 -140l62 -31v-29h-196v29l72 31l205 471h60l178 -471l72 -31v-29zM348 242c-23 63 -44 127 -68 190l-76 -190h144z" />
    <glyph glyph-name="acircumflex.smcp" horiz-adv-x="587" 
d="M471 593h-64l-106 67l-103 -67h-64l167 164zM587 0h-240v29l63 31l-50 140h-173l-53 -140l62 -31v-29h-196v29l72 31l205 471h60l178 -471l72 -31v-29zM348 242c-23 63 -44 127 -68 190l-76 -190h144z" />
    <glyph glyph-name="adieresis.smcp" horiz-adv-x="587" 
d="M587 0h-240v29l63 31l-50 140h-173l-53 -140l62 -31v-29h-196v29l72 31l205 471h60l178 -471l72 -31v-29zM348 242c-23 63 -44 127 -68 190l-76 -190h144zM262 663c0 -32 -17 -49 -50 -49s-49 15 -49 46c0 34 17 53 49 53s50 -18 50 -50zM444 666c0 -34 -17 -52 -50 -52
c-32 0 -49 17 -49 47c0 35 16 52 48 52c33 0 51 -17 51 -47z" />
    <glyph glyph-name="atilde.smcp" horiz-adv-x="587" 
d="M484 714c-19 -25 -48 -65 -71 -83c-12 -10 -26 -14 -38 -14c-10 0 -16 0 -44 14l-73 38c-9 5 -22 10 -29 10c-12 0 -36 -19 -72 -53l-22 23c19 25 49 65 71 83c13 10 26 14 38 14c10 0 17 0 44 -14l73 -38c10 -5 22 -10 29 -10c12 0 28 12 72 53zM587 0h-240v29l63 31
l-50 140h-173l-53 -140l62 -31v-29h-196v29l72 31l205 471h60l178 -471l72 -31v-29zM348 242c-23 63 -44 127 -68 190l-76 -190h144z" />
    <glyph glyph-name="aring.smcp" horiz-adv-x="587" 
d="M587 0h-240v29l63 31l-50 140h-173l-53 -140l62 -31v-29h-196v29l72 31l205 471h60l178 -471l72 -31v-29zM348 242c-23 63 -44 127 -68 190l-76 -190h144zM419 674c0 -53 -39 -81 -112 -81s-112 28 -112 81s38 80 112 80c73 0 112 -28 112 -80zM371 674
c0 29 -27 50 -65 50c-37 0 -63 -22 -63 -51c0 -30 26 -50 65 -50s63 20 63 51z" />
    <glyph glyph-name="ccedilla.smcp" horiz-adv-x="554" 
d="M417 -115c0 -51 -54 -94 -152 -119l-10 24c61 31 89 62 89 99c0 28 -17 47 -42 47v59c-155 7 -257 86 -257 254c0 191 125 288 307 288c54 0 109 -9 151 -18v-130h-36l-40 104c-26 1 -39 2 -56 2c-152 0 -222 -81 -222 -234c0 -238 186 -218 225 -218c13 0 30 2 49 5
l50 100h36l-11 -128c-22 -7 -45 -12 -68 -16c-29 -5 -57 -8 -86 -9v-30c50 -3 73 -32 73 -80z" />
    <glyph glyph-name="eacute.smcp" horiz-adv-x="525" 
d="M475 136l-12 -136h-418v29l82 31v407l-82 30v29h415v-126h-32l-38 84h-169v-195h138l28 68h32v-178h-32l-28 68h-138v-200h172l50 89h32zM445 744l-200 -151h-53l109 151h144z" />
    <glyph glyph-name="egrave.smcp" horiz-adv-x="525" 
d="M354 593h-52l-201 151h144zM475 136l-12 -136h-418v29l82 31v407l-82 30v29h415v-126h-32l-38 84h-169v-195h138l28 68h32v-178h-32l-28 68h-138v-200h172l50 89h32z" />
    <glyph glyph-name="ecircumflex.smcp" horiz-adv-x="525" 
d="M475 136l-12 -136h-418v29l82 31v407l-82 30v29h415v-126h-32l-38 84h-169v-195h138l28 68h32v-178h-32l-28 68h-138v-200h172l50 89h32zM438 593h-64l-106 67l-103 -67h-64l167 164z" />
    <glyph glyph-name="edieresis.smcp" horiz-adv-x="525" 
d="M475 136l-12 -136h-418v29l82 31v407l-82 30v29h415v-126h-32l-38 84h-169v-195h138l28 68h32v-178h-32l-28 68h-138v-200h172l50 89h32zM237 663c0 -32 -17 -49 -50 -49s-49 15 -49 46c0 34 17 53 49 53s50 -18 50 -50zM419 666c0 -34 -17 -52 -50 -52
c-32 0 -49 17 -49 47c0 35 16 52 48 52c33 0 51 -17 51 -47z" />
    <glyph glyph-name="iacute.smcp" horiz-adv-x="348" 
d="M303 0h-258v29l82 31v406l-82 31v29h258v-29l-82 -31v-406l82 -31v-29zM318 744l-200 -151h-53l109 151h144z" />
    <glyph glyph-name="igrave.smcp" horiz-adv-x="348" 
d="M303 0h-258v29l82 31v406l-82 31v29h258v-29l-82 -31v-406l82 -31v-29zM283 593h-52l-201 151h144z" />
    <glyph glyph-name="icircumflex.smcp" horiz-adv-x="348" 
d="M303 0h-258v29l82 31v406l-82 31v29h258v-29l-82 -31v-406l82 -31v-29zM345 593h-64l-106 67l-103 -67h-64l167 164z" />
    <glyph glyph-name="idieresis.smcp" horiz-adv-x="348" 
d="M303 0h-258v29l82 31v406l-82 31v29h258v-29l-82 -31v-406l82 -31v-29zM315 666c0 -34 -17 -52 -50 -52c-32 0 -49 17 -49 47c0 35 16 52 48 52c33 0 51 -17 51 -47zM133 663c0 -32 -17 -49 -50 -49s-49 15 -49 46c0 34 17 53 49 53s50 -18 50 -50z" />
    <glyph glyph-name="ntilde.smcp" horiz-adv-x="671" 
d="M512 714c-19 -25 -48 -65 -71 -83c-13 -10 -26 -14 -38 -14c-10 0 -17 0 -44 14l-73 38c-10 5 -22 10 -29 10c-12 0 -36 -19 -72 -53l-22 23c19 25 48 65 71 83c13 10 26 14 38 14c10 0 17 0 44 -14l73 -38c10 -5 22 -10 29 -10c12 0 28 12 72 53zM631 497l-82 -31v-471
h-42l-323 421v-356l82 -31v-29h-221v29l82 31v406l-82 31v29h162l285 -370v310l-82 31v29h221v-29z" />
    <glyph glyph-name="oacute.smcp" horiz-adv-x="616" 
d="M571 273c0 -167 -111 -283 -271 -283c-154 0 -255 103 -255 259c0 163 102 288 269 288c159 0 257 -107 257 -264zM467 261c0 107 -33 234 -162 234c-98 0 -156 -75 -156 -228c0 -162 61 -235 160 -235c96 0 158 84 158 229zM471 744l-200 -151h-53l109 151h144z" />
    <glyph glyph-name="ograve.smcp" horiz-adv-x="616" 
d="M383 593h-52l-201 151h144zM571 273c0 -167 -111 -283 -271 -283c-154 0 -255 103 -255 259c0 163 102 288 269 288c159 0 257 -107 257 -264zM467 261c0 107 -33 234 -162 234c-98 0 -156 -75 -156 -228c0 -162 61 -235 160 -235c96 0 158 84 158 229z" />
    <glyph glyph-name="ocircumflex.smcp" horiz-adv-x="616" 
d="M476 593h-64l-106 67l-103 -67h-64l167 164zM571 273c0 -167 -111 -283 -271 -283c-154 0 -255 103 -255 259c0 163 102 288 269 288c159 0 257 -107 257 -264zM467 261c0 107 -33 234 -162 234c-98 0 -156 -75 -156 -228c0 -162 61 -235 160 -235c96 0 158 84 158 229z
" />
    <glyph glyph-name="odieresis.smcp" horiz-adv-x="616" 
d="M571 273c0 -167 -111 -283 -271 -283c-154 0 -255 103 -255 259c0 163 102 288 269 288c159 0 257 -107 257 -264zM467 261c0 107 -33 234 -162 234c-98 0 -156 -75 -156 -228c0 -162 61 -235 160 -235c96 0 158 84 158 229zM266 663c0 -32 -17 -49 -50 -49
s-49 15 -49 46c0 34 17 53 49 53s50 -18 50 -50zM448 666c0 -34 -17 -52 -50 -52c-32 0 -49 17 -49 47c0 35 16 52 48 52c33 0 51 -17 51 -47z" />
    <glyph glyph-name="otilde.smcp" horiz-adv-x="616" 
d="M476 714c-19 -25 -48 -65 -71 -83c-13 -10 -26 -14 -38 -14c-10 0 -16 0 -44 14l-73 38c-10 5 -22 10 -29 10c-12 0 -36 -19 -72 -53l-22 23c19 25 49 65 71 83c13 10 26 14 38 14c10 0 17 0 44 -14l73 -38c10 -5 22 -10 29 -10c12 0 28 12 72 53zM571 273
c0 -167 -111 -283 -271 -283c-154 0 -255 103 -255 259c0 163 102 288 269 288c159 0 257 -107 257 -264zM467 261c0 107 -33 234 -162 234c-98 0 -156 -75 -156 -228c0 -162 61 -235 160 -235c96 0 158 84 158 229z" />
    <glyph glyph-name="uacute.smcp" horiz-adv-x="646" 
d="M616 497l-82 -31v-287c0 -145 -81 -189 -212 -189c-146 0 -210 51 -210 169v313l-82 25v29h254v-29l-78 -31v-301c0 -89 44 -133 133 -133c90 0 129 42 129 129v305l-79 31v29h227v-29zM477 734l-200 -151h-53l109 151h144z" />
    <glyph glyph-name="ugrave.smcp" horiz-adv-x="646" 
d="M409 583h-52l-201 151h144zM616 497l-82 -31v-287c0 -145 -81 -189 -212 -189c-146 0 -210 51 -210 169v313l-82 25v29h254v-29l-78 -31v-301c0 -89 44 -133 133 -133c90 0 129 42 129 129v305l-79 31v29h227v-29z" />
    <glyph glyph-name="ucircumflex.smcp" horiz-adv-x="646" 
d="M496 583h-64l-106 67l-103 -67h-64l167 164zM616 497l-82 -31v-287c0 -145 -81 -189 -212 -189c-146 0 -210 51 -210 169v313l-82 25v29h254v-29l-78 -31v-301c0 -89 44 -133 133 -133c90 0 129 42 129 129v305l-79 31v29h227v-29z" />
    <glyph glyph-name="udieresis.smcp" horiz-adv-x="646" 
d="M616 497l-82 -31v-287c0 -145 -81 -189 -212 -189c-146 0 -210 51 -210 169v313l-82 25v29h254v-29l-78 -31v-301c0 -89 44 -133 133 -133c90 0 129 42 129 129v305l-79 31v29h227v-29zM291 653c0 -32 -17 -49 -50 -49s-49 15 -49 46c0 34 17 53 49 53s50 -18 50 -50z
M473 656c0 -34 -17 -52 -50 -52c-32 0 -49 17 -49 47c0 35 16 52 48 52c33 0 51 -17 51 -47z" />
    <glyph glyph-name="germandbls.smcp" horiz-adv-x="938" 
d="M409 139c0 -91 -73 -149 -187 -149c-37 0 -84 8 -162 26v129h37l39 -104c33 -7 45 -9 68 -9c69 0 106 34 106 90c0 36 -14 53 -68 87l-81 51c-55 34 -96 64 -96 134c0 87 67 143 171 143c52 0 103 -9 152 -18v-130h-36l-40 103c-28 4 -40 3 -57 3
c-70 0 -107 -30 -107 -77c0 -42 34 -58 65 -78l87 -55c61 -39 109 -65 109 -146zM878 139c0 -91 -73 -149 -187 -149c-37 0 -84 8 -162 26v129h37l39 -104c33 -7 45 -9 68 -9c69 0 106 34 106 90c0 36 -14 53 -68 87l-81 51c-55 34 -96 64 -96 134c0 87 67 143 171 143
c52 0 103 -9 152 -18v-130h-36l-40 103c-28 4 -40 3 -57 3c-70 0 -107 -30 -107 -77c0 -42 34 -58 65 -78l87 -55c61 -39 109 -65 109 -146z" />
    <glyph glyph-name="ae.smcp" horiz-adv-x="728" 
d="M683 136l-12 -136h-402v29l71 31v179h-127l-87 -179l59 -31v-29h-200v29l70 31l249 466h364v-126h-32l-38 84h-169v-203h138l28 68h32v-178h-32l-28 68h-138v-192h172l50 89h32zM340 281v212h-5l-103 -212h108z" />
    <glyph glyph-name="oe.smcp" horiz-adv-x="776" 
d="M731 136l-12 -136h-353c-30 -4 -47 -5 -74 -5c-197 0 -247 155 -247 265c0 163 106 274 275 274c29 0 39 -2 68 -8h328v-126h-32l-38 84h-169v-195h138l28 68h32v-178h-32l-28 68h-138v-200h172l50 89h32zM383 44v427c-21 16 -46 24 -78 24c-166 0 -156 -214 -156 -224
c0 -141 44 -239 157 -239c22 0 38 0 77 12z" />
    <glyph glyph-name="ydieresis.smcp" horiz-adv-x="526" 
d="M526 497l-64 -26l-151 -211v-200l87 -31v-29h-268v29l87 31v180l-150 231l-67 26v27h229v-28l-55 -26l113 -174l109 174l-53 26v28h183v-27zM422 656c0 -34 -17 -52 -50 -52c-32 0 -49 17 -49 47c0 35 16 52 48 52c33 0 51 -17 51 -47zM240 653c0 -32 -17 -49 -50 -49
s-49 15 -49 46c0 34 17 53 49 53s50 -18 50 -50z" />
    <glyph glyph-name="fi.smcp" horiz-adv-x="828" 
d="M440 405h-33l-34 79h-152v-195h121l29 68h32v-178h-32l-29 68h-121v-187l95 -31v-29h-271v29l82 31v407l-82 30v29h395v-121zM788 0h-258v29l82 31v406l-82 31v29h258v-29l-82 -31v-406l82 -31v-29z" />
    <glyph glyph-name="fl.smcp" horiz-adv-x="937" 
d="M440 405h-33l-34 79h-152v-195h121l29 68h32v-178h-32l-29 68h-121v-187l95 -31v-29h-271v29l82 31v407l-82 30v29h395v-121zM927 146l-13 -146h-384v29l82 31v406l-82 31v29h266v-29l-90 -31v-419h137l52 99h32z" />
    <glyph glyph-name="f_j.smcp" horiz-adv-x="780" 
d="M440 405h-33l-34 79h-152v-195h121l29 68h32v-178h-32l-29 68h-121v-187l95 -31v-29h-271v29l82 31v407l-82 30v29h395v-121zM736 526v-29l-82 -31v-474c0 -79 -18 -124 -68 -169c-41 -37 -84 -52 -143 -52c-24 0 -51 2 -70 5v99h66l33 -65c64 17 88 56 88 141v515
l-82 31v29h258z" />
    </font>
</defs>
</svg>
